ply
format ascii 1.0
element vertex 1592
property float x
property float y
property float z
element face 3360
property list uchar int vertex_indices
end_header
-0.034099 -0.014692 0.007714
-0.034272 -0.014904 0.008693
-0.034281 -0.014921 0.038000
-0.033895 -0.013267 0.006579
-0.034503 -0.013524 0.007406
-0.035013 -0.013505 0.008709
-0.035033 -0.013495 0.038000
-0.034344 -0.013269 0.040638
-0.033970 -0.012574 0.006537
-0.034728 -0.012504 0.007433
-0.035185 -0.012507 0.008756
-0.035197 -0.012509 0.038000
-0.035199 -0.011525 0.039690
-0.035076 -0.012152 0.040031
-0.034703 -0.011827 0.042548
-0.034035 -0.012507 0.042864
-0.034154 -0.011594 0.044722
-0.035200 -0.010795 0.040971
-0.035141 -0.010818 0.042081
-0.035175 -0.009799 0.044175
-0.034865 -0.010669 0.044472
-0.034036 -0.010299 0.046362
-0.035196 -0.009534 0.044103
-0.034830 -0.009416 0.045122
-0.034404 -0.009445 0.046189
-0.035200 -0.005275 0.044106
-0.035200 -0.003964 0.021482
-0.035200 -0.004466 0.022445
-0.035200 -0.004839 0.023942
-0.035200 -0.004726 0.025427
-0.035200 -0.004187 0.026843
-0.035200 -0.002368 0.020020
-0.035200 -0.003230 0.020681
-0.035200 -0.003698 0.027564
-0.035200 -0.002890 0.028305
-0.035200 -0.001574 0.019663
-0.035200 -0.001574 0.029037
-0.035200 -0.000750 0.039106
-0.035200 -0.000096 0.019378
-0.035200 -0.000105 0.029320
-0.035200 -0.000036 0.038940
-0.035200 0.000003 0.039817
-0.035200 0.001628 0.019604
-0.035200 0.001812 0.029045
-0.035200 0.001000 0.029274
-0.035200 0.000750 0.039106
-0.035200 0.002632 0.020020
-0.035200 0.003338 0.020529
-0.035200 0.003185 0.028278
-0.035200 0.004095 0.021309
-0.035200 0.004729 0.022445
-0.035200 0.005100 0.023915
-0.035200 0.004958 0.025553
-0.035200 0.004425 0.026860
-0.035197 0.009485 0.044113
-0.034830 0.009416 0.045122
-0.034363 0.009289 0.046330
-0.035200 0.010760 0.041042
-0.035143 0.010835 0.042089
-0.035166 0.009856 0.044196
-0.034882 0.010638 0.044463
-0.034065 0.010244 0.046353
-0.033972 0.012518 0.006535
-0.034787 0.012542 0.007545
-0.035184 0.012513 0.008759
-0.035198 0.012486 0.038027
-0.035196 0.011610 0.039736
-0.035045 0.012244 0.040081
-0.034730 0.011786 0.042530
-0.034080 0.012477 0.042850
-0.034139 0.011607 0.044725
-0.033905 0.013185 0.006569
-0.034488 0.013588 0.007416
-0.035010 0.013524 0.008696
-0.035049 0.013449 0.038000
-0.034329 0.013292 0.040651
-0.034100 0.014670 0.007689
-0.034286 0.014889 0.008673
-0.034320 0.014869 0.038000
-0.032507 -0.015799 0.008111
-0.032688 -0.015871 0.008670
-0.032760 -0.015878 0.038000
-0.032794 -0.014559 0.006564
-0.033058 -0.015206 0.007385
-0.033427 -0.015608 0.008638
-0.033465 -0.015620 0.038000
-0.032970 -0.013501 0.006214
-0.033006 -0.013984 0.041027
-0.032752 -0.013525 0.042077
-0.033032 -0.012949 0.043068
-0.033001 -0.012558 0.006095
-0.032855 -0.012541 0.044138
-0.032883 -0.012204 0.044880
-0.032692 -0.011553 0.046322
-0.033506 -0.010983 0.046414
-0.032652 -0.010645 0.048065
-0.032339 -0.009914 0.049814
-0.032857 -0.009078 0.049796
-0.033523 -0.008239 0.048714
-0.033156 -0.008226 0.049695
-0.033490 -0.000750 0.048805
-0.033661 0.000033 0.048335
-0.033316 -0.000004 0.049282
-0.033490 0.000750 0.048805
-0.033112 0.008058 0.049832
-0.032867 0.009060 0.049796
-0.033460 0.011029 0.046414
-0.032669 0.010633 0.048068
-0.032335 0.009919 0.049814
-0.033002 0.012567 0.006093
-0.032857 0.012606 0.043933
-0.032973 0.012186 0.044859
-0.032733 0.011532 0.046329
-0.032947 0.013501 0.006205
-0.033712 0.014155 0.006757
-0.033018 0.013977 0.041023
-0.032565 0.013555 0.042092
-0.032961 0.012969 0.043078
-0.032778 0.014565 0.006563
-0.033060 0.015205 0.007385
-0.033448 0.015596 0.008628
-0.033511 0.015596 0.038000
-0.032501 0.015800 0.008110
-0.032701 0.015870 0.008694
-0.032745 0.015881 0.038000
-0.032173 -0.015817 0.008075
-0.032190 -0.015929 0.008622
-0.032200 -0.015954 0.038000
-0.032157 -0.014628 0.006475
-0.032160 -0.015377 0.007238
-0.032129 -0.013424 0.006025
-0.032200 -0.014110 0.041095
-0.032200 -0.013660 0.041951
-0.032200 -0.013085 0.043132
-0.032215 -0.012561 0.005950
-0.032129 -0.012327 0.044895
-0.031820 -0.011833 0.046174
-0.031274 -0.011315 0.047761
-0.031882 -0.011129 0.047927
-0.031539 -0.010504 0.049669
-0.031251 -0.008889 0.053328
-0.031955 -0.007278 0.053022
-0.031775 -0.007810 0.053323
-0.031780 -0.005275 0.053503
-0.031771 0.007476 0.053438
-0.031251 0.008889 0.053328
-0.031890 0.011125 0.047929
-0.031540 0.010504 0.049669
-0.032216 0.012560 0.005950
-0.032113 0.012264 0.045051
-0.031897 0.011841 0.046136
-0.031248 0.011320 0.047753
-0.032127 0.013393 0.006019
-0.032200 0.014110 0.041095
-0.032200 0.012964 0.043396
-0.032156 0.014620 0.006469
-0.032157 0.015362 0.007209
-0.032200 0.014287 0.040773
-0.032172 0.015810 0.008053
-0.032191 0.015932 0.008664
-0.032200 0.015954 0.038000
-0.030457 -0.010926 0.049267
-0.029797 -0.010013 0.053002
-0.030553 -0.009637 0.053209
-0.030070 -0.000750 0.058202
-0.030293 0.000004 0.057587
-0.029966 0.000004 0.058486
-0.030070 0.000750 0.058202
-0.030547 0.009641 0.053208
-0.030726 0.011150 0.048415
-0.030474 0.010895 0.049378
-0.029806 0.010009 0.053005
-0.027892 -0.010723 0.050133
-0.028089 -0.010559 0.050878
-0.029215 -0.010260 0.052369
-0.028428 -0.009477 0.056499
-0.028088 -0.008522 0.060364
-0.028852 -0.007523 0.060532
-0.029197 -0.006497 0.060544
-0.029055 -0.006158 0.060990
-0.028360 -0.005344 0.062900
-0.029202 0.006442 0.060540
-0.028912 0.006117 0.061382
-0.028360 0.005964 0.062898
-0.028852 0.007523 0.060532
-0.028428 0.009477 0.056499
-0.028096 0.008516 0.060366
-0.027895 0.010722 0.050135
-0.028089 0.010559 0.050878
-0.029097 0.010201 0.052683
-0.027333 -0.010742 0.050046
-0.027293 -0.010447 0.051409
-0.027731 -0.009631 0.056267
-0.026746 -0.009295 0.058910
-0.027116 -0.009039 0.060067
-0.026445 -0.006258 0.067848
-0.026649 -0.000750 0.067599
-0.026690 -0.000005 0.067487
-0.026399 0.000000 0.068286
-0.026649 0.000750 0.067599
-0.026445 0.006258 0.067848
-0.027731 0.009631 0.056267
-0.026837 0.009132 0.059784
-0.027336 0.010742 0.050046
-0.027292 0.010447 0.051409
-0.025155 -0.015810 0.008042
-0.025193 -0.015934 0.008680
-0.025197 -0.015954 0.035059
-0.025028 -0.015954 0.035698
-0.024821 -0.014737 0.006540
-0.025034 -0.015420 0.007277
-0.024781 -0.009156 0.060146
-0.024773 -0.008293 0.067398
-0.025630 -0.007624 0.067657
-0.024984 -0.005220 0.072175
-0.024937 0.005211 0.072303
-0.025630 0.007624 0.067657
-0.025102 0.009146 0.060245
-0.024773 0.008293 0.067398
-0.024481 -0.015954 0.036497
-0.023641 -0.015954 0.037116
-0.024734 -0.014458 0.006354
-0.024465 -0.013593 0.006053
-0.024256 -0.009193 0.059815
-0.024003 -0.009082 0.060842
-0.024367 -0.008665 0.065347
-0.024123 -0.008471 0.067175
-0.023252 -0.006867 0.075055
-0.023678 -0.005989 0.075151
-0.023857 -0.005008 0.075270
-0.023403 0.000005 0.076518
-0.023896 0.005015 0.075164
-0.023678 0.005989 0.075151
-0.023252 0.006867 0.075055
-0.024263 0.009193 0.059817
-0.024014 0.009082 0.060842
-0.023984 0.008492 0.067126
-0.023834 0.013590 0.006051
-0.024161 0.014641 0.006478
-0.024399 0.015396 0.007253
-0.024648 0.015822 0.008077
-0.024602 0.015932 0.008671
-0.024567 0.015954 0.035059
-0.024173 0.015954 0.036029
-0.024247 0.015954 0.037720
-0.022548 -0.015954 0.037591
-0.022972 -0.009157 0.060139
-0.022503 -0.008277 0.070431
-0.022530 -0.007492 0.074835
-0.023229 -0.000750 0.076995
-0.023174 0.000000 0.077147
-0.023024 -0.000010 0.077559
-0.023229 0.000750 0.076995
-0.022530 0.007492 0.074835
-0.022972 0.009157 0.060139
-0.022457 0.015954 0.037382
-0.021049 -0.015954 0.037915
-0.020960 -0.008376 0.069060
-0.020861 -0.008298 0.070143
-0.021266 -0.007987 0.074408
-0.020753 -0.006014 0.082439
-0.021517 -0.004559 0.081699
-0.021181 -0.004944 0.082513
-0.021518 0.004559 0.081698
-0.021181 0.004944 0.082513
-0.020753 0.006014 0.082439
-0.021504 0.008088 0.073168
-0.021123 0.007960 0.074806
-0.020967 0.008376 0.069061
-0.020862 0.008298 0.070141
-0.021085 0.015954 0.037812
-0.019910 -0.015954 0.038000
-0.020035 -0.008376 0.069068
-0.020171 -0.008299 0.070132
-0.019493 -0.007183 0.082070
-0.019809 -0.000750 0.086392
-0.019999 0.000007 0.085871
-0.019654 -0.000004 0.086818
-0.019809 0.000750 0.086392
-0.019403 0.004068 0.087507
-0.019493 0.007183 0.082070
-0.020066 0.008378 0.069038
-0.020171 0.008299 0.070131
-0.019455 0.016489 0.005976
-0.019686 0.015954 0.037983
-0.019155 0.018118 0.006287
-0.019397 0.018507 0.006881
-0.019040 0.018758 0.006626
-0.019248 0.018953 0.007192
-0.017646 -0.007732 0.078387
-0.017726 -0.007665 0.079334
-0.018430 -0.007489 0.081707
-0.018660 -0.007471 0.081789
-0.017740 -0.005808 0.089738
-0.018474 -0.004446 0.089767
-0.018097 -0.003674 0.091096
-0.018096 0.003674 0.091100
-0.018436 0.004500 0.089844
-0.017740 0.005808 0.089738
-0.017650 0.007731 0.078392
-0.017727 0.007665 0.079333
-0.018430 0.007488 0.081707
-0.018660 0.007471 0.081789
-0.018174 0.016575 0.004668
-0.018678 0.017101 0.005273
-0.017776 0.018044 0.004590
-0.018505 0.018272 0.005582
-0.015902 -0.015945 0.038000
-0.015866 -0.014289 0.040749
-0.015924 -0.013365 0.042533
-0.015897 -0.012409 0.044666
-0.015892 -0.011872 0.046066
-0.016942 -0.007741 0.078256
-0.016902 -0.007647 0.079579
-0.017030 -0.007171 0.085528
-0.016594 -0.007056 0.086746
-0.015921 -0.006793 0.089188
-0.016122 -0.006765 0.089258
-0.016700 -0.006572 0.089447
-0.016149 -0.005582 0.093402
-0.016676 -0.004721 0.005950
-0.016916 -0.004519 0.093521
-0.017206 -0.003653 0.093496
-0.016376 -0.002953 0.095825
-0.015860 -0.003064 0.097138
-0.016389 -0.000750 0.095789
-0.016623 0.000000 0.095147
-0.016313 -0.000002 0.095998
-0.016389 0.000750 0.095789
-0.017206 0.003653 0.093496
-0.016536 0.003034 0.095385
-0.015839 0.003191 0.097158
-0.016676 0.004285 0.005950
-0.016916 0.004519 0.093521
-0.016700 0.006572 0.089447
-0.016149 0.005582 0.093402
-0.016946 0.007741 0.078254
-0.016922 0.007647 0.079576
-0.015997 0.006869 0.088537
-0.016122 0.006765 0.089258
-0.015877 0.012378 0.044732
-0.015874 0.011870 0.046066
-0.015866 0.013497 0.042256
-0.015873 0.012835 0.043656
-0.015886 0.014291 0.040745
-0.016549 0.016594 0.003010
-0.015885 0.015942 0.038000
-0.016622 0.018161 0.003244
-0.017159 0.018246 0.003915
-0.014582 -0.021841 0.006572
-0.014797 -0.022585 0.007500
-0.014988 -0.022947 0.008673
-0.014663 -0.023173 0.033161
-0.015356 -0.022731 0.034810
-0.015498 -0.022323 0.036104
-0.015364 -0.021864 0.036938
-0.014371 -0.021536 0.006331
-0.015107 -0.021037 0.037566
-0.014714 -0.019775 0.037985
-0.015000 -0.017418 0.017350
-0.015000 -0.017418 0.031350
-0.015000 -0.016218 0.011950
-0.015000 -0.016218 0.017350
-0.015000 -0.016218 0.031350
-0.015000 -0.016218 0.036700
-0.015580 -0.015840 0.038000
-0.015120 -0.015209 0.038000
-0.015699 -0.014264 0.040720
-0.015217 -0.013867 0.040523
-0.015373 -0.013043 0.042595
-0.015027 -0.012566 0.042366
-0.015000 -0.011947 0.043220
-0.015275 -0.012002 0.044579
-0.015055 -0.011642 0.046084
-0.014281 -0.011342 0.047735
-0.015017 -0.010948 0.046066
-0.014296 -0.010869 0.049529
-0.014300 -0.010306 0.052125
-0.014300 -0.009232 0.059457
-0.014286 -0.008634 0.065720
-0.014580 -0.006884 0.088425
-0.015112 -0.006160 0.093123
-0.014321 -0.005911 0.094966
-0.015000 -0.003964 0.021482
-0.015000 -0.004466 0.022445
-0.015000 -0.004837 0.023915
-0.015000 -0.004726 0.025427
-0.015000 -0.004187 0.026843
-0.015052 -0.004591 0.097176
-0.014506 -0.004042 0.099083
-0.015000 -0.002368 0.020020
-0.015000 -0.003230 0.020681
-0.015000 -0.003698 0.027564
-0.015000 -0.002906 0.028292
-0.015699 -0.003652 0.097208
-0.015084 -0.002876 0.098918
-0.014370 -0.002593 0.100868
-0.015000 -0.001574 0.019663
-0.015000 -0.001574 0.029036
-0.015000 -0.000750 0.039106
-0.015000 -0.000750 0.042075
-0.014900 -0.000750 0.090375
-0.014678 -0.001969 0.100454
-0.014371 -0.001423 0.101334
-0.015000 -0.000075 0.019377
-0.015000 -0.000116 0.029319
-0.015000 0.000004 0.038953
-0.015000 -0.000005 0.039826
-0.015000 0.000013 0.041847
-0.015000 0.000000 0.042834
-0.014900 -0.000000 0.090118
-0.014900 0.000000 0.090985
-0.015000 0.001628 0.019604
-0.015000 0.001838 0.029036
-0.015000 0.001000 0.029274
-0.015000 0.000750 0.039106
-0.015000 0.000750 0.042075
-0.014900 0.000750 0.090375
-0.014656 0.001906 0.100521
-0.014331 0.001375 0.101444
-0.015000 0.002632 0.020020
-0.015000 0.003338 0.020529
-0.015000 0.003161 0.028298
-0.015699 0.003652 0.097208
-0.015126 0.002937 0.098804
-0.014395 0.002539 0.100857
-0.015000 0.004095 0.021309
-0.015000 0.004729 0.022445
-0.015000 0.005102 0.023942
-0.015000 0.004990 0.025427
-0.015000 0.004329 0.027023
-0.015023 0.004621 0.097172
-0.014506 0.004042 0.099083
-0.014872 0.006215 0.093033
-0.014321 0.005911 0.094966
-0.014434 0.006894 0.088327
-0.014300 0.009244 0.059353
-0.014300 0.008634 0.065720
-0.015020 0.010972 0.046066
-0.014300 0.011157 0.048391
-0.014300 0.010722 0.050136
-0.014300 0.010287 0.052222
-0.014300 0.010019 0.053725
-0.015022 0.012523 0.042346
-0.015000 0.011606 0.044012
-0.015244 0.011951 0.044582
-0.015125 0.011637 0.046066
-0.014300 0.011342 0.047735
-0.015226 0.013888 0.040510
-0.015349 0.013034 0.042535
-0.015124 0.015210 0.038000
-0.015692 0.014262 0.040719
-0.015000 0.015782 0.011950
-0.015000 0.015782 0.036700
-0.015598 0.015849 0.038000
-0.014501 0.017982 0.013581
-0.014487 0.017982 0.014692
-0.014334 0.017982 0.033604
-0.014543 0.017982 0.034431
-0.014410 0.017982 0.035439
-0.014777 0.019528 0.037949
-0.014450 0.021208 0.005453
-0.015449 0.021687 0.036578
-0.015246 0.021035 0.037275
-0.014956 0.022554 0.008197
-0.014500 0.022828 0.013600
-0.014475 0.022842 0.014728
-0.014617 0.022719 0.033228
-0.014782 0.022358 0.034573
-0.015294 0.022027 0.035759
-0.013571 -0.023440 0.007857
-0.013462 -0.023698 0.008772
-0.012905 -0.023909 0.030413
-0.013732 -0.023620 0.031494
-0.013427 -0.022183 0.006407
-0.013627 -0.022867 0.007019
-0.013564 -0.021022 0.006036
-0.013756 -0.011646 0.046066
-0.014058 -0.011308 0.047725
-0.013315 -0.010944 0.046066
-0.013495 -0.010842 0.047627
-0.013650 -0.010366 0.050055
-0.013944 -0.009933 0.053706
-0.013300 -0.009495 0.051076
-0.013414 -0.009430 0.053626
-0.013300 -0.008688 0.055797
-0.013680 -0.008892 0.059516
-0.013844 -0.008490 0.065720
-0.013300 -0.008228 0.059443
-0.013347 -0.007853 0.065720
-0.013788 -0.006968 0.087633
-0.013703 -0.006830 0.088912
-0.013951 -0.006042 0.094543
-0.013155 -0.005625 0.096710
-0.013789 -0.005473 0.096908
-0.013488 -0.004816 0.098925
-0.013262 -0.004239 0.100395
-0.012916 -0.003082 0.011950
-0.013945 -0.003275 0.100965
-0.013248 -0.003177 0.102019
-0.012998 -0.002555 0.103040
-0.013192 -0.001372 0.011950
-0.013300 -0.000750 0.052098
-0.013300 -0.000750 0.062740
-0.013851 -0.001452 0.102531
-0.013168 -0.001539 0.103612
-0.012847 -0.000912 0.104363
-0.013243 -0.000218 0.011950
-0.013300 -0.000006 0.051424
-0.013300 -0.000038 0.052538
-0.013300 -0.000000 0.062034
-0.013300 0.000047 0.063096
-0.013868 -0.000678 0.102715
-0.013429 -0.000001 0.103719
-0.012951 0.000001 0.104414
-0.013117 0.001509 0.011950
-0.013300 0.000750 0.052098
-0.013300 0.000750 0.062740
-0.013856 0.001412 0.102528
-0.013143 0.001499 0.103671
-0.012849 0.000914 0.104359
-0.012791 0.003209 0.011950
-0.013920 0.003307 0.100968
-0.013283 0.003138 0.102005
-0.013005 0.002551 0.103037
-0.013464 0.004827 0.098919
-0.013094 0.004190 0.100642
-0.014004 0.005978 0.094862
-0.013200 0.005661 0.096537
-0.013797 0.005470 0.096910
-0.013300 0.008210 0.059602
-0.013300 0.007700 0.064888
-0.013347 0.007858 0.065720
-0.013810 0.006968 0.087632
-0.013694 0.006832 0.088893
-0.013300 0.009747 0.049913
-0.013300 0.009188 0.052669
-0.013393 0.009376 0.053617
-0.013660 0.008869 0.059515
-0.013861 0.008497 0.065720
-0.013317 0.010953 0.046066
-0.013479 0.010820 0.047622
-0.013664 0.010379 0.050058
-0.013918 0.009919 0.053708
-0.013758 0.011645 0.046066
-0.014058 0.011306 0.047725
-0.013323 0.015782 0.013567
-0.013261 0.015782 0.014756
-0.012945 0.015782 0.033669
-0.013473 0.015782 0.034484
-0.013057 0.015782 0.035467
-0.013422 0.017982 0.012332
-0.013410 0.017982 0.013481
-0.013464 0.017982 0.014952
-0.013208 0.017982 0.015983
-0.013374 0.017982 0.033137
-0.013472 0.017982 0.034485
-0.013357 0.017982 0.035952
-0.013719 0.020146 0.002650
-0.013150 0.020479 0.002650
-0.013915 0.021547 0.005472
-0.013008 0.021705 0.036552
-0.013180 0.021896 0.005472
-0.013968 0.023089 0.008200
-0.013866 0.023132 0.012566
-0.014184 0.022990 0.012882
-0.014012 0.023068 0.015498
-0.013608 0.023240 0.015827
-0.013936 0.023102 0.031795
-0.013490 0.022812 0.032880
-0.013824 0.021904 0.036132
-0.013130 0.023403 0.008202
-0.013119 0.023406 0.012188
-0.013104 0.023411 0.016015
-0.012948 0.023462 0.030455
-0.013416 0.023311 0.031015
-0.011950 -0.023727 0.007588
-0.011845 -0.024107 0.008719
-0.011955 -0.024111 0.029662
-0.011934 -0.022444 0.006310
-0.012044 -0.023156 0.006794
-0.012115 -0.021329 0.005976
-0.012272 -0.008534 0.065720
-0.012600 -0.008277 0.070441
-0.011468 -0.006840 0.011950
-0.011653 -0.007867 0.065720
-0.011600 -0.007247 0.070830
-0.011898 -0.007463 0.075550
-0.012219 -0.007057 0.085375
-0.012711 -0.006894 0.088330
-0.012002 -0.005815 0.011950
-0.011639 -0.006383 0.085375
-0.012690 -0.005346 0.097908
-0.012444 -0.004747 0.011950
-0.012465 -0.004983 0.099194
-0.012259 -0.004463 0.100648
-0.011859 -0.003973 0.101841
-0.012354 -0.003553 0.102341
-0.011917 -0.002828 0.103519
-0.011343 -0.002267 0.104358
-0.011600 -0.000750 0.072763
-0.011600 -0.000750 0.083405
-0.012462 -0.001953 0.104072
-0.011943 -0.001366 0.104713
-0.011600 -0.000002 0.072185
-0.011600 -0.000042 0.073335
-0.011600 0.000044 0.082788
-0.011600 0.000004 0.083934
-0.012053 0.000001 0.105014
-0.011600 0.000750 0.072763
-0.011600 0.000750 0.083405
-0.012462 0.001960 0.104065
-0.011932 0.001373 0.104714
-0.012265 0.003569 0.102349
-0.011895 0.002844 0.103511
-0.011343 0.002267 0.104358
-0.012444 0.004311 0.011950
-0.012418 0.004955 0.099287
-0.012310 0.004473 0.100607
-0.011887 0.003976 0.101825
-0.011735 0.005891 0.011950
-0.011600 0.006595 0.080268
-0.011635 0.006374 0.085375
-0.011647 0.007846 0.065720
-0.012600 0.008088 0.073166
-0.011886 0.007443 0.075550
-0.012224 0.007055 0.085375
-0.012711 0.006894 0.088330
-0.012299 0.008540 0.065720
-0.012287 0.015782 0.013188
-0.012283 0.015782 0.015007
-0.012395 0.015782 0.033641
-0.011970 0.015782 0.033825
-0.012270 0.015782 0.035502
-0.011949 0.017982 0.012262
-0.012273 0.017982 0.013195
-0.012127 0.017982 0.015132
-0.012106 0.017982 0.016007
-0.012149 0.017982 0.033143
-0.011963 0.017982 0.033832
-0.012116 0.017982 0.035963
-0.011909 0.020921 0.002650
-0.012324 0.021698 0.036563
-0.011979 0.022239 0.005472
-0.012022 0.022850 0.032737
-0.011598 0.021830 0.036320
-0.011923 0.023637 0.008118
-0.011473 0.023745 0.008486
-0.011907 0.023681 0.012279
-0.011366 0.023755 0.015671
-0.012094 0.023654 0.016003
-0.011939 0.023677 0.029650
-0.010710 -0.023773 0.007473
-0.010710 -0.024206 0.008778
-0.010018 -0.024218 0.012525
-0.010645 -0.024218 0.013456
-0.010513 -0.024218 0.014997
-0.009808 -0.024218 0.015827
-0.010800 -0.024216 0.029268
-0.009808 -0.023250 0.032872
-0.010826 -0.022440 0.006251
-0.010179 -0.023166 0.033185
-0.010746 -0.022823 0.034469
-0.010247 -0.022418 0.035913
-0.010901 -0.021448 0.005965
-0.010018 -0.018418 0.012525
-0.010332 -0.018418 0.013642
-0.010371 -0.018418 0.014938
-0.009808 -0.018418 0.015827
-0.010183 -0.018418 0.033198
-0.010324 -0.018418 0.034505
-0.010295 -0.018418 0.035855
-0.009789 -0.016218 0.014020
-0.009776 -0.016218 0.014315
-0.009785 -0.016218 0.034600
-0.010144 -0.008730 0.011950
-0.010848 -0.007814 0.011950
-0.010524 -0.007057 0.085375
-0.010900 -0.007055 0.086757
-0.009945 -0.006408 0.085375
-0.009900 -0.005926 0.087986
-0.010278 -0.006274 0.090427
-0.010408 -0.005772 0.094806
-0.010393 -0.005674 0.095375
-0.011123 -0.004721 0.000950
-0.011123 -0.004721 0.005950
-0.010363 -0.004551 0.009950
-0.009912 -0.005130 0.094786
-0.009922 -0.005046 0.095375
-0.011123 -0.003243 0.000950
-0.010860 -0.003128 0.009950
-0.011088 -0.002935 0.103644
-0.011055 -0.002340 0.104329
-0.011141 -0.001647 0.009950
-0.009900 -0.000750 0.090375
-0.010751 -0.000750 0.093737
-0.010975 -0.001445 0.104941
-0.011243 -0.000218 0.009950
-0.009900 -0.000003 0.090040
-0.009900 0.000004 0.090985
-0.010870 0.000000 0.093410
-0.010583 0.000000 0.094198
-0.011011 0.000003 0.105324
-0.011141 0.001210 0.009950
-0.009900 0.000750 0.090375
-0.010751 0.000750 0.093737
-0.010973 0.001429 0.104950
-0.010723 0.003123 0.009950
-0.011091 0.002903 0.103689
-0.011030 0.002346 0.104325
-0.011123 0.004285 0.000950
-0.011123 0.004285 0.005950
-0.010189 0.004533 0.009950
-0.009915 0.005143 0.094789
-0.009917 0.005018 0.095375
-0.009943 0.006397 0.085375
-0.010218 0.006228 0.090424
-0.010445 0.005900 0.092625
-0.010333 0.005728 0.094897
-0.010367 0.005650 0.095375
-0.010848 0.007377 0.011950
-0.010543 0.007062 0.085375
-0.010900 0.006939 0.087911
-0.010144 0.008294 0.011950
-0.010714 0.015782 0.002650
-0.010714 0.015782 0.005950
-0.011171 0.015782 0.014100
-0.010000 0.015782 0.015150
-0.010000 0.015782 0.033550
-0.011171 0.015782 0.034600
-0.011201 0.017982 0.012671
-0.011171 0.017982 0.014100
-0.010764 0.017873 0.015391
-0.010655 0.017845 0.033343
-0.011171 0.017982 0.034600
-0.011201 0.017982 0.036029
-0.010785 0.021079 0.002650
-0.010714 0.021109 0.005983
-0.010754 0.022311 0.005977
-0.010714 0.023082 0.007036
-0.011201 0.022734 0.033171
-0.011139 0.021975 0.035968
-0.010871 0.023457 0.007599
-0.010831 0.023779 0.008878
-0.011201 0.023767 0.012671
-0.010714 0.023782 0.013148
-0.010930 0.023775 0.015264
-0.010892 0.023777 0.029277
-0.008983 -0.024218 0.012158
-0.008968 -0.024218 0.016042
-0.009068 -0.023304 0.032671
-0.008953 -0.022144 0.036547
-0.008983 -0.018418 0.012158
-0.009101 -0.018418 0.013286
-0.009101 -0.018418 0.014913
-0.008983 -0.018418 0.016041
-0.008885 -0.018418 0.033208
-0.009611 -0.018418 0.034424
-0.008956 -0.018418 0.035923
-0.009098 -0.016218 0.013285
-0.009096 -0.016218 0.014914
-0.008805 -0.016218 0.033651
-0.009611 -0.016218 0.034424
-0.008926 -0.016218 0.035514
-0.008512 -0.010363 0.011950
-0.009364 -0.009582 0.011950
-0.008612 -0.007445 0.009950
-0.009455 -0.006281 0.009950
-0.008629 -0.005828 0.095375
-0.008692 -0.005333 0.097819
-0.008322 -0.005190 0.097763
-0.008575 -0.004882 0.099296
-0.008602 -0.004490 0.100503
-0.008623 -0.004002 0.101728
-0.008524 -0.003552 0.102537
-0.008573 -0.002814 0.103676
-0.008900 -0.002365 0.104316
-0.008601 -0.001467 0.104852
-0.008586 0.000016 0.105261
-0.008604 0.001443 0.104868
-0.008542 0.003548 0.102560
-0.008576 0.002810 0.103685
-0.008900 0.002352 0.104329
-0.008314 0.005186 0.097762
-0.008599 0.004896 0.099273
-0.008575 0.004476 0.100528
-0.008621 0.003993 0.101748
-0.009455 0.005844 0.009950
-0.008654 0.005821 0.095453
-0.008649 0.005327 0.097797
-0.008612 0.007008 0.009950
-0.009364 0.009146 0.011950
-0.008512 0.009926 0.011950
-0.009741 0.017982 0.014100
-0.009741 0.017982 0.034600
-0.009741 0.022351 0.034600
-0.009741 0.023782 0.014100
-0.007767 -0.024218 0.012411
-0.007518 -0.024218 0.015628
-0.007983 -0.024218 0.015920
-0.008021 -0.023279 0.032763
-0.007572 -0.023208 0.033029
-0.007667 -0.022310 0.036205
-0.007800 -0.020718 0.022733
-0.007800 -0.020718 0.025966
-0.007744 -0.018418 0.012428
-0.007962 -0.018418 0.013528
-0.007869 -0.018418 0.015236
-0.007973 -0.018418 0.015915
-0.007800 -0.017418 0.022733
-0.007800 -0.017418 0.025966
-0.007771 -0.018418 0.032909
-0.007962 -0.018418 0.034028
-0.007884 -0.018418 0.035990
-0.007983 -0.016218 0.013507
-0.008167 -0.016218 0.014870
-0.007953 -0.016218 0.034035
-0.008171 -0.016218 0.035374
-0.007596 -0.011066 0.011950
-0.007227 -0.008831 0.009950
-0.007158 -0.007178 0.003950
-0.007380 -0.007448 0.009950
-0.007781 -0.006056 0.003950
-0.007781 -0.006052 0.009950
-0.008088 -0.005460 0.095375
-0.007847 -0.004529 0.003950
-0.007844 -0.004514 0.009950
-0.007915 -0.004991 0.095399
-0.008015 -0.004795 0.097665
-0.008007 -0.004375 0.099100
-0.008034 -0.004047 0.100361
-0.008142 -0.003862 0.101341
-0.007236 -0.003261 0.003950
-0.007243 -0.003269 0.009950
-0.007924 -0.003526 0.100886
-0.007998 -0.003132 0.102165
-0.008045 -0.002588 0.103253
-0.007961 -0.001715 0.103877
-0.008057 -0.001201 0.104535
-0.007900 0.000729 0.104239
-0.007999 0.000007 0.104692
-0.007956 0.001690 0.103874
-0.008062 0.001199 0.104541
-0.007375 0.003043 0.003950
-0.007384 0.003053 0.009950
-0.007918 0.003511 0.100842
-0.007997 0.003120 0.102168
-0.008052 0.002586 0.103272
-0.007916 0.004473 0.003950
-0.007914 0.004455 0.009950
-0.007922 0.005051 0.095375
-0.008008 0.004752 0.097693
-0.008014 0.004378 0.099144
-0.008044 0.004064 0.100367
-0.008135 0.003852 0.101337
-0.007630 0.005975 0.003950
-0.007633 0.005969 0.009950
-0.008094 0.005464 0.095375
-0.006983 0.006934 0.003950
-0.007385 0.007274 0.009950
-0.007227 0.008394 0.009950
-0.007596 0.010630 0.011950
-0.006863 0.021660 0.036620
-0.007319 0.021946 0.036030
-0.005941 -0.024218 0.014100
-0.005701 -0.024218 0.022940
-0.006486 -0.024218 0.023947
-0.006015 -0.024218 0.025458
-0.005941 -0.022787 0.034600
-0.005726 -0.020718 0.022959
-0.006489 -0.020718 0.023961
-0.006011 -0.020718 0.025463
-0.005941 -0.018418 0.014100
-0.005941 -0.018418 0.034600
-0.006253 -0.016218 0.036700
-0.005391 -0.016218 0.037952
-0.006109 -0.011953 0.011950
-0.005621 -0.009955 0.009950
-0.006449 -0.009428 0.009950
-0.006100 -0.007903 0.003950
-0.006103 -0.007900 0.009950
-0.006098 -0.006121 0.000950
-0.006094 -0.006122 0.003950
-0.006269 -0.004418 0.000950
-0.006265 -0.004413 0.003950
-0.005504 -0.003671 0.000950
-0.005952 -0.002924 0.003950
-0.006222 -0.002476 0.009950
-0.005489 -0.002217 0.003950
-0.005489 -0.002217 0.009950
-0.005983 0.001939 0.003950
-0.005983 0.001939 0.009950
-0.005798 0.003412 0.000950
-0.005896 0.003287 0.003950
-0.006681 0.002281 0.009950
-0.006466 0.004458 0.000950
-0.006467 0.004465 0.003950
-0.005993 0.005850 0.000950
-0.005987 0.005855 0.003950
-0.006100 0.007467 0.003950
-0.006100 0.007467 0.009950
-0.006062 0.009237 0.009950
-0.006109 0.011517 0.011950
-0.006253 0.015782 0.036700
-0.005287 0.015782 0.037666
-0.005409 0.018636 0.038000
-0.005564 0.019527 0.037948
-0.006207 0.020906 0.037376
-0.005355 0.023780 0.029265
-0.004471 -0.024218 0.022903
-0.003774 -0.024218 0.023321
-0.004433 -0.024218 0.025788
-0.005000 -0.020718 0.021117
-0.004471 -0.020718 0.022903
-0.003774 -0.020718 0.023321
-0.004412 -0.020718 0.025761
-0.005000 -0.020718 0.027583
-0.005000 -0.017418 0.021117
-0.005000 -0.017418 0.027583
-0.004269 -0.011433 0.000950
-0.004269 -0.011433 0.005950
-0.004529 -0.012662 0.011950
-0.004298 -0.010595 0.009950
-0.004269 -0.009261 0.000950
-0.004961 -0.006764 0.000950
-0.004710 -0.007663 0.003950
-0.004573 -0.008111 0.009950
-0.004332 -0.006580 0.000950
-0.004349 -0.006585 0.003950
-0.003993 -0.003895 0.000950
-0.003993 -0.003895 0.003950
-0.004762 -0.003610 0.000950
-0.004620 -0.003350 0.003950
-0.004026 -0.002316 0.009950
-0.004841 -0.002184 0.003950
-0.004841 -0.002184 0.009950
-0.004585 0.001787 0.003950
-0.004566 0.001793 0.009950
-0.004462 0.003279 0.000950
-0.004502 0.003270 0.003950
-0.004475 0.006185 0.000950
-0.004502 0.006194 0.003950
-0.004585 0.007676 0.003950
-0.004577 0.007674 0.009950
-0.004269 0.008825 0.000950
-0.004269 0.010997 0.000950
-0.004269 0.010997 0.005950
-0.004298 0.010159 0.009950
-0.004529 0.012226 0.011950
-0.004789 0.015782 0.033550
-0.004056 0.015782 0.034283
-0.004789 0.017682 0.033550
-0.004056 0.017682 0.034283
-0.004123 0.020824 0.005952
-0.003762 0.023238 0.029740
-0.004606 0.023622 0.029484
-0.003484 -0.024218 0.024022
-0.003561 -0.024218 0.025021
-0.003485 -0.020718 0.024021
-0.003561 -0.020718 0.025021
-0.002864 -0.013135 0.011950
-0.002932 -0.011846 0.000023
-0.002652 -0.011911 0.005950
-0.002733 -0.009837 -0.000050
-0.002733 -0.009837 0.000950
-0.002910 -0.011078 0.009950
-0.003290 -0.009658 0.000129
-0.003546 -0.009568 0.000950
-0.003252 -0.007613 0.003950
-0.003281 -0.007634 0.009950
-0.002663 -0.005168 0.000950
-0.002663 -0.005168 0.003950
-0.003280 -0.002702 0.003950
-0.003195 -0.002763 0.009950
-0.002485 -0.001242 0.000950
-0.002466 -0.001284 0.009950
-0.002653 -0.000101 0.000950
-0.002663 -0.000038 0.009950
-0.002395 0.001022 0.000950
-0.003590 0.002061 0.003950
-0.003089 0.001657 0.009950
-0.003039 0.002429 0.003950
-0.003059 0.002410 0.009950
-0.002663 0.004732 0.000950
-0.002663 0.004732 0.003950
-0.003280 0.007198 0.003950
-0.003259 0.007182 0.009950
-0.003146 0.009267 0.000097
-0.003109 0.009277 0.000950
-0.002910 0.010641 0.009950
-0.002873 0.011425 -0.000001
-0.002834 0.011431 0.005950
-0.003427 0.012573 0.011950
-0.002300 0.012823 0.011950
-0.003501 0.021447 0.006027
-0.002522 0.021233 0.029927
-0.002779 0.022169 0.006305
-0.003054 0.022448 0.029894
-0.002200 -0.020718 0.022733
-0.002200 -0.020718 0.025966
-0.002200 -0.017418 0.022733
-0.002200 -0.017418 0.025966
-0.001154 -0.013410 0.011950
-0.001267 -0.012151 -0.000050
-0.001267 -0.012151 0.005950
-0.001429 -0.011359 0.009950
-0.001477 -0.010099 -0.000050
-0.001509 -0.010094 0.000950
-0.001351 -0.002533 0.000950
-0.001343 -0.002537 0.009950
-0.002068 -0.001943 0.000950
-0.002060 -0.001954 0.009950
-0.001745 0.001791 0.000950
-0.001725 0.001803 0.009950
-0.000937 0.002314 0.000950
-0.000937 0.002314 0.009950
-0.001477 0.009663 -0.000050
-0.001509 0.009658 0.000950
-0.001429 0.010923 0.009950
-0.001267 0.011715 -0.000050
-0.001267 0.011715 0.005950
-0.001154 0.012974 0.011950
-0.002236 0.022712 0.006653
-0.001860 0.023087 0.007040
-0.001430 0.023517 0.007755
-0.001192 0.023756 0.008633
-0.001166 0.023782 0.011950
0.000068 -0.022264 0.036286
0.000508 -0.021909 0.036881
0.000300 -0.020718 0.022733
0.000300 -0.020718 0.025966
0.000705 -0.021689 0.037127
0.000300 -0.017418 0.022733
0.000300 -0.017418 0.025966
-0.000000 -0.013461 0.011950
-0.000238 -0.012216 -0.000050
-0.000238 -0.012216 0.005950
0.000469 -0.011447 0.009950
0.000197 -0.010207 -0.000050
0.000312 -0.010209 0.000950
-0.000662 -0.005168 0.003950
-0.000662 -0.005168 0.009950
0.000187 -0.003061 0.000950
0.000106 -0.002870 0.009950
0.000090 0.002446 0.000950
0.000152 0.002432 0.009950
-0.000662 0.004732 0.003950
-0.000662 0.004732 0.009950
0.000263 0.009769 -0.000050
0.000279 0.009774 0.000950
0.000483 0.011011 0.009950
-0.000238 0.011779 -0.000050
-0.000238 0.011779 0.005950
-0.000000 0.013024 0.011950
0.002074 -0.024218 0.023127
0.001615 -0.024218 0.023944
0.001820 -0.024218 0.025239
0.001182 -0.023339 0.032540
0.001173 -0.023011 0.033601
0.001910 -0.022685 0.033853
0.002074 -0.020718 0.023127
0.001611 -0.020718 0.023961
0.001822 -0.020718 0.025244
0.001173 -0.020921 0.037648
0.001600 -0.019662 0.037985
0.001673 -0.016218 0.038000
0.001154 -0.013410 0.011950
0.001306 -0.012136 -0.000050
0.001260 -0.012141 0.005950
0.001510 -0.011348 0.009950
0.001509 -0.010104 -0.000050
0.001509 -0.010104 0.000950
0.002073 -0.005935 0.003950
0.002081 -0.005963 0.009950
0.002052 -0.004529 0.003950
0.002063 -0.004490 0.009950
0.001318 -0.002551 0.000950
0.001223 -0.002601 0.009950
0.001889 -0.002147 0.000950
0.001889 -0.002147 0.009950
0.001544 0.001969 0.000950
0.001552 0.001967 0.009950
0.000902 0.002327 0.000950
0.002179 0.003589 0.003950
0.001853 0.003232 0.009950
0.001984 0.004473 0.003950
0.001983 0.004493 0.009950
0.002101 0.005626 0.003950
0.002101 0.005626 0.009950
0.001509 0.009667 -0.000050
0.001509 0.009667 0.000950
0.001466 0.010918 0.009950
0.001306 0.011699 -0.000050
0.001353 0.011694 0.005950
0.001154 0.012974 0.011950
0.001545 0.023684 0.011950
0.002855 -0.024218 0.022828
0.002966 -0.024218 0.025884
0.002761 -0.024153 0.029385
0.002623 -0.022103 0.034025
0.003100 -0.020718 0.021117
0.002954 -0.020718 0.022819
0.002956 -0.020718 0.025882
0.003100 -0.020718 0.027583
0.003260 -0.021022 0.034029
0.003491 -0.020201 0.033915
0.003100 -0.017418 0.021117
0.003100 -0.017418 0.027583
0.003697 -0.017418 0.031350
0.003697 -0.016218 0.031350
0.002864 -0.013135 0.011950
0.002831 -0.011880 -0.000050
0.002831 -0.011880 0.005950
0.002349 -0.009938 -0.000050
0.002349 -0.009938 0.000950
0.002910 -0.011078 0.009950
0.003173 -0.009702 -0.000050
0.003173 -0.009702 0.000950
0.003042 -0.007424 0.003950
0.003069 -0.007446 0.009950
0.003497 -0.005758 0.000950
0.003372 -0.005865 0.003950
0.002348 -0.006662 0.009950
0.003483 -0.004637 0.000950
0.003483 -0.004637 0.003950
0.002955 -0.003007 0.003950
0.002936 -0.003022 0.009950
0.003553 0.002080 0.003950
0.003542 0.002085 0.009950
0.003721 0.003707 0.000950
0.002893 0.002873 0.003950
0.002742 0.002748 0.009950
0.003441 0.004429 0.000950
0.003433 0.004465 0.003950
0.003573 0.005522 0.000950
0.003168 0.005867 0.003950
0.002494 0.006441 0.009950
0.003232 0.007163 0.003950
0.003254 0.007180 0.009950
0.002761 0.009384 -0.000050
0.002729 0.009393 0.000950
0.002910 0.010641 0.009950
0.002831 0.011443 -0.000050
0.002831 0.011443 0.005950
0.003427 0.012573 0.011950
0.002300 0.012823 0.011950
0.002781 0.015782 0.014889
0.002744 0.017682 0.014915
0.003286 0.022703 0.011950
0.003605 0.024408 0.005950
0.003468 0.024255 0.011950
0.003654 0.024938 0.005950
0.003629 0.024940 0.011950
0.002834 0.027782 0.005950
0.002834 0.027782 0.011950
0.004011 -0.024218 0.023049
0.004587 -0.024218 0.023951
0.004354 -0.024218 0.025258
0.004129 -0.023546 0.029939
0.004904 -0.022492 0.030181
0.004002 -0.020718 0.023043
0.004589 -0.020718 0.023958
0.004296 -0.020718 0.025321
0.005215 -0.021616 0.030219
0.004373 -0.017418 0.032026
0.004373 -0.016218 0.032026
0.003822 -0.011593 -0.000050
0.003822 -0.011593 0.005950
0.004529 -0.012662 0.011950
0.004784 -0.011223 -0.000050
0.004784 -0.011223 0.005950
0.004333 -0.010581 0.009950
0.004358 -0.009209 -0.000050
0.004358 -0.009209 0.000950
0.004939 -0.006764 0.000950
0.004675 -0.007659 0.003950
0.004544 -0.008107 0.009950
0.004312 -0.006571 0.000950
0.004329 -0.006577 0.003950
0.003975 -0.003909 0.000950
0.003975 -0.003909 0.003950
0.004740 -0.003613 0.000950
0.004595 -0.003354 0.003950
0.004032 -0.002315 0.009950
0.004799 -0.002186 0.003950
0.004799 -0.002186 0.009950
0.003859 -0.000218 0.000950
0.003859 -0.000218 0.009950
0.004544 0.001792 0.003950
0.004544 0.001792 0.009950
0.004476 0.003277 0.000950
0.004482 0.003276 0.003950
0.004474 0.006186 0.000950
0.004482 0.006187 0.003950
0.004544 0.007671 0.003950
0.004540 0.007672 0.009950
0.004358 0.008772 -0.000050
0.004358 0.008772 0.000950
0.004303 0.010972 -0.000050
0.004259 0.010989 0.005950
0.004333 0.010144 0.009950
0.004529 0.012226 0.011950
0.004073 0.015782 0.011950
0.004023 0.021217 0.011950
0.003831 0.021922 0.011950
0.004039 0.023881 0.005950
0.004066 0.023854 0.011950
0.003788 0.025140 0.005950
0.003762 0.025140 0.011950
0.005061 0.026449 0.005950
0.005018 0.026431 0.011950
0.005061 0.027782 0.005950
0.005012 0.027782 0.011950
0.005900 -0.020718 0.022733
0.005900 -0.020718 0.025966
0.005258 -0.021279 0.030196
0.005900 -0.017418 0.022733
0.005900 -0.017418 0.025966
0.006109 -0.011953 0.011950
0.006154 -0.010507 -0.000050
0.006154 -0.010507 0.005950
0.005621 -0.009955 0.009950
0.005479 -0.008584 -0.000050
0.005479 -0.008584 0.000950
0.006449 -0.009428 0.009950
0.006175 -0.008084 -0.000050
0.006175 -0.008084 0.000950
0.006061 -0.007919 0.003950
0.006061 -0.007919 0.009950
0.005733 -0.006533 0.000950
0.005725 -0.006540 0.003950
0.005914 -0.003901 0.000950
0.005907 -0.003895 0.003950
0.005483 -0.003664 0.000950
0.005921 -0.002910 0.003950
0.006184 -0.002458 0.009950
0.005448 -0.002210 0.003950
0.005448 -0.002210 0.009950
0.005944 0.001925 0.003950
0.005935 0.001921 0.009950
0.005758 0.003383 0.000950
0.005840 0.003222 0.003950
0.006647 0.002258 0.009950
0.005748 0.006089 0.000950
0.005725 0.006104 0.003950
0.005827 0.007897 -0.000050
0.005827 0.007897 0.000950
0.006061 0.007483 0.003950
0.006064 0.007480 0.009950
0.006062 0.009237 0.009950
0.006154 0.010071 -0.000050
0.006154 0.010071 0.005950
0.006109 0.011517 0.011950
0.007740 -0.024198 0.019486
0.006752 -0.021218 0.027236
0.006752 -0.017418 0.027236
0.007596 -0.011066 0.011950
0.007824 -0.009302 -0.000050
0.007860 -0.009272 0.005950
0.007227 -0.008831 0.009950
0.007145 -0.007527 0.000124
0.007163 -0.007341 0.000950
0.006959 -0.007392 0.003950
0.007284 -0.007655 0.009950
0.008192 -0.006295 0.000950
0.007237 -0.005168 0.000950
0.007237 -0.005168 0.003950
0.006943 -0.002930 0.003950
0.006988 -0.002970 0.009950
0.006959 0.002508 0.003950
0.006974 0.002521 0.009950
0.007237 0.004732 0.000950
0.007237 0.004732 0.003950
0.007944 0.006165 0.000950
0.007261 0.007091 0.000187
0.006922 0.007091 0.000950
0.006943 0.006970 0.003950
0.007303 0.007202 0.009950
0.007824 0.008866 -0.000050
0.007788 0.008896 0.005950
0.007227 0.008394 0.009950
0.007596 0.010630 0.011950
0.008031 0.023809 0.005950
0.008033 0.023818 0.011950
0.007161 0.026449 0.005950
0.007135 0.026449 0.011950
0.007161 0.027782 0.005950
0.007135 0.027782 0.011950
0.008689 -0.023887 0.019999
0.009310 -0.023426 0.020334
0.009645 -0.023008 0.020516
0.008512 -0.010363 0.011950
0.009364 -0.009582 0.011950
0.008981 -0.007546 -0.000050
0.009246 -0.007850 0.005950
0.008612 -0.007445 0.009950
0.009530 -0.006102 -0.000050
0.008679 -0.005577 0.000950
0.009449 -0.006291 0.009950
0.009298 -0.004389 0.000950
0.009238 -0.005168 0.003950
0.009238 -0.005168 0.009950
0.009741 -0.003244 0.000950
0.009461 0.003593 0.000950
0.008910 0.004727 0.000950
0.009238 0.004732 0.003950
0.009238 0.004732 0.009950
0.009263 0.006060 -0.000050
0.009497 0.005779 0.009950
0.008977 0.007282 -0.000050
0.009246 0.007414 0.005950
0.008612 0.007008 0.009950
0.009364 0.009146 0.011950
0.008512 0.009926 0.011950
0.008534 0.024262 0.005950
0.008529 0.024292 0.011950
0.008541 0.024982 0.005950
0.008510 0.024995 0.011950
0.009981 -0.022287 0.020697
0.010128 -0.021543 0.020836
0.011158 -0.017418 0.017350
0.011158 -0.016218 0.017350
0.010144 -0.008730 0.011950
0.010848 -0.007814 0.011950
0.010284 -0.005845 -0.000050
0.010316 -0.006332 0.005950
0.010751 -0.004575 -0.000050
0.011113 -0.004746 0.005950
0.010360 -0.004558 0.009950
0.010818 -0.003079 -0.000050
0.009870 -0.002753 0.000950
0.010860 -0.003128 0.009950
0.011109 -0.001644 -0.000050
0.010117 -0.001517 0.000950
0.011136 -0.001684 0.009950
0.011190 -0.000218 -0.000050
0.010191 -0.000040 0.000950
0.011243 -0.000218 0.009950
0.011028 0.001677 -0.000050
0.010044 0.001508 0.000950
0.011136 0.001248 0.009950
0.010707 0.003068 -0.000050
0.009751 0.002775 0.000950
0.010699 0.003202 0.009950
0.010545 0.004589 -0.000050
0.010879 0.004821 0.005950
0.010189 0.004533 0.009950
0.010174 0.006144 -0.000050
0.010174 0.006144 0.005950
0.010848 0.007377 0.011950
0.010144 0.008294 0.011950
0.012114 -0.017418 0.017203
0.012114 -0.016218 0.017203
0.011468 -0.006840 0.011950
0.012002 -0.005815 0.011950
0.011461 -0.003775 -0.000050
0.011461 -0.003775 0.005950
0.012444 -0.004747 0.011950
0.011724 -0.002778 -0.000050
0.011724 -0.002778 0.005950
0.011900 -0.001762 -0.000050
0.011900 -0.001762 0.005950
0.011989 -0.000218 -0.000050
0.011989 -0.000265 0.005950
0.011900 0.001325 -0.000050
0.011900 0.001325 0.005950
0.011592 0.002840 -0.000050
0.011592 0.002840 0.005950
0.012444 0.004311 0.011950
0.011735 0.005891 0.011950
0.012149 0.021009 0.005970
0.012241 0.021107 0.011914
0.012265 0.022230 0.006349
0.012262 0.023074 0.007026
0.012245 0.022983 0.010967
0.012242 0.022127 0.011617
0.012258 0.023540 0.007807
0.012253 0.023747 0.009083
0.012248 0.023494 0.010214
0.012107 0.027340 0.005950
0.012120 0.027271 0.011950
0.011568 0.027771 0.005950
0.011538 0.027772 0.011950
0.013251 -0.024196 0.009306
0.013970 -0.023878 0.010307
0.013950 -0.021218 0.013808
0.013950 -0.016218 0.013808
0.012916 -0.003082 0.011950
0.013192 -0.001372 0.011950
0.013243 -0.000218 0.011950
0.013124 0.001457 0.011950
0.012791 0.003209 0.011950
0.014365 -0.023438 0.010962
0.014526 -0.023167 0.011231
0.014781 -0.022424 0.011660
0.014947 -0.021449 0.011936
0.014955 -0.016218 0.011950
0.020000 -0.023787 0.007488
0.020000 -0.024177 0.009104
0.020000 -0.023728 0.010533
0.020000 -0.022530 0.006297
0.020000 -0.023159 0.011237
0.020000 -0.022436 0.011661
0.020000 -0.021420 0.005963
0.020000 -0.021477 0.011932
0.020000 0.021158 0.005988
0.020000 0.021186 0.011908
0.020000 0.022243 0.006356
0.020000 0.023074 0.007026
0.020000 0.022983 0.010967
0.020000 0.022146 0.011605
0.020000 0.023540 0.007807
0.020000 0.023746 0.009079
0.020000 0.023494 0.010214
0.021189 -0.023725 0.007518
0.021277 -0.024090 0.009079
0.021176 -0.023670 0.010500
0.021064 -0.022512 0.006318
0.021584 -0.023201 0.006828
0.021276 -0.023108 0.011192
0.021049 -0.022402 0.011648
0.020931 -0.021427 0.005970
0.020932 -0.021434 0.011929
0.021015 0.021184 0.006007
0.021015 0.021184 0.011892
0.021075 0.022246 0.006398
0.021277 0.023021 0.007087
0.021252 0.022933 0.010909
0.021050 0.022137 0.011574
0.021216 0.023478 0.007858
0.021299 0.023651 0.009079
0.021186 0.023435 0.010167
0.022510 -0.023586 0.007691
0.022579 -0.023843 0.009079
0.022497 -0.023538 0.010328
0.022550 -0.022306 0.006371
0.022860 -0.023016 0.006986
0.022809 -0.022933 0.011009
0.022517 -0.022201 0.011598
0.022454 -0.021150 0.005985
0.022454 -0.021150 0.011914
0.022958 0.020126 0.005950
0.022958 0.020126 0.011950
0.022444 0.020932 0.006030
0.022444 0.020932 0.011869
0.022550 0.022041 0.006460
0.022719 0.022754 0.007161
0.022711 0.022661 0.010840
0.022497 0.021942 0.011516
0.022552 0.023304 0.008048
0.022579 0.023406 0.009079
0.022541 0.023266 0.009976
0.023356 -0.023438 0.007926
0.023680 -0.023479 0.009036
0.023341 -0.023398 0.010097
0.023975 -0.022015 0.006528
0.024136 -0.022746 0.007349
0.024199 -0.023223 0.009209
0.024129 -0.022606 0.010736
0.023879 -0.021938 0.011454
0.023962 -0.020987 0.006107
0.023968 -0.020996 0.011791
0.024344 -0.019879 0.005956
0.024344 -0.019879 0.011943
0.024167 0.019732 0.005974
0.024174 0.019720 0.011926
0.023976 0.020980 0.006252
0.024561 0.021681 0.006828
0.024512 0.021598 0.011159
0.023939 0.020939 0.011679
0.023773 0.021874 0.006652
0.023924 0.022518 0.007522
0.023809 0.022979 0.009079
0.023934 0.022397 0.010558
0.025266 -0.022332 0.007671
0.025349 -0.022614 0.009079
0.025255 -0.022276 0.010354
0.025383 -0.020896 0.006427
0.025928 -0.021489 0.007173
0.025803 -0.021440 0.010857
0.025370 -0.020782 0.011536
0.025522 -0.019594 0.006067
0.025522 -0.019594 0.011832
0.025850 -0.018341 0.005962
0.025868 -0.018327 0.011937
0.025691 0.018174 0.005965
0.025708 0.018161 0.011934
0.025543 0.019475 0.006139
0.025543 0.019475 0.011761
0.025301 0.020690 0.006498
0.025740 0.021263 0.007242
0.025689 0.021196 0.010756
0.025237 0.020606 0.011477
0.025138 0.022108 0.007888
0.025349 0.022177 0.009079
0.025050 0.022101 0.010155
0.026362 -0.021800 0.008173
0.026405 -0.021851 0.009079
0.026313 -0.020532 0.006652
0.026982 -0.020834 0.007591
0.027339 -0.020943 0.009079
0.026875 -0.020798 0.010483
0.026792 -0.019381 0.006398
0.027389 -0.019784 0.006986
0.027300 -0.019745 0.011009
0.026711 -0.019305 0.011574
0.027039 -0.018016 0.006176
0.027732 -0.018682 0.011248
0.026989 -0.017969 0.011757
0.027046 -0.016562 0.006002
0.027046 -0.016562 0.011897
0.027336 -0.015184 0.005991
0.027336 -0.015184 0.011908
0.027196 -0.014218 0.005964
0.027188 -0.014218 0.011936
0.027213 0.013782 0.005965
0.027213 0.013782 0.011934
0.027249 0.014986 0.005985
0.027243 0.014986 0.011915
0.027007 0.016581 0.006023
0.027007 0.016581 0.011876
0.027012 0.017944 0.006229
0.027732 0.018246 0.011248
0.026957 0.017921 0.011702
0.026734 0.019290 0.006503
0.027322 0.019732 0.007292
0.027633 0.020186 0.009079
0.027187 0.019648 0.010823
0.026667 0.019128 0.011508
0.026692 0.020778 0.007697
0.026725 0.021121 0.009079
0.026696 0.020680 0.010361
0.028175 -0.019295 0.007594
0.028396 -0.019567 0.009079
0.028138 -0.019242 0.010434
0.028128 -0.017722 0.006598
0.028786 -0.017893 0.007419
0.029030 -0.018429 0.009079
0.028695 -0.017820 0.010644
0.027904 -0.017904 0.011407
0.028193 -0.016580 0.006398
0.029013 -0.016301 0.006986
0.028926 -0.016257 0.011009
0.028046 -0.016703 0.011574
0.028365 -0.015276 0.006340
0.029087 -0.015013 0.006828
0.028990 -0.015005 0.011159
0.028299 -0.015311 0.011598
0.028370 -0.014218 0.006318
0.029121 -0.014218 0.006828
0.029025 -0.014218 0.011159
0.028258 -0.014218 0.011648
0.028370 0.013782 0.006318
0.029121 0.013782 0.006828
0.029025 0.013782 0.011159
0.028258 0.013782 0.011648
0.028408 0.014889 0.006371
0.029075 0.015113 0.006893
0.028983 0.015046 0.011103
0.028299 0.014874 0.011598
0.028149 0.016310 0.006398
0.028945 0.016750 0.007246
0.028865 0.016698 0.010762
0.028046 0.016266 0.011574
0.027998 0.017511 0.006572
0.028471 0.018191 0.007472
0.028965 0.018098 0.009172
0.028395 0.018118 0.010598
0.027904 0.017467 0.011407
0.027994 0.019379 0.007807
0.028380 0.019167 0.009020
0.027956 0.019352 0.010214
0.029301 -0.017603 0.008173
0.029363 -0.017626 0.009079
0.029495 -0.016276 0.007743
0.029719 -0.016373 0.009079
0.029450 -0.016253 0.010280
0.029595 -0.015058 0.007580
0.029926 -0.015087 0.009079
0.029542 -0.015053 0.010438
0.029632 -0.014218 0.007580
0.029964 -0.014218 0.009079
0.029578 -0.014218 0.010438
0.029632 0.013782 0.007580
0.029964 0.013782 0.009079
0.029578 0.013782 0.010438
0.029575 0.015005 0.007631
0.029869 0.015081 0.009079
0.029524 0.014990 0.010389
0.029401 0.016479 0.007880
0.029494 0.016775 0.009079
0.029381 0.016295 0.010214
3 1205 1206 1282
3 1282 1206 1283
3 1396 1395 1404
3 1465 1442 1350
3 1516 1368 1391
3 1252 1281 1202
3 1486 1465 1349
3 1349 1465 1350
3 1391 1390 1516
3 1516 1390 1514
3 1317 1315 1380
3 1150 1152 1026
3 1292 1291 1396
3 1002 361 1034
3 361 1396 1034
3 1034 1396 1066
3 1396 1110 1066
3 1002 960 361
3 361 960 921
3 818 764 361
3 764 765 361
3 361 765 675
3 1380 1315 1371
3 1291 1256 1396
3 1256 1218 1396
3 1218 1168 1396
3 1168 1110 1396
3 921 876 361
3 361 876 818
3 902 948 452
3 1281 1313 1202
3 1313 1312 1202
3 1202 1312 1350
3 1404 1422 1396
3 1396 1422 1440
3 1510 1512 1396
3 1396 1512 1514
3 1442 1444 1350
3 1350 1444 1424
3 1368 1516 1369
3 1516 1518 1369
3 1369 1518 1349
3 1349 1518 1520
3 1520 1486 1349
3 1390 1389 1514
3 1389 1388 1514
3 1514 1388 1387
3 1387 1357 1514
3 1514 1357 1354
3 791 792 452
3 1484 1510 1396
3 1354 1353 1514
3 1353 1323 1514
3 1514 1323 1396
3 1323 1322 1396
3 1396 1322 1292
3 791 452 723
3 1026 1095 1150
3 1026 1152 1154
3 675 676 361
3 676 584 361
3 361 584 590
3 590 593 361
3 593 497 361
3 515 521 452
3 521 616 452
3 452 616 620
3 1461 1463 1396
3 1396 1463 1482
3 497 501 361
3 501 507 361
3 361 507 452
3 507 515 452
3 620 720 452
3 452 720 723
3 792 861 452
3 861 902 452
3 948 992 452
3 992 993 452
3 452 993 1202
3 993 1021 1202
3 1202 1021 1053
3 1396 1440 1461
3 1482 1484 1396
3 1210 1212 1208
3 1212 1154 1208
3 1208 1154 1152
3 1144 1201 1202
3 1201 1252 1202
3 1287 1285 1382
3 1285 1317 1382
3 1053 1094 1202
3 1094 1145 1202
3 1202 1145 1144
3 1317 1380 1382
3 1150 1148 1206
3 1315 1283 1371
3 1283 1202 1371
3 1371 1202 1406
3 1202 1350 1406
3 1406 1350 1424
3 1148 1204 1206
3 1202 1283 1203
3 1283 1206 1203
3 1204 1203 1206
3 1284 1316 1285
3 1316 1317 1285
3 1286 1284 1287
3 1284 1285 1287
3 1380 1371 1375
3 1375 1374 1380
3 1379 1373 1372
3 1379 1372 1370
3 1380 1374 1378
3 1379 1376 1373
3 1380 1378 1377
3 1377 1376 1379
3 1380 1377 1379
3 746 747 796
3 747 908 796
3 908 1095 796
3 1095 1026 796
3 796 1026 745
3 1026 1025 745
3 745 1025 743
3 439 440 542
3 441 442 543
3 446 447 545
3 538 436 437
3 531 530 532
3 538 532 530
3 538 539 532
3 538 437 539
3 545 544 446
3 541 544 545
3 540 544 541
3 530 537 538
3 537 543 538
3 538 543 436
3 543 442 436
3 440 441 542
3 441 543 542
3 543 537 542
3 542 537 535
3 535 537 536
3 447 439 545
3 439 542 545
3 545 542 541
3 542 535 541
3 625 624 626
3 621 625 622
3 626 622 625
3 624 625 628
3 628 625 623
3 722 717 716
3 719 714 718
3 714 713 718
3 722 716 721
3 715 721 716
3 714 717 713
3 717 716 713
3 713 716 718
3 716 717 718
3 718 717 719
3 828 824 827
3 770 824 828
3 769 768 770
3 770 768 824
3 774 773 835
3 773 831 835
3 778 777 840
3 777 838 840
3 837 840 838
3 777 775 837
3 775 836 837
3 775 774 836
3 774 835 836
3 775 777 776
3 777 837 838
3 773 772 831
3 772 830 831
3 831 830 835
3 835 830 834
3 772 771 830
3 771 829 830
3 830 829 834
3 769 770 771
3 771 770 829
3 770 828 829
3 828 827 829
3 851 788 783
3 783 788 789
3 851 857 788
3 850 857 851
3 840 841 839
3 840 839 842
3 842 839 841
3 779 778 842
3 778 840 842
3 779 842 841
3 847 846 781
3 846 780 781
3 782 779 781
3 781 779 847
3 779 841 847
3 786 780 854
3 780 846 854
3 847 841 846
3 845 853 846
3 846 853 854
3 854 853 786
3 853 785 786
3 845 852 853
3 853 852 785
3 852 784 785
3 845 851 852
3 852 851 784
3 851 783 784
3 783 789 784
3 687 681 688
3 687 688 682
3 682 688 683
3 679 680 681
3 677 679 681
3 681 678 677
3 687 682 681
3 588 587 591
3 587 585 586
3 582 585 587
3 582 587 583
3 583 587 588
3 482 376 481
3 487 379 486
3 486 489 487
3 488 489 486
3 479 480 477
3 480 478 477
3 478 374 477
3 477 374 373
3 376 482 377
3 377 482 378
3 483 485 484
3 485 488 484
3 488 486 484
3 484 486 482
3 379 378 486
3 378 482 486
3 482 481 484
3 484 481 483
3 481 480 483
3 376 374 481
3 374 478 481
3 478 480 481
3 448 443 449
3 446 438 445
3 340 341 446
3 454 346 344
3 448 450 454
3 443 448 449
3 342 451 344
3 344 451 454
3 343 340 445
3 340 446 445
3 454 451 448
3 448 451 449
3 451 342 449
3 342 343 449
3 343 445 449
3 449 445 443
3 443 445 444
3 92 93 16
3 93 94 16
3 94 21 16
3 16 21 20
3 21 24 20
3 24 23 20
3 20 23 19
3 92 136 93
3 135 136 92
3 19 22 18
3 20 19 18
3 14 20 18
3 16 20 14
3 15 16 14
3 91 92 89
3 89 92 15
3 92 16 15
3 135 92 91
3 131 87 127
3 87 81 127
3 7 85 87
3 7 2 85
3 13 6 7
3 7 6 2
3 17 11 12
3 12 11 13
3 11 6 13
3 89 133 91
3 91 133 135
3 22 17 18
3 17 12 18
3 12 13 18
3 18 13 14
3 13 7 14
3 14 7 15
3 15 7 89
3 7 87 89
3 85 81 87
3 87 131 88
3 88 131 132
3 87 88 89
3 88 132 89
3 89 132 133
3 594 493 592
3 314 315 291
3 291 315 316
3 259 226 247
3 226 194 225
3 225 194 193
3 24 99 98
3 98 99 141
3 99 142 141
3 142 178 141
3 229 214 228
3 228 214 195
3 214 180 195
3 195 180 178
3 180 179 178
3 229 228 261
3 228 262 261
3 261 262 294
3 294 322 295
3 295 322 323
3 322 324 323
3 324 402 395
3 504 403 402
3 513 512 504
3 95 96 97
3 97 21 95
3 21 94 95
3 24 21 97
3 142 97 140
3 97 96 140
3 178 142 177
3 142 140 177
3 178 177 195
3 195 177 213
3 195 213 228
3 228 213 227
3 227 213 248
3 602 603 505
3 505 603 506
3 389 395 388
3 395 389 498
3 506 514 505
3 505 514 513
3 498 388 395
3 499 500 505
3 504 396 505
3 396 498 505
3 262 228 260
3 228 227 260
3 227 248 260
3 262 260 294
3 294 260 293
3 294 293 321
3 321 293 319
3 505 513 504
3 396 504 402
3 402 324 396
3 324 394 396
3 394 388 396
3 396 388 498
3 498 499 505
3 324 321 394
3 394 321 388
3 321 319 388
3 24 97 99
3 97 142 99
3 691 598 596
3 598 597 596
3 381 492 382
3 492 494 382
3 495 595 496
3 380 492 381
3 494 594 495
3 495 594 595
3 315 380 316
3 380 381 316
3 603 598 599
3 599 598 692
3 692 696 599
3 696 603 599
3 495 389 388
3 499 598 500
3 492 493 494
3 493 594 494
3 598 603 602
3 598 602 500
3 608 603 702
3 603 696 702
3 598 691 692
3 500 602 505
3 93 136 137
3 192 175 174
3 259 292 274
3 292 316 274
3 274 316 317
3 192 193 175
3 193 194 175
3 259 291 292
3 291 316 292
3 316 381 317
3 137 161 139
3 161 162 139
3 226 259 248
3 259 274 248
3 381 382 494
3 161 174 162
3 174 175 162
3 274 317 318
3 317 381 318
3 595 596 496
3 496 596 597
3 93 138 95
3 138 139 95
3 139 162 163
3 162 175 163
3 163 175 176
3 140 176 177
3 176 213 177
3 194 212 213
3 212 248 213
3 597 598 499
3 388 319 381
3 319 318 381
3 213 176 194
3 176 175 194
3 495 388 494
3 388 381 494
3 499 498 496
3 293 260 274
3 260 248 274
3 95 94 93
3 498 389 496
3 389 495 496
3 176 140 163
3 140 139 163
3 274 318 293
3 318 319 293
3 93 137 138
3 137 139 138
3 194 226 212
3 226 248 212
3 496 597 499
3 603 608 506
3 506 608 514
3 95 139 96
3 139 140 96
3 324 322 321
3 322 294 321
3 107 106 61
3 107 112 106
3 518 418 419
3 418 331 424
3 424 331 330
3 331 329 330
3 330 329 296
3 329 297 296
3 297 264 279
3 279 264 263
3 264 232 263
3 263 232 231
3 182 183 181
3 181 183 200
3 183 215 200
3 200 215 232
3 232 215 231
3 145 186 168
3 112 146 150
3 146 151 150
3 169 151 170
3 170 151 147
3 151 146 147
3 186 185 168
3 168 185 171
3 171 185 189
3 185 201 189
3 189 170 171
3 170 147 171
3 171 147 168
3 168 147 145
3 147 108 145
3 236 202 218
3 218 202 216
3 236 217 202
3 216 202 186
3 186 202 185
3 185 202 201
3 432 525 431
3 522 523 526
3 525 432 526
3 526 432 522
3 523 524 614
3 614 613 523
3 524 611 614
3 526 523 613
3 265 280 253
3 253 280 267
3 280 302 267
3 302 301 267
3 433 334 335
3 334 298 335
3 431 525 529
3 526 613 619
3 618 526 619
3 618 525 526
3 334 433 339
3 339 433 338
3 433 527 528
3 529 527 434
3 527 433 434
3 525 618 617
3 335 431 433
3 431 529 433
3 433 529 434
3 614 709 708
3 527 529 528
3 528 529 617
3 529 525 617
3 613 614 619
3 702 612 608
3 702 706 612
3 706 709 612
3 612 709 615
3 709 614 615
3 612 615 614
3 708 613 614
3 614 613 619
3 301 302 338
3 338 302 339
3 302 280 339
3 339 280 334
3 334 280 298
3 280 265 298
3 513 519 518
3 424 431 425
3 523 425 518
3 424 425 522
3 425 523 522
3 513 514 519
3 523 519 524
3 523 518 519
3 520 612 519
3 612 520 608
3 611 524 519
3 56 105 61
3 144 105 104
3 105 56 104
3 518 425 418
3 425 331 418
3 200 184 181
3 184 144 181
3 425 423 331
3 423 333 331
3 232 264 265
3 264 297 265
3 297 329 333
3 329 331 333
3 112 107 146
3 146 107 147
3 147 107 108
3 425 431 423
3 431 333 423
3 333 298 297
3 298 265 297
3 232 216 200
3 216 184 200
3 431 335 333
3 335 298 333
3 265 253 233
3 253 216 233
3 145 108 105
3 265 233 232
3 233 216 232
3 431 424 432
3 424 522 432
3 519 612 611
3 105 144 145
3 144 184 145
3 519 514 520
3 520 514 608
3 266 236 267
3 267 236 253
3 236 218 253
3 218 216 253
3 614 611 612
3 216 186 184
3 186 145 184
3 108 107 105
3 107 61 105
3 55 56 59
3 59 56 60
3 56 61 60
3 70 60 61
3 61 106 70
3 106 112 70
3 70 112 111
3 112 150 111
3 111 150 149
3 191 204 190
3 204 203 190
3 191 188 204
3 191 173 188
3 188 173 187
3 187 173 172
3 187 172 203
3 172 190 203
3 223 234 246
3 234 254 246
3 246 254 223
3 254 234 223
3 235 234 223
3 223 224 235
3 235 224 234
3 224 223 234
3 234 223 217
3 223 211 217
3 217 211 234
3 211 223 234
3 273 282 272
3 282 281 272
3 273 269 282
3 273 258 269
3 258 268 269
3 258 257 268
3 268 257 281
3 257 272 281
3 313 337 312
3 337 336 312
3 337 313 300
3 313 290 300
3 300 290 299
3 290 289 299
3 299 289 336
3 289 312 336
3 491 534 589
3 534 627 589
3 491 589 534
3 534 589 627
3 491 435 534
3 491 380 435
3 380 490 435
3 435 490 533
3 490 491 533
3 491 534 533
3 407 41 406
3 41 40 406
3 406 40 415
3 40 45 415
3 415 45 406
3 45 40 406
3 406 40 399
3 40 37 399
3 399 37 406
3 37 40 406
3 406 40 407
3 40 41 407
3 408 409 102
3 102 103 408
3 408 103 416
3 103 101 416
3 416 101 408
3 101 100 408
3 408 100 400
3 100 102 400
3 400 102 408
3 409 408 102
3 166 167 509
3 509 167 516
3 167 166 516
3 516 166 509
3 509 166 508
3 166 165 508
3 165 166 508
3 508 166 509
3 166 164 509
3 509 164 502
3 164 166 502
3 502 166 509
3 510 197 511
3 197 196 511
3 511 196 503
3 196 197 503
3 503 197 511
3 198 511 197
3 198 197 511
3 510 511 197
3 511 517 197
3 197 517 199
3 517 511 199
3 199 511 197
3 251 250 605
3 250 252 605
3 605 252 609
3 252 230 609
3 609 230 604
3 230 249 604
3 604 249 600
3 249 250 600
3 600 250 605
3 250 251 605
3 277 278 607
3 607 278 610
3 278 277 610
3 610 277 607
3 277 276 607
3 607 276 606
3 276 277 606
3 606 277 607
3 277 275 607
3 607 275 601
3 275 277 601
3 601 277 607
3 700 695 701
3 701 705 700
3 701 327 705
3 327 328 705
3 705 328 700
3 328 327 700
3 327 326 700
3 326 327 700
3 700 327 695
3 327 325 695
3 695 325 701
3 325 327 701
3 410 698 417
3 698 704 417
3 417 704 410
3 704 698 410
3 410 698 411
3 698 699 411
3 411 699 410
3 699 698 410
3 410 698 401
3 698 694 401
3 401 694 410
3 694 698 410
3 683 768 769
3 376 161 374
3 161 137 374
3 374 137 373
3 137 136 373
3 373 136 311
3 190 172 161
3 161 172 173
3 161 173 174
3 173 191 174
3 377 191 376
3 191 190 376
3 376 190 161
3 191 377 174
3 377 223 174
3 174 223 192
3 223 193 192
3 223 211 193
3 211 223 193
3 193 223 225
3 225 223 224
3 226 225 224
3 257 224 223
3 257 223 246
3 224 257 226
3 226 257 247
3 247 257 258
3 583 258 273
3 583 273 272
3 272 257 378
3 257 246 378
3 246 223 378
3 378 223 377
3 582 583 379
3 583 272 379
3 379 272 378
3 312 247 583
3 247 258 583
3 312 289 247
3 247 289 259
3 259 289 290
3 259 290 291
3 291 290 314
3 290 313 314
3 314 313 315
3 677 678 588
3 678 315 588
3 588 315 313
3 588 313 583
3 313 312 583
3 315 490 380
3 491 492 380
3 681 682 491
3 491 589 681
3 681 589 678
3 589 491 678
3 491 490 678
3 678 490 315
3 772 595 771
3 595 594 771
3 771 594 769
3 594 592 769
3 769 592 683
3 592 493 683
3 683 493 682
3 493 492 682
3 682 492 491
3 774 691 773
3 691 596 773
3 773 596 772
3 596 595 772
3 775 691 774
3 777 696 776
3 696 692 776
3 776 692 775
3 692 691 775
3 777 778 702
3 777 702 696
3 779 706 778
3 706 702 778
3 706 779 709
3 779 782 709
3 782 781 709
3 709 781 708
3 785 619 786
3 619 613 786
3 786 613 780
3 613 708 780
3 780 708 781
3 617 618 784
3 784 618 785
3 785 618 619
3 719 528 788
3 788 528 789
3 528 617 789
3 789 617 784
3 722 627 717
3 627 534 717
3 534 433 717
3 717 433 719
3 433 528 719
3 433 534 435
3 338 433 435
3 338 337 300
3 338 300 301
3 301 300 267
3 267 300 299
3 267 299 266
3 336 337 624
3 624 337 626
3 626 533 721
3 721 533 534
3 721 534 722
3 722 534 627
3 338 435 337
3 337 435 533
3 337 533 626
3 236 235 234
3 236 234 217
3 202 217 234
3 437 268 628
3 628 268 624
3 268 281 624
3 266 269 236
3 269 268 236
3 234 254 436
3 436 254 437
3 254 234 437
3 437 234 268
3 234 235 268
3 268 235 236
3 624 281 282
3 624 282 269
3 269 266 624
3 624 266 336
3 266 299 336
3 189 201 441
3 441 201 442
3 201 202 442
3 442 202 436
3 202 234 436
3 204 188 189
3 170 189 188
3 170 188 169
3 188 187 169
3 169 187 203
3 439 203 440
3 203 204 440
3 440 204 441
3 441 204 189
3 341 150 151
3 203 439 169
3 169 439 151
3 439 447 151
3 151 447 341
3 447 446 341
3 373 375 477
3 446 544 438
3 438 544 540
3 479 477 375
3 438 479 375
3 438 540 479
3 540 508 479
3 479 508 480
3 508 509 480
3 480 509 483
3 510 511 485
3 485 511 488
3 483 509 502
3 489 511 532
3 532 511 531
3 530 509 537
3 511 530 517
3 530 531 517
3 517 531 511
3 502 509 483
3 509 510 483
3 483 510 485
3 508 540 509
3 540 541 509
3 541 535 509
3 537 509 536
3 511 509 530
3 509 516 536
3 536 516 535
3 516 509 535
3 488 511 489
3 511 503 489
3 489 503 511
3 511 510 509
3 437 628 539
3 582 487 489
3 582 489 585
3 532 539 628
3 379 487 582
3 532 628 623
3 532 623 489
3 623 585 489
3 623 604 585
3 585 604 586
3 625 621 606
3 591 607 622
3 587 606 591
3 607 606 621
3 606 605 625
3 604 600 586
3 586 600 587
3 600 605 587
3 605 606 587
3 606 607 591
3 607 601 591
3 601 607 591
3 625 604 623
3 607 610 622
3 622 610 621
3 610 607 621
3 605 609 625
3 609 604 625
3 622 626 721
3 588 591 677
3 721 715 622
3 591 679 677
3 715 679 622
3 622 679 591
3 698 704 716
3 698 694 681
3 694 698 681
3 715 698 679
3 680 698 681
3 679 698 680
3 688 699 714
3 716 698 715
3 681 698 688
3 688 698 699
3 714 699 717
3 717 699 698
3 717 698 716
3 704 698 716
3 688 824 768
3 688 768 683
3 857 850 714
3 719 788 714
3 788 857 714
3 827 824 688
3 714 827 688
3 714 850 827
3 850 851 827
3 840 836 835
3 834 829 840
3 829 827 840
3 851 845 827
3 827 845 846
3 846 841 827
3 835 834 840
3 840 837 836
3 841 840 827
3 144 102 143
3 25 101 54
3 104 102 144
3 102 100 143
3 143 100 25
3 100 101 25
3 59 54 101
3 56 55 101
3 101 55 59
3 56 101 104
3 101 103 104
3 104 103 102
3 166 164 180
3 143 165 144
3 183 166 180
3 143 166 165
3 166 143 164
3 165 166 144
3 167 166 181
3 144 166 181
3 181 166 167
3 181 166 182
3 182 166 183
3 180 197 183
3 197 198 215
3 215 198 214
3 197 199 183
3 183 199 215
3 199 197 215
3 198 197 214
3 197 196 214
3 214 196 180
3 196 197 180
3 214 230 215
3 250 249 229
3 249 230 229
3 263 251 261
3 229 230 214
3 215 230 231
3 251 250 261
3 261 250 229
3 231 230 252
3 250 251 263
3 252 250 231
3 231 250 263
3 295 296 277
3 279 277 297
3 295 277 294
3 277 276 261
3 297 277 296
3 277 275 294
3 294 275 261
3 275 277 261
3 279 277 278
3 261 276 263
3 278 277 279
3 263 276 279
3 276 277 279
3 327 326 295
3 402 327 395
3 326 327 296
3 327 325 323
3 325 327 323
3 296 327 330
3 424 327 418
3 323 327 295
3 295 326 296
3 324 327 323
3 395 327 324
3 327 328 330
3 328 327 330
3 330 327 424
3 418 327 402
3 402 403 418
3 403 504 418
3 418 513 419
3 419 513 518
3 504 512 418
3 512 513 418
3 164 143 180
3 143 178 180
3 180 178 179
3 23 24 25
3 24 98 25
3 25 98 143
3 98 141 143
3 143 141 178
3 25 22 23
3 23 22 19
3 371 368 406
3 368 399 406
3 371 406 375
3 443 406 449
3 449 406 448
3 448 406 450
3 406 415 450
3 450 415 406
3 450 406 366
3 366 406 368
3 368 406 399
3 443 416 408
3 407 406 408
3 408 406 443
3 375 409 438
3 438 408 445
3 445 408 444
3 444 408 443
3 443 408 416
3 408 400 375
3 400 408 375
3 409 408 438
3 406 407 375
3 375 407 408
3 375 408 409
3 117 110 111
3 69 70 110
3 70 111 110
3 68 70 69
3 68 60 70
3 58 60 68
3 58 59 60
3 58 57 54
3 58 54 59
3 74 65 67
3 67 65 66
3 75 74 67
3 75 78 74
3 115 78 75
3 115 121 78
3 124 121 115
3 160 124 157
3 124 115 157
3 157 115 153
3 111 110 117
3 154 153 116
3 153 115 116
3 116 117 154
3 149 154 110
3 154 117 110
3 110 111 149
3 65 57 66
3 57 58 66
3 66 58 67
3 58 68 67
3 67 68 75
3 68 69 75
3 75 69 115
3 69 110 115
3 110 117 115
3 115 117 116
3 244 160 157
3 150 341 149
3 341 340 149
3 340 154 149
3 344 346 284
3 340 343 154
3 343 342 154
3 154 342 153
3 342 344 153
3 153 344 157
3 344 284 157
3 157 284 244
3 310 311 136
3 136 135 310
3 310 135 309
3 135 133 309
3 133 132 309
3 309 132 131
3 131 127 309
3 127 271 309
3 309 271 307
3 372 371 375
3 372 311 310
3 373 311 372
3 372 375 373
3 365 366 368
3 307 365 308
3 308 365 367
3 367 365 368
3 309 307 308
3 310 309 372
3 309 369 372
3 369 370 372
3 372 370 371
3 370 368 371
3 309 308 369
3 308 367 369
3 367 368 369
3 369 368 370
3 796 793 746
3 793 732 746
3 1241 1240 1191
3 1240 1190 1191
3 1191 1190 1130
3 1190 1129 1130
3 1130 1129 1133
3 1129 1132 1133
3 1133 1132 1135
3 1132 1134 1135
3 1135 1134 1193
3 1134 1192 1193
3 1193 1192 1244
3 1192 1243 1244
3 938 939 983
3 939 984 983
3 983 984 940
3 984 941 940
3 939 938 893
3 938 892 893
3 893 892 896
3 892 895 896
3 896 895 898
3 895 897 898
3 898 897 941
3 897 940 941
3 1229 1230 1265
3 1230 1266 1265
3 1265 1266 1231
3 1266 1232 1231
3 1230 1229 1178
3 1229 1177 1178
3 1178 1177 1175
3 1177 1174 1175
3 1175 1174 1178
3 1174 1177 1178
3 1178 1177 1121
3 1177 1120 1121
3 1121 1120 1124
3 1120 1123 1124
3 1124 1123 1180
3 1123 1179 1180
3 1180 1179 1182
3 1179 1181 1182
3 1182 1181 1234
3 1181 1233 1234
3 1234 1233 1232
3 1233 1231 1232
3 927 928 970
3 928 971 970
3 970 971 929
3 971 930 929
3 928 927 925
3 927 924 925
3 925 924 928
3 924 927 928
3 928 927 882
3 927 881 882
3 882 881 884
3 881 883 884
3 884 883 886
3 883 885 886
3 886 885 932
3 885 931 932
3 932 931 930
3 931 929 930
3 1025 1024 647
3 647 1024 646
3 646 1024 742
3 742 1024 739
3 1024 1023 739
3 1023 1022 739
3 739 1022 738
3 1022 996 738
3 996 994 738
3 738 994 737
3 994 953 737
3 743 1025 647
3 241 242 468
3 240 241 464
3 468 464 241
3 647 648 743
3 648 744 743
3 743 744 745
3 571 648 646
3 647 646 648
3 571 572 648
3 563 564 572
3 571 563 572
3 566 466 467
3 466 465 467
3 465 565 464
3 564 563 565
3 563 464 565
3 567 566 568
3 568 566 467
3 574 573 575
3 575 573 568
3 568 573 567
3 651 650 574
3 650 573 574
3 747 649 651
3 651 649 650
3 747 746 649
3 468 467 464
3 467 465 464
3 742 738 646
3 738 643 646
3 646 643 571
3 643 562 571
3 571 562 563
3 562 560 563
3 563 560 464
3 560 461 464
3 558 461 559
3 461 560 559
3 560 562 559
3 559 562 641
3 562 643 641
3 641 643 736
3 643 738 736
3 464 461 306
3 306 285 464
3 464 285 287
3 287 288 464
3 288 239 464
3 239 240 464
3 558 347 461
3 347 305 461
3 305 306 461
3 241 159 242
3 159 160 242
3 160 243 242
3 244 270 255
3 244 284 270
3 244 243 160
3 1384 1383 1398
3 1384 1398 1399
3 1384 1399 1392
3 1399 1393 1392
3 1399 1401 1393
3 1393 1401 1394
3 1401 1402 1394
3 1402 1404 1394
3 1394 1404 1395
3 1383 653 1398
3 653 652 1398
3 1398 652 1397
3 652 1400 1397
3 652 660 1400
3 1400 660 1403
3 660 664 1403
3 353 351 352
3 351 471 352
3 352 471 473
3 578 472 471
3 471 472 473
3 577 578 471
3 653 655 577
3 577 655 578
3 655 656 578
3 578 656 658
3 207 206 353
3 353 206 351
3 11 10 6
3 10 5 6
3 1 2 5
3 2 6 5
3 84 85 1
3 85 2 1
3 84 80 81
3 85 84 81
3 126 127 80
3 127 81 80
3 41 40 25
3 40 41 54
3 25 40 22
3 54 41 25
3 48 40 53
3 40 48 43
3 43 44 40
3 44 39 40
3 22 40 17
3 53 40 52
3 28 27 10
3 64 40 65
3 65 40 57
3 57 45 40
3 57 40 45
3 57 40 54
3 34 33 11
3 33 30 11
3 31 35 10
3 50 51 64
3 36 37 39
3 37 40 39
3 36 17 37
3 37 17 40
3 36 34 17
3 17 34 11
3 11 30 29
3 29 28 11
3 11 28 10
3 27 26 10
3 26 32 10
3 10 32 31
3 38 42 64
3 42 46 64
3 46 47 64
3 47 49 64
3 35 38 10
3 10 38 64
3 49 50 64
3 51 52 64
3 64 52 40
3 160 159 123
3 123 124 160
3 124 123 121
3 123 120 121
3 120 77 121
3 121 77 78
3 77 73 78
3 64 65 73
3 65 74 73
3 73 74 78
3 158 156 119
3 123 159 122
3 159 158 122
3 120 123 119
3 123 122 119
3 156 155 118
3 113 155 152
3 155 113 118
3 118 113 119
3 114 72 113
3 113 72 119
3 119 72 76
3 77 120 76
3 120 119 76
3 156 118 119
3 158 119 122
3 83 86 82
3 84 1 83
3 1 0 83
3 86 130 82
3 130 128 82
3 126 80 125
3 80 79 125
3 79 83 125
3 125 83 129
3 82 128 83
3 128 129 83
3 83 79 80
3 83 80 84
3 0 4 83
3 83 4 86
3 576 653 577
3 576 652 653
3 580 652 576
3 579 660 580
3 660 652 580
3 350 349 475
3 475 349 474
3 349 356 474
3 474 356 476
3 660 579 664
3 579 581 664
3 577 471 576
3 471 470 576
3 470 475 576
3 576 475 580
3 580 475 579
3 475 474 579
3 474 476 579
3 579 476 581
3 471 351 470
3 351 350 470
3 470 350 475
3 206 126 205
3 126 125 205
3 205 125 210
3 125 129 210
3 210 129 209
3 129 128 209
3 209 128 221
3 128 130 221
3 221 130 222
3 476 356 222
3 222 356 221
3 221 356 209
3 356 349 209
3 349 350 209
3 209 350 210
3 210 350 205
3 205 350 206
3 350 351 206
3 114 113 72
3 73 76 72
3 73 77 76
3 113 152 148
3 113 148 109
3 113 109 62
3 113 62 71
3 72 113 71
3 71 62 63
3 71 63 72
3 64 72 63
3 64 73 72
3 64 63 10
3 10 63 9
3 63 62 9
3 9 62 8
3 8 62 90
3 62 109 90
3 148 134 109
3 134 90 109
3 5 9 4
3 9 5 10
3 86 134 130
3 1 5 4
3 134 86 90
3 3 86 4
3 90 3 8
3 8 4 9
3 3 90 86
3 8 3 4
3 4 0 1
3 155 238 152
3 238 237 152
3 238 155 239
3 239 155 156
3 239 156 240
3 156 158 240
3 240 158 241
3 158 159 241
3 286 239 288
3 286 285 239
3 239 285 238
3 238 285 237
3 285 283 237
3 126 206 127
3 206 207 127
3 207 208 127
3 220 245 127
3 245 256 127
3 127 256 271
3 208 219 127
3 127 219 220
3 1027 802 868
3 662 663 354
3 800 750 658
3 352 473 662
3 662 473 661
3 658 1098 800
3 352 662 353
3 1098 801 800
3 659 578 750
3 750 578 658
3 662 354 353
3 1027 868 1057
3 868 801 1057
3 1057 801 1098
3 661 578 659
3 473 472 661
3 472 578 661
3 1164 1165 1065
3 1065 1064 1164
3 1064 1105 1164
3 1164 1105 1255
3 1105 1215 1255
3 1215 1254 1255
3 1255 1254 1351
3 1254 1385 1351
3 1351 1385 1352
3 1352 1385 1386
3 1385 1395 1386
3 1386 1395 1396
3 358 365 307
3 1065 875 1064
3 875 358 1064
3 358 307 271
3 284 346 460
3 366 365 358
3 460 346 454
3 454 450 460
3 460 450 906
3 875 366 358
3 450 905 906
3 905 450 875
3 450 366 875
3 1027 1057 1058
3 1059 1027 1058
3 1059 1028 1027
3 1063 1031 1059
3 1059 1031 1028
3 1099 1104 1063
3 1063 1104 1064
3 1104 1105 1064
3 1105 1104 1215
3 1215 1104 1163
3 1163 1104 1159
3 1104 1099 1159
3 1159 1099 1158
3 1063 1059 1099
3 1059 1158 1099
3 1098 1158 1059
3 1057 1098 1058
3 1058 1098 1059
3 1157 1253 1098
3 1253 1288 1098
3 1288 1158 1098
3 1288 1289 1158
3 1289 1290 1158
3 1158 1290 1159
3 1290 1318 1159
3 1319 1159 1318
3 1215 1163 1319
3 1319 1163 1159
3 1215 1319 1254
3 1254 1319 1385
3 1319 1395 1385
3 1395 1319 1394
3 1319 1318 1394
3 1318 1290 1394
3 1394 1290 1393
3 1290 1289 1393
3 1393 1289 1392
3 1289 1288 1392
3 1392 1288 1384
3 1253 1383 1288
3 1383 1384 1288
3 802 1027 751
3 663 751 354
3 1027 1028 355
3 751 1027 354
3 354 1027 355
3 355 1028 357
3 1028 1031 357
3 1031 1063 357
3 357 1063 358
3 1063 1064 358
3 358 271 256
3 256 357 358
3 245 357 256
3 220 357 245
3 355 357 220
3 219 354 220
3 354 355 220
3 219 208 354
3 208 207 354
3 354 207 353
3 795 741 863
3 863 955 908
3 575 569 574
3 569 644 574
3 574 644 651
3 863 908 795
3 795 908 740
3 908 644 740
3 575 568 569
3 747 651 644
3 467 569 568
3 747 644 908
3 741 795 794
3 794 735 741
3 1029 1100 1032
3 1100 1106 1032
3 1100 1213 1106
3 1213 1216 1106
3 1213 1214 1216
3 1214 1217 1216
3 1214 1103 1217
3 1103 1107 1217
3 864 797 1383
3 1253 1156 1155
3 1157 1156 1253
3 1097 1157 1098
3 797 748 653
3 911 1096 1054
3 867 911 658
3 658 911 1098
3 748 654 653
3 654 655 653
3 1383 797 653
3 1253 1155 1383
3 909 865 864
3 864 865 798
3 1096 911 957
3 956 910 1383
3 910 909 1383
3 1383 909 864
3 865 656 657
3 957 956 1096
3 1155 1096 1383
3 657 749 865
3 911 1054 1055
3 799 798 865
3 866 867 658
3 1098 1056 1097
3 1096 956 1383
3 749 799 865
3 656 865 866
3 1055 1056 911
3 911 1056 1098
3 656 866 658
3 1162 1157 1102
3 1157 1097 1102
3 1102 1097 1062
3 1097 1056 1062
3 1062 1056 1061
3 1056 1055 1061
3 1061 1055 1060
3 1055 1054 1060
3 1060 1054 1101
3 1054 1096 1101
3 1101 1096 1160
3 1096 1155 1160
3 1160 1155 1161
3 1155 1156 1161
3 1161 1156 1162
3 1156 1157 1162
3 1287 1382 1286
3 1382 1381 1286
3 1282 1283 1314
3 1283 1315 1314
3 1315 1317 1314
3 1314 1317 1316
3 1382 1380 1381
3 1381 1380 1379
3 1052 1020 283
3 1020 991 283
3 332 320 222
3 725 1093 283
3 283 1093 1052
3 134 148 237
3 148 152 237
3 991 946 283
3 946 711 283
3 283 711 332
3 1379 1370 1314
3 1379 1314 1316
3 725 737 953
3 1282 1314 1370
3 130 134 222
3 1149 953 1151
3 222 320 476
3 320 685 476
3 476 685 920
3 283 332 237
3 237 332 134
3 332 222 134
3 1370 1205 1282
3 1381 1379 1316
3 664 581 920
3 581 476 920
3 1284 1286 1316
3 1286 1381 1316
3 1325 1327 1513
3 1327 1356 1513
3 1513 1356 1359
3 1153 1151 953
3 920 962 664
3 664 962 1004
3 1462 1460 1294
3 1511 1509 1325
3 1325 1483 1294
3 1483 1481 1294
3 1294 1481 1462
3 1365 1367 1515
3 1405 1279 1370
3 1279 1251 1370
3 1251 1199 1370
3 1370 1199 725
3 1199 1143 725
3 725 1143 1093
3 1004 1036 664
3 1036 1068 664
3 664 1068 1403
3 1068 1112 1403
3 1403 1112 1167
3 1513 1511 1325
3 1359 1361 1513
3 1361 1363 1513
3 1513 1363 1515
3 1515 1363 1365
3 953 1149 1205
3 1167 1170 1403
3 1170 1220 1403
3 1509 1483 1325
3 1367 1345 1515
3 1515 1345 1517
3 1345 1348 1517
3 1441 1464 1310
3 1485 1519 1348
3 1348 1519 1517
3 1464 1485 1310
3 1310 1485 1348
3 1279 1405 1310
3 1405 1423 1310
3 1423 1443 1310
3 1310 1443 1441
3 1211 1209 1153
3 1209 1207 1153
3 1153 1207 1151
3 1460 1439 1294
3 1220 1258 1403
3 1403 1258 1421
3 1258 1294 1421
3 1294 1439 1421
3 725 953 1370
3 953 1205 1370
3 1207 1208 1152
3 1207 1152 1151
3 1152 1150 1151
3 1151 1150 1149
3 1149 1150 1205
3 1150 1206 1205
3 1022 1023 1153
3 1153 996 1022
3 1026 1154 1025
3 1154 1153 1025
3 994 996 1153
3 1024 1025 1153
3 1153 953 994
3 1153 1023 1024
3 1208 1207 1210
3 1207 1209 1210
3 1153 1154 1211
3 1154 1212 1211
3 1212 1210 1211
3 1210 1209 1211
3 1030 1029 1033
3 1029 1032 1033
3 1103 1030 1107
3 1030 1033 1107
3 1213 1160 1161
3 1101 1160 1100
3 1100 1160 1213
3 1213 1161 1214
3 1214 1162 1103
3 1103 1162 1102
3 1103 1102 1030
3 1030 1102 1062
3 1061 1060 1029
3 1161 1162 1214
3 1060 1101 1029
3 1029 1101 1100
3 1062 1061 1030
3 1030 1061 1029
3 347 558 724
3 724 558 559
3 724 345 347
3 724 559 641
3 641 736 724
3 347 348 305
3 285 286 288
3 285 288 287
3 283 304 303
3 303 347 345
3 347 303 305
3 305 348 347
3 285 306 283
3 283 306 304
3 306 303 304
3 306 305 303
3 345 283 303
3 870 866 869
3 866 865 869
3 869 865 913
3 865 909 913
3 913 909 914
3 909 910 914
3 914 910 958
3 910 956 958
3 958 956 959
3 956 957 959
3 959 957 915
3 957 911 915
3 915 911 871
3 911 867 871
3 871 867 870
3 867 866 870
3 916 804 918
3 804 810 918
3 999 916 1001
3 916 918 1001
3 998 999 1000
3 999 1001 1000
3 912 998 917
3 998 1000 917
3 803 912 809
3 912 917 809
3 804 803 810
3 803 809 810
3 959 915 999
3 999 915 916
3 869 913 912
3 913 914 998
3 998 914 958
3 958 959 999
3 915 871 916
3 912 913 998
3 998 958 999
3 916 871 804
3 870 869 803
3 803 869 912
3 871 870 804
3 804 870 803
3 462 469 243
3 243 469 242
3 469 468 242
3 244 463 243
3 243 463 462
3 244 255 463
3 255 270 463
3 463 270 460
3 270 284 460
3 645 863 741
3 863 645 862
3 645 642 862
3 642 561 462
3 907 862 463
3 463 862 462
3 862 642 462
3 906 907 460
3 460 907 463
3 561 570 462
3 462 570 469
3 906 905 995
3 995 997 906
3 906 997 907
3 997 954 907
3 954 955 907
3 907 955 862
3 862 955 863
3 995 1203 997
3 1203 1204 997
3 1204 1148 997
3 997 1148 954
3 954 1148 955
3 1148 1150 955
3 1150 1095 955
3 908 955 1095
3 741 735 640
3 569 555 644
3 555 638 644
3 638 733 644
3 644 733 740
3 741 640 645
3 642 645 640
3 557 642 640
3 557 561 642
3 557 570 561
3 569 467 555
3 555 467 457
3 467 468 457
3 457 468 458
3 468 469 458
3 458 469 459
3 469 570 459
3 459 570 557
3 1271 1272 1243
3 1272 1244 1243
3 1240 1241 1271
3 1241 1272 1271
3 1260 1261 1293
3 1261 1264 1293
3 1293 1264 1296
3 1264 1297 1296
3 1296 1297 1324
3 1297 1299 1324
3 1324 1299 1326
3 1326 1299 1329
3 1275 1274 1273
3 1274 1309 1273
3 1309 1307 1273
3 1273 1307 1304
3 1307 1344 1304
3 1304 1344 1303
3 1303 1344 1342
3 1344 1341 1342
3 1342 1341 1339
3 1341 1338 1339
3 1339 1338 1336
3 1338 1335 1336
3 1336 1335 1333
3 1335 1332 1333
3 1333 1332 1330
3 1332 1329 1330
3 1330 1329 1302
3 1329 1299 1302
3 987 988 944
3 988 987 1017
3 987 1016 1017
3 1017 1016 1049
3 1016 1048 1049
3 1274 1275 1245
3 1275 1246 1245
3 1245 1246 1196
3 1246 1197 1196
3 1196 1197 1139
3 1197 1140 1139
3 1139 1140 1089
3 1140 1090 1089
3 1089 1090 1048
3 1090 1049 1048
3 964 966 967
3 967 966 923
3 1261 1260 1226
3 1260 1225 1226
3 1226 1225 1223
3 1225 1222 1223
3 1223 1222 1173
3 1222 1172 1173
3 1173 1172 1117
3 1172 1116 1117
3 1117 1116 1114
3 1116 1113 1114
3 1114 1113 1071
3 1113 1070 1071
3 1071 1070 1039
3 1070 1038 1039
3 1039 1038 1007
3 1038 1006 1007
3 1007 1006 964
3 1006 963 964
3 964 963 966
3 1085 1083 1133
3 1083 1130 1133
3 1130 1127 1191
3 1127 1188 1191
3 1188 1238 1191
3 1191 1238 1241
3 1241 1269 1272
3 1269 1305 1272
3 1272 1305 1244
3 1305 1276 1244
3 1276 1247 1244
3 1244 1247 1193
3 1247 1194 1193
3 1194 1137 1193
3 1193 1137 1135
3 1135 1087 1133
3 1087 1085 1133
3 822 820 882
3 820 879 882
3 882 879 928
3 928 879 925
3 925 968 928
3 928 968 971
3 968 1040 971
3 971 1040 930
3 1040 972 930
3 930 972 932
3 934 888 932
3 932 888 886
3 886 832 884
3 832 825 884
3 884 825 882
3 825 822 882
3 893 890 939
3 890 936 939
3 936 979 939
3 979 981 939
3 939 981 984
3 981 1046 984
3 984 1046 941
3 1046 985 941
3 985 942 941
3 942 899 941
3 941 899 898
3 899 858 898
3 858 855 898
3 898 855 896
3 855 848 896
3 848 843 896
3 896 843 893
3 1121 1118 1178
3 1118 1175 1178
3 1175 1227 1178
3 1178 1227 1230
3 1227 1262 1230
3 1230 1262 1266
3 1262 1300 1266
3 1266 1300 1232
3 1300 1267 1232
3 1267 1234 1232
3 1234 1236 1182
3 1236 1184 1182
3 1182 1125 1180
3 1180 1125 1124
3 1125 1074 1124
3 1124 1074 1121
3 1074 1072 1121
3 990 987 945
3 987 944 945
3 987 990 1016
3 990 1019 1016
3 1016 1019 1048
3 1019 1051 1048
3 1051 1092 1048
3 1048 1092 1089
3 1089 1092 1139
3 1092 1142 1139
3 1142 1198 1139
3 1139 1198 1196
3 1198 1250 1196
3 1196 1250 1245
3 1250 1278 1245
3 1245 1278 1274
3 1274 1278 1309
3 1309 1347 1307
3 1307 1347 1344
3 1344 1366 1341
3 1341 1366 1338
3 1366 1364 1338
3 1338 1364 1335
3 1364 1362 1335
3 1335 1362 1332
3 1362 1360 1332
3 1332 1360 1329
3 1360 1358 1329
3 1358 1355 1329
3 1329 1355 1326
3 1296 1324 1293
3 1293 1257 1260
3 1260 1257 1225
3 1225 1257 1222
3 1257 1219 1222
3 1222 1219 1172
3 1219 1169 1172
3 1172 1169 1116
3 1169 1166 1116
3 1116 1166 1113
3 1166 1111 1113
3 1113 1111 1070
3 1111 1067 1070
3 1070 1067 1038
3 1067 1035 1038
3 1038 1035 1006
3 1035 1003 1006
3 1003 961 1006
3 1006 961 963
3 963 961 966
3 919 923 966
3 919 966 961
3 1233 1181 1302
3 1261 1229 1264
3 1229 1265 1264
3 1264 1265 1297
3 1265 1299 1297
3 1226 1229 1261
3 1302 1181 1042
3 1231 1233 1302
3 1181 1179 1042
3 1042 1179 1123
3 1123 1120 1042
3 1042 1120 1039
3 1223 1173 1174
3 1173 1177 1174
3 1265 1231 1299
3 1299 1231 1302
3 1120 1177 1039
3 1039 1177 1071
3 1071 1177 1114
3 1114 1177 1117
3 1117 1177 1173
3 1174 1177 1223
3 1177 1229 1223
3 1223 1229 1226
3 1042 1076 1302
3 1186 1190 1240
3 1275 1273 1243
3 1243 1273 1271
3 1246 1192 1197
3 1302 1076 1078
3 1275 1243 1246
3 1246 1243 1192
3 1197 1192 1140
3 1140 1192 1090
3 1090 1192 1049
3 1192 1134 1049
3 1049 1134 1132
3 1186 1240 1336
3 1190 1080 1129
3 1080 1190 1186
3 1273 1304 1271
3 1271 1304 1240
3 1304 1303 1240
3 1240 1303 1342
3 1342 1339 1240
3 1240 1339 1336
3 1336 1333 1186
3 1333 1330 1186
3 1186 1330 1078
3 1078 1330 1302
3 1129 1080 1132
3 1080 1082 1132
3 1132 1082 1044
3 710 945 944
3 897 895 710
3 710 944 897
3 689 710 895
3 1017 940 988
3 1044 1014 983
3 983 1014 1012
3 1017 1049 940
3 940 1049 983
3 983 1049 1044
3 1049 1132 1044
3 988 940 944
3 689 895 892
3 944 940 897
3 974 1010 689
3 689 1008 1042
3 1012 978 938
3 938 978 976
3 976 974 689
3 1010 1008 689
3 983 1012 938
3 892 938 689
3 689 938 976
3 883 881 684
3 967 923 927
3 967 927 964
3 964 927 1007
3 923 919 881
3 881 919 684
3 881 927 923
3 923 927 924
3 923 924 927
3 1042 929 931
3 885 883 689
3 689 883 684
3 931 885 689
3 1007 927 1039
3 927 970 1039
3 1039 970 1042
3 970 929 1042
3 1042 931 689
3 797 864 805
3 864 872 805
3 864 798 872
3 798 807 872
3 807 798 808
3 798 799 808
3 808 799 755
3 799 749 755
3 755 749 668
3 749 657 668
3 668 657 667
3 657 656 667
3 656 655 667
3 667 655 666
3 666 655 665
3 655 654 665
3 665 654 752
3 654 748 752
3 752 748 805
3 748 797 805
3 868 873 801
3 873 811 801
3 813 873 802
3 873 868 802
3 811 800 801
3 756 800 811
3 756 750 800
3 669 750 756
3 661 659 669
3 669 659 750
3 663 662 671
3 671 662 670
3 662 661 670
3 670 661 669
3 671 758 663
3 663 758 751
3 758 813 751
3 751 813 802
3 755 668 754
3 668 667 754
3 666 665 753
3 665 752 753
3 752 805 753
3 753 805 806
3 805 872 806
3 806 872 807
3 807 808 754
3 808 755 754
3 1079 1078 1077
3 1078 1076 1077
3 1077 1076 1043
3 1076 1042 1043
3 1043 1042 1009
3 1042 1008 1009
3 1009 1008 1011
3 1008 1010 1011
3 1011 1010 975
3 1010 974 975
3 975 974 977
3 974 976 977
3 977 976 980
3 976 978 980
3 980 978 1013
3 978 1012 1013
3 1013 1012 1015
3 1012 1014 1015
3 1015 1014 1045
3 1014 1044 1045
3 1080 1081 1082
3 1081 1084 1082
3 1082 1084 1044
3 1084 1045 1044
3 1187 1186 1079
3 1186 1078 1079
3 1081 1080 1187
3 1080 1186 1187
3 1305 1269 1306
3 1269 1270 1306
3 1276 1305 1277
3 1305 1306 1277
3 1276 1277 1247
3 1277 1248 1247
3 1247 1248 1194
3 1248 1195 1194
3 1194 1195 1137
3 1195 1138 1137
3 1137 1138 1135
3 1138 1136 1135
3 1135 1136 1087
3 1136 1088 1087
3 1087 1088 1085
3 1088 1086 1085
3 1085 1086 1083
3 1086 1084 1083
3 1083 1084 1130
3 1084 1131 1130
3 1130 1131 1127
3 1131 1128 1127
3 1127 1128 1188
3 1128 1189 1188
3 1188 1189 1238
3 1189 1239 1238
3 1238 1239 1241
3 1239 1242 1241
3 1241 1242 1269
3 1242 1270 1269
3 1040 968 1041
3 968 969 1041
3 972 1040 973
3 1040 1041 973
3 972 973 932
3 973 933 932
3 932 933 934
3 933 935 934
3 934 935 888
3 935 889 888
3 888 889 886
3 889 887 886
3 886 887 832
3 887 833 832
3 832 833 825
3 833 826 825
3 825 826 822
3 826 823 822
3 822 823 820
3 823 821 820
3 820 821 879
3 821 880 879
3 879 880 925
3 880 926 925
3 925 926 968
3 926 969 968
3 1046 981 1047
3 981 982 1047
3 985 1046 986
3 1046 1047 986
3 985 986 942
3 986 943 942
3 942 943 899
3 943 900 899
3 899 900 858
3 900 859 858
3 858 859 855
3 859 856 855
3 855 856 848
3 856 849 848
3 848 849 843
3 849 844 843
3 843 844 893
3 844 894 893
3 893 894 890
3 894 891 890
3 890 891 936
3 891 937 936
3 936 937 979
3 937 980 979
3 979 980 981
3 980 982 981
3 1300 1262 1301
3 1262 1263 1301
3 1267 1300 1268
3 1300 1301 1268
3 1267 1268 1234
3 1268 1235 1234
3 1234 1235 1236
3 1235 1237 1236
3 1236 1237 1184
3 1237 1185 1184
3 1184 1185 1182
3 1185 1183 1182
3 1182 1183 1125
3 1183 1126 1125
3 1125 1126 1074
3 1126 1075 1074
3 1074 1075 1072
3 1075 1073 1072
3 1072 1073 1121
3 1073 1122 1121
3 1121 1122 1118
3 1122 1119 1118
3 1118 1119 1175
3 1119 1176 1175
3 1175 1176 1227
3 1176 1228 1227
3 1227 1228 1262
3 1228 1263 1262
3 758 671 757
3 757 671 670
3 670 669 757
3 757 669 756
3 756 811 812
3 811 873 812
3 812 873 813
3 320 684 685
3 684 320 689
3 320 332 689
3 689 332 710
3 711 710 332
3 710 711 945
3 711 946 945
3 945 946 991
3 962 920 961
3 961 920 919
3 961 1003 962
3 962 1003 1004
3 1003 1035 1004
3 1004 1035 1036
3 1035 1067 1036
3 1036 1067 1068
3 1067 1111 1068
3 1068 1111 1112
3 1111 1166 1112
3 1112 1166 1167
3 1166 1169 1167
3 1167 1169 1170
3 1169 1219 1170
3 1170 1219 1220
3 1219 1257 1220
3 1220 1257 1258
3 1257 1293 1258
3 1258 1293 1294
3 1293 1324 1294
3 1294 1324 1325
3 1324 1326 1325
3 1325 1326 1327
3 1326 1355 1327
3 1327 1355 1356
3 1355 1358 1356
3 1356 1358 1359
3 1358 1360 1359
3 1359 1360 1361
3 1360 1362 1361
3 1361 1362 1363
3 1362 1364 1363
3 1363 1364 1365
3 1364 1366 1365
3 1365 1366 1367
3 1366 1344 1367
3 1367 1344 1345
3 1344 1347 1345
3 1345 1347 1348
3 1347 1309 1348
3 1348 1309 1310
3 1309 1278 1310
3 1310 1278 1279
3 1278 1250 1279
3 1279 1250 1251
3 1250 1198 1251
3 1251 1198 1199
3 1198 1142 1199
3 1199 1142 1143
3 1142 1092 1143
3 1143 1092 1093
3 1092 1051 1093
3 1093 1051 1052
3 1051 1019 1052
3 1052 1019 1020
3 1019 990 1020
3 1020 990 991
3 991 990 945
3 919 920 684
3 920 685 684
3 725 283 724
3 283 345 724
3 1108 1164 1255
3 359 360 810
3 810 360 918
3 360 1108 918
3 918 1108 1001
3 1216 1320 1106
3 1320 359 1106
3 1106 359 1032
3 810 809 359
3 809 917 359
3 359 917 1032
3 917 1000 1032
3 1032 1000 1033
3 1000 1001 1033
3 1033 1001 1107
3 1001 1108 1107
3 1107 1108 1217
3 1108 1255 1217
3 1217 1255 1216
3 1255 1351 1216
3 1216 1351 1320
3 1321 1320 1352
3 1320 1351 1352
3 359 1320 362
3 1320 1321 362
3 806 814 753
3 814 759 753
3 753 759 666
3 759 672 666
3 666 672 667
3 672 673 667
3 667 673 754
3 673 760 754
3 754 760 807
3 760 815 807
3 815 814 807
3 814 806 807
3 1224 1228 1221
3 1263 1228 1259
3 1259 1228 1224
3 1295 1298 1263
3 1263 1298 1301
3 1228 1176 1221
3 1221 1176 1171
3 1171 1176 1115
3 1331 1334 1268
3 1119 1122 1037
3 1122 1073 1037
3 1037 1073 1043
3 1043 1073 1077
3 1079 1126 1187
3 1126 1183 1187
3 1183 1185 1187
3 1235 1268 1337
3 1337 1268 1334
3 1115 1176 1069
3 1176 1119 1069
3 1069 1119 1037
3 1185 1237 1187
3 1187 1237 1337
3 1237 1235 1337
3 1073 1075 1077
3 1298 1328 1301
3 1301 1328 1268
3 1268 1328 1331
3 1075 1126 1077
3 1126 1079 1077
3 877 922 926
3 878 877 880
3 880 877 926
3 1005 969 965
3 969 926 965
3 965 926 922
3 878 880 819
3 1005 1037 969
3 969 1037 1041
3 1037 1043 1041
3 686 826 690
3 819 880 821
3 767 823 686
3 823 826 686
3 821 823 766
3 766 823 767
3 833 887 697
3 935 933 977
3 690 826 693
3 826 833 693
3 693 833 697
3 887 889 697
3 697 889 977
3 889 935 977
3 1043 1009 1041
3 1041 1009 973
3 975 977 933
3 933 973 975
3 1009 1011 973
3 973 1011 975
3 787 712 849
3 849 856 787
3 1013 1015 1047
3 1015 1045 1047
3 1047 1045 1050
3 707 849 712
3 787 856 790
3 860 900 901
3 947 901 943
3 947 943 989
3 989 943 1018
3 943 986 1018
3 980 1013 982
3 977 980 937
3 790 856 859
3 859 900 860
3 1047 982 1013
3 697 844 703
3 901 900 943
3 1018 986 1050
3 1050 986 1047
3 891 894 697
3 894 844 697
3 703 844 707
3 707 844 849
3 977 937 697
3 937 891 697
3 1277 1280 1248
3 1084 1086 1045
3 1249 1200 1195
3 1050 1138 1091
3 1091 1138 1141
3 1270 1242 1337
3 1242 1239 1337
3 1088 1136 1050
3 1138 1195 1141
3 1141 1195 1200
3 1131 1084 1081
3 1045 1086 1050
3 1086 1088 1050
3 1136 1138 1050
3 1337 1239 1187
3 1187 1239 1189
3 1306 1308 1277
3 1277 1308 1311
3 1248 1249 1195
3 1249 1248 1280
3 1340 1343 1270
3 1270 1343 1306
3 1343 1346 1306
3 1306 1346 1308
3 1189 1128 1187
3 1187 1128 1081
3 1128 1131 1081
3 1337 1340 1270
3 728 733 949
3 733 951 949
3 732 733 727
3 733 728 727
3 732 727 1147
3 727 1146 1147
3 729 633 734
3 633 640 734
3 640 633 557
3 633 550 557
3 557 550 556
3 550 549 556
3 556 549 555
3 549 548 555
3 555 548 638
3 548 631 638
3 638 631 639
3 631 632 639
3 632 729 639
3 729 734 639
3 812 816 756
3 816 761 756
3 756 761 757
3 761 762 757
3 757 762 670
3 762 674 670
3 670 674 757
3 674 762 757
3 757 762 758
3 762 763 758
3 758 763 813
3 763 817 813
3 817 816 813
3 816 812 813
3 453 903 364
3 903 874 364
3 363 1109 360
3 1109 1108 360
3 1164 1108 1165
3 1108 1109 1165
3 38 404 42
3 404 412 42
3 42 412 46
3 412 420 46
3 46 420 47
3 420 421 47
3 47 421 49
3 421 426 49
3 49 426 50
3 426 427 50
3 50 427 51
3 427 428 51
3 51 428 52
3 428 429 52
3 52 429 53
3 429 430 53
3 53 430 48
3 430 422 48
3 48 422 43
3 422 413 43
3 43 413 44
3 413 414 44
3 44 414 39
3 414 405 39
3 39 405 36
3 405 398 36
3 36 398 34
3 398 393 34
3 34 393 33
3 393 392 33
3 33 392 30
3 392 387 30
3 30 387 29
3 387 386 29
3 29 386 28
3 386 385 28
3 28 385 27
3 385 384 27
3 27 384 26
3 384 383 26
3 26 383 32
3 383 391 32
3 32 391 31
3 391 390 31
3 31 390 35
3 390 397 35
3 35 397 38
3 397 404 38
3 726 630 731
3 630 636 731
3 629 726 635
3 726 731 635
3 636 630 553
3 630 547 553
3 553 547 552
3 547 546 552
3 552 546 635
3 546 629 635
3 742 739 738
3 738 737 736
3 725 724 737
3 724 736 737
3 453 364 363
3 429 428 453
3 404 397 361
3 393 363 362
3 362 363 359
3 363 360 359
3 386 387 362
3 427 452 428
3 452 427 426
3 387 392 362
3 362 392 393
3 453 428 452
3 426 421 452
3 421 420 452
3 452 420 412
3 361 397 390
3 390 391 361
3 405 414 453
3 414 413 453
3 413 422 453
3 422 430 453
3 453 430 429
3 362 384 385
3 362 385 386
3 393 398 363
3 412 404 452
3 452 404 361
3 398 405 363
3 363 405 453
3 391 383 361
3 361 383 362
3 383 384 362
3 1406 1410 1371
3 1371 1410 1375
3 1410 1409 1375
3 1375 1409 1374
3 1409 1413 1374
3 1374 1413 1378
3 1413 1412 1378
3 1378 1412 1377
3 1412 1411 1377
3 1377 1411 1376
3 1411 1408 1376
3 1376 1408 1373
3 1408 1407 1373
3 1373 1407 1372
3 1405 1370 1407
3 1407 1370 1372
3 1406 1424 1410
3 1424 1428 1410
3 1410 1428 1409
3 1428 1427 1409
3 1409 1427 1413
3 1427 1431 1413
3 1413 1431 1412
3 1431 1430 1412
3 1412 1430 1411
3 1430 1429 1411
3 1411 1429 1408
3 1429 1426 1408
3 1408 1426 1407
3 1426 1425 1407
3 1407 1425 1405
3 1425 1423 1405
3 1424 1444 1428
3 1444 1448 1428
3 1428 1448 1427
3 1448 1447 1427
3 1427 1447 1431
3 1447 1451 1431
3 1431 1451 1430
3 1451 1450 1430
3 1430 1450 1429
3 1450 1449 1429
3 1449 1446 1429
3 1429 1446 1426
3 1426 1446 1425
3 1446 1445 1425
3 1425 1445 1423
3 1445 1443 1423
3 1447 1473 1451
3 1451 1473 1450
3 1473 1472 1450
3 1450 1472 1449
3 1472 1471 1449
3 1449 1471 1446
3 1444 1469 1448
3 1448 1469 1447
3 1469 1473 1447
3 1446 1471 1445
3 1471 1470 1445
3 1470 1466 1445
3 1445 1466 1443
3 1442 1465 1444
3 1465 1469 1444
3 1469 1468 1473
3 1473 1495 1472
3 1495 1494 1472
3 1472 1494 1471
3 1494 1493 1471
3 1471 1467 1470
3 1467 1466 1470
3 1466 1464 1443
3 1443 1464 1441
3 1469 1492 1468
3 1492 1491 1468
3 1468 1491 1473
3 1473 1491 1495
3 1493 1490 1471
3 1471 1490 1467
3 1467 1490 1466
3 1490 1489 1466
3 1465 1488 1469
3 1469 1488 1492
3 1491 1531 1495
3 1495 1531 1494
3 1531 1530 1494
3 1494 1530 1493
3 1530 1529 1493
3 1493 1529 1490
3 1489 1487 1466
3 1466 1487 1464
3 1486 1488 1465
3 1492 1488 1491
3 1488 1527 1491
3 1527 1531 1491
3 1529 1525 1490
3 1490 1525 1489
3 1525 1524 1489
3 1524 1487 1489
3 1487 1485 1464
3 1488 1528 1527
3 1531 1527 1530
3 1527 1526 1530
3 1530 1526 1529
3 1526 1525 1529
3 1486 1523 1488
3 1488 1523 1528
3 1527 1571 1526
3 1571 1570 1526
3 1526 1570 1525
3 1570 1569 1525
3 1524 1521 1487
3 1487 1521 1485
3 1528 1523 1527
3 1523 1522 1527
3 1522 1567 1527
3 1527 1567 1571
3 1571 1567 1570
3 1567 1566 1570
3 1570 1565 1569
3 1569 1565 1525
3 1525 1565 1524
3 1565 1521 1524
3 1486 1520 1523
3 1523 1568 1522
3 1568 1567 1522
3 1570 1566 1565
3 1565 1564 1521
3 1521 1519 1485
3 1520 1563 1523
3 1523 1563 1568
3 1568 1563 1567
3 1563 1562 1567
3 1567 1562 1566
3 1562 1590 1566
3 1566 1590 1565
3 1590 1589 1565
3 1589 1561 1565
3 1565 1561 1564
3 1561 1560 1564
3 1564 1560 1521
3 1521 1560 1519
3 1562 1591 1590
3 1520 1518 1563
3 1518 1559 1563
3 1563 1559 1562
3 1559 1558 1562
3 1558 1588 1562
3 1562 1588 1591
3 1591 1588 1590
3 1588 1587 1590
3 1590 1587 1589
3 1587 1586 1589
3 1589 1586 1561
3 1586 1557 1561
3 1561 1557 1560
3 1557 1556 1560
3 1560 1556 1519
3 1556 1517 1519
3 1516 1555 1518
3 1518 1555 1559
3 1559 1555 1558
3 1555 1554 1558
3 1558 1554 1588
3 1554 1585 1588
3 1588 1585 1587
3 1585 1584 1587
3 1587 1584 1586
3 1584 1583 1586
3 1586 1583 1557
3 1583 1553 1557
3 1557 1553 1556
3 1553 1552 1556
3 1556 1552 1517
3 1552 1515 1517
3 1514 1551 1516
3 1516 1551 1555
3 1551 1550 1555
3 1555 1550 1554
3 1550 1582 1554
3 1554 1582 1585
3 1582 1581 1585
3 1585 1581 1584
3 1581 1580 1584
3 1584 1580 1583
3 1580 1549 1583
3 1583 1549 1553
3 1549 1548 1553
3 1553 1548 1552
3 1548 1513 1552
3 1552 1513 1515
3 1404 1402 1422
3 1422 1402 1420
3 1420 1402 1419
3 1402 1401 1419
3 1419 1401 1416
3 1401 1399 1416
3 1416 1399 1415
3 1399 1398 1415
3 1398 1397 1415
3 1415 1397 1414
3 1397 1400 1414
3 1414 1400 1417
3 1514 1512 1551
3 1512 1547 1551
3 1551 1547 1550
3 1547 1546 1550
3 1550 1546 1582
3 1546 1579 1582
3 1582 1579 1581
3 1579 1578 1581
3 1581 1578 1580
3 1578 1577 1580
3 1580 1577 1549
3 1577 1545 1549
3 1549 1545 1548
3 1545 1544 1548
3 1544 1511 1548
3 1548 1511 1513
3 1547 1542 1546
3 1546 1542 1579
3 1542 1576 1579
3 1579 1576 1578
3 1576 1575 1578
3 1578 1575 1577
3 1575 1574 1577
3 1574 1541 1577
3 1577 1541 1545
3 1545 1541 1544
3 1541 1540 1544
3 1512 1510 1547
3 1510 1543 1547
3 1547 1543 1542
3 1544 1540 1511
3 1540 1509 1511
3 1543 1538 1542
3 1542 1538 1576
3 1576 1538 1575
3 1538 1573 1575
3 1575 1573 1574
3 1573 1572 1574
3 1572 1536 1574
3 1574 1536 1541
3 1541 1536 1540
3 1536 1535 1540
3 1510 1508 1543
3 1508 1539 1543
3 1543 1539 1538
3 1538 1537 1573
3 1573 1537 1572
3 1537 1536 1572
3 1535 1506 1540
3 1540 1506 1509
3 1510 1484 1508
3 1539 1508 1538
3 1508 1507 1538
3 1507 1534 1538
3 1538 1534 1537
3 1534 1533 1537
3 1537 1533 1536
3 1533 1532 1536
3 1536 1532 1535
3 1532 1506 1535
3 1508 1505 1507
3 1505 1504 1507
3 1507 1504 1534
3 1532 1503 1506
3 1503 1502 1506
3 1484 1482 1508
3 1508 1482 1505
3 1504 1501 1534
3 1534 1501 1533
3 1501 1500 1533
3 1533 1500 1532
3 1500 1499 1532
3 1532 1499 1503
3 1502 1481 1506
3 1506 1481 1483
3 1482 1480 1505
3 1505 1480 1504
3 1480 1501 1504
3 1503 1499 1502
3 1499 1498 1502
3 1498 1477 1502
3 1477 1481 1502
3 1480 1479 1501
3 1501 1497 1500
3 1500 1497 1499
3 1497 1496 1499
3 1499 1478 1498
3 1478 1477 1498
3 1463 1461 1482
3 1482 1461 1480
3 1479 1476 1501
3 1501 1476 1497
3 1476 1475 1497
3 1497 1475 1496
3 1475 1474 1496
3 1496 1474 1499
3 1499 1474 1478
3 1477 1460 1481
3 1461 1459 1480
3 1480 1459 1479
3 1459 1458 1479
3 1479 1458 1476
3 1474 1456 1478
3 1478 1456 1477
3 1456 1455 1477
3 1455 1460 1477
3 1476 1458 1475
3 1458 1457 1475
3 1457 1453 1475
3 1453 1457 1475
3 1475 1457 1474
3 1457 1456 1474
3 1440 1438 1461
3 1461 1438 1459
3 1459 1438 1458
3 1438 1437 1458
3 1458 1454 1457
3 1454 1453 1457
3 1457 1453 1456
3 1453 1452 1456
3 1456 1436 1455
3 1436 1435 1455
3 1455 1435 1460
3 1435 1439 1460
3 1437 1434 1458
3 1458 1434 1454
3 1454 1434 1453
3 1434 1433 1453
3 1453 1433 1452
3 1433 1432 1452
3 1452 1432 1456
3 1456 1432 1436
3 1422 1420 1440
3 1440 1420 1438
3 1438 1420 1437
3 1420 1419 1437
3 1419 1416 1437
3 1437 1416 1434
3 1434 1416 1433
3 1416 1415 1433
3 1433 1415 1432
3 1415 1414 1432
3 1432 1414 1436
3 1414 1418 1436
3 1436 1418 1435
3 1418 1417 1435
3 1435 1417 1439
3 1417 1421 1439
3 1418 1414 1417
3 1417 1400 1421
3 1400 1403 1421
3 1481 1460 1462
3 1509 1506 1483
3 814 815 1386
3 815 1321 1386
3 1386 1321 1352
3 361 362 672
3 672 362 673
3 760 673 362
3 672 759 361
3 759 1396 361
3 759 814 1396
3 1396 814 1386
3 815 760 1321
3 1321 760 362
3 1066 1037 1034
3 1034 1037 1002
3 1037 1005 1002
3 1002 1005 960
3 1005 965 960
3 960 965 921
3 965 922 921
3 921 922 876
3 922 877 876
3 876 877 818
3 877 878 818
3 818 878 764
3 878 819 764
3 764 819 765
3 819 821 765
3 765 821 675
3 821 766 675
3 675 766 676
3 766 767 676
3 676 767 584
3 584 767 590
3 767 686 590
3 590 686 593
3 593 686 497
3 686 690 497
3 690 693 497
3 497 693 501
3 501 693 507
3 693 697 507
3 507 697 515
3 697 703 515
3 515 703 521
3 703 707 521
3 521 707 616
3 616 707 620
3 707 712 620
3 712 787 620
3 620 787 720
3 720 787 723
3 787 790 723
3 723 790 791
3 790 859 791
3 791 859 792
3 859 860 792
3 792 860 861
3 860 901 861
3 861 901 902
3 901 947 902
3 902 947 948
3 948 947 992
3 947 989 992
3 992 989 993
3 989 1018 993
3 993 1018 1021
3 1021 1018 1053
3 1018 1050 1053
3 1053 1050 1094
3 1050 1091 1094
3 1094 1091 1145
3 1145 1091 1144
3 1091 1141 1144
3 1144 1141 1201
3 1141 1200 1201
3 1201 1200 1252
3 1200 1249 1252
3 1252 1249 1281
3 1281 1249 1313
3 1249 1280 1313
3 1313 1280 1312
3 1280 1277 1312
3 1312 1277 1350
3 1277 1311 1350
3 1350 1311 1349
3 1311 1308 1349
3 1349 1308 1369
3 1308 1346 1369
3 1369 1346 1368
3 1346 1343 1368
3 1368 1343 1391
3 1391 1343 1390
3 1343 1340 1390
3 1390 1340 1389
3 1340 1337 1389
3 1389 1337 1388
3 1337 1334 1388
3 1388 1334 1387
3 1334 1331 1387
3 1387 1331 1357
3 1331 1328 1357
3 1357 1328 1354
3 1354 1328 1353
3 1328 1298 1353
3 1353 1298 1323
3 1323 1298 1322
3 1298 1295 1322
3 1322 1295 1292
3 1295 1263 1292
3 1292 1263 1291
3 1263 1259 1291
3 1291 1259 1256
3 1259 1224 1256
3 1256 1224 1218
3 1224 1221 1218
3 1221 1171 1218
3 1218 1171 1168
3 1168 1171 1110
3 1171 1115 1110
3 1115 1069 1110
3 1110 1069 1066
3 1066 1069 1037
3 640 735 734
3 735 794 734
3 734 794 639
3 794 733 639
3 733 638 639
3 555 457 556
3 457 458 556
3 458 459 556
3 459 557 556
3 1147 952 951
3 733 732 951
3 732 1147 951
3 949 951 950
3 951 952 950
3 728 949 950
3 950 904 903
3 1146 727 726
3 726 727 630
3 1146 726 1202
3 726 629 1202
3 632 728 729
3 728 950 729
3 729 950 633
3 950 903 633
3 632 630 728
3 728 630 727
3 632 547 630
3 453 550 633
3 453 633 903
3 629 546 452
3 631 548 452
3 1202 629 452
3 548 549 452
3 549 550 453
3 631 452 632
3 452 546 632
3 546 547 632
3 452 549 453
3 875 874 904
3 874 903 904
3 1165 874 1065
3 874 875 1065
3 817 874 816
3 874 1165 816
3 1165 1109 816
3 874 817 763
3 761 816 1109
3 674 762 363
3 363 762 761
3 363 761 1109
3 364 674 363
3 874 763 364
3 763 762 364
3 762 674 364
3 553 554 636
3 554 637 636
3 636 732 731
3 732 793 731
3 731 793 635
3 793 730 635
3 730 634 635
3 634 551 635
3 635 551 552
3 455 456 552
3 552 456 553
3 733 794 740
3 794 795 740
3 875 904 905
3 904 950 905
3 905 950 952
3 1146 1202 1147
3 1202 1203 1147
3 1147 1203 952
3 1203 995 952
3 952 995 905
3 744 730 745
3 730 793 745
3 745 793 796
3 465 466 456
3 746 732 649
3 732 636 649
3 637 650 636
3 650 649 636
3 554 573 637
3 573 650 637
3 566 567 553
3 553 567 554
3 567 573 554
3 456 466 553
3 553 466 566
3 456 455 465
3 455 552 465
3 465 552 565
3 565 552 564
3 552 551 564
3 564 551 572
3 551 634 572
3 572 634 648
3 634 730 648
3 648 730 744
