ply
format ascii 1.0
element vertex 1118
property float x
property float y
property float z
element face 2388
property list uchar int vertex_indices
end_header
-0.011482 -0.081809 -0.000908
-0.011582 -0.081903 -0.000026
-0.011454 -0.081812 0.000917
-0.011662 -0.080613 -0.002511
-0.011949 -0.081116 -0.001471
-0.012181 -0.081339 -0.000007
-0.011940 -0.081122 0.001484
-0.011639 -0.080616 0.002520
-0.011487 -0.078791 -0.003808
-0.011907 -0.079616 -0.002959
-0.012288 -0.080002 -0.002009
-0.012289 -0.079990 0.002021
-0.011915 -0.079615 0.002963
-0.011485 -0.078790 0.003806
-0.011685 -0.078070 -0.004024
-0.012167 -0.078304 -0.003391
-0.012166 -0.078317 0.003394
-0.011724 -0.078077 0.004007
-0.011864 -0.076519 -0.004446
-0.012297 -0.076812 -0.003649
-0.012294 -0.076838 0.003662
-0.011842 -0.076506 0.004466
-0.011488 -0.074424 -0.005301
-0.012107 -0.074678 -0.004725
-0.012043 -0.074684 0.004778
-0.011517 -0.074430 0.005295
-0.011300 -0.074059 -0.005415
-0.012291 -0.074219 -0.004462
-0.012287 -0.074227 0.004498
-0.011732 -0.072000 -0.005670
-0.012273 -0.072000 -0.005021
-0.012282 -0.072000 0.004954
-0.011823 -0.072000 0.005630
-0.010038 -0.071734 -0.005528
-0.010278 -0.071849 -0.005023
-0.010283 -0.071828 0.005003
-0.010042 -0.071737 0.005527
-0.010300 -0.069333 -0.005283
-0.010129 -0.067031 -0.006036
-0.010300 -0.067000 -0.000750
-0.010300 -0.067395 -0.000003
-0.010300 -0.067000 0.000750
-0.010131 -0.067033 0.006041
-0.010300 -0.066434 0.000004
-0.010300 -0.064611 0.005859
-0.009921 -0.062000 -0.006886
-0.010241 -0.062000 -0.006367
-0.010239 -0.062000 0.006375
-0.009967 -0.062000 0.006851
-0.009907 -0.020942 -0.019243
-0.009927 -0.021284 -0.018511
-0.009928 -0.021280 0.018507
-0.009907 -0.020942 0.019242
-0.009945 -0.019976 -0.019677
-0.009946 -0.019972 0.019673
-0.010000 -0.016094 -0.016120
-0.010000 -0.016369 -0.015520
-0.010000 -0.016383 0.014042
-0.010000 -0.016094 0.014705
-0.010000 -0.015056 -0.016860
-0.010000 -0.015023 0.015474
-0.010000 -0.013436 -0.017324
-0.010000 -0.014076 -0.017213
-0.010000 -0.013583 0.015899
-0.010000 -0.012548 -0.017396
-0.010000 -0.012573 0.015996
-0.009877 -0.007695 -0.023457
-0.009995 -0.007640 -0.023068
-0.010000 -0.007431 -0.018900
-0.010000 -0.007431 -0.017400
-0.010000 -0.007431 0.016000
-0.010000 -0.007431 0.017500
-0.009993 -0.007643 0.023092
-0.009877 -0.007695 0.023457
-0.009875 0.000334 -0.023440
-0.009979 0.000382 -0.023089
-0.010000 0.000000 -0.018900
-0.010000 0.000000 0.017500
-0.009980 0.000371 0.023087
-0.009875 0.000334 0.023440
-0.009810 0.001470 -0.023381
-0.009868 0.001550 -0.023049
-0.009909 0.001277 -0.018900
-0.009909 0.001277 0.017500
-0.009866 0.001564 0.023050
-0.009810 0.001470 0.023381
-0.008902 -0.081824 -0.000880
-0.008743 -0.081913 0.000001
-0.008889 -0.081823 0.000880
-0.008673 -0.080662 -0.002569
-0.008733 -0.081439 -0.001610
-0.008735 -0.081425 0.001635
-0.008674 -0.080682 0.002553
-0.008413 -0.078940 -0.003759
-0.008545 -0.079831 -0.003223
-0.008575 -0.079824 0.003229
-0.008398 -0.078884 0.003788
-0.008390 -0.078707 -0.003877
-0.008335 -0.078559 0.003947
-0.009535 -0.071793 -0.005846
-0.009516 -0.071822 0.005842
-0.009300 -0.070414 -0.006121
-0.008438 -0.070665 0.000000
-0.009516 -0.067091 -0.006552
-0.009548 -0.067084 0.006547
-0.009300 -0.065704 0.006748
-0.009300 -0.064364 -0.006890
-0.009455 -0.062000 -0.007089
-0.008293 -0.061893 -0.006187
-0.008290 -0.062000 0.006204
-0.009534 -0.062000 0.007073
-0.008286 -0.060258 -0.006400
-0.008300 -0.059697 -0.000008
-0.008290 -0.059884 0.006382
-0.008300 -0.059027 -0.000750
-0.008300 -0.058533 -0.000060
-0.008300 -0.059027 0.000750
-0.008300 -0.053635 0.000088
-0.008300 -0.053053 -0.000750
-0.008300 -0.052579 -0.000001
-0.008300 -0.053053 0.000750
-0.008300 -0.051232 -0.006892
-0.008300 -0.048023 -0.007101
-0.008300 -0.048025 0.006294
-0.008300 -0.047447 0.007139
-0.008300 -0.042997 -0.000750
-0.008300 -0.043471 -0.000006
-0.008300 -0.042997 0.000750
-0.008295 -0.041554 -0.007616
-0.008300 -0.042397 0.000023
-0.008282 -0.041562 0.007718
-0.008300 -0.037649 -0.007908
-0.008300 -0.034944 0.008191
-0.008289 -0.032893 -0.008550
-0.008300 -0.032941 -0.000750
-0.008300 -0.033090 0.000013
-0.008300 -0.032941 0.000750
-0.008282 -0.032899 0.008597
-0.008300 -0.032209 0.000000
-0.008300 -0.029428 -0.008948
-0.008287 -0.027960 -0.009337
-0.008280 -0.027970 0.009390
-0.008300 -0.027341 0.009327
-0.008287 -0.024981 -0.009981
-0.008281 -0.024989 0.010016
-0.008289 -0.024119 -0.010279
-0.008300 -0.023498 0.000090
-0.008286 -0.024013 0.010364
-0.009223 -0.021844 -0.018976
-0.009239 -0.021932 -0.018472
-0.008286 -0.022176 -0.011831
-0.008289 -0.022938 -0.011009
-0.008300 -0.022885 -0.000750
-0.008300 -0.022470 -0.000013
-0.008300 -0.022885 0.000750
-0.008300 -0.022000 0.006294
-0.008289 -0.022944 0.011007
-0.008282 -0.022231 0.011831
-0.009240 -0.021932 0.018477
-0.009218 -0.021844 0.018978
-0.009111 -0.020479 -0.020293
-0.009385 -0.021262 -0.019654
-0.009691 -0.021707 -0.018521
-0.009691 -0.021707 0.018521
-0.009385 -0.021261 0.019655
-0.009120 -0.020479 0.020292
-0.009250 -0.020064 -0.020386
-0.009672 -0.020007 -0.020188
-0.009675 -0.020006 0.020186
-0.009246 -0.020064 0.020387
-0.008958 -0.014579 -0.014974
-0.009180 -0.014965 -0.013624
-0.009177 -0.014960 0.012288
-0.008957 -0.014577 0.013577
-0.008675 -0.013518 -0.016364
-0.008761 -0.014204 -0.015658
-0.008775 -0.014242 0.014206
-0.008679 -0.013551 0.014930
-0.008905 -0.011639 -0.017310
-0.008766 -0.012385 -0.017080
-0.008748 -0.012493 0.015639
-0.008884 -0.011742 0.015886
-0.009052 -0.010948 -0.017394
-0.009054 -0.010939 0.015994
-0.009333 -0.007759 -0.023908
-0.009330 -0.007759 0.023909
-0.008809 -0.004950 -0.024000
-0.008809 -0.004950 -0.022400
-0.008809 -0.004950 0.021000
-0.008809 -0.004950 0.024000
-0.009350 0.000311 -0.023892
-0.009373 0.000342 0.023885
-0.009337 0.001833 -0.023773
-0.009744 0.002211 -0.023120
-0.009743 0.002210 0.023130
-0.009331 0.001828 0.023777
-0.009185 0.002683 -0.023729
-0.009605 0.002766 -0.022665
-0.009582 0.002832 -0.018900
-0.009538 0.002975 0.017500
-0.009571 0.002885 0.021000
-0.009621 0.002693 0.023097
-0.009165 0.002681 0.023744
-0.008925 0.004490 -0.022400
-0.008890 0.004559 -0.018900
-0.008893 0.004554 0.017500
-0.008890 0.004559 0.021000
-0.008264 0.005631 -0.022400
-0.008264 0.005631 -0.018900
-0.008264 0.005631 0.017500
-0.008264 0.005631 0.021000
-0.008146 -0.081783 0.000064
-0.007866 -0.080486 -0.002475
-0.007593 -0.081065 -0.001398
-0.007349 -0.081286 0.000001
-0.007579 -0.081054 0.001401
-0.007877 -0.080479 0.002488
-0.007553 -0.079577 -0.003097
-0.006781 -0.080043 -0.001980
-0.006835 -0.079948 0.002203
-0.007542 -0.079544 0.003106
-0.007582 -0.078008 -0.004113
-0.006899 -0.078467 -0.003633
-0.006894 -0.078457 0.003638
-0.007581 -0.077981 0.004126
-0.007227 -0.076707 -0.004643
-0.007203 -0.076487 0.004721
-0.006903 -0.075312 -0.005096
-0.006867 -0.075158 0.005139
-0.008211 -0.070201 -0.000750
-0.008152 -0.070080 0.000000
-0.008211 -0.070201 0.000750
-0.007918 -0.069602 0.000000
-0.007684 -0.062000 -0.006991
-0.008197 -0.062000 -0.006541
-0.008182 -0.062000 0.006572
-0.007685 -0.062000 0.006992
-0.007746 -0.060315 -0.007098
-0.008211 -0.060279 -0.006662
-0.008210 -0.060280 0.006667
-0.007786 -0.060310 0.007080
-0.007300 -0.053270 -0.007761
-0.007300 -0.053720 0.007731
-0.007619 -0.041622 -0.008471
-0.008166 -0.041589 -0.008048
-0.008145 -0.041592 0.008085
-0.007652 -0.041622 0.008468
-0.007300 -0.038393 -0.008842
-0.007300 -0.039747 0.008720
-0.007845 -0.032975 -0.009188
-0.007816 -0.032978 0.009211
-0.007300 -0.031889 0.009583
-0.007300 -0.029716 -0.009914
-0.007688 -0.028098 -0.010067
-0.008199 -0.028016 -0.009634
-0.008195 -0.028018 0.009644
-0.007699 -0.028097 0.010062
-0.007300 -0.026688 0.010483
-0.007764 -0.025019 -0.010681
-0.007762 -0.025020 0.010685
-0.007594 -0.023583 -0.011526
-0.007912 -0.024180 -0.010899
-0.007916 -0.024180 0.010898
-0.007595 -0.023582 0.011526
-0.007374 -0.022005 -0.014642
-0.007658 -0.022176 -0.013421
-0.007874 -0.022700 -0.012151
-0.008240 -0.023220 -0.011068
-0.008240 -0.023220 0.011068
-0.007876 -0.022698 0.012153
-0.007655 -0.022179 0.013419
-0.007375 -0.022005 0.014633
-0.006839 -0.006879 -0.024000
-0.006839 -0.006879 -0.022400
-0.006839 -0.006879 0.021000
-0.006839 -0.006879 0.024000
-0.007237 -0.004950 -0.022400
-0.007237 -0.004950 -0.018900
-0.007237 -0.004950 0.017500
-0.007237 -0.004950 0.021000
-0.006839 -0.003021 -0.024000
-0.006839 -0.003021 -0.022400
-0.006839 -0.003021 0.021000
-0.006839 -0.003021 0.024000
-0.007237 0.004950 -0.022400
-0.007237 0.004950 -0.018900
-0.007237 0.004950 0.017500
-0.007237 0.004950 0.021000
-0.007753 0.006316 -0.022400
-0.007753 0.006316 -0.018900
-0.007753 0.006316 0.017500
-0.007753 0.006316 0.021000
-0.007186 0.006955 -0.022400
-0.007186 0.006955 -0.018900
-0.007186 0.006955 0.017500
-0.007186 0.006955 0.021000
-0.006609 -0.080377 -0.000921
-0.006615 -0.080539 -0.000005
-0.006600 -0.080364 0.000918
-0.006482 -0.079231 -0.002583
-0.006338 -0.079702 -0.001504
-0.006365 -0.080070 0.000003
-0.006371 -0.079724 0.001529
-0.006477 -0.079221 0.002588
-0.006524 -0.077752 -0.003900
-0.006192 -0.078462 -0.002984
-0.005602 -0.078417 -0.001793
-0.005582 -0.078409 0.001656
-0.006186 -0.078452 0.002989
-0.006521 -0.077744 0.003903
-0.006206 -0.077031 -0.004139
-0.005469 -0.077157 -0.003423
-0.005466 -0.077151 0.003425
-0.006214 -0.077023 0.004149
-0.005981 -0.075491 -0.004816
-0.005954 -0.075497 0.004806
-0.005920 -0.073920 -0.005401
-0.005320 -0.074115 -0.005209
-0.005318 -0.074112 0.005210
-0.005874 -0.073840 0.005419
-0.005519 -0.072465 -0.005748
-0.005441 -0.072312 0.005777
-0.005300 -0.067000 -0.000750
-0.005300 -0.067296 0.000000
-0.005300 -0.067000 0.000750
-0.005300 -0.066435 0.000000
-0.005345 -0.008452 -0.018900
-0.005345 -0.008452 -0.017400
-0.005345 -0.008452 0.016000
-0.005345 -0.008452 0.017500
-0.006052 -0.007370 -0.024000
-0.006052 -0.007370 -0.022400
-0.006365 -0.007701 -0.018900
-0.006336 -0.007725 -0.017400
-0.006329 -0.007731 0.016000
-0.006402 -0.007671 0.017500
-0.006052 -0.007370 0.021000
-0.006052 -0.007370 0.024000
-0.005717 -0.006327 -0.022400
-0.005740 -0.006312 -0.018900
-0.005705 -0.006334 0.017500
-0.005733 -0.006317 0.021000
-0.006069 -0.003807 -0.022400
-0.006069 -0.003807 -0.018900
-0.006069 -0.003807 0.017500
-0.006069 -0.003807 0.021000
-0.006052 -0.002530 -0.024000
-0.005875 -0.002996 -0.022400
-0.005670 -0.003540 -0.018900
-0.005669 -0.003540 0.017500
-0.005875 -0.002996 0.021000
-0.006062 -0.002535 0.024000
-0.005717 -0.000000 -0.018900
-0.005717 -0.000000 0.017500
-0.005670 0.003540 -0.022400
-0.005666 0.003538 -0.018900
-0.005668 0.003540 0.017500
-0.005666 0.003538 0.021000
-0.006069 0.003807 -0.022400
-0.006069 0.003807 -0.018900
-0.006069 0.003807 0.017500
-0.006069 0.003807 0.021000
-0.005746 0.006309 -0.022400
-0.005715 0.006327 -0.018900
-0.005746 0.006309 0.017500
-0.005715 0.006327 0.021000
-0.006232 0.007809 -0.022400
-0.006232 0.007809 -0.018900
-0.006232 0.007809 0.017500
-0.006232 0.007809 0.021000
-0.005242 -0.077789 -0.001576
-0.005160 -0.077621 0.001639
-0.004950 -0.075782 -0.004017
-0.004487 -0.075798 -0.003229
-0.004496 -0.076263 -0.002085
-0.004414 -0.076097 0.002133
-0.004484 -0.075794 0.003226
-0.004946 -0.075779 0.004016
-0.005186 -0.075738 -0.004284
-0.004252 -0.075729 -0.002542
-0.004248 -0.075723 0.002531
-0.005184 -0.075734 0.004285
-0.004433 -0.072824 -0.005369
-0.004323 -0.073317 -0.005052
-0.004322 -0.073314 0.005053
-0.004437 -0.072819 0.005373
-0.004916 -0.072635 -0.005609
-0.004914 -0.072632 0.005609
-0.004300 -0.070089 -0.006148
-0.003863 -0.069777 0.006173
-0.004106 -0.069670 -0.006223
-0.004022 -0.069450 0.006255
-0.004229 -0.009052 -0.018900
-0.004229 -0.009052 -0.017400
-0.004229 -0.009052 0.016000
-0.004229 -0.009052 0.017500
-0.004406 -0.007556 -0.024000
-0.004472 -0.007566 -0.022400
-0.004472 -0.007566 0.021000
-0.004484 -0.007568 0.024000
-0.004482 -0.006405 -0.022400
-0.004471 -0.006400 -0.018900
-0.004463 -0.006399 0.017500
-0.004482 -0.006405 0.021000
-0.003814 -0.003822 -0.022400
-0.003814 -0.003822 -0.018900
-0.003814 -0.003822 0.017500
-0.003814 -0.003822 0.021000
-0.004395 -0.002348 -0.024000
-0.004490 -0.003070 -0.022400
-0.004540 -0.003464 -0.018900
-0.004550 -0.003462 0.017500
-0.004490 -0.003070 0.021000
-0.004329 -0.002364 0.024000
-0.004931 -0.002250 -0.024000
-0.004931 -0.002250 -0.022400
-0.004931 -0.002250 0.021000
-0.004931 -0.002250 0.024000
-0.004288 -0.000000 -0.020400
-0.004288 -0.000000 -0.019900
-0.004288 -0.000000 0.018500
-0.004288 -0.000000 0.019000
-0.004435 0.002354 -0.024000
-0.004559 0.002990 -0.022400
-0.004538 0.003465 -0.018900
-0.004540 0.003464 0.017500
-0.004548 0.002993 0.021000
-0.004848 0.002295 0.024000
-0.003814 0.003822 -0.022400
-0.003814 0.003822 -0.018900
-0.003814 0.003822 0.017500
-0.003814 0.003822 0.021000
-0.004465 0.006399 -0.022400
-0.004495 0.006411 -0.018900
-0.004465 0.006399 0.017500
-0.004466 0.006403 0.021000
-0.004838 0.008741 -0.022400
-0.004838 0.008741 -0.018900
-0.004838 0.008741 0.017500
-0.004838 0.008741 0.021000
-0.003416 -0.073115 -0.004299
-0.003086 -0.073280 -0.003191
-0.002821 -0.072836 -0.000750
-0.003027 -0.073258 0.000022
-0.002821 -0.072836 0.000750
-0.003047 -0.073180 0.003288
-0.003414 -0.073112 0.004299
-0.002600 -0.072384 0.000030
-0.003094 -0.070099 -0.005781
-0.002345 -0.070369 -0.005140
-0.002343 -0.070366 0.005140
-0.003092 -0.070095 0.005781
-0.003701 -0.068202 -0.006444
-0.002498 -0.065673 0.006751
-0.002260 -0.058664 -0.007385
-0.002260 -0.058664 0.007385
-0.003052 -0.009523 -0.018900
-0.003052 -0.009523 -0.017400
-0.003052 -0.009523 0.016000
-0.003052 -0.009523 0.017500
-0.003305 -0.007075 -0.024000
-0.003305 -0.007075 -0.022400
-0.003305 -0.007075 0.021000
-0.003325 -0.007091 0.024000
-0.002537 -0.006069 -0.024000
-0.003002 -0.005888 -0.022400
-0.003547 -0.005681 -0.018900
-0.003549 -0.005686 0.017500
-0.003002 -0.005888 0.021000
-0.002529 -0.006052 0.024000
-0.002391 -0.004230 -0.024000
-0.003067 -0.004504 -0.022400
-0.003456 -0.004550 -0.018900
-0.003454 -0.004547 0.017500
-0.003067 -0.004504 0.021000
-0.002341 -0.004423 0.024000
-0.003050 -0.003089 -0.024000
-0.003063 -0.003076 -0.022400
-0.002573 -0.003049 -0.018900
-0.002556 -0.003064 0.017500
-0.003063 -0.003076 0.021000
-0.003063 -0.003076 0.024000
-0.002287 -0.000000 -0.024000
-0.002287 0.000000 -0.020400
-0.003117 0.003022 -0.024000
-0.003104 0.003035 -0.022400
-0.002573 0.003049 -0.018900
-0.002573 0.003049 0.017500
-0.003104 0.003035 0.021000
-0.002987 0.003156 0.024000
-0.002375 0.004209 -0.024000
-0.003096 0.004433 -0.022400
-0.003459 0.004544 -0.018900
-0.003455 0.004557 0.017500
-0.003091 0.004440 0.021000
-0.002364 0.004249 0.024000
-0.003531 0.005657 -0.022400
-0.003545 0.005677 -0.018900
-0.003543 0.005676 0.017500
-0.003550 0.005698 0.021000
-0.003285 0.009435 -0.022400
-0.003291 0.009433 -0.018900
-0.003285 0.009435 0.017500
-0.003285 0.009435 0.021000
-0.001929 -0.070460 -0.004382
-0.001679 -0.070463 -0.003586
-0.001677 -0.070460 0.003586
-0.001927 -0.070456 0.004382
-0.001086 -0.069286 0.003449
-0.001604 -0.064318 -0.006873
-0.000846 -0.064544 -0.006695
-0.000853 -0.064539 0.006698
-0.001366 -0.064340 0.006851
-0.001197 -0.059364 -0.007331
-0.001183 -0.059364 0.007331
-0.001266 -0.058053 -0.007430
-0.001279 -0.058100 0.007427
-0.001206 -0.048720 -0.008058
-0.001206 -0.048720 0.008058
-0.001405 -0.009901 -0.018900
-0.001405 -0.009901 -0.017400
-0.001405 -0.009901 0.016000
-0.001405 -0.009901 0.017500
-0.002237 -0.009747 -0.018900
-0.002237 -0.009747 -0.017400
-0.002237 -0.009747 0.016000
-0.002237 -0.009747 0.017500
-0.002250 -0.004950 -0.024000
-0.002250 -0.004950 -0.022400
-0.001194 -0.003814 -0.018900
-0.001223 -0.003805 0.017500
-0.002250 -0.004950 0.021000
-0.002250 -0.004950 0.024000
-0.001364 -0.002637 -0.020400
-0.001482 -0.002865 -0.019650
-0.001477 -0.002849 0.018266
-0.001364 -0.002637 0.019000
-0.000966 -0.001266 -0.024000
-0.001183 -0.001437 -0.020400
-0.002099 -0.002143 -0.019900
-0.002099 -0.002143 0.018500
-0.002099 -0.002143 0.019000
-0.000972 0.001261 -0.024000
-0.001188 0.001457 -0.020400
-0.002099 0.002143 -0.019900
-0.002099 0.002143 0.018500
-0.002099 0.002143 0.019000
-0.001364 0.002637 -0.020400
-0.001477 0.002849 -0.019666
-0.001482 0.002865 0.018250
-0.001364 0.002637 0.019000
-0.001209 0.003809 -0.018900
-0.001194 0.003814 0.017500
-0.001589 0.006471 -0.024000
-0.001614 0.006457 -0.022400
-0.001619 0.006446 0.021000
-0.001665 0.006402 0.024000
-0.001600 0.009862 -0.022400
-0.001600 0.009862 -0.018900
-0.001600 0.009862 0.017500
-0.001600 0.009862 0.021000
-0.000624 -0.068342 -0.003572
0.000033 -0.064904 -0.005995
0.000698 -0.065135 -0.005050
0.000700 -0.065133 0.005049
0.000041 -0.064905 0.005989
-0.000736 -0.059263 -0.007339
0.000252 -0.059520 0.007319
-0.000541 -0.058662 -0.007385
-0.000541 -0.058642 0.007386
0.000095 -0.049275 -0.008021
0.000073 -0.049277 0.008021
0.000122 -0.048212 -0.008091
0.000107 -0.048183 0.008093
0.000469 -0.039324 -0.008757
0.000504 -0.039369 0.008753
0.000565 -0.038125 -0.008867
0.000568 -0.038125 0.008867
-0.000141 -0.009990 -0.018900
-0.000180 -0.009990 -0.017400
-0.000180 -0.009990 0.016000
-0.000141 -0.009990 0.017500
0.000035 -0.003969 -0.018900
-0.000025 -0.003972 0.017500
0.000098 -0.002967 -0.020400
0.000098 -0.002967 -0.019900
0.000098 -0.002967 0.018500
0.000098 -0.002967 0.019000
0.000011 -0.001540 -0.024000
0.000011 -0.001540 -0.020400
0.000034 0.001541 -0.024000
0.000011 0.001540 -0.020400
0.000098 0.002967 -0.020400
0.000098 0.002967 -0.019900
0.000098 0.002967 0.018500
0.000142 0.002975 0.019000
-0.000002 0.003973 -0.018900
-0.000014 0.003968 0.017500
-0.000531 0.006519 -0.024000
-0.000568 0.006547 -0.022400
-0.000588 0.006561 0.021000
-0.000583 0.006558 0.024000
0.000362 0.009988 -0.022400
0.000172 0.009990 -0.018900
0.000226 0.009989 0.017500
0.000351 0.009988 0.021000
0.000857 -0.065158 -0.004512
0.001570 -0.063852 -0.000750
0.001370 -0.064263 -0.000053
0.001570 -0.063852 0.000750
0.000882 -0.065152 0.004343
0.001804 -0.063375 0.000001
0.002142 -0.059339 -0.006959
0.002125 -0.059329 0.006970
0.001379 -0.058887 -0.007279
0.001396 -0.058891 0.007276
0.001416 -0.053270 -0.007762
0.001368 -0.053719 0.007732
0.001563 -0.051875 -0.007853
0.001403 -0.039048 -0.008782
0.001408 -0.039045 0.008783
0.001111 -0.038086 -0.008871
0.001112 -0.038086 0.008871
0.001847 -0.029531 -0.009944
0.001841 -0.029527 0.009945
0.001807 -0.028163 -0.010187
0.001801 -0.028164 0.010187
0.001955 -0.018887 -0.020218
0.001955 -0.018887 0.020218
0.001450 -0.009886 -0.018900
0.001543 -0.009871 -0.017400
0.001543 -0.009871 0.016000
0.001543 -0.009871 0.017500
0.001091 -0.004950 -0.024000
0.001091 -0.004950 -0.022400
0.001135 -0.003832 -0.018900
0.001135 -0.003832 0.017500
0.001091 -0.004950 0.021000
0.001091 -0.004950 0.024000
0.001358 -0.002659 -0.020400
0.001647 -0.002877 -0.019562
0.001624 -0.002911 0.018150
0.001426 -0.002623 0.019000
0.001113 -0.001116 -0.024000
0.001110 -0.001118 -0.020400
0.001541 -0.000009 -0.024000
0.001544 0.000014 -0.020400
0.001124 0.001105 -0.024000
0.001113 0.001115 -0.020400
0.001369 0.002653 -0.020400
0.001701 0.002973 -0.019458
0.001647 0.002877 0.018162
0.001377 0.002649 0.019000
0.001135 0.003832 -0.018900
0.001135 0.003832 0.017500
0.001798 0.009828 -0.022400
0.001798 0.009828 -0.018900
0.001798 0.009828 0.017500
0.001798 0.009828 0.021000
0.002415 -0.059411 -0.006777
0.003099 -0.059579 -0.005964
0.003574 -0.059657 -0.004679
0.003576 -0.059649 0.004695
0.003090 -0.059578 0.005973
0.002394 -0.059394 0.006796
0.002453 -0.059000 -0.006863
0.003205 -0.058983 -0.006097
0.003720 -0.058994 -0.005055
0.003721 -0.058971 0.005070
0.003182 -0.058982 0.006134
0.002454 -0.058998 0.006863
0.002997 -0.041705 -0.008511
0.002999 -0.041705 0.008511
0.003001 -0.038393 -0.008842
0.002855 -0.039747 0.008720
0.003054 -0.037898 -0.008889
0.003435 -0.034362 0.009265
0.003597 -0.033300 -0.009394
0.003704 -0.031889 0.009583
0.002439 -0.029405 -0.009966
0.002452 -0.029394 0.009968
0.002605 -0.028655 -0.010097
0.002596 -0.028624 0.010103
0.003181 -0.019511 -0.020051
0.003169 -0.019511 0.020051
0.003056 -0.018265 -0.020384
0.003052 -0.018265 0.020384
0.003213 -0.009460 -0.018900
0.003182 -0.009471 -0.017400
0.003219 -0.009458 0.016000
0.003182 -0.009471 0.017500
0.003334 -0.007099 -0.024000
0.003335 -0.007098 -0.022400
0.003335 -0.007098 0.021000
0.003322 -0.007087 0.024000
0.002663 -0.004950 -0.022400
0.002663 -0.004950 -0.018900
0.002663 -0.004950 0.017500
0.002663 -0.004950 0.021000
0.003313 -0.002814 -0.024000
0.003347 -0.002792 -0.022400
0.002905 -0.002654 -0.018955
0.002775 -0.002645 0.017655
0.003324 -0.002810 0.021000
0.003336 -0.002802 0.024000
0.003191 0.002915 -0.024000
0.003324 0.002809 -0.022400
0.002714 0.002723 -0.019043
0.002895 0.002677 0.017545
0.003348 0.002790 0.021000
0.003300 0.002828 0.024000
0.002663 0.004950 -0.022400
0.002663 0.004950 -0.018900
0.002663 0.004950 0.017500
0.002663 0.004950 0.021000
0.003042 0.009526 -0.022400
0.003042 0.009526 -0.018900
0.003042 0.009526 0.017500
0.003042 0.009526 0.021000
0.003802 -0.058906 -0.004537
0.003800 -0.058919 0.004539
0.004228 -0.055003 0.000011
0.004293 -0.054388 -0.000750
0.004336 -0.053978 0.000013
0.004293 -0.054388 0.000750
0.004507 -0.052369 0.004835
0.003878 -0.041780 -0.008284
0.004664 -0.041816 -0.007694
0.004675 -0.041816 0.007683
0.003886 -0.041780 0.008280
0.004500 -0.033370 -0.009191
0.004436 -0.033376 0.009206
0.004177 -0.029601 -0.009895
0.005223 -0.029271 -0.009721
0.005230 -0.029272 0.009717
0.004963 -0.029262 0.009825
0.004385 -0.029225 -0.009964
0.004256 -0.028888 0.010037
0.004548 -0.027199 -0.010341
0.004496 -0.026954 0.010402
0.004763 -0.025062 -0.010839
0.004817 -0.025025 0.010846
0.004885 -0.023722 -0.011518
0.004871 -0.024451 -0.011068
0.004878 -0.024414 0.011085
0.004896 -0.023700 0.011534
0.005074 -0.022000 -0.018361
0.005048 -0.022000 -0.017081
0.005059 -0.022009 -0.014728
0.005056 -0.022259 -0.013520
0.004987 -0.022906 -0.012309
0.005005 -0.022874 0.012349
0.005052 -0.022275 0.013477
0.005069 -0.022006 0.014826
0.005065 -0.022000 0.018229
0.003765 -0.018757 -0.020253
0.003768 -0.018952 -0.020201
0.003768 -0.018952 0.020201
0.003765 -0.018757 0.020253
0.003751 -0.018694 -0.020270
0.003751 -0.018694 0.020270
0.005199 -0.014629 -0.014882
0.005140 -0.014957 -0.013713
0.005138 -0.014968 0.012234
0.005194 -0.014655 0.013414
0.004359 -0.009000 -0.018900
0.004359 -0.009000 -0.017400
0.004359 -0.009000 0.016000
0.004359 -0.009000 0.017500
0.004515 -0.007574 -0.024000
0.004508 -0.007572 -0.022400
0.004508 -0.007572 0.021000
0.004431 -0.007562 0.024000
0.004512 -0.006416 -0.022400
0.004442 -0.006390 -0.018900
0.004470 -0.006397 0.017500
0.004493 -0.006407 0.021000
0.003830 -0.003807 -0.022400
0.003830 -0.003807 -0.018900
0.003830 -0.003807 0.017500
0.003830 -0.003807 0.021000
0.004342 -0.002358 -0.024000
0.004517 -0.003064 -0.022400
0.004562 -0.003461 -0.018900
0.004452 -0.003504 0.017500
0.004517 -0.003064 0.021000
0.004432 -0.002340 0.024000
0.004969 -0.002250 -0.024000
0.004969 -0.002250 -0.022400
0.004969 -0.002250 0.021000
0.004969 -0.002250 0.024000
0.004290 0.002352 -0.024000
0.004443 0.003072 -0.022400
0.004540 0.003473 -0.018900
0.004562 0.003461 0.017500
0.004434 0.003086 0.021000
0.004219 0.002368 0.024000
0.003830 0.003807 -0.022400
0.003830 0.003807 -0.018900
0.003830 0.003807 0.017500
0.003830 0.003807 0.021000
0.004482 0.006404 -0.022400
0.004511 0.006416 -0.018900
0.004444 0.006389 0.017500
0.004511 0.006416 0.021000
0.004231 0.009051 -0.022400
0.004231 0.009051 -0.018900
0.004231 0.009051 0.017500
0.004231 0.009051 0.021000
0.005347 -0.044443 -0.000750
0.005305 -0.044841 0.000027
0.005347 -0.044443 0.000750
0.005409 -0.043853 -0.000006
0.005324 -0.041820 -0.006869
0.005570 -0.041778 -0.006016
0.005555 -0.041785 0.006116
0.005330 -0.041820 0.006857
0.006058 -0.037729 0.005922
0.006400 -0.034499 -0.000750
0.006403 -0.034475 0.000006
0.006400 -0.034499 0.000750
0.005584 -0.033404 -0.008555
0.006278 -0.033344 -0.007500
0.006508 -0.033455 -0.006467
0.006526 -0.033252 0.006573
0.006285 -0.033342 0.007481
0.005594 -0.033404 0.008545
0.005787 -0.029269 -0.009357
0.005802 -0.029268 0.009346
0.006502 -0.029212 -0.008592
0.006708 -0.029173 0.008239
0.006479 -0.029217 0.008634
0.005965 -0.025082 -0.010383
0.006737 -0.025160 -0.009726
0.006746 -0.025158 0.009714
0.005962 -0.025087 0.010381
0.005665 -0.023499 -0.011491
0.006123 -0.024089 -0.010787
0.006107 -0.024092 0.010796
0.005626 -0.023506 0.011504
0.005892 -0.021838 -0.019102
0.005413 -0.021973 -0.018650
0.005700 -0.021903 -0.016623
0.005716 -0.021912 -0.014851
0.005936 -0.022087 -0.013446
0.006070 -0.022703 -0.012112
0.006707 -0.022986 -0.011196
0.006718 -0.022980 0.011189
0.006083 -0.022687 0.012131
0.005903 -0.022088 0.013479
0.005734 -0.021908 0.014850
0.005725 -0.021899 0.016625
0.005365 -0.021979 0.018612
0.005867 -0.021841 0.019090
0.006179 -0.020416 -0.020309
0.006181 -0.021238 -0.019798
0.006520 -0.021596 -0.016777
0.006501 -0.021617 -0.014843
0.006575 -0.021668 -0.013907
0.006602 -0.021674 0.013812
0.006516 -0.021609 0.014842
0.006531 -0.021590 0.016780
0.006180 -0.021228 0.019808
0.006189 -0.020412 0.020310
0.006381 -0.019824 -0.020498
0.006390 -0.019811 0.020502
0.006548 -0.014380 -0.015893
0.006020 -0.014725 -0.015009
0.005967 -0.015116 -0.013683
0.005996 -0.015138 0.012199
0.005979 -0.014755 0.013515
0.006474 -0.014399 0.014429
0.005990 -0.013513 -0.016474
0.005510 -0.014201 -0.015691
0.005271 -0.014236 0.014215
0.005971 -0.013562 0.015024
0.006702 -0.012790 0.015753
0.006262 -0.011754 -0.017349
0.005996 -0.012393 -0.017125
0.005917 -0.012534 0.015658
0.006210 -0.011872 0.015909
0.006174 -0.010997 -0.017422
0.006176 -0.010997 0.016023
0.006317 -0.009000 -0.017417
0.006348 -0.009000 0.016019
0.006114 -0.007340 -0.024000
0.006086 -0.007354 -0.022400
0.006086 -0.007354 0.021000
0.006134 -0.007327 0.024000
0.006026 -0.006019 -0.022400
0.006018 -0.006025 -0.018900
0.006016 -0.006026 0.017500
0.006026 -0.006019 0.021000
0.006409 -0.004492 -0.022400
0.006411 -0.004502 -0.018900
0.006411 -0.004504 0.017500
0.006409 -0.004492 0.021000
0.006108 -0.002556 -0.024000
0.005902 -0.003009 -0.022400
0.005687 -0.003550 -0.018900
0.005687 -0.003550 0.017500
0.005902 -0.003009 0.021000
0.006098 -0.002551 0.024000
0.005677 0.003545 -0.022400
0.005687 0.003550 -0.018900
0.005687 0.003550 0.017500
0.005681 0.003546 0.021000
0.006410 0.004488 -0.022400
0.006415 0.004506 -0.018900
0.006413 0.004497 0.017500
0.006413 0.004498 0.021000
0.006025 0.006017 -0.022400
0.006029 0.006016 -0.018900
0.006025 0.006017 0.017500
0.006029 0.006016 0.021000
0.006388 0.007682 -0.022400
0.006388 0.007682 -0.018900
0.006388 0.007682 0.017500
0.006388 0.007682 0.021000
0.005358 0.008443 -0.022400
0.005358 0.008443 -0.018900
0.005358 0.008443 0.017500
0.005358 0.008443 0.021000
0.006937 -0.029438 0.006971
0.006909 -0.028993 -0.007614
0.006883 -0.029100 0.007703
0.006783 -0.024789 -0.009823
0.007152 -0.024994 -0.009007
0.007425 -0.024801 -0.007980
0.007393 -0.025127 0.000025
0.007421 -0.024815 0.008041
0.007165 -0.024991 0.008979
0.006791 -0.024787 0.009813
0.006988 -0.023783 -0.010123
0.007317 -0.023998 -0.009191
0.007472 -0.024387 -0.008033
0.007454 -0.024555 -0.000750
0.007496 -0.024155 -0.000069
0.007454 -0.024555 0.000750
0.007453 -0.024563 0.007978
0.007318 -0.023999 0.009193
0.006982 -0.023764 0.010144
0.006755 -0.021806 -0.012990
0.007024 -0.022130 -0.011824
0.007254 -0.022618 -0.010627
0.007629 -0.022683 -0.009188
0.007636 -0.022650 0.009159
0.007260 -0.022613 0.010620
0.007020 -0.022150 0.011801
0.006768 -0.021798 0.012986
0.007125 -0.020805 -0.019833
0.007683 -0.020391 -0.017300
0.007208 -0.021024 -0.017031
0.007249 -0.020978 -0.014920
0.007276 -0.021112 -0.013405
0.007524 -0.021209 -0.012001
0.007778 -0.021178 -0.010672
0.007769 -0.021581 -0.009662
0.007769 -0.021581 0.009663
0.007778 -0.021181 0.010666
0.007526 -0.021205 0.012005
0.007284 -0.021103 0.013402
0.007270 -0.020951 0.014912
0.007196 -0.021036 0.017025
0.007695 -0.020368 0.017309
0.007070 -0.020870 0.019812
0.007166 -0.019607 -0.020414
0.007713 -0.019794 -0.020090
0.007900 -0.019805 -0.017602
0.008009 -0.019316 -0.016746
0.007921 -0.019721 -0.015447
0.007916 -0.019850 -0.013527
0.007936 -0.019937 -0.012373
0.007937 -0.019936 0.012349
0.007919 -0.019839 0.013531
0.007926 -0.019700 0.015424
0.008009 -0.019316 0.016746
0.007911 -0.019769 0.017621
0.007738 -0.019758 0.020091
0.007172 -0.019607 0.020413
0.008193 -0.017509 -0.016129
0.008146 -0.017687 -0.014956
0.008110 -0.017772 -0.013665
0.008108 -0.017874 0.012095
0.008142 -0.017713 0.013400
0.008191 -0.017487 0.014697
0.008129 -0.016435 -0.016444
0.007867 -0.016477 -0.015011
0.007630 -0.016382 -0.013643
0.007641 -0.016410 0.012195
0.007828 -0.016436 0.013494
0.008109 -0.016423 0.014949
0.008238 -0.016026 0.015834
0.007930 -0.015703 -0.021364
0.008116 -0.014834 -0.017596
0.007571 -0.014952 -0.016469
0.007131 -0.015331 -0.015088
0.006969 -0.015593 -0.013674
0.006964 -0.015586 0.012305
0.007107 -0.015351 0.013597
0.007522 -0.014971 0.014969
0.008078 -0.014864 0.016096
0.007930 -0.015703 0.021364
0.006759 -0.013557 -0.022326
0.007792 -0.013416 -0.017774
0.007094 -0.013708 -0.016893
0.007094 -0.013793 0.015442
0.007730 -0.013407 0.016318
0.006759 -0.013557 0.022326
0.007618 -0.012070 -0.022629
0.007518 -0.012010 -0.017892
0.007528 -0.012009 0.016499
0.007605 -0.012070 0.022632
0.007514 -0.011063 -0.017935
0.007480 -0.011061 0.016507
0.007578 -0.009000 -0.017844
0.007588 -0.009000 0.016450
0.007548 -0.007521 -0.024000
0.006866 -0.006852 -0.022400
0.006866 -0.006852 0.021000
0.007469 -0.007566 0.024000
0.007344 -0.006107 -0.024000
0.007362 -0.006069 -0.022400
0.007362 -0.006069 0.021000
0.007351 -0.006091 0.024000
0.007575 -0.004531 -0.024000
0.007569 -0.004490 -0.022400
0.007569 -0.004490 0.021000
0.007575 -0.004539 0.024000
0.007074 -0.003303 -0.024000
0.007086 -0.003320 -0.022400
0.007086 -0.003320 0.021000
0.007086 -0.003320 0.024000
0.007878 0.006159 -0.022400
0.007878 0.006159 -0.018900
0.007878 0.006159 0.017500
0.007878 0.006159 0.021000
0.007324 0.006809 -0.022400
0.007324 0.006809 -0.018900
0.007324 0.006809 0.017500
0.007324 0.006809 0.021000
0.008307 -0.016217 -0.017757
0.008256 -0.016747 -0.017089
0.008253 -0.016889 0.015657
0.008305 -0.016267 0.016325
0.008386 -0.015759 0.017303
0.008378 -0.015661 -0.021096
0.008472 -0.014771 -0.019079
0.008357 -0.015079 -0.018297
0.008339 -0.015082 0.016810
0.008463 -0.014797 0.017604
0.008355 -0.015664 0.021113
0.008548 -0.013433 -0.019363
0.008325 -0.013613 -0.018551
0.008306 -0.013717 0.017081
0.008531 -0.013443 0.017902
0.008680 -0.012989 0.018752
0.008588 -0.012026 -0.022203
0.008803 -0.011818 -0.020313
0.008622 -0.011970 -0.019452
0.008297 -0.011939 -0.018668
0.008275 -0.011948 0.017232
0.008599 -0.011971 0.017978
0.008781 -0.012020 0.018862
0.008601 -0.012024 0.022195
0.008878 -0.011116 -0.020387
0.008671 -0.011094 -0.019404
0.008319 -0.011057 -0.018651
0.008656 -0.011093 0.017981
0.008877 -0.011116 0.018946
0.008614 -0.008407 -0.023426
0.009050 -0.008362 -0.023142
0.008697 -0.009000 -0.018898
0.008474 -0.009000 -0.018572
0.008395 -0.009000 0.017073
0.008663 -0.009000 0.017445
0.009067 -0.008359 0.023129
0.008626 -0.008407 0.023420
0.008408 -0.006993 -0.024000
0.008357 -0.007058 0.024000
0.008982 -0.006052 -0.024000
0.008977 -0.006058 0.024000
0.009490 -0.004928 -0.024000
0.009522 -0.004845 0.024000
0.009508 -0.002500 -0.019186
0.009528 -0.002500 0.017833
0.009588 0.002810 -0.022400
0.009694 0.002454 -0.020400
0.009634 0.002665 -0.018900
0.009631 0.002673 0.017500
0.009696 0.002447 0.019000
0.009581 0.002833 0.021000
0.008997 0.004344 -0.022400
0.008997 0.004344 -0.018900
0.008997 0.004344 0.017500
0.008997 0.004344 0.021000
0.008375 0.005464 -0.022400
0.008375 0.005464 -0.018900
0.008375 0.005464 0.017500
0.008375 0.005464 0.021000
0.009791 -0.002500 -0.020395
0.009778 -0.002500 -0.020118
0.009772 -0.002500 0.018673
0.009790 -0.002500 0.018953
0.009944 -0.001054 -0.024000
0.009944 -0.001054 -0.020400
0.009944 -0.001054 0.019000
0.009944 -0.001054 0.024000
0.009988 0.000226 -0.024000
0.009988 0.000226 -0.020400
0.009989 0.000187 0.019000
0.009987 0.000287 0.024000
0.009868 0.001616 -0.024000
0.009852 0.001715 -0.022400
0.009887 0.001502 -0.020400
0.009887 0.001502 0.019000
0.009852 0.001715 0.021000
0.009871 0.001597 0.024000
3 627 683 685
3 683 756 685
3 756 755 685
3 685 755 759
3 686 684 628
3 760 758 686
3 758 757 686
3 686 757 684
3 685 759 686
3 686 759 760
3 759 755 760
3 760 755 758
3 755 756 758
3 758 756 757
3 756 683 757
3 757 683 684
3 628 684 627
3 684 683 627
3 628 627 686
3 627 685 686
3 158 159 163
3 159 164 163
3 163 164 51
3 164 52 51
3 852 853 159
3 159 158 852
3 158 754 852
3 159 853 164
3 853 862 164
3 964 963 962
3 977 978 965
3 977 975 976
3 960 959 973
3 958 959 946
3 930 939 940
3 851 852 754
3 853 852 851
3 853 851 862
3 851 861 862
3 963 965 861
3 965 862 861
3 965 964 977
3 964 962 977
3 977 962 975
3 975 962 961
3 940 947 941
3 835 834 932
3 834 931 932
3 947 940 946
3 975 961 974
3 960 947 959
3 974 960 973
3 940 931 930
3 961 960 974
3 959 947 946
3 963 964 965
3 751 849 752
3 849 751 848
3 745 848 751
3 745 839 848
3 744 838 839
3 848 949 849
3 849 949 961
3 848 961 949
3 848 948 961
3 741 838 744
3 948 960 961
3 741 835 838
3 839 838 848
3 838 847 848
3 848 847 948
3 838 941 947
3 752 850 753
3 754 753 851
3 753 850 851
3 851 850 861
3 850 860 861
3 861 860 963
3 860 962 963
3 962 860 961
3 961 860 859
3 859 860 849
3 860 850 849
3 850 752 849
3 835 932 838
3 838 932 941
3 932 931 941
3 931 940 941
3 838 947 847
3 847 947 948
3 947 960 948
3 961 859 849
3 839 745 744
3 149 746 747
3 754 158 753
3 747 748 264
3 266 150 149
3 155 158 150
3 158 149 150
3 157 269 158
3 155 157 158
3 265 266 149
3 269 270 158
3 264 265 149
3 747 264 149
3 158 270 271
3 753 158 271
3 50 162 51
3 51 162 163
3 162 149 163
3 163 149 158
3 148 149 161
3 149 162 161
3 161 162 49
3 162 50 49
3 841 746 149
3 149 148 841
3 841 148 840
3 840 148 161
3 161 855 840
3 161 160 855
3 160 854 855
3 864 854 166
3 166 854 160
3 160 161 166
3 166 161 167
3 167 161 53
3 161 49 53
3 965 863 862
3 865 965 979
3 979 965 978
3 865 863 965
3 1020 1012 1079
3 1081 1079 1077
3 1079 1012 1077
3 1012 1064 1077
3 978 1002 979
3 1083 1081 1076
3 1064 1002 1051
3 1051 1002 978
3 1020 1008 1012
3 1008 865 1012
3 865 979 1012
3 979 1002 1012
3 1012 1002 1064
3 1081 1077 1076
3 1076 1077 1064
3 865 169 863
3 862 863 165
3 165 863 169
3 165 164 862
3 536 541 595
3 421 546 541
3 546 550 541
3 595 652 642
3 1090 1115 652
3 1115 1110 652
3 652 1110 642
3 1110 1106 642
3 642 1106 1103
3 541 550 595
3 642 587 595
3 587 536 595
3 648 646 1087
3 649 648 1087
3 1105 646 1100
3 646 644 1100
3 1100 644 639
3 1105 1109 646
3 1109 1114 646
3 646 1114 1087
3 644 589 639
3 639 589 584
3 584 589 533
3 589 538 533
3 538 483 418
3 418 483 543
3 543 591 547
3 547 591 592
3 592 591 649
3 591 648 649
3 640 639 585
3 639 584 585
3 585 584 534
3 584 533 534
3 534 533 539
3 533 538 539
3 639 640 1100
3 640 701 1100
3 1084 1101 701
3 1101 1100 701
3 1088 707 1087
3 707 650 1087
3 1087 650 649
3 544 543 548
3 543 547 548
3 548 547 593
3 547 592 593
3 593 592 650
3 592 649 650
3 419 418 544
3 418 543 544
3 539 538 419
3 538 418 419
3 540 535 479
3 530 535 583
3 535 586 583
3 583 586 636
3 586 641 636
3 353 420 479
3 420 540 479
3 545 487 549
3 549 552 594
3 552 597 594
3 597 654 594
3 594 654 651
3 487 545 353
3 545 420 353
3 544 548 486
3 551 548 596
3 548 593 596
3 596 593 653
3 593 650 653
3 352 419 486
3 419 544 486
3 539 478 534
3 534 529 585
3 529 582 585
3 582 635 585
3 585 635 640
3 478 539 352
3 539 419 352
3 537 538 588
3 538 589 588
3 588 589 643
3 589 644 643
3 643 644 645
3 644 646 645
3 645 646 647
3 646 648 647
3 647 648 590
3 648 591 590
3 590 591 542
3 591 543 542
3 483 538 482
3 538 537 482
3 543 483 542
3 483 482 542
3 1 0 86
3 86 87 1
3 9 94 89
3 9 89 3
3 89 90 3
3 3 90 4
3 90 86 4
3 4 86 0
3 94 9 93
3 9 8 93
3 8 14 93
3 93 14 97
3 97 14 221
3 14 18 221
3 221 18 225
3 18 22 225
3 225 22 227
3 22 26 227
3 227 26 316
3 26 29 316
3 316 29 99
3 316 99 320
3 99 101 320
3 616 515 241
3 241 515 237
3 106 107 233
3 320 101 388
3 101 103 388
3 388 103 452
3 103 106 452
3 452 106 509
3 106 233 509
3 515 454 237
3 237 454 233
3 454 515 233
3 515 513 233
3 233 513 509
3 509 513 566
3 566 568 509
3 509 568 614
3 614 568 616
3 616 568 515
3 576 574 247
3 243 247 572
3 247 574 572
3 243 572 241
3 572 517 241
3 241 517 570
3 574 619 572
3 241 570 616
3 616 570 618
3 618 570 572
3 572 619 618
3 618 619 671
3 671 619 673
3 673 619 675
3 675 619 677
3 677 619 621
3 677 621 732
3 732 621 252
3 621 576 252
3 252 576 249
3 249 576 247
3 740 625 258
3 258 625 253
3 253 625 252
3 625 623 252
3 252 623 732
3 623 679 732
3 679 681 732
3 732 681 738
3 738 681 740
3 740 681 625
3 224 226 21
3 100 32 24
3 319 100 228
3 100 24 228
3 228 24 226
3 319 321 100
3 100 321 105
3 321 391 105
3 105 391 453
3 453 514 105
3 514 516 105
3 105 516 455
3 242 516 617
3 617 516 569
3 617 569 615
3 615 569 567
3 567 514 453
3 516 242 455
3 242 236 455
3 455 236 105
3 105 236 110
3 617 571 242
3 248 246 573
3 573 246 518
3 246 242 518
3 518 242 571
3 674 573 672
3 672 573 617
3 573 571 617
3 573 674 248
3 674 620 248
3 620 575 248
3 248 575 250
3 575 577 250
3 250 577 251
3 251 577 678
3 577 622 678
3 678 622 676
3 622 620 676
3 676 620 674
3 678 624 251
3 251 624 256
3 624 626 256
3 256 626 257
3 739 626 682
3 739 682 737
3 737 682 678
3 682 680 678
3 678 680 624
3 626 739 257
3 739 741 257
3 257 741 259
3 21 226 24
3 17 224 21
3 12 95 13
3 95 96 13
3 13 96 17
3 96 98 17
3 17 98 224
3 7 92 12
3 92 95 12
3 6 91 7
3 91 92 7
3 91 6 88
3 6 2 88
3 1 87 2
3 87 88 2
3 323 40 324
3 40 41 324
3 324 41 323
3 41 40 323
3 323 40 325
3 40 43 325
3 325 43 323
3 43 40 323
3 323 40 322
3 40 39 322
3 322 39 323
3 39 40 323
3 334 70 335
3 70 71 335
3 768 767 690
3 767 689 690
3 690 689 632
3 689 631 632
3 632 631 581
3 631 580 581
3 581 580 522
3 580 521 522
3 522 521 526
3 521 525 526
3 526 525 459
3 525 458 459
3 459 458 395
3 458 394 395
3 395 394 329
3 394 328 329
3 329 328 335
3 328 334 335
3 884 767 768
3 768 1074 1016
3 1016 884 768
3 768 1075 1074
3 767 884 689
3 884 882 689
3 394 458 183
3 458 525 183
3 525 521 183
3 521 580 183
3 183 580 882
3 882 580 631
3 631 689 882
3 65 70 183
3 70 334 183
3 334 328 183
3 328 394 183
3 766 883 765
3 883 1015 765
3 765 1015 1073
3 1073 1072 765
3 766 765 688
3 765 687 688
3 688 687 630
3 687 629 630
3 630 629 579
3 629 578 579
3 579 578 520
3 578 519 520
3 520 519 524
3 519 523 524
3 524 523 457
3 523 456 457
3 457 456 393
3 456 392 393
3 393 392 327
3 392 326 327
3 327 326 333
3 326 332 333
3 69 333 68
3 333 332 68
3 69 64 182
3 883 766 881
3 766 688 881
3 688 630 881
3 630 579 881
3 881 579 182
3 579 520 182
3 182 520 524
3 524 457 182
3 457 393 182
3 69 182 333
3 333 182 327
3 182 393 327
3 173 172 57
3 57 172 56
3 172 171 56
3 171 170 56
3 270 752 271
3 752 753 271
3 269 751 270
3 751 752 270
3 263 745 269
3 745 751 269
3 262 744 263
3 744 745 263
3 259 741 262
3 741 744 262
3 261 743 258
3 743 740 258
3 260 742 261
3 742 743 261
3 266 750 260
3 750 742 260
3 265 749 266
3 749 750 266
3 748 749 265
3 265 264 748
3 181 183 882
3 181 882 880
3 181 880 180
3 880 879 180
3 879 875 180
3 180 875 177
3 176 177 874
3 874 177 875
3 173 176 764
3 764 176 870
3 176 874 870
3 764 763 173
3 173 763 172
3 171 762 170
3 762 761 170
3 175 170 761
3 873 175 867
3 175 761 867
3 873 174 175
3 873 872 174
3 174 872 179
3 179 872 878
3 178 179 877
3 877 179 878
3 182 178 881
3 881 178 877
3 65 183 63
3 183 181 63
3 63 181 60
3 60 181 180
3 180 177 60
3 60 177 58
3 177 176 58
3 176 173 58
3 58 173 57
3 174 179 59
3 61 178 64
3 178 182 64
3 178 61 179
3 61 62 179
3 59 179 62
3 59 55 174
3 174 55 175
3 175 55 56
3 170 175 56
3 146 929 153
3 929 937 153
3 937 936 153
3 153 936 152
3 936 937 152
3 152 937 153
3 937 938 153
3 153 938 154
3 938 937 154
3 154 937 153
3 937 929 153
3 153 929 146
3 819 818 135
3 135 818 134
3 818 819 134
3 134 819 135
3 135 819 138
3 138 819 135
3 819 820 135
3 135 820 136
3 820 819 136
3 136 819 135
3 810 809 126
3 126 809 125
3 809 810 125
3 125 810 126
3 810 812 126
3 126 812 129
3 812 810 129
3 129 810 126
3 810 811 126
3 126 811 127
3 811 810 127
3 127 810 126
3 721 723 117
3 117 723 119
3 723 722 119
3 119 722 118
3 722 723 118
3 118 723 119
3 723 724 119
3 119 724 120
3 724 723 120
3 120 723 119
3 119 723 117
3 723 721 117
3 719 661 667
3 667 661 666
3 661 660 666
3 666 660 665
3 660 659 665
3 659 612 665
3 665 612 614
3 732 738 736
3 732 832 733
3 733 832 827
3 738 740 832
3 732 738 832
3 732 736 738
3 666 665 727
3 665 614 727
3 727 614 726
3 726 614 671
3 719 667 814
3 667 666 814
3 727 813 666
3 813 814 666
3 924 927 928
3 829 927 924
3 833 927 829
3 827 832 829
3 829 832 833
3 823 822 924
3 924 822 829
3 822 821 829
3 829 821 827
3 821 730 827
3 827 730 733
3 733 730 732
3 732 730 736
3 730 677 736
3 736 677 732
3 671 614 618
3 614 616 618
3 673 675 677
3 673 677 671
3 677 730 671
3 671 730 726
3 726 730 727
3 730 821 727
3 821 822 727
3 727 822 813
3 813 822 814
3 822 823 814
3 1074 1014 1016
3 1014 882 1016
3 1016 882 884
3 1103 1069 1102
3 1069 1068 1102
3 1102 1068 1085
3 1014 1074 1068
3 1074 1075 1068
3 1075 1085 1068
3 991 1043 985
3 985 1043 1044
3 1044 1050 1045
3 1055 1063 1056
3 1063 1068 1069
3 1014 1068 1061
3 870 874 875
3 869 764 870
3 869 763 764
3 985 984 991
3 991 984 990
3 1044 991 992
3 1055 1050 1049
3 1049 1044 1001
3 1044 992 1001
3 1001 992 991
3 984 983 990
3 990 983 989
3 1055 1049 1054
3 1054 1049 1007
3 1007 1049 1001
3 1062 1055 1061
3 1061 1055 1054
3 1061 1062 1011
3 1062 1061 1011
3 1061 1054 1011
3 1011 1054 1007
3 1068 1063 1062
3 1063 1055 1062
3 1050 1044 1049
3 991 1044 1043
3 1001 991 1000
3 1068 1062 1061
3 1061 1062 1011
3 1062 1061 1011
3 1014 1061 1011
3 991 990 1000
3 1000 990 999
3 1007 1001 1006
3 1001 1000 1006
3 999 990 989
3 999 989 998
3 1000 999 871
3 871 999 870
3 999 998 870
3 870 998 869
3 1006 1000 875
3 1000 871 875
3 1011 1007 880
3 880 1007 876
3 1007 1006 876
3 876 1006 875
3 880 876 875
3 1014 1011 882
3 882 1011 880
3 880 875 879
3 871 870 875
3 762 763 868
3 763 869 868
3 868 869 997
3 869 998 997
3 997 998 988
3 998 989 988
3 989 983 988
3 988 983 982
3 761 762 868
3 1060 1013 1010
3 1066 1067 1060
3 1060 1067 1013
3 1060 1059 1066
3 1059 1058 1066
3 1066 1058 1065
3 761 868 867
3 988 982 981
3 988 981 987
3 981 980 987
3 987 980 986
3 1042 986 1041
3 866 867 995
3 867 996 995
3 986 1042 1041
3 873 867 872
3 867 866 872
3 986 1041 1042
3 872 866 1005
3 1005 866 995
3 986 1042 1041
3 1041 1047 1048
3 1005 995 1004
3 995 994 1004
3 997 988 996
3 988 987 996
3 986 1041 994
3 994 1041 1048
3 995 986 994
3 1004 994 1053
3 996 987 995
3 987 986 995
3 868 997 996
3 868 996 867
3 878 872 877
3 877 872 1010
3 872 1005 1010
3 1005 1004 1010
3 1048 1047 1052
3 877 878 1010
3 878 877 1010
3 1010 1004 1060
3 1004 1053 1060
3 1060 1053 1059
3 1059 1053 1052
3 1060 1010 1059
3 1010 1060 1059
3 881 877 1013
3 877 1010 1013
3 1060 1010 1059
3 1010 1060 1059
3 1058 1059 1052
3 1052 1053 1048
3 1053 994 1048
3 1072 1066 1084
3 1084 1066 1101
3 1066 1065 1101
3 1101 1065 1100
3 883 881 1015
3 881 1013 1015
3 1015 1013 1073
3 1013 1067 1073
3 1067 1066 1073
3 1073 1066 1072
3 121 122 128
3 238 108 111
3 238 234 108
3 234 238 237
3 237 233 234
3 140 143 254
3 143 258 254
3 254 258 253
3 108 121 111
3 121 128 111
3 111 128 238
3 128 244 238
3 238 244 237
3 244 243 237
3 237 243 241
3 247 243 249
3 243 244 249
3 249 244 133
3 244 128 133
3 133 128 131
3 252 249 253
3 253 249 254
3 254 249 140
3 249 133 140
3 140 133 139
3 266 267 150
3 150 267 151
3 267 261 151
3 151 261 145
3 261 258 145
3 145 258 143
3 266 261 267
3 266 260 261
3 239 235 240
3 240 235 236
3 109 235 113
3 113 235 239
3 246 240 242
3 242 240 236
3 257 259 256
3 256 259 255
3 255 259 141
3 259 144 141
3 246 245 240
3 240 245 239
3 239 245 113
3 245 130 113
3 113 130 124
3 248 250 246
3 246 250 245
3 245 250 130
3 250 137 130
3 130 137 132
3 251 256 250
3 256 255 250
3 250 255 137
3 255 141 137
3 137 141 142
3 141 144 142
3 44 42 47
3 47 42 48
3 42 104 48
3 48 104 110
3 110 104 105
3 105 104 100
3 100 104 36
3 104 42 36
3 36 42 35
3 490 553 705
3 705 553 598
3 705 484 490
3 190 192 422
3 422 192 196
3 396 460 633
3 482 190 422
3 482 422 542
3 346 280 190
3 280 186 190
3 190 186 184
3 186 272 184
3 184 272 330
3 422 590 542
3 1017 184 396
3 184 330 396
3 1029 1104 1025
3 1017 1021 1078
3 1078 1021 1080
3 1104 1082 1025
3 647 590 705
3 476 408 482
3 1017 396 769
3 1017 769 885
3 1104 1029 1108
3 1029 897 1108
3 1108 897 1112
3 1112 897 791
3 422 484 590
3 590 484 705
3 537 476 482
3 1021 1025 1080
3 699 645 781
3 408 414 482
3 482 414 190
3 414 408 190
3 190 408 346
3 460 464 633
3 633 464 470
3 470 643 699
3 643 645 699
3 476 537 470
3 470 537 588
3 588 643 470
3 1080 1025 1082
3 781 705 791
3 645 647 781
3 781 647 705
3 470 527 633
3 527 470 633
3 633 470 699
3 633 691 396
3 396 691 769
3 897 781 791
3 781 787 791
3 787 781 791
3 103 107 106
3 38 107 103
3 38 45 107
3 38 46 45
3 101 99 103
3 103 99 38
3 99 33 38
3 33 34 38
3 38 34 37
3 27 23 30
3 26 22 29
3 23 29 22
3 27 30 23
3 23 30 29
3 0 1 4
3 1 5 4
3 3 4 9
3 9 4 10
3 15 14 9
3 9 14 8
3 23 22 18
3 19 18 15
3 15 18 14
3 19 23 18
3 24 31 28
3 32 31 24
3 25 32 24
3 24 32 25
3 17 21 16
3 21 20 16
3 2 6 1
3 1 6 5
3 7 12 6
3 12 11 6
3 13 17 12
3 12 17 16
3 21 24 20
3 24 25 21
3 25 24 21
3 28 31 24
3 147 144 262
3 144 259 262
3 263 269 262
3 262 269 268
3 268 269 156
3 269 157 156
3 262 268 147
3 268 156 147
3 719 720 661
3 720 662 661
3 90 89 212
3 379 374 306
3 374 370 306
3 612 659 562
3 659 660 562
3 510 509 614
3 510 614 562
3 614 612 562
3 310 305 304
3 217 213 212
3 304 305 222
3 222 305 217
3 310 304 221
3 214 211 213
3 213 211 87
3 383 317 382
3 382 317 386
3 317 316 386
3 386 316 320
3 383 314 317
3 317 314 316
3 213 87 90
3 90 87 86
3 310 221 225
3 310 225 314
3 217 93 221
3 93 217 94
3 221 93 97
3 304 222 221
3 222 217 221
3 212 89 217
3 217 89 94
3 225 227 314
3 314 227 316
3 388 390 320
3 320 390 386
3 390 388 386
3 388 448 386
3 386 448 382
3 382 448 383
3 383 448 440
3 448 449 440
3 449 504 440
3 440 504 441
3 504 505 441
3 505 561 441
3 296 301 297
3 306 305 373
3 314 378 310
3 378 372 310
3 310 372 311
3 372 373 311
3 305 300 299
3 306 300 305
3 297 214 296
3 296 214 213
3 213 300 296
3 296 300 301
3 306 373 379
3 217 305 299
3 213 300 218
3 217 218 213
3 218 300 213
3 213 218 300
3 217 299 218
3 218 299 300
3 305 311 373
3 90 212 213
3 310 311 305
3 383 382 314
3 382 383 314
3 314 383 378
3 378 383 372
3 383 440 372
3 372 440 373
3 440 441 373
3 373 441 379
3 379 441 374
3 562 660 563
3 563 660 606
3 660 661 606
3 388 452 390
3 452 509 390
3 390 509 388
3 388 509 448
3 509 510 448
3 510 562 448
3 448 562 449
3 449 562 504
3 562 563 504
3 563 606 504
3 504 606 505
3 505 606 561
3 606 661 561
3 664 670 613
3 613 670 615
3 720 668 662
3 662 668 663
3 668 669 663
3 663 669 664
3 669 670 664
3 312 313 308
3 371 375 380
3 662 663 610
3 610 663 564
3 564 663 565
3 313 312 377
3 219 220 215
3 220 219 303
3 303 219 302
3 302 219 215
3 215 214 298
3 214 297 298
3 298 297 301
3 371 380 307
3 380 376 307
3 307 376 308
3 215 298 302
3 298 301 302
3 307 308 302
3 391 321 389
3 321 387 389
3 389 387 451
3 387 385 451
3 385 387 384
3 384 387 318
3 318 387 319
3 387 321 319
3 385 384 451
3 451 384 450
3 384 446 450
3 450 446 507
3 446 445 507
3 507 445 506
3 384 318 315
3 318 319 315
3 95 216 220
3 98 96 224
3 224 96 220
3 96 95 220
3 313 315 226
3 226 224 313
3 224 309 313
3 309 308 313
3 224 223 309
3 223 308 309
3 91 215 92
3 92 215 216
3 224 220 223
3 223 220 308
3 313 381 315
3 303 302 308
3 308 376 312
3 214 215 211
3 376 377 312
3 215 91 211
3 91 87 211
3 87 91 88
3 216 215 220
3 303 308 220
3 313 377 381
3 375 445 380
3 380 445 376
3 445 446 376
3 376 446 377
3 446 384 377
3 377 384 381
3 381 384 315
3 384 385 315
3 315 385 384
3 567 512 615
3 511 615 512
3 567 453 512
3 453 391 512
3 319 228 315
3 228 226 315
3 95 92 216
3 663 664 565
3 664 613 565
3 565 613 511
3 613 615 511
3 445 508 506
3 508 610 506
3 506 610 507
3 610 564 507
3 564 565 507
3 507 565 450
3 450 565 451
3 565 511 451
3 511 512 451
3 451 512 389
3 389 512 391
3 678 676 731
3 925 931 830
3 830 931 831
3 923 930 925
3 930 931 925
3 728 669 816
3 668 815 669
3 668 720 815
3 815 720 725
3 816 669 815
3 617 615 672
3 672 615 729
3 729 615 728
3 615 670 728
3 741 739 835
3 735 739 737
3 735 835 739
3 676 674 731
3 674 672 731
3 734 835 735
3 828 835 734
3 931 834 831
3 834 835 831
3 831 835 828
3 923 925 824
3 824 925 825
3 925 830 825
3 830 831 825
3 825 831 826
3 831 828 826
3 826 828 731
3 828 734 731
3 734 735 731
3 735 737 731
3 670 669 728
3 817 824 815
3 824 825 815
3 815 825 816
3 816 825 728
3 825 826 728
3 826 731 728
3 728 731 729
3 729 731 672
3 731 737 678
3 455 454 516
3 454 515 516
3 516 515 455
3 515 454 455
3 516 513 515
3 516 514 513
3 513 514 566
3 514 568 566
3 514 567 568
3 567 569 568
3 568 569 515
3 569 516 515
3 518 517 573
3 517 572 573
3 571 570 518
3 570 517 518
3 571 572 570
3 571 573 572
3 575 574 577
3 577 574 576
3 574 575 619
3 620 619 575
3 619 620 621
3 620 622 621
3 621 622 576
3 622 577 576
3 624 623 626
3 623 625 626
3 679 623 624
3 679 624 680
3 680 682 681
3 679 680 681
3 681 682 625
3 682 626 625
3 232 447 230
3 447 443 230
3 230 443 231
3 443 444 231
3 231 444 230
3 444 443 230
3 230 443 102
3 102 443 230
3 230 443 229
3 443 442 229
3 229 442 230
3 442 443 230
3 443 447 230
3 230 447 232
3 112 608 115
3 608 607 115
3 115 607 114
3 607 608 114
3 114 608 115
3 608 611 115
3 611 608 115
3 608 609 115
3 115 609 116
3 609 608 116
3 116 608 115
3 115 608 112
3 642 641 587
3 641 586 587
3 587 586 536
3 586 535 536
3 536 535 541
3 535 540 541
3 1103 702 641
3 1103 641 642
3 1102 1085 702
3 702 1103 1102
3 652 651 1090
3 1089 1090 708
3 1090 651 708
3 546 545 550
3 545 549 550
3 550 549 595
3 549 594 595
3 595 594 652
3 594 651 652
3 545 546 420
3 546 421 420
3 420 421 540
3 421 541 540
3 700 634 699
3 634 633 699
3 692 691 634
3 691 633 634
3 1030 1026 893
3 1026 1022 893
3 893 1022 889
3 1022 1018 889
3 1018 886 889
3 889 886 773
3 886 770 773
3 770 692 773
3 773 692 695
3 692 634 695
3 695 634 777
3 634 700 777
3 777 700 782
3 898 1030 893
3 554 599 553
3 553 599 598
3 598 599 705
3 599 706 705
3 705 706 791
3 706 792 791
3 422 423 484
3 423 485 484
3 484 485 490
3 485 491 490
3 490 491 553
3 491 554 553
3 358 354 197
3 366 362 292
3 292 362 288
3 362 284 288
3 288 284 207
3 197 203 358
3 358 203 284
3 284 203 207
3 436 432 366
3 432 362 366
3 1113 907 1086
3 805 801 715
3 715 801 655
3 655 801 602
3 903 907 1113
3 197 354 423
3 1086 907 1092
3 1092 907 1096
3 1033 1096 911
3 911 1096 907
3 500 432 436
3 792 903 1113
3 1033 911 1037
3 919 801 805
3 423 428 485
3 428 491 485
3 1037 911 915
3 915 911 919
3 911 801 919
3 491 496 554
3 500 557 432
3 557 602 432
3 432 602 496
3 602 801 599
3 801 711 599
3 599 711 706
3 711 797 706
3 797 792 706
3 599 554 602
3 602 554 496
3 791 792 1112
3 792 1113 1112
3 272 273 330
3 273 331 330
3 330 331 396
3 331 397 396
3 396 397 460
3 397 461 460
3 460 461 464
3 461 465 464
3 464 465 470
3 465 471 470
3 470 471 527
3 471 528 527
3 527 528 470
3 528 471 470
3 470 471 476
3 471 477 476
3 476 477 408
3 477 409 408
3 408 409 414
3 409 415 414
3 414 415 408
3 415 409 408
3 408 409 346
3 409 347 346
3 346 347 280
3 347 281 280
3 281 187 280
3 187 186 280
3 273 272 187
3 272 186 187
3 331 273 338
3 338 273 276
3 273 187 276
3 276 187 342
3 187 281 342
3 342 281 347
3 409 477 404
3 404 477 471
3 465 461 400
3 461 397 400
3 397 331 400
3 400 331 338
3 637 703 638
3 703 704 638
3 694 693 638
3 693 637 638
3 887 1019 892
3 1019 1023 892
3 892 1023 896
3 1023 1027 896
3 1027 1031 896
3 896 1031 901
3 785 703 780
3 780 703 698
3 703 637 698
3 698 637 776
3 637 693 776
3 693 771 776
3 771 887 776
3 776 887 892
3 426 427 488
3 427 489 488
3 488 489 494
3 489 495 494
3 495 556 494
3 556 555 494
3 556 601 555
3 555 601 600
3 601 710 600
3 710 709 600
3 709 710 795
3 710 796 795
3 357 361 200
3 600 800 714
3 369 295 365
3 365 295 287
3 295 291 287
3 291 210 287
3 210 206 287
3 287 206 361
3 361 206 200
3 426 357 200
3 800 600 795
3 600 709 795
3 1091 910 1116
3 1116 906 795
3 1036 1040 914
3 1036 914 1099
3 914 910 1099
3 1099 910 1095
3 1095 910 1091
3 910 906 1116
3 499 494 555
3 808 718 804
3 503 439 435
3 494 431 488
3 431 426 488
3 435 439 365
3 439 369 365
3 922 804 918
3 804 914 918
3 918 914 1040
3 503 435 560
3 560 435 605
3 605 435 499
3 808 804 922
3 555 605 499
3 555 600 605
3 605 600 714
3 714 804 605
3 605 804 658
3 658 804 718
3 427 426 200
3 200 201 427
3 427 201 202
3 796 1117 795
3 1117 1116 795
3 188 282 189
3 282 283 189
3 275 274 189
3 274 188 189
3 274 275 336
3 275 337 336
3 336 337 398
3 337 399 398
3 398 399 462
3 399 463 462
3 462 463 468
3 463 469 468
3 468 469 474
3 469 475 474
3 474 475 531
3 475 532 531
3 531 532 474
3 532 475 474
3 474 475 480
3 475 481 480
3 480 481 412
3 481 413 412
3 412 413 416
3 413 417 416
3 416 417 412
3 417 413 412
3 412 413 350
3 413 351 350
3 350 351 282
3 351 283 282
3 474 480 407
3 407 480 412
3 350 282 345
3 345 282 279
3 282 188 279
3 279 188 341
3 188 274 341
3 274 336 341
3 341 336 403
3 336 398 403
3 398 462 403
3 403 462 468
3 100 36 32
3 29 33 99
3 29 30 34
3 32 36 35
3 32 35 31
3 33 29 34
3 31 35 30
3 35 34 30
3 40 41 42
3 41 40 42
3 35 40 34
3 34 40 37
3 46 43 47
3 43 40 44
3 44 40 42
3 42 40 35
3 47 43 44
3 38 37 40
3 40 39 38
3 38 39 40
3 38 40 46
3 40 43 46
3 234 233 107
3 236 235 48
3 48 110 236
3 234 45 108
3 108 47 109
3 108 46 47
3 45 46 108
3 107 45 234
3 235 109 48
3 109 47 48
3 142 144 155
3 144 147 155
3 130 132 155
3 132 137 155
3 155 137 142
3 155 147 156
3 156 157 155
3 113 124 123
3 124 130 123
3 119 117 113
3 121 119 122
3 122 119 123
3 113 115 109
3 115 112 109
3 109 112 108
3 119 120 123
3 123 120 113
3 120 119 113
3 108 117 121
3 115 116 113
3 113 116 115
3 112 115 108
3 115 114 108
3 114 115 108
3 117 119 121
3 119 118 121
3 118 119 121
3 115 117 108
3 117 115 113
3 130 155 123
3 155 129 123
3 123 129 126
3 123 126 127
3 128 135 131
3 155 146 135
3 123 126 122
3 127 126 123
3 145 143 135
3 143 140 135
3 140 139 135
3 155 153 146
3 155 153 154
3 150 153 155
3 135 136 155
3 136 135 155
3 155 135 129
3 131 135 133
3 154 153 155
3 135 146 145
3 126 129 128
3 146 153 145
3 133 135 139
3 146 138 135
3 122 126 128
3 126 125 128
3 125 126 128
3 135 134 133
3 134 135 133
3 135 138 146
3 152 145 153
3 150 151 153
3 153 151 152
3 152 151 145
3 128 129 135
3 661 662 611
3 445 608 508
3 447 608 443
3 445 375 608
3 508 608 610
3 610 611 662
3 375 371 608
3 371 307 608
3 608 609 610
3 609 608 610
3 610 608 611
3 611 608 661
3 608 607 661
3 661 607 608
3 447 443 441
3 443 442 441
3 442 443 441
3 374 441 443
3 374 443 370
3 608 447 661
3 661 447 561
3 370 443 306
3 306 443 300
3 302 443 307
3 561 447 441
3 443 444 307
3 444 443 307
3 307 443 608
3 301 297 443
3 297 301 443
3 302 301 443
3 443 301 300
3 31 30 23
3 23 19 31
3 19 15 31
3 15 9 31
3 9 10 31
3 10 4 31
3 5 6 31
3 6 11 31
3 31 11 24
3 24 11 20
3 20 11 16
3 11 12 16
3 4 5 31
3 340 341 402
3 341 403 402
3 402 403 467
3 403 468 467
3 467 468 473
3 468 474 473
3 473 474 406
3 474 407 406
3 406 407 411
3 407 412 411
3 411 412 349
3 412 350 349
3 349 350 344
3 350 345 344
3 340 278 341
3 278 279 341
3 278 344 279
3 344 345 279
3 799 800 794
3 800 795 794
3 794 795 905
3 795 906 905
3 905 906 909
3 906 910 909
3 909 910 913
3 910 914 913
3 913 914 803
3 914 804 803
3 799 713 800
3 713 714 800
3 713 803 714
3 803 804 714
3 775 776 891
3 776 892 891
3 891 892 895
3 892 896 895
3 895 896 900
3 896 901 900
3 900 901 784
3 901 785 784
3 784 785 779
3 785 780 779
3 775 697 776
3 697 698 776
3 697 779 698
3 779 780 698
3 360 361 356
3 361 357 356
3 356 357 425
3 357 426 425
3 425 426 430
3 426 431 430
3 430 431 493
3 431 494 493
3 493 494 498
3 494 499 498
3 498 499 434
3 499 435 434
3 434 435 364
3 435 365 364
3 360 286 361
3 286 287 361
3 286 364 287
3 364 365 287
3 343 277 342
3 277 276 342
3 277 339 276
3 339 338 276
3 338 339 400
3 339 401 400
3 400 401 465
3 401 466 465
3 465 466 471
3 466 472 471
3 471 472 404
3 472 405 404
3 404 405 409
3 405 410 409
3 409 410 347
3 410 348 347
3 347 348 342
3 348 343 342
3 802 712 801
3 712 711 801
3 712 798 711
3 798 797 711
3 797 798 792
3 798 793 792
3 792 793 903
3 793 904 903
3 903 904 907
3 904 908 907
3 907 908 911
3 908 912 911
3 911 912 801
3 912 802 801
3 778 696 777
3 696 695 777
3 696 774 695
3 774 773 695
3 773 774 889
3 774 890 889
3 889 890 893
3 890 894 893
3 893 894 898
3 894 899 898
3 898 899 782
3 899 783 782
3 782 783 777
3 783 778 777
3 363 285 362
3 285 284 362
3 285 359 284
3 359 358 284
3 358 359 354
3 359 355 354
3 354 355 423
3 355 424 423
3 423 424 428
3 424 429 428
3 428 429 491
3 429 492 491
3 491 492 496
3 492 497 496
3 496 497 432
3 497 433 432
3 432 433 362
3 433 363 362
3 721 723 720
3 923 723 930
3 930 723 939
3 975 985 976
3 976 985 977
3 719 721 720
3 815 723 817
3 817 723 824
3 723 923 824
3 725 723 815
3 985 1044 977
3 977 1044 978
3 810 812 819
3 937 929 819
3 1065 1058 1057
3 934 945 937
3 723 722 719
3 722 723 719
3 719 723 721
3 720 723 725
3 725 723 724
3 814 723 719
3 724 723 725
3 929 937 983
3 1044 1045 978
3 1045 1050 978
3 978 1050 1051
3 983 937 982
3 980 981 937
3 982 937 981
3 1065 1057 1100
3 819 928 937
3 937 928 936
3 928 935 936
3 936 935 937
3 937 935 934
3 937 938 983
3 983 938 937
3 945 957 937
3 937 957 956
3 971 970 1046
3 970 969 1046
3 969 968 1046
3 1046 968 967
3 812 928 819
3 819 928 818
3 928 819 818
3 823 812 810
3 819 929 983
3 1104 1105 1082
3 1105 1100 1082
3 1082 1100 1071
3 1100 1057 1071
3 1058 1052 1057
3 1057 1052 1046
3 937 1046 980
3 956 972 937
3 937 972 1046
3 1046 972 971
3 928 812 924
3 924 812 823
3 810 819 811
3 1050 1055 1051
3 1051 1055 1064
3 1055 1056 1064
3 1064 1056 1063
3 1047 1041 1046
3 823 810 809
3 820 819 939
3 1041 986 1046
3 1046 986 980
3 809 810 823
3 810 723 823
3 823 723 814
3 1052 1047 1046
3 959 983 973
3 723 810 939
3 1063 1069 1064
3 1064 1069 1076
3 1069 1103 1076
3 1076 1103 1083
3 1103 1106 1083
3 1083 1106 1107
3 810 811 939
3 939 811 819
3 939 819 820
3 985 975 984
3 975 974 984
3 984 974 983
3 974 973 983
3 959 958 983
3 983 958 946
3 946 940 819
3 819 940 939
3 946 819 983
3 278 340 335
3 438 502 434
3 335 71 278
3 71 77 278
3 278 77 344
3 807 803 717
3 604 657 803
3 657 717 803
3 479 535 473
3 473 535 530
3 479 473 353
3 368 364 294
3 294 364 290
3 364 286 290
3 290 286 209
3 286 205 209
3 1085 784 702
3 803 498 604
3 360 356 353
3 473 406 353
3 406 411 353
3 360 353 286
3 353 411 286
3 344 77 349
3 77 83 349
3 498 434 604
3 604 434 559
3 559 434 502
3 905 909 1089
3 636 641 784
3 356 425 353
3 353 425 487
3 1089 909 1094
3 1094 909 1098
3 1035 1098 913
3 913 1098 909
3 530 583 473
3 438 434 368
3 434 364 368
3 83 199 349
3 199 205 349
3 205 286 349
3 349 286 411
3 784 779 473
3 779 697 473
3 697 775 473
3 425 430 487
3 430 493 487
3 651 654 799
3 1089 708 794
3 794 905 1089
3 1035 913 1039
3 473 583 784
3 784 583 636
3 641 702 784
3 487 493 549
3 921 803 807
3 459 395 402
3 597 552 493
3 493 552 549
3 708 651 799
3 654 597 799
3 597 493 799
3 799 493 713
3 713 493 803
3 803 493 498
3 1039 913 917
3 917 913 921
3 913 803 921
3 891 895 1075
3 1075 895 1085
3 1085 900 784
3 895 900 1085
3 459 402 526
3 526 402 522
3 522 402 581
3 581 402 632
3 402 467 632
3 632 467 690
3 690 467 768
3 768 467 775
3 775 467 473
3 794 708 799
3 775 891 768
3 768 891 1075
3 395 329 402
3 335 340 329
3 340 402 329
3 762 171 763
3 171 172 763
3 355 359 76
3 76 359 82
3 367 293 363
3 363 293 285
3 293 289 285
3 326 392 401
3 332 339 68
3 339 277 68
3 68 277 76
3 277 343 76
3 76 343 348
3 798 596 793
3 793 596 653
3 650 707 793
3 765 774 687
3 774 466 629
3 198 82 359
3 486 424 352
3 326 401 332
3 401 339 332
3 687 774 629
3 629 466 578
3 466 401 578
3 578 401 519
3 519 401 523
3 523 401 456
3 456 401 392
3 701 783 1084
3 1084 783 899
3 352 424 355
3 352 355 76
3 289 208 285
3 208 204 285
3 285 204 359
3 359 204 198
3 793 653 650
3 548 492 486
3 492 429 486
3 486 429 424
3 367 363 437
3 363 433 437
3 904 793 1088
3 1088 793 707
3 410 405 478
3 405 472 478
3 712 497 492
3 437 433 501
3 433 712 501
3 712 558 501
3 1034 1038 912
3 1034 912 1097
3 912 908 1097
3 1097 908 1093
3 1093 908 1088
3 908 904 1088
3 76 348 352
3 352 410 478
3 899 894 1084
3 1084 894 1072
3 1072 894 890
3 548 551 492
3 551 596 492
3 603 558 712
3 806 716 802
3 348 410 352
3 1072 890 765
3 765 890 774
3 433 497 712
3 596 798 492
3 798 712 492
3 712 802 603
3 603 802 656
3 656 802 716
3 478 472 534
3 920 802 916
3 802 912 916
3 916 912 1038
3 640 778 701
3 640 635 778
3 806 802 920
3 582 529 472
3 472 529 534
3 783 701 778
3 635 582 778
3 582 472 778
3 778 472 696
3 696 472 774
3 774 472 466
3 693 694 771
3 694 772 771
3 771 772 887
3 772 888 887
3 887 888 1019
3 888 1020 1019
3 1019 1020 1023
3 1020 1024 1023
3 1023 1024 1027
3 1024 1028 1027
3 1027 1028 1031
3 1028 1032 1031
3 1031 1032 901
3 1032 902 901
3 901 902 785
3 902 786 785
3 785 786 789
3 786 790 789
3 789 790 785
3 790 786 785
3 785 786 703
3 786 704 703
3 691 692 769
3 692 770 769
3 769 770 885
3 770 886 885
3 885 886 1017
3 886 1018 1017
3 1017 1018 1021
3 1018 1022 1021
3 1021 1022 1025
3 1022 1026 1025
3 1025 1026 1029
3 1026 1030 1029
3 1029 1030 897
3 1030 898 897
3 897 898 781
3 898 782 781
3 781 782 787
3 782 788 787
3 787 788 781
3 788 782 781
3 781 782 699
3 782 700 699
3 833 926 927
3 746 841 842
3 842 747 746
3 833 832 926
3 927 934 928
3 934 935 928
3 950 967 968
3 968 951 950
3 951 952 950
3 856 950 952
3 856 855 950
3 840 855 842
3 842 855 856
3 841 840 842
3 955 944 943
3 956 944 955
3 972 956 955
3 972 955 971
3 971 955 954
3 971 954 970
3 970 954 953
3 953 954 857
3 954 858 857
3 858 844 857
3 857 844 843
3 844 749 843
3 843 749 748
3 969 970 968
3 968 970 951
3 970 953 951
3 951 953 952
3 952 953 856
3 953 857 856
3 856 857 842
3 857 843 842
3 842 843 747
3 843 748 747
3 743 832 740
3 832 743 837
3 934 927 933
3 927 926 933
3 933 926 837
3 926 832 837
3 742 836 743
3 743 836 837
3 944 837 846
3 846 837 845
3 837 836 845
3 957 945 956
3 945 944 956
3 933 837 944
3 945 934 944
3 934 933 944
3 844 942 845
3 942 954 845
3 845 954 943
3 954 955 943
3 954 844 858
3 942 844 954
3 845 750 844
3 844 750 749
3 944 846 943
3 943 846 845
3 836 742 845
3 845 742 750
3 184 1017 1003
3 184 1003 166
3 1003 864 166
3 1090 1091 1115
3 1091 1116 1115
3 1116 1117 1115
3 1117 1111 1115
3 1115 1111 1110
3 1111 1107 1110
3 1110 1107 1106
3 199 206 205
3 206 210 205
3 205 210 209
3 210 291 209
3 209 291 290
3 291 295 290
3 290 295 294
3 295 369 294
3 294 369 368
3 369 439 368
3 368 439 438
3 439 503 438
3 438 503 502
3 503 560 502
3 502 560 559
3 560 605 559
3 559 605 604
3 605 658 604
3 604 658 657
3 658 718 657
3 657 718 717
3 718 808 717
3 717 808 807
3 808 922 807
3 807 922 921
3 922 918 921
3 921 918 917
3 918 1040 917
3 917 1040 1039
3 1040 1036 1039
3 1039 1036 1035
3 1036 1099 1035
3 1035 1099 1098
3 1099 1095 1098
3 1098 1095 1094
3 1095 1091 1094
3 1094 1091 1089
3 1091 1090 1089
3 199 200 206
3 200 199 201
3 201 199 84
3 199 83 84
3 84 83 78
3 83 77 78
3 77 71 78
3 71 72 78
3 76 75 68
3 75 67 68
3 51 58 57
3 51 57 50
3 57 56 50
3 54 63 60
3 56 55 50
3 59 62 53
3 53 62 67
3 49 50 55
3 65 63 54
3 62 61 67
3 60 58 54
3 54 58 52
3 51 52 58
3 53 49 55
3 72 71 54
3 71 70 54
3 54 70 65
3 55 59 53
3 61 64 67
3 67 64 68
3 64 69 68
3 198 204 197
3 197 204 203
3 204 208 203
3 203 208 207
3 208 289 207
3 207 289 288
3 289 293 288
3 288 293 292
3 293 367 292
3 292 367 366
3 367 437 366
3 366 437 436
3 437 501 436
3 436 501 500
3 501 558 500
3 500 558 557
3 558 603 557
3 557 603 602
3 603 656 602
3 602 656 655
3 656 716 655
3 655 716 715
3 716 806 715
3 715 806 805
3 806 920 805
3 805 920 919
3 920 916 919
3 919 916 915
3 916 1038 915
3 915 1038 1037
3 1038 1034 1037
3 1037 1034 1033
3 1034 1097 1033
3 1033 1097 1096
3 1097 1093 1096
3 1096 1093 1092
3 1093 1088 1092
3 1092 1088 1086
3 1088 1087 1086
3 1086 1087 1113
3 1087 1114 1113
3 1113 1114 1112
3 1114 1109 1112
3 1112 1109 1108
3 1109 1105 1108
3 1108 1105 1104
3 76 82 75
3 75 82 81
3 82 198 81
3 81 198 197
3 197 423 422
3 422 196 197
3 191 79 185
3 185 79 73
3 79 78 73
3 73 78 72
3 85 195 84
3 191 195 79
3 195 85 79
3 79 85 78
3 85 84 78
3 202 201 195
3 201 194 195
3 195 194 84
3 201 84 194
3 166 167 184
3 167 53 184
3 184 53 66
3 66 53 67
3 75 74 67
3 67 74 66
3 74 190 66
3 66 190 184
3 197 196 192
3 197 192 193
3 193 81 197
3 75 81 74
3 81 80 74
3 80 192 74
3 74 192 190
3 81 193 80
3 193 192 80
3 165 169 164
3 169 168 164
3 164 168 52
3 168 54 52
3 72 54 73
3 54 168 73
3 73 168 185
3 168 169 185
3 1009 1003 1017
3 1082 1071 1080
3 1070 1080 1071
3 1080 1070 1078
3 1017 1078 1009
3 993 1057 1046
3 993 1046 967
3 1003 1009 864
3 864 1009 966
3 1009 993 966
3 967 966 993
3 1057 993 1009
3 1078 1070 1009
3 1009 1070 1057
3 1070 1071 1057
3 950 855 854
3 950 854 864
3 967 950 966
3 950 864 966
3 638 413 481
3 475 772 532
3 772 694 532
3 888 772 1020
3 337 275 185
3 275 189 185
3 185 189 191
3 481 475 638
3 1024 1081 1028
3 495 796 710
3 772 469 463
3 1111 1117 796
3 786 790 489
3 413 638 427
3 427 638 489
3 638 475 694
3 475 532 694
3 475 469 772
3 1020 1079 1024
3 1079 1081 1024
3 1020 463 399
3 704 489 638
3 417 413 427
3 1020 772 463
3 1020 399 185
3 185 399 337
3 495 710 556
3 710 601 556
3 1083 1032 1028
3 1081 1083 1028
3 704 786 489
3 189 283 191
3 283 351 191
3 191 351 195
3 351 202 195
3 202 351 427
3 351 413 427
3 427 413 417
3 790 786 489
3 489 786 902
3 902 1032 1083
3 796 495 1111
3 1111 495 1107
3 1107 495 1083
3 495 489 1083
3 1083 489 902
3 169 865 185
3 865 1008 185
3 185 1008 1020
