ply
format ascii 1.0
element vertex 1093
property float x
property float y
property float z
element face 2214
property list uchar int vertex_indices
end_header
-0.030827 -0.042095 -0.024868
-0.030988 -0.042159 -0.024223
-0.031011 -0.042168 -0.016000
-0.030896 -0.042123 -0.015344
-0.031243 -0.040391 -0.025057
-0.031526 -0.040463 -0.024223
-0.031550 -0.040469 -0.016000
-0.031329 -0.040413 -0.015147
-0.031207 -0.038862 -0.025409
-0.031869 -0.038717 -0.024223
-0.031894 -0.038720 -0.016000
-0.031422 -0.038888 -0.014863
-0.030770 -0.038581 -0.014198
-0.031360 -0.037511 -0.025370
-0.031965 -0.037534 -0.024223
-0.031990 -0.037535 -0.016000
-0.031631 -0.037521 -0.014969
-0.030858 -0.037491 -0.014198
-0.031218 -0.036011 -0.025474
-0.031960 -0.036346 -0.024223
-0.031985 -0.036345 -0.016000
-0.031527 -0.036142 -0.014863
-0.030805 -0.035854 -0.014198
-0.031358 -0.034534 -0.025159
-0.031751 -0.034579 -0.024223
-0.031776 -0.034575 -0.016000
-0.031463 -0.034548 -0.015045
-0.031065 -0.032934 -0.025057
-0.031344 -0.032847 -0.024223
-0.031368 -0.032840 -0.016000
-0.031150 -0.032907 -0.015147
-0.030783 -0.031795 -0.024868
-0.030943 -0.031730 -0.024223
-0.030966 -0.031720 -0.016000
-0.030851 -0.031767 -0.015344
-0.029714 -0.044615 -0.024148
-0.029618 -0.044789 -0.016000
-0.029907 -0.044269 -0.015555
-0.029833 -0.043551 -0.025226
-0.030503 -0.043243 -0.024223
-0.030525 -0.043254 -0.016000
-0.029926 -0.043505 -0.014885
-0.029991 -0.041998 -0.025673
-0.030458 -0.041949 -0.014595
-0.029679 -0.042031 -0.014149
-0.029975 -0.040609 -0.025863
-0.030682 -0.040828 -0.014436
-0.029799 -0.040554 -0.014062
-0.030259 -0.039172 -0.025922
-0.030259 -0.039172 -0.014078
-0.030204 -0.037641 -0.025975
-0.030204 -0.037641 -0.014025
-0.030172 -0.036042 -0.025975
-0.030172 -0.036042 -0.014025
-0.030159 -0.034382 -0.025917
-0.030159 -0.034382 -0.014083
-0.029984 -0.033063 -0.025848
-0.030649 -0.033063 -0.014436
-0.029797 -0.033082 -0.014075
-0.030016 -0.031501 -0.025538
-0.030178 -0.031427 -0.014595
-0.029690 -0.031650 -0.014198
-0.030295 -0.030729 -0.024868
-0.030449 -0.030650 -0.024223
-0.030471 -0.030639 -0.016000
-0.030361 -0.030695 -0.015344
-0.029645 -0.029016 -0.024000
-0.028304 -0.046002 -0.025057
-0.028524 -0.046194 -0.024223
-0.028543 -0.046211 -0.016000
-0.028371 -0.046061 -0.015147
-0.028521 -0.044953 -0.025499
-0.029247 -0.045253 -0.024445
-0.028793 -0.045199 -0.014863
-0.028204 -0.044488 -0.014124
-0.028475 -0.043489 -0.025938
-0.028475 -0.043489 -0.014062
-0.029029 -0.042263 -0.025975
-0.029029 -0.042263 -0.014025
-0.027907 -0.038358 -0.026000
-0.027907 -0.038358 -0.014000
-0.027993 -0.037381 -0.026000
-0.027993 -0.037381 -0.014000
-0.027928 -0.035912 -0.026000
-0.027928 -0.035912 -0.014000
-0.029136 -0.032528 -0.026000
-0.029136 -0.032528 -0.014000
-0.028873 -0.031454 -0.025977
-0.028855 -0.031463 -0.014021
-0.028396 -0.028640 -0.025602
-0.029171 -0.028246 -0.024504
-0.028745 -0.028151 -0.014920
-0.027984 -0.028538 -0.014140
-0.028843 -0.027436 -0.024000
-0.028065 -0.025900 -0.024000
-0.028050 -0.025871 -0.016000
-0.026542 -0.047503 -0.025226
-0.026818 -0.047842 -0.024223
-0.026833 -0.047861 -0.016000
-0.026607 -0.047583 -0.014969
-0.027157 -0.046486 -0.025486
-0.027706 -0.047054 -0.024223
-0.027723 -0.047072 -0.016000
-0.027474 -0.046814 -0.014969
-0.026790 -0.046106 -0.014124
-0.027188 -0.045210 -0.025938
-0.027188 -0.045210 -0.014062
-0.026573 -0.041692 -0.025975
-0.026573 -0.041692 -0.014025
-0.026975 -0.040588 -0.025938
-0.026975 -0.040588 -0.014062
-0.026907 -0.039124 -0.025735
-0.026421 -0.038929 -0.014542
-0.027198 -0.039241 -0.014099
-0.026946 -0.037496 -0.025641
-0.026572 -0.037476 -0.014595
-0.027319 -0.037517 -0.014124
-0.026885 -0.035844 -0.025641
-0.026514 -0.035892 -0.014595
-0.027256 -0.035796 -0.014124
-0.026960 -0.034398 -0.025829
-0.026441 -0.034682 -0.014436
-0.027060 -0.034324 -0.014112
-0.027010 -0.033157 -0.025978
-0.026992 -0.033145 -0.014023
-0.027652 -0.028706 -0.014033
-0.027310 -0.024406 -0.024000
-0.026579 -0.022955 -0.024000
-0.024772 -0.049026 -0.024868
-0.024857 -0.049177 -0.024223
-0.024869 -0.049199 -0.016000
-0.024808 -0.049091 -0.015344
-0.025421 -0.047898 -0.025486
-0.025866 -0.048551 -0.024223
-0.025880 -0.048572 -0.016000
-0.025677 -0.048275 -0.014969
-0.025123 -0.047461 -0.014124
-0.025620 -0.046681 -0.025938
-0.025620 -0.046681 -0.014062
-0.024797 -0.044335 -0.026000
-0.024797 -0.044335 -0.014000
-0.025538 -0.043208 -0.025975
-0.025538 -0.043208 -0.014025
-0.025347 -0.041922 -0.025542
-0.024805 -0.041301 -0.024445
-0.025048 -0.041652 -0.014839
-0.025678 -0.042185 -0.014149
-0.025764 -0.040580 -0.025308
-0.025166 -0.040576 -0.024223
-0.024990 -0.040866 -0.016000
-0.025608 -0.040443 -0.014969
-0.026137 -0.041146 -0.014198
-0.026000 -0.039093 -0.024994
-0.025747 -0.039047 -0.024223
-0.025684 -0.039181 -0.016000
-0.025924 -0.039021 -0.015225
-0.026177 -0.037454 -0.024868
-0.026001 -0.037433 -0.024204
-0.025978 -0.037382 -0.016000
-0.026105 -0.037466 -0.015334
-0.026121 -0.035943 -0.024868
-0.025965 -0.035999 -0.024297
-0.025946 -0.036073 -0.016000
-0.026048 -0.035953 -0.015344
-0.025959 -0.034329 -0.025159
-0.025657 -0.034637 -0.024223
-0.025666 -0.034758 -0.016000
-0.025870 -0.034382 -0.015045
-0.025760 -0.033225 -0.025370
-0.025215 -0.033490 -0.024205
-0.025194 -0.033500 -0.016000
-0.025542 -0.033331 -0.014916
-0.026212 -0.033005 -0.014198
-0.024840 -0.023948 -0.014000
-0.025351 -0.022227 -0.025511
-0.025965 -0.021918 -0.024536
-0.025869 -0.021544 -0.024000
-0.025644 -0.021095 -0.016000
-0.025272 -0.021216 -0.014966
-0.025182 -0.020174 -0.024000
-0.023876 -0.049193 -0.025231
-0.023798 -0.049715 -0.024223
-0.023809 -0.049738 -0.016000
-0.023859 -0.049293 -0.014926
-0.024038 -0.048174 -0.025817
-0.024500 -0.048543 -0.014436
-0.023910 -0.048035 -0.014109
-0.023723 -0.044661 -0.025917
-0.023723 -0.044661 -0.014083
-0.024071 -0.043431 -0.025542
-0.023368 -0.042999 -0.024445
-0.023742 -0.043175 -0.014863
-0.024384 -0.043713 -0.014149
-0.024343 -0.042366 -0.025057
-0.024054 -0.042249 -0.024204
-0.023977 -0.042299 -0.016000
-0.024275 -0.042309 -0.015147
-0.023566 -0.027082 -0.025876
-0.023566 -0.027082 -0.014124
-0.024577 -0.022616 -0.025967
-0.024156 -0.021777 -0.014033
-0.023370 -0.021023 -0.026000
-0.024488 -0.021610 -0.014140
-0.023879 -0.019295 -0.025511
-0.024504 -0.018944 -0.024366
-0.023463 -0.018765 -0.014326
-0.023869 -0.017554 -0.024000
-0.024015 -0.018489 -0.015062
-0.022495 -0.049592 -0.025370
-0.022698 -0.050162 -0.024223
-0.022707 -0.050185 -0.016000
-0.022586 -0.049847 -0.014969
-0.022326 -0.049119 -0.014198
-0.022554 -0.048310 -0.025977
-0.022590 -0.048326 -0.014026
-0.022375 -0.045992 -0.026000
-0.022375 -0.045992 -0.014000
-0.022521 -0.045092 -0.025806
-0.022184 -0.044678 -0.014436
-0.022635 -0.045249 -0.014101
-0.022748 -0.043925 -0.025159
-0.022566 -0.043586 -0.024223
-0.022648 -0.043496 -0.016000
-0.022672 -0.043854 -0.015045
-0.022773 -0.027467 -0.025226
-0.022402 -0.027648 -0.024445
-0.022681 -0.027513 -0.014969
-0.023105 -0.019683 -0.025967
-0.022989 -0.019003 -0.014091
-0.023243 -0.016303 -0.024000
-0.023249 -0.016313 -0.016000
-0.021933 -0.014412 -0.025094
-0.022258 -0.014467 -0.024405
-0.022049 -0.013915 -0.024000
-0.020743 -0.050434 -0.024994
-0.020984 -0.050640 -0.024223
-0.020990 -0.050664 -0.016000
-0.020837 -0.050507 -0.015225
-0.021115 -0.049690 -0.025625
-0.021039 -0.049991 -0.014542
-0.021228 -0.049238 -0.014124
-0.020919 -0.048639 -0.026000
-0.020919 -0.048639 -0.014000
-0.020865 -0.046202 -0.025940
-0.020885 -0.046208 -0.014058
-0.021110 -0.044957 -0.025308
-0.020755 -0.044537 -0.024223
-0.020672 -0.044540 -0.016000
-0.021055 -0.044813 -0.014885
-0.021220 -0.045546 -0.014198
-0.021509 -0.044213 -0.024185
-0.021500 -0.044194 -0.016000
-0.021522 -0.044239 -0.015555
-0.020825 -0.020974 -0.025925
-0.020826 -0.020975 -0.014076
-0.020592 -0.019730 -0.026000
-0.020700 -0.019887 -0.014000
-0.020862 -0.016017 -0.013962
-0.021264 -0.014747 -0.025718
-0.021508 -0.014664 -0.014389
-0.020735 -0.014932 -0.013737
-0.021479 -0.012776 -0.024000
-0.021294 -0.013271 -0.014722
-0.020923 -0.013510 -0.013643
-0.020497 -0.013859 -0.012516
-0.020892 -0.013226 -0.009333
-0.020898 -0.013211 -0.002667
-0.020629 -0.013312 0.004649
-0.020927 -0.011675 -0.024000
-0.020937 -0.011708 -0.015854
-0.021084 -0.012225 -0.015188
-0.021064 -0.012601 -0.014079
-0.021038 -0.012273 -0.009333
-0.021037 -0.012273 -0.002667
-0.020797 -0.011957 0.004631
-0.020294 -0.012428 0.005564
-0.020392 -0.010609 -0.024000
-0.019202 -0.050630 -0.025057
-0.019227 -0.050921 -0.024223
-0.019229 -0.050946 -0.016000
-0.019209 -0.050719 -0.015147
-0.019485 -0.049453 -0.025867
-0.019163 -0.050196 -0.014436
-0.019539 -0.049330 -0.014083
-0.019279 -0.046380 -0.025901
-0.019279 -0.046380 -0.014099
-0.019768 -0.045208 -0.025159
-0.019569 -0.044857 -0.024223
-0.019369 -0.044869 -0.016000
-0.019768 -0.045104 -0.015045
-0.019699 -0.021753 -0.024868
-0.019539 -0.021830 -0.024178
-0.019521 -0.021839 -0.016000
-0.019633 -0.021785 -0.015344
-0.019645 -0.020962 -0.025301
-0.019063 -0.020972 -0.024297
-0.019091 -0.021067 -0.016000
-0.019472 -0.020941 -0.014894
-0.020180 -0.020678 -0.014198
-0.019489 -0.019663 -0.025772
-0.018892 -0.019792 -0.014595
-0.019583 -0.019386 -0.014119
-0.019255 -0.018358 -0.025982
-0.019018 -0.018213 -0.013979
-0.019954 -0.015036 -0.013109
-0.019782 -0.014766 -0.012373
-0.019931 -0.013026 0.005683
-0.019635 -0.012333 0.005862
-0.019076 -0.009928 -0.025604
-0.019139 -0.009323 -0.025149
-0.019431 -0.009117 -0.024223
-0.019300 -0.008929 -0.016667
-0.019280 -0.008913 -0.009333
-0.019343 -0.008866 -0.001542
-0.019174 -0.008520 0.004692
-0.018838 -0.008689 0.005344
-0.018949 -0.008200 -0.000753
-0.018969 -0.007791 -0.000402
-0.019044 -0.007933 0.004000
-0.018040 -0.050683 -0.025057
-0.018041 -0.050975 -0.024223
-0.018041 -0.051000 -0.016000
-0.018041 -0.050772 -0.015147
-0.017957 -0.049639 -0.025829
-0.018039 -0.050247 -0.014436
-0.017930 -0.049436 -0.014083
-0.017993 -0.046483 -0.025863
-0.017919 -0.045753 -0.014436
-0.018012 -0.046665 -0.014062
-0.018391 -0.045387 -0.025159
-0.018209 -0.045024 -0.024297
-0.018032 -0.045000 -0.016000
-0.018375 -0.045292 -0.015033
-0.018621 -0.020400 -0.024000
-0.018578 -0.020347 -0.016000
-0.018216 -0.019268 -0.025214
-0.017845 -0.019533 -0.024236
-0.017739 -0.019450 -0.015915
-0.017980 -0.019264 -0.014995
-0.017948 -0.017894 -0.025840
-0.017652 -0.018678 -0.014395
-0.018014 -0.017961 -0.013605
-0.017451 -0.017522 -0.012326
-0.017285 -0.017628 -0.004000
-0.017436 -0.017447 0.004214
-0.017503 -0.016783 -0.026000
-0.017432 -0.017209 0.004868
-0.018062 -0.010148 -0.025932
-0.017976 -0.009214 -0.025413
-0.017976 -0.008561 -0.024254
-0.018095 -0.008511 -0.016667
-0.018095 -0.008511 -0.009333
-0.017971 -0.008429 -0.001485
-0.018192 -0.009016 0.005826
-0.018043 -0.008079 -0.000753
-0.018032 -0.007408 -0.000248
-0.018045 -0.006491 0.000000
-0.017606 -0.005442 0.004686
-0.017337 -0.005581 0.005261
-0.017584 -0.005086 0.000000
-0.016879 -0.050637 -0.025057
-0.016855 -0.050928 -0.024223
-0.016853 -0.050953 -0.016000
-0.016871 -0.050726 -0.015147
-0.016439 -0.049625 -0.025804
-0.016356 -0.050133 -0.014436
-0.016472 -0.049422 -0.014099
-0.016629 -0.046367 -0.025901
-0.016629 -0.046367 -0.014099
-0.016755 -0.045361 -0.025226
-0.016753 -0.044915 -0.024204
-0.016693 -0.044880 -0.016000
-0.016770 -0.045259 -0.014969
-0.017209 -0.019001 -0.015783
-0.017087 -0.018855 -0.015310
-0.016564 -0.017914 -0.025330
-0.016443 -0.018467 -0.024184
-0.016567 -0.018504 -0.014809
-0.016518 -0.018178 -0.013484
-0.016650 -0.017938 -0.012319
-0.016531 -0.017967 -0.004000
-0.016522 -0.017733 0.004736
-0.016094 -0.017285 0.005564
-0.016358 -0.016614 -0.025936
-0.017249 -0.017057 0.005247
-0.016323 -0.016649 0.005831
-0.016968 -0.009356 -0.025159
-0.016829 -0.008986 -0.024178
-0.017071 -0.008771 -0.016667
-0.017054 -0.008781 -0.009333
-0.016718 -0.008814 -0.001330
-0.016215 -0.008481 -0.000436
-0.017180 -0.008218 -0.000753
-0.016510 -0.007554 -0.000157
-0.017074 -0.006610 0.000000
-0.016779 -0.005869 0.005718
-0.016897 -0.003767 0.000000
-0.017204 -0.004350 0.004000
-0.015913 -0.003842 0.005674
-0.016242 -0.002528 0.000000
-0.016583 -0.003489 0.004700
-0.016258 -0.003661 0.005337
-0.015336 -0.050450 -0.024994
-0.015096 -0.050657 -0.024223
-0.015091 -0.050682 -0.016000
-0.015242 -0.050523 -0.015225
-0.014916 -0.049446 -0.025712
-0.014658 -0.049982 -0.014595
-0.015088 -0.049089 -0.014083
-0.014531 -0.048488 -0.026000
-0.014531 -0.048488 -0.014000
-0.015120 -0.046196 -0.025940
-0.015120 -0.046196 -0.014060
-0.015042 -0.044966 -0.025253
-0.015379 -0.044588 -0.024297
-0.015388 -0.044562 -0.016000
-0.015163 -0.044827 -0.014987
-0.014623 -0.045485 -0.014198
-0.014452 -0.044197 -0.024223
-0.014558 -0.044222 -0.016000
-0.014345 -0.044173 -0.015555
-0.015040 -0.017556 -0.024963
-0.014975 -0.017780 -0.024223
-0.015613 -0.018038 -0.013400
-0.015464 -0.017965 -0.012332
-0.014939 -0.017777 -0.010000
-0.015706 -0.018027 -0.004000
-0.015194 -0.017716 0.004576
-0.014877 -0.016669 -0.025697
-0.015220 -0.016758 0.005736
-0.014870 -0.015668 -0.026000
-0.015100 -0.015731 0.006000
-0.015680 -0.008475 -0.000198
-0.015277 -0.007873 -0.000018
-0.015669 -0.005738 0.006000
-0.015432 -0.004096 0.005913
-0.015614 -0.001365 0.000000
-0.015489 -0.001369 0.004531
-0.014966 -0.001849 0.005552
-0.014772 0.000149 0.000000
-0.014619 0.000132 0.004686
-0.014355 -0.000018 0.005261
-0.014317 0.000954 0.004000
-0.013579 -0.049618 -0.025370
-0.013379 -0.050189 -0.024223
-0.013371 -0.050213 -0.016000
-0.013490 -0.049873 -0.014969
-0.013745 -0.049144 -0.014198
-0.013434 -0.048410 -0.025967
-0.013434 -0.048410 -0.014033
-0.013824 -0.046086 -0.026000
-0.013824 -0.046086 -0.014000
-0.013501 -0.044974 -0.025735
-0.013840 -0.044572 -0.014542
-0.013297 -0.045216 -0.014099
-0.013242 -0.043811 -0.025057
-0.013397 -0.043558 -0.024204
-0.013432 -0.043552 -0.016000
-0.013281 -0.043736 -0.015135
-0.013432 -0.017370 -0.024205
-0.013208 -0.017332 -0.016667
-0.014076 -0.017532 -0.010000
-0.013208 -0.017332 -0.009333
-0.013307 -0.017388 -0.001757
-0.013464 -0.017379 0.004310
-0.013356 -0.016402 -0.025535
-0.012849 -0.017119 -0.024223
-0.012835 -0.017140 -0.016667
-0.012835 -0.017140 -0.009333
-0.012859 -0.017179 -0.001815
-0.013449 -0.017066 0.005121
-0.013692 -0.016305 0.005772
-0.013379 -0.015294 -0.025858
-0.013629 -0.015437 0.006000
-0.013913 -0.002422 0.006000
-0.013562 -0.001449 0.005985
-0.013789 -0.000338 0.005729
-0.013879 0.001692 0.000000
-0.013652 0.001791 0.004686
-0.013222 0.001532 0.005450
-0.013030 0.003065 0.000000
-0.012967 0.003101 0.004289
-0.012016 -0.049195 -0.025159
-0.012277 -0.049749 -0.024223
-0.012266 -0.049772 -0.016000
-0.012061 -0.049283 -0.014960
-0.012109 -0.048226 -0.025823
-0.011569 -0.048581 -0.014436
-0.012244 -0.048138 -0.014112
-0.011598 -0.047149 -0.026000
-0.011598 -0.047149 -0.014000
-0.011890 -0.044717 -0.025983
-0.011890 -0.044717 -0.014017
-0.012072 -0.043538 -0.025545
-0.012522 -0.042899 -0.024445
-0.012231 -0.043213 -0.014792
-0.011904 -0.043977 -0.014149
-0.011672 -0.042324 -0.024994
-0.011916 -0.042213 -0.024223
-0.012065 -0.042346 -0.016000
-0.011710 -0.042227 -0.015225
-0.012714 -0.017348 -0.001047
-0.011861 -0.017360 -0.000425
-0.011984 -0.017320 0.004281
-0.012480 -0.016320 -0.025019
-0.012216 -0.016326 -0.024223
-0.012194 -0.016337 -0.016667
-0.012194 -0.016337 -0.009333
-0.012088 -0.016512 -0.001311
-0.011447 -0.016780 -0.000387
-0.012036 -0.017036 0.005057
-0.012007 -0.016208 0.005772
-0.012460 -0.015117 -0.025174
-0.012058 -0.014955 -0.024229
-0.012037 -0.014937 -0.016667
-0.012030 -0.014960 -0.009333
-0.011859 -0.014947 -0.001302
-0.011388 -0.014438 -0.000436
-0.012131 -0.015341 0.006000
-0.012414 -0.014203 -0.024191
-0.012191 -0.014096 -0.001253
-0.011565 -0.013733 -0.000317
-0.012344 0.001004 0.005948
-0.012634 0.003253 0.004915
-0.011851 0.003043 0.005673
-0.012068 0.004496 0.000000
-0.011930 0.004494 0.004534
-0.011637 0.004211 0.005337
-0.011336 0.005484 0.000000
-0.011215 -0.049217 -0.024223
-0.011203 -0.049239 -0.016000
-0.011227 -0.049195 -0.015555
-0.010643 -0.047942 -0.025486
-0.010203 -0.048597 -0.024223
-0.010189 -0.048618 -0.016000
-0.010389 -0.048320 -0.014969
-0.010938 -0.047503 -0.014124
-0.010186 -0.046527 -0.025938
-0.010186 -0.046527 -0.014062
-0.010693 -0.043326 -0.025938
-0.010693 -0.043326 -0.014062
-0.010610 -0.041912 -0.025555
-0.011243 -0.041283 -0.024000
-0.011243 -0.041283 -0.016000
-0.010896 -0.041679 -0.014702
-0.010251 -0.042204 -0.014124
-0.010240 -0.040775 -0.025370
-0.010900 -0.040730 -0.024247
-0.010806 -0.040500 -0.016000
-0.010610 -0.040760 -0.015086
-0.009788 -0.040995 -0.014198
-0.010773 -0.017461 -0.000027
-0.010587 -0.017462 0.004403
-0.010604 -0.016375 -0.000119
-0.010488 -0.017115 0.005247
-0.010333 -0.016422 0.005772
-0.010673 -0.015049 -0.000176
-0.010721 -0.015481 0.006000
-0.010817 -0.013579 -0.000052
-0.010863 0.002940 0.005989
-0.010353 0.004374 0.005888
-0.010575 0.006389 0.000000
-0.010578 0.006180 0.004602
-0.010256 0.005813 0.005423
-0.009915 0.007085 0.000000
-0.010116 0.006805 0.004457
-0.009520 -0.047553 -0.025226
-0.009246 -0.047894 -0.024223
-0.009231 -0.047913 -0.016000
-0.009456 -0.047633 -0.014969
-0.008899 -0.046540 -0.025486
-0.008353 -0.047111 -0.024223
-0.008336 -0.047130 -0.016000
-0.008584 -0.046870 -0.014969
-0.009264 -0.046157 -0.014124
-0.008721 -0.045281 -0.025917
-0.008721 -0.045281 -0.014083
-0.008437 -0.044250 -0.026000
-0.008437 -0.044250 -0.014000
-0.009210 -0.041743 -0.026000
-0.009226 -0.041772 -0.014000
-0.009408 -0.041180 -0.025950
-0.009408 -0.041180 -0.014050
-0.009243 -0.017971 0.000000
-0.009050 -0.017865 0.004640
-0.008510 -0.017462 0.005564
-0.008981 -0.016632 0.005829
-0.008494 0.003106 0.003500
-0.008499 0.003136 0.006000
-0.008457 0.004388 0.003500
-0.008823 0.004517 0.006000
-0.009169 0.005960 0.005825
-0.009187 0.007733 0.000000
-0.009059 0.007675 0.004549
-0.008785 0.007191 0.005449
-0.008495 0.008259 0.000000
-0.008347 0.008352 0.004000
-0.007858 -0.045966 -0.025226
-0.007530 -0.046256 -0.024223
-0.007511 -0.046273 -0.016000
-0.007780 -0.046035 -0.014969
-0.007416 -0.044863 -0.025486
-0.006782 -0.045334 -0.024223
-0.006762 -0.045349 -0.016000
-0.007050 -0.045135 -0.014969
-0.007840 -0.044548 -0.014124
-0.007433 -0.043560 -0.025917
-0.007433 -0.043560 -0.014083
-0.007115 -0.042515 -0.025977
-0.007097 -0.042524 -0.014025
-0.007403 -0.034945 -0.025370
-0.007925 -0.034691 -0.024445
-0.006986 -0.032647 -0.016000
-0.006879 -0.032699 -0.015358
-0.007318 -0.019101 0.000000
-0.007120 -0.019175 0.004439
-0.008047 -0.018580 0.000000
-0.007796 -0.018490 0.004779
-0.007357 -0.017916 0.005683
-0.007786 -0.016694 0.005975
-0.007598 0.001684 0.003500
-0.007598 0.001684 0.006000
-0.007323 0.002890 0.000000
-0.007291 0.002917 0.003500
-0.007336 0.004364 0.000000
-0.007390 0.004659 0.003500
-0.008143 0.005081 0.006000
-0.007406 0.005769 0.003500
-0.007642 0.006119 0.005995
-0.007479 0.007575 0.005718
-0.007484 0.008839 0.000000
-0.007546 0.008691 0.004512
-0.007100 0.008464 0.005337
-0.006262 -0.044261 -0.024868
-0.006115 -0.044352 -0.024223
-0.006094 -0.044365 -0.016000
-0.006199 -0.044300 -0.015344
-0.006249 -0.043379 -0.025382
-0.005532 -0.043317 -0.024205
-0.005512 -0.043328 -0.016000
-0.006088 -0.043461 -0.014844
-0.006522 -0.042816 -0.014198
-0.005665 -0.040406 -0.014087
-0.005390 -0.038988 -0.025985
-0.005335 -0.038501 -0.014000
-0.006571 -0.035349 -0.025950
-0.006376 -0.032631 -0.014654
-0.005615 -0.032797 -0.014068
-0.006629 -0.031921 -0.015839
-0.006264 -0.031549 -0.014998
-0.005499 -0.031309 -0.013564
-0.005822 -0.030322 -0.014679
-0.005556 -0.030031 -0.013523
-0.005403 -0.029994 -0.012325
-0.005370 -0.030060 -0.004000
-0.005360 -0.030010 0.004195
-0.005315 -0.029213 -0.013236
-0.005285 -0.029161 -0.012503
-0.005818 -0.020709 0.000000
-0.005676 -0.020764 0.004438
-0.006652 -0.019701 0.000000
-0.006291 -0.019720 0.004830
-0.005773 -0.019238 0.005680
-0.006147 -0.018054 0.005925
-0.006510 -0.017205 0.006000
-0.005771 -0.007407 0.003500
-0.005784 -0.007382 0.006000
-0.006201 -0.005981 0.003500
-0.006202 -0.006008 0.006000
-0.005771 -0.004555 0.003500
-0.005798 -0.004598 0.006000
-0.006054 0.002103 0.000000
-0.005931 0.001683 0.003500
-0.005981 0.001070 0.006000
-0.006085 0.005169 0.000000
-0.005877 0.005173 0.003500
-0.006011 0.006204 0.003500
-0.005981 0.006205 0.006000
-0.006058 0.007636 0.005951
-0.005983 0.009423 0.000000
-0.006044 0.009275 0.004581
-0.005940 0.008794 0.005422
-0.004302 -0.039898 -0.025254
-0.003971 -0.040062 -0.024550
-0.004068 -0.040452 -0.016000
-0.004735 -0.040870 -0.014920
-0.004866 -0.039619 -0.025767
-0.003908 -0.038441 -0.014456
-0.004525 -0.038139 -0.014092
-0.003783 -0.036142 -0.025967
-0.003866 -0.036314 -0.014033
-0.003823 -0.034343 -0.014000
-0.005000 -0.032880 -0.013838
-0.004926 -0.031695 -0.013123
-0.004856 -0.031308 -0.012300
-0.004937 -0.031210 -0.004000
-0.004665 -0.031228 0.004627
-0.004141 -0.030933 0.005564
-0.004115 -0.029334 -0.025802
-0.005051 -0.030094 0.005057
-0.004204 -0.029968 0.005767
-0.004391 -0.028526 -0.025330
-0.005020 -0.028621 -0.024153
-0.005229 -0.029036 -0.012000
-0.004787 -0.028011 -0.010000
-0.004939 -0.028830 0.004670
-0.004124 -0.028717 0.005643
-0.004138 -0.027010 -0.025110
-0.004488 -0.027015 -0.024267
-0.004465 -0.026748 -0.010000
-0.004349 -0.027036 0.004627
-0.003886 -0.027655 0.005564
-0.003975 -0.025495 -0.025019
-0.004215 -0.025374 -0.024223
-0.004166 -0.025107 -0.016667
-0.004174 -0.025127 -0.009333
-0.004268 -0.025248 -0.001651
-0.004156 -0.025604 0.004683
-0.003844 -0.024616 -0.024223
-0.003818 -0.024547 -0.016667
-0.003818 -0.024547 -0.009333
-0.004005 -0.024454 -0.001230
-0.004287 -0.023831 -0.000386
-0.004263 -0.024135 0.004605
-0.004455 -0.022766 -0.000048
-0.004640 -0.022611 0.004627
-0.003992 -0.022303 0.005643
-0.005049 -0.021404 0.004952
-0.004418 -0.020929 0.005736
-0.004474 -0.019752 0.005940
-0.005008 -0.018525 0.006000
-0.004388 -0.008457 0.003500
-0.004388 -0.008457 0.006000
-0.004460 -0.007279 0.000000
-0.004690 -0.007334 0.003500
-0.005081 -0.008143 0.006000
-0.005170 -0.005899 0.000000
-0.005205 -0.005981 0.003500
-0.004455 -0.004677 0.000000
-0.004690 -0.004628 0.003500
-0.005081 -0.003819 0.006000
-0.004388 -0.003505 0.003500
-0.004388 -0.003505 0.006000
-0.004371 0.001675 0.003500
-0.004396 0.001657 0.006000
-0.004666 0.002914 0.000000
-0.004628 0.002902 0.003500
-0.004728 0.004538 0.000000
-0.004472 0.004509 0.003500
-0.003819 0.005081 0.006000
-0.004555 0.005771 0.003500
-0.004555 0.005771 0.006000
-0.004529 0.007885 0.005984
-0.004825 0.009702 0.000000
-0.004566 0.009600 0.004641
-0.004515 0.008878 0.005595
-0.004225 0.009796 0.000000
-0.004108 0.009800 0.004140
-0.003615 -0.039536 -0.024000
-0.003388 -0.038695 -0.015268
-0.002387 -0.036812 -0.024550
-0.002652 -0.037563 -0.016000
-0.002646 -0.036901 -0.015074
-0.003003 -0.036516 -0.025511
-0.003208 -0.036630 -0.014326
-0.003531 -0.036475 -0.014140
-0.002928 -0.034343 -0.025941
-0.002377 -0.034883 -0.014326
-0.002961 -0.034271 -0.014002
-0.002658 -0.033238 -0.013304
-0.002510 -0.032790 -0.012279
-0.002409 -0.032807 -0.009333
-0.002409 -0.032807 -0.002667
-0.002542 -0.032562 0.004627
-0.002404 -0.031984 0.005564
-0.003468 -0.029649 -0.025983
-0.003545 -0.029925 0.005976
-0.003176 -0.028331 -0.025938
-0.003127 -0.028171 0.005938
-0.003106 -0.026877 -0.025845
-0.003130 -0.026917 0.005821
-0.002897 -0.025430 -0.025766
-0.002996 -0.025610 0.005825
-0.002962 -0.024470 -0.025149
-0.003058 -0.024101 -0.024191
-0.003058 -0.024067 -0.016667
-0.003058 -0.024067 -0.009333
-0.003023 -0.023890 -0.001319
-0.003469 -0.023392 -0.000436
-0.003186 -0.023972 0.005800
-0.002937 -0.022631 -0.000173
-0.003157 -0.022413 0.005938
-0.003318 -0.020998 0.006000
-0.003136 -0.008497 0.003500
-0.003136 -0.008499 0.006000
-0.003057 -0.007404 0.000000
-0.003009 -0.007346 0.003500
-0.002982 -0.004590 0.000000
-0.003009 -0.004616 0.003500
-0.003136 -0.003466 0.003500
-0.003136 -0.003464 0.006000
-0.002402 -0.000995 0.000000
-0.002402 -0.000995 0.006000
-0.002566 -0.000027 0.000000
-0.002565 -0.000051 0.006000
-0.002402 0.000995 0.000000
-0.002402 0.000995 0.006000
-0.003457 0.003165 0.003500
-0.003464 0.003136 0.006000
-0.003498 0.004366 0.003500
-0.003499 0.004369 0.006000
-0.002844 0.007924 0.006000
-0.002961 0.009594 0.005094
-0.002915 0.008933 0.005646
-0.002981 0.009914 0.000000
-0.002994 0.009855 0.004428
-0.001770 -0.035718 -0.024000
-0.001587 -0.035254 -0.015636
-0.001819 -0.034399 -0.025394
-0.001353 -0.034616 -0.024567
-0.001271 -0.034657 -0.016000
-0.001889 -0.034547 -0.014619
-0.002004 -0.033807 -0.014131
-0.001617 -0.033158 -0.025602
-0.000839 -0.033515 -0.024550
-0.001053 -0.033234 -0.014686
-0.001358 -0.032943 -0.013499
-0.001961 -0.032912 -0.012460
-0.001392 -0.032824 -0.009333
-0.001376 -0.032821 -0.002667
-0.001410 -0.032658 0.004640
-0.001297 -0.031624 -0.025797
-0.001558 -0.031555 0.005800
-0.001035 -0.030169 -0.025967
-0.000985 -0.029142 -0.026000
-0.001991 -0.025200 -0.025809
-0.001900 -0.024414 -0.025184
-0.001712 -0.024060 -0.024223
-0.001950 -0.023950 -0.016667
-0.001971 -0.023946 -0.009333
-0.001607 -0.023871 -0.001330
-0.001244 -0.023390 -0.000436
-0.001516 -0.022537 -0.000112
-0.002235 -0.006752 0.000000
-0.001694 -0.007618 0.003500
-0.001635 -0.007533 0.006000
-0.002075 -0.005855 0.000000
-0.001680 -0.005981 0.003500
-0.001067 -0.005981 0.006000
-0.002235 -0.005210 0.000000
-0.001694 -0.004345 0.003500
-0.001675 -0.004371 0.006000
-0.000995 -0.002402 0.000000
-0.000995 -0.002402 0.006000
-0.001815 -0.001815 0.000000
-0.001815 -0.001815 0.006000
-0.001815 0.001815 0.000000
-0.001815 0.001815 0.006000
-0.000995 0.002402 0.000000
-0.000995 0.002402 0.006000
-0.001898 0.007973 0.006000
-0.001461 0.009660 0.005094
-0.001447 0.009000 0.005648
-0.001167 0.009990 0.000000
-0.001657 0.009922 0.004375
-0.000553 -0.032310 -0.025094
-0.000339 -0.032406 -0.024567
-0.000447 -0.032494 -0.014944
-0.000635 -0.032576 -0.014156
-0.000430 -0.032408 -0.009333
-0.000430 -0.032408 -0.002667
-0.000485 -0.032346 0.004438
-0.000313 -0.031088 -0.025394
0.000103 -0.031507 -0.024347
0.000008 -0.031847 -0.015907
-0.000129 -0.032068 -0.015397
-0.000147 -0.032095 -0.009333
-0.000147 -0.032095 -0.002667
-0.000231 -0.031848 0.004670
-0.000623 -0.031423 0.005564
0.000023 -0.029910 -0.025511
0.000646 -0.030180 -0.024567
0.000617 -0.030038 0.004753
-0.000230 -0.029671 0.005729
0.000199 -0.028668 -0.025729
0.000072 -0.027966 0.005881
0.000357 -0.027001 -0.025867
0.000558 -0.026002 -0.025405
0.000629 -0.026221 0.005967
-0.000506 -0.022845 -0.000085
-0.000000 -0.002570 0.000000
-0.000000 -0.002567 0.006000
-0.000051 0.002565 0.000000
0.000000 0.002567 0.006000
0.000299 0.007989 0.006000
0.000000 0.009564 0.005247
0.000000 0.008832 0.005781
0.000000 0.010000 0.000000
0.000000 0.009923 0.004416
0.000856 -0.029925 -0.024000
0.001229 -0.028223 -0.025070
0.001426 -0.028446 -0.024356
0.001682 -0.027969 -0.001998
0.001415 -0.028325 0.004474
0.000931 -0.028249 0.005414
0.001253 -0.026991 -0.025273
0.001745 -0.026985 -0.024223
0.001768 -0.026956 -0.016667
0.001769 -0.026982 -0.009333
0.001900 -0.026846 -0.001439
0.001992 -0.026771 0.004732
0.001295 -0.026490 0.005649
0.001002 -0.025939 -0.024963
0.001137 -0.025760 -0.024217
0.001323 -0.025888 -0.016667
0.001335 -0.025902 -0.009333
0.001365 -0.025693 -0.001297
0.001829 -0.025212 -0.000370
0.001247 -0.024865 0.005870
0.001753 -0.024237 -0.000077
0.001464 -0.024664 0.005908
0.002014 -0.022533 0.005948
0.000995 -0.002402 0.000000
0.000995 -0.002402 0.006000
0.001815 -0.001815 0.000000
0.001815 -0.001815 0.006000
0.001815 0.001815 0.000000
0.001815 0.001815 0.006000
0.000995 0.002402 0.000000
0.000995 0.002402 0.006000
0.001773 0.004564 0.003500
0.001606 0.004451 0.006000
0.002097 0.005989 0.000000
0.001598 0.005981 0.003500
0.001068 0.005999 0.006000
0.001755 0.007384 0.003500
0.001553 0.007656 0.005994
0.001711 0.009559 0.004952
0.001346 0.008739 0.005773
0.001545 0.009867 0.000000
0.001251 0.009849 0.004328
0.002275 -0.026514 -0.000636
0.002322 -0.026397 0.004000
0.002532 -0.025600 -0.000213
0.002644 -0.025122 0.004732
0.002254 -0.024970 0.005414
0.002602 -0.024504 -0.000013
0.003204 -0.023782 0.004527
0.002881 -0.023318 0.005414
0.003699 -0.022793 0.004000
0.002581 -0.023206 0.005674
0.003730 -0.021744 0.005094
0.003025 -0.021493 0.005718
0.003250 -0.019710 0.005913
0.003214 -0.018473 0.005989
0.003505 -0.004388 0.003500
0.003543 -0.004446 0.006000
0.003469 -0.003106 0.003500
0.003493 -0.003000 0.006000
0.002402 -0.000995 0.000000
0.002402 -0.000995 0.006000
0.002566 0.000027 0.000000
0.002567 -0.000000 0.006000
0.002402 0.000995 0.000000
0.002402 0.000995 0.006000
0.003136 0.003464 0.003500
0.002943 0.003507 0.006000
0.002998 0.004623 0.000000
0.002974 0.004592 0.003500
0.002985 0.007335 0.000000
0.002974 0.007371 0.003500
0.002983 0.009545 0.000000
0.003136 0.008499 0.003500
0.002929 0.009371 0.004664
0.002821 0.008539 0.005716
0.003892 -0.022262 0.000000
0.003955 -0.021825 0.004550
0.004346 -0.020977 0.004000
0.004762 -0.019768 0.000000
0.004590 -0.019881 0.004549
0.003916 -0.019937 0.005544
0.005069 -0.018183 0.004822
0.004471 -0.017988 0.005590
0.004461 -0.016635 0.005830
0.004422 -0.015315 0.005950
0.005077 -0.013777 0.005929
0.004948 -0.012459 0.006000
0.004556 -0.005769 0.003500
0.004544 -0.005733 0.006000
0.004627 -0.004370 0.000000
0.004572 -0.004659 0.003500
0.004614 -0.002918 0.000000
0.004672 -0.002917 0.003500
0.004364 -0.001684 0.003500
0.004443 -0.001612 0.006000
0.004410 0.003512 0.003500
0.004363 0.003518 0.006000
0.004621 0.004803 0.000000
0.004564 0.004507 0.003500
0.005204 0.005958 0.000000
0.005170 0.005981 0.003500
0.004609 0.007170 0.000000
0.004564 0.007455 0.003500
0.005027 0.008178 0.005200
0.004349 0.008991 0.000000
0.004428 0.008445 0.003500
0.004314 0.008825 0.004630
0.003983 0.008549 0.005391
0.005481 -0.017406 0.004328
0.005787 -0.016610 0.000000
0.005656 -0.016449 0.004753
0.005263 -0.016326 0.005414
0.006412 -0.014570 0.000000
0.006115 -0.014965 0.004742
0.005569 -0.014966 0.005501
0.006610 -0.013514 0.004474
0.005777 -0.013489 0.005655
0.006706 -0.012404 0.005094
0.005986 -0.012198 0.005718
0.006343 -0.010143 0.005840
0.005835 -0.009305 0.006000
0.005951 -0.006204 0.003500
0.006194 -0.006196 0.006000
0.005950 -0.005184 0.000000
0.006086 -0.005173 0.003500
0.005913 -0.002097 0.000000
0.006031 -0.001683 0.003500
0.006014 -0.001064 0.006000
0.005755 0.004530 0.003500
0.006032 0.004640 0.005991
0.006205 0.005981 0.003500
0.006371 0.006158 0.005773
0.006095 0.007912 0.000000
0.005755 0.007433 0.003500
0.005929 0.007786 0.004710
0.005869 0.007270 0.005467
0.006814 -0.013203 0.000000
0.007216 -0.011802 0.000000
0.006936 -0.012470 0.004550
0.007619 -0.010363 0.000000
0.007529 -0.010257 0.004492
0.007020 -0.010330 0.005414
0.008023 -0.008880 0.000000
0.007406 -0.005769 0.003500
0.007583 -0.005953 0.005776
0.007221 -0.004538 0.000000
0.007511 -0.004527 0.003500
0.008182 -0.005021 0.005623
0.007286 -0.002889 0.000000
0.007334 -0.002902 0.003500
0.008202 -0.002285 0.005933
0.007567 -0.001657 0.003500
0.007638 -0.001495 0.005996
0.007984 0.000303 0.006000
0.008013 0.001824 0.005975
0.007630 0.003051 0.005974
0.008098 0.005088 0.005247
0.007494 0.004376 0.005823
0.007888 0.006147 0.000000
0.007608 0.006139 0.004745
0.007144 0.005567 0.005683
0.007228 0.006911 0.000000
0.007168 0.006853 0.004438
0.008432 -0.007351 0.000000
0.008846 -0.005771 0.000000
0.008566 -0.006368 0.004541
0.009267 -0.004137 0.000000
0.008470 -0.004347 0.003500
0.008465 -0.004314 0.005548
0.009697 -0.002444 0.000000
0.008500 -0.003136 0.003500
0.009557 -0.002409 0.004590
0.008673 -0.002814 0.005650
0.009580 -0.001408 0.005057
0.008682 -0.001670 0.005783
0.009551 0.000053 0.005247
0.008842 0.000049 0.005772
0.009564 0.001515 0.005057
0.008744 0.001385 0.005772
0.009516 0.003033 0.000000
0.009353 0.002981 0.004640
0.008619 0.002747 0.005683
0.008961 0.004439 0.000000
0.008706 0.004534 0.004686
0.008286 0.004105 0.005564
0.008467 0.005320 0.000000
0.008446 0.005307 0.004223
0.009894 -0.001454 0.000000
0.009871 -0.001450 0.004205
0.009987 0.000056 0.000000
0.009904 0.000055 0.004438
0.009877 0.001564 0.000000
0.009852 0.001560 0.004223
3 776 832 778
3 778 832 885
3 778 885 780
3 780 885 782
3 782 885 918
3 782 918 789
3 789 918 791
3 791 918 921
3 791 921 792
3 792 921 954
3 792 954 729
3 729 954 794
3 794 954 845
3 845 954 984
3 845 984 986
3 845 986 1020
3 845 1020 988
3 988 1020 1022
3 845 988 848
3 848 988 956
3 848 956 923
3 923 956 925
3 925 956 958
3 925 958 960
3 960 958 994
3 960 994 962
3 962 994 996
3 962 996 964
3 964 996 966
3 996 994 1027
3 996 1027 1029
3 1029 1027 1055
3 1029 1055 1057
3 1027 1054 1055
3 1054 1027 1053
3 1053 1027 1052
3 964 966 927
3 927 966 931
3 927 931 929
3 929 931 893
3 893 931 934
3 893 934 860
3 893 860 859
3 859 860 810
3 859 810 857
3 857 810 808
3 857 808 806
3 806 808 744
3 806 744 804
3 804 744 742
3 742 744 673
3 742 673 740
3 740 673 670
3 670 673 621
3 860 934 894
3 894 934 936
3 810 860 811
3 810 811 749
3 749 811 751
3 751 811 752
3 751 752 677
3 677 752 678
3 677 678 629
3 677 629 628
3 626 628 591
3 626 591 590
3 588 590 560
3 588 560 559
3 588 559 621
3 621 559 522
3 621 522 670
3 670 522 668
3 668 522 475
3 668 475 474
3 668 474 434
3 668 434 557
3 557 434 518
3 518 434 473
3 473 434 431
3 431 434 307
3 431 307 385
3 668 557 666
3 666 557 586
3 619 666 586
3 666 619 735
3 735 619 732
3 732 619 664
3 732 664 663
3 732 663 794
3 794 663 730
3 794 730 729
3 923 891 848
3 848 891 851
3 851 891 853
3 851 853 855
3 851 855 800
3 800 855 802
3 800 802 804
3 800 804 742
3 795 558 433
3 795 433 733
3 733 433 736
3 736 433 439
3 736 439 622
3 622 439 477
3 622 477 480
3 439 433 436
3 436 433 399
3 399 433 393
3 399 393 396
3 396 393 359
3 359 393 394
3 359 394 356
3 622 480 525
3 622 525 528
3 622 528 624
3 624 528 561
3 624 561 564
3 624 564 592
3 624 592 595
3 624 595 674
3 674 595 630
3 674 630 679
3 674 679 753
3 674 753 747
3 747 753 756
3 747 756 814
3 747 814 863
3 863 892 858
3 863 858 747
3 747 858 856
3 747 856 745
3 745 856 805
3 745 805 803
3 745 803 671
3 671 803 738
3 738 803 801
3 738 801 797
3 797 801 854
3 797 854 852
3 797 852 849
3 849 852 890
3 849 890 846
3 846 890 989
3 989 890 991
3 991 890 922
3 991 922 924
3 892 863 932
3 932 863 897
3 932 897 939
3 932 939 969
3 969 939 971
3 969 971 1004
3 969 1004 1001
3 1001 1004 1032
3 1001 1032 999
3 999 1032 1061
3 999 1061 1058
3 999 1058 997
3 997 1058 1085
3 997 1085 1082
3 997 1082 1079
3 997 1079 1025
3 1025 1079 1091
3 1025 1091 1089
3 1025 1089 1048
3 1048 1089 1087
3 1048 1087 1069
3 1048 1069 1066
3 1048 1066 1045
3 1045 1066 1064
3 1045 1064 1063
3 1045 1063 1023
3 1023 1063 1042
3 1023 1042 1039
3 1023 1039 1037
3 1023 1037 843
3 843 1037 1036
3 843 1036 795
3 795 1036 1012
3 795 1012 1009
3 795 1009 842
3 842 1009 978
3 842 978 889
3 889 978 975
3 889 975 919
3 919 975 946
3 795 842 790
3 795 790 658
3 658 790 724
3 658 660 795
3 795 660 614
3 795 614 556
3 556 614 616
3 556 616 553
3 553 616 583
3 553 583 551
3 556 558 795
3 1023 846 989
3 671 738 736
3 671 736 622
3 843 846 1023
3 892 932 967
3 892 967 928
3 928 967 926
3 926 967 963
3 963 967 997
3 963 997 961
3 961 997 1025
3 961 1025 991
3 961 991 959
3 959 991 924
3 639 638 684
3 684 638 758
3 684 758 761
3 761 758 816
3 761 816 820
3 820 816 873
3 820 873 874
3 874 873 899
3 874 899 878
3 878 899 903
3 903 899 901
3 903 901 902
3 903 902 909
3 903 909 942
3 942 909 941
3 941 943 942
3 942 943 947
3 947 943 946
3 947 946 949
3 949 946 975
3 949 975 977
3 977 975 978
3 977 978 979
3 979 978 1009
3 979 1009 1008
3 1008 1009 1015
3 1015 1009 1012
3 1015 1012 1036
3 1036 1037 1015
3 1015 1037 1040
3 1040 1037 1039
3 1040 1039 1042
3 1042 1063 1040
3 1040 1063 1065
3 1065 1063 1064
3 1065 1064 1066
3 1069 1071 1066
3 1066 1071 1065
3 897 898 939
3 939 898 940
3 939 940 971
3 971 940 973
3 971 973 1004
3 1004 973 1006
3 1004 1006 1032
3 1032 1006 1034
3 1032 1034 1061
3 1061 1034 1062
3 1061 1062 1058
3 1058 1062 1059
3 1058 1059 1085
3 1085 1059 1086
3 1085 1086 1082
3 1082 1086 1083
3 1082 1083 1079
3 1079 1083 1080
3 1079 1080 1091
3 1091 1080 1092
3 1091 1092 1089
3 1089 1092 1090
3 1089 1090 1087
3 1087 1090 1088
3 1087 1088 1069
3 1069 1088 1071
3 897 863 898
3 898 863 864
3 864 863 814
3 864 814 815
3 815 814 757
3 757 814 756
3 757 756 753
3 757 753 754
3 754 753 679
3 754 679 680
3 680 679 630
3 680 630 631
3 631 630 596
3 596 630 595
3 596 595 593
3 593 595 592
3 593 592 564
3 593 564 562
3 562 564 561
3 562 561 528
3 562 528 526
3 526 528 525
3 526 525 480
3 526 480 481
3 481 480 477
3 481 477 442
3 442 477 439
3 442 439 437
3 437 439 436
3 437 436 399
3 437 399 397
3 397 399 396
3 397 396 359
3 359 356 397
3 397 356 318
3 318 356 355
3 318 355 317
3 318 317 313
3 318 313 274
3 274 313 269
3 269 313 276
3 269 276 268
3 313 310 276
3 268 261 269
3 269 261 233
3 269 233 230
3 230 233 232
3 230 232 229
3 229 206 230
3 230 206 204
3 230 204 177
3 177 204 179
3 177 179 176
3 176 127 177
3 177 127 95
3 95 127 126
3 95 126 94
3 94 93 95
3 95 93 66
3 95 66 64
3 64 66 63
3 64 63 33
3 33 63 32
3 33 32 29
3 29 32 28
3 29 28 25
3 25 28 24
3 25 24 20
3 20 24 19
3 20 19 15
3 15 19 14
3 15 14 10
3 10 14 9
3 10 9 6
3 6 9 5
3 6 5 2
3 2 5 1
3 2 1 40
3 40 1 39
3 40 39 36
3 36 39 35
3 36 35 69
3 69 35 68
3 69 68 102
3 102 68 101
3 102 101 98
3 98 101 97
3 98 97 134
3 134 97 133
3 134 133 130
3 130 133 129
3 130 129 182
3 182 129 181
3 182 181 210
3 210 181 209
3 210 209 236
3 236 209 235
3 236 235 279
3 279 235 278
3 279 278 321
3 321 278 320
3 321 320 362
3 362 320 361
3 362 361 404
3 404 361 403
3 404 403 445
3 445 403 444
3 445 444 484
3 484 444 483
3 484 483 530
3 530 483 529
3 530 529 534
3 534 529 533
3 534 533 568
3 568 533 567
3 568 567 572
3 572 567 571
3 572 571 599
3 599 571 598
3 599 598 603
3 603 598 602
3 603 602 635
3 635 602 634
3 635 634 639
3 639 634 638
3 169 170 165
3 165 170 166
3 165 166 161
3 161 166 162
3 161 162 157
3 157 162 158
3 157 158 153
3 153 158 154
3 153 154 148
3 148 154 149
3 148 149 194
3 194 149 195
3 194 195 221
3 221 195 222
3 221 222 250
3 250 222 251
3 250 251 246
3 246 251 247
3 246 247 287
3 287 247 288
3 287 288 330
3 330 288 331
3 330 331 370
3 370 331 371
3 370 371 414
3 414 371 415
3 414 415 418
3 418 415 419
3 418 419 456
3 456 419 457
3 456 457 498
3 498 457 499
3 498 499 542
3 542 499 543
3 542 543 547
3 547 543 548
3 548 612 547
3 547 612 702
3 702 612 648
3 648 649 702
3 702 649 651
3 702 651 652
3 702 652 656
3 656 657 702
3 702 657 703
3 702 703 705
3 425 427 424
3 425 424 422
3 424 423 422
3 422 423 376
3 376 423 377
3 376 377 374
3 374 373 376
3 376 373 336
3 336 373 337
3 336 337 334
3 336 334 333
3 333 334 296
3 333 296 295
3 295 296 292
3 295 292 291
3 425 422 461
3 425 461 427
3 427 461 464
3 464 461 463
3 422 459 461
3 461 459 463
3 464 463 501
3 464 501 502
3 464 502 503
3 503 502 552
3 552 502 551
3 552 551 583
3 552 583 584
3 584 583 616
3 584 616 617
3 617 616 614
3 617 614 615
3 615 614 660
3 615 660 661
3 661 660 658
3 661 658 659
3 659 658 724
3 659 724 725
3 725 724 723
3 723 724 722
3 723 722 716
3 723 716 717
3 717 716 710
3 710 716 709
3 716 713 709
3 709 713 708
3 709 708 704
3 704 708 702
3 704 702 705
3 704 705 710
3 704 710 709
3 170 169 292
3 292 169 291
3 933 932 935
3 935 932 969
3 935 969 970
3 970 969 1002
3 1002 969 1001
3 1002 1001 1000
3 1000 1001 999
3 1000 999 997
3 1000 997 998
3 998 997 967
3 998 967 968
3 968 967 930
3 930 967 932
3 930 932 933
3 623 622 624
3 623 624 625
3 625 624 674
3 625 674 675
3 675 674 747
3 675 747 748
3 748 747 745
3 748 745 746
3 746 745 672
3 672 745 671
3 672 671 623
3 623 671 622
3 990 989 992
3 992 989 991
3 992 991 1025
3 992 1025 1026
3 1026 1025 1048
3 1026 1048 1049
3 1049 1048 1046
3 1046 1048 1045
3 1046 1045 1024
3 1024 1045 1023
3 1024 1023 990
3 990 1023 989
3 737 736 739
3 739 736 738
3 739 738 798
3 798 738 797
3 798 797 849
3 798 849 847
3 847 849 846
3 847 846 843
3 847 843 796
3 796 843 795
3 796 795 733
3 796 733 734
3 734 733 736
3 734 736 737
3 962 961 960
3 960 961 959
3 960 959 925
3 925 959 924
3 925 924 923
3 923 924 922
3 923 922 891
3 891 922 890
3 891 890 853
3 853 890 852
3 853 852 855
3 855 852 854
3 855 854 802
3 802 854 801
3 802 801 804
3 804 801 803
3 804 803 806
3 806 803 805
3 806 805 857
3 857 805 856
3 857 856 859
3 859 856 858
3 859 858 893
3 893 858 892
3 893 892 929
3 929 892 928
3 929 928 927
3 927 928 926
3 927 926 964
3 964 926 963
3 964 963 962
3 962 963 961
3 520 519 390
3 390 519 387
3 916 913 840
3 840 913 837
3 777 831 775
3 775 831 766
3 775 766 643
3 831 777 834
3 834 777 779
3 781 886 779
3 779 886 834
3 775 643 579
3 579 643 608
3 579 608 606
3 579 606 577
3 579 577 539
3 539 577 575
3 539 575 537
3 539 537 491
3 491 537 489
3 491 489 452
3 452 489 486
3 452 486 450
3 450 486 448
3 450 448 411
3 411 448 409
3 411 409 406
3 411 406 367
3 367 406 364
3 367 364 326
3 326 364 323
3 326 323 281
3 326 281 284
3 284 281 243
3 243 281 241
3 243 241 213
3 243 213 215
3 215 213 217
3 217 213 184
3 217 184 137
3 217 137 187
3 187 137 139
3 139 137 105
3 139 105 141
3 141 105 75
3 141 75 107
3 107 75 109
3 109 75 77
3 109 77 45
3 109 45 111
3 111 45 79
3 79 45 48
3 79 48 50
3 79 50 81
3 81 50 52
3 81 52 83
3 83 52 54
3 83 54 120
3 120 54 56
3 120 56 85
3 120 85 123
3 123 85 87
3 123 87 201
3 123 201 253
3 253 201 255
3 255 201 302
3 302 201 347
3 302 347 339
3 339 347 345
3 345 347 383
3 383 347 430
3 430 347 472
3 342 344 305
3 305 344 267
3 305 267 264
3 770 773 694
3 694 773 696
3 607 609 580
3 580 609 644
3 580 644 692
3 692 644 691
3 691 644 768
3 607 580 578
3 578 580 540
3 578 540 576
3 576 540 538
3 538 540 492
3 538 492 490
3 490 492 454
3 490 454 488
3 488 454 451
3 488 451 449
3 449 451 412
3 449 412 410
3 410 412 408
3 408 412 368
3 408 368 366
3 366 368 328
3 366 328 325
3 325 328 283
3 283 328 285
3 283 285 244
3 283 244 242
3 242 244 214
3 214 244 216
3 214 216 186
3 186 216 219
3 186 219 138
3 138 219 188
3 138 188 140
3 138 140 106
3 106 140 142
3 106 142 76
3 76 142 108
3 76 108 110
3 76 110 78
3 78 110 47
3 47 110 113
3 47 113 80
3 47 80 49
3 49 80 51
3 51 80 82
3 51 82 53
3 53 82 84
3 53 84 55
3 55 84 122
3 55 122 58
3 58 122 124
3 58 124 86
3 86 124 88
3 88 124 173
3 173 124 254
3 173 254 257
3 257 254 256
3 256 301 257
3 257 301 303
3 426 424 427
3 426 427 380
3 380 427 381
3 380 381 343
3 343 381 344
3 344 342 343
3 343 342 380
3 380 342 379
3 380 379 426
3 426 379 424
3 695 694 696
3 695 696 654
3 654 696 655
3 654 655 705
3 705 703 654
3 654 703 653
3 654 653 695
3 695 653 694
3 791 792 728
3 728 792 729
3 729 730 662
3 662 730 663
3 617 618 584
3 385 429 431
3 431 429 471
3 431 471 473
3 473 471 511
3 473 511 518
3 518 511 557
3 557 511 555
3 557 555 586
3 664 619 663
3 618 617 662
3 618 662 663
3 617 661 662
3 617 615 661
3 729 662 728
3 662 661 728
3 661 659 727
3 661 727 728
3 728 726 791
3 727 659 725
3 717 710 780
3 780 710 711
3 780 711 778
3 778 711 706
3 778 706 776
3 711 710 706
3 706 700 776
3 710 705 706
3 780 782 717
3 717 782 723
3 782 789 723
3 723 789 725
3 789 726 725
3 789 791 726
3 725 726 727
3 726 728 727
3 618 585 584
3 663 619 618
3 618 619 586
3 618 586 585
3 585 586 584
3 584 586 554
3 584 554 552
3 586 555 554
3 552 554 510
3 552 510 503
3 554 555 510
3 503 510 464
3 555 511 510
3 510 470 464
3 510 511 470
3 511 471 470
3 464 470 427
3 470 471 427
3 471 429 427
3 706 705 700
3 389 390 387
3 389 387 388
3 388 387 350
3 350 387 349
3 350 349 311
3 311 349 310
3 310 313 311
3 311 313 312
3 311 312 350
3 350 312 351
3 350 351 388
3 388 351 389
3 312 313 351
3 313 352 351
3 351 352 389
3 352 390 389
3 90 63 66
3 90 66 93
3 93 94 90
3 90 94 126
3 90 126 127
3 127 176 90
3 90 176 175
3 90 175 89
3 89 175 174
3 89 174 199
3 89 199 201
3 201 199 227
3 201 227 258
3 347 258 308
3 308 258 231
3 308 231 309
3 309 231 232
3 309 232 310
3 310 232 276
3 276 232 268
3 268 232 261
3 261 232 233
3 233 232 204
3 233 204 232
3 232 204 229
3 229 204 206
3 204 175 179
3 179 175 176
3 258 347 201
3 201 87 89
3 89 87 59
3 89 59 62
3 89 62 90
3 90 62 63
3 204 232 203
3 203 232 231
3 203 231 258
3 203 258 227
3 174 175 204
3 174 204 203
3 199 174 203
3 199 203 227
3 909 902 908
3 908 902 901
3 908 901 907
3 907 901 906
3 907 906 914
3 914 906 913
3 913 916 914
3 914 916 915
3 914 915 907
3 907 915 908
3 915 916 908
3 916 909 908
3 35 72 68
3 638 634 633
3 638 633 637
3 637 606 608
3 606 601 577
3 577 601 575
3 575 570 537
3 537 532 489
3 489 532 486
3 409 448 406
3 241 281 238
3 241 238 213
3 128 180 181
3 128 181 129
3 63 62 32
3 32 62 31
3 32 31 28
3 28 31 27
3 28 27 24
3 24 27 23
3 24 23 19
3 19 23 18
3 19 18 14
3 14 18 13
3 14 13 9
3 9 13 8
3 9 8 5
3 5 8 4
3 5 4 1
3 1 4 0
3 1 0 39
3 39 0 38
3 39 38 35
3 35 38 72
3 72 38 71
3 72 71 68
3 68 71 67
3 68 67 101
3 101 67 100
3 101 100 97
3 97 100 96
3 97 96 133
3 133 96 132
3 133 132 129
3 129 132 128
3 62 59 31
3 31 59 27
3 0 4 42
3 0 42 38
3 128 132 180
3 27 59 56
3 27 56 23
3 4 8 45
3 4 45 42
3 67 71 100
3 180 132 184
3 23 56 54
3 23 54 18
3 8 48 45
3 38 42 75
3 38 75 71
3 71 105 100
3 96 100 137
3 96 137 132
3 59 87 56
3 18 54 52
3 18 52 13
3 13 52 50
3 13 50 8
3 8 50 48
3 42 77 75
3 56 87 85
3 42 45 77
3 71 75 105
3 100 105 137
3 132 137 184
3 184 213 208
3 208 213 238
3 443 406 448
3 443 448 486
3 180 184 208
3 482 443 486
3 566 532 537
3 566 537 570
3 597 570 575
3 597 575 601
3 637 601 606
3 234 238 277
3 277 238 281
3 277 281 319
3 319 281 323
3 319 323 360
3 360 323 364
3 360 364 402
3 402 364 406
3 482 486 532
3 234 208 238
3 402 406 443
3 633 601 637
3 181 180 209
3 209 180 208
3 209 208 235
3 235 208 234
3 235 234 278
3 278 234 277
3 278 277 320
3 320 277 319
3 320 319 361
3 361 319 360
3 361 360 403
3 403 360 402
3 403 402 444
3 444 402 443
3 444 443 483
3 483 443 482
3 483 482 529
3 529 482 533
3 533 482 532
3 533 532 567
3 567 532 566
3 567 566 571
3 571 566 570
3 571 570 598
3 598 570 597
3 598 597 602
3 602 597 601
3 602 601 634
3 634 601 633
3 689 643 766
3 766 823 818
3 818 823 819
3 819 823 824
3 819 824 816
3 816 824 873
3 873 824 866
3 881 873 880
3 881 880 900
3 900 880 884
3 900 884 905
3 905 884 886
3 886 884 834
3 834 884 833
3 766 831 823
3 833 831 834
3 900 901 881
3 873 881 899
3 881 901 899
3 819 816 760
3 760 816 758
3 760 758 683
3 683 758 638
3 683 638 637
3 683 637 682
3 682 637 686
3 686 637 608
3 686 608 643
3 833 884 880
3 686 643 689
3 689 766 763
3 763 766 818
3 763 818 760
3 760 818 819
3 833 880 831
3 831 880 872
3 763 686 689
3 872 880 873
3 682 686 763
3 831 872 865
3 831 865 823
3 823 865 824
3 865 872 866
3 866 872 873
3 683 682 763
3 683 763 760
3 866 824 865
3 898 864 861
3 898 861 895
3 895 861 862
3 594 563 591
3 479 441 476
3 476 441 438
3 401 358 395
3 395 358 315
3 315 274 307
3 631 596 593
3 562 565 593
3 631 632 681
3 526 481 523
3 526 523 527
3 527 523 524
3 481 478 523
3 523 478 524
3 524 478 479
3 481 442 478
3 478 442 440
3 478 440 479
3 479 440 441
3 442 437 440
3 440 437 441
3 441 437 438
3 437 397 400
3 437 400 438
3 438 400 401
3 400 397 357
3 357 397 318
3 357 318 314
3 314 318 274
3 314 274 315
3 315 307 353
3 353 307 434
3 474 435 434
3 434 435 395
3 434 395 353
3 475 476 474
3 474 476 475
3 474 475 435
3 353 395 315
3 476 475 522
3 524 522 559
3 560 590 591
3 591 628 594
3 628 629 594
3 752 813 755
3 752 811 813
3 813 811 860
3 813 860 862
3 862 860 894
3 862 894 896
3 862 896 895
3 562 526 563
3 563 526 527
3 593 565 562
3 593 562 594
3 594 562 563
3 757 754 815
3 357 314 358
3 358 314 315
3 631 593 629
3 631 629 632
3 358 401 357
3 357 401 400
3 593 594 629
3 680 631 681
3 754 680 755
3 755 680 681
3 815 754 812
3 812 754 813
3 813 754 755
3 864 815 861
3 861 815 812
3 861 812 862
3 862 812 813
3 401 395 398
3 398 395 435
3 438 401 398
3 438 398 435
3 438 435 475
3 476 438 475
3 479 476 522
3 524 479 522
3 560 527 524
3 560 524 559
3 563 527 560
3 591 563 560
3 681 632 629
3 681 629 678
3 755 681 678
3 755 678 752
3 264 267 266
3 264 266 265
3 265 266 272
3 265 272 263
3 263 272 271
3 271 272 270
3 270 272 269
3 269 272 273
3 269 273 274
3 274 273 267
3 267 273 266
3 263 264 265
3 272 266 273
3 1074 1072 1073
3 1073 1072 1071
3 1073 1071 1088
3 937 973 940
3 1086 1059 1083
3 1092 1080 1077
3 1092 1077 1090
3 1088 1090 1073
3 898 895 940
3 940 895 937
3 1007 1006 973
3 1007 973 974
3 974 973 938
3 938 896 894
3 895 896 937
3 937 896 938
3 937 938 973
3 894 936 938
3 938 936 974
3 1006 1003 1034
3 1034 1035 1031
3 1060 1031 1029
3 1060 1029 1057
3 1057 1055 1081
3 1081 1055 1054
3 1081 1054 1078
3 1078 1054 1053
3 1078 1053 1076
3 1076 1053 1052
3 1076 1052 1074
3 1075 1073 1090
3 1075 1090 1077
3 1056 1083 1059
3 1059 1062 1034
3 1074 1073 1076
3 1076 1073 1075
3 1076 1075 1078
3 1078 1075 1077
3 1078 1077 1081
3 1081 1077 1080
3 1081 1080 1084
3 1084 1080 1083
3 1084 1083 1057
3 1057 1083 1056
3 1057 1056 1060
3 1060 1056 1059
3 1060 1059 1031
3 1031 1059 1034
3 1057 1081 1084
3 173 257 228
3 228 257 260
3 228 260 259
3 228 259 205
3 205 259 207
3 207 259 262
3 207 262 270
3 207 270 269
3 207 269 177
3 177 269 230
3 207 177 178
3 178 177 95
3 178 95 64
3 178 64 91
3 91 64 65
3 91 65 60
3 91 60 61
3 91 61 92
3 92 61 88
3 92 88 125
3 125 88 173
3 125 173 200
3 200 173 228
3 200 228 202
3 202 228 178
3 178 228 205
3 178 205 207
3 92 125 200
3 92 200 202
3 91 92 202
3 91 202 178
3 1022 1020 1044
3 1044 1020 986
3 1044 986 1019
3 1019 986 1018
3 1019 1018 1041
3 1041 1018 1040
3 1040 1018 1017
3 1040 1017 1038
3 1040 1038 1015
3 1010 1013 1011
3 1010 1011 982
3 982 1011 983
3 952 953 921
3 921 918 920
3 920 918 888
3 920 888 911
3 920 911 918
3 918 911 945
3 945 911 944
3 944 911 910
3 944 910 942
3 942 910 903
3 878 882 883
3 878 883 879
3 879 883 832
3 832 883 885
3 888 885 911
3 984 985 986
3 986 985 1018
3 954 983 984
3 985 984 1016
3 1018 1016 1017
3 921 953 954
3 1014 1013 1015
3 918 885 888
3 882 878 903
3 942 947 944
3 944 947 945
3 945 947 948
3 945 948 918
3 918 948 950
3 918 950 920
3 920 950 921
3 947 949 976
3 947 976 951
3 947 951 948
3 948 951 952
3 948 952 950
3 950 952 921
3 949 977 976
3 976 977 979
3 976 979 951
3 951 979 952
3 952 979 980
3 952 980 953
3 979 981 980
3 980 981 982
3 980 982 953
3 979 1008 981
3 1015 1013 1008
3 1008 1013 1010
3 1040 1065 1041
3 1065 1071 1044
3 1065 1044 1041
3 1041 1044 1019
3 1071 1072 1044
3 1044 1072 1068
3 1052 1050 1074
3 1074 1050 1072
3 1044 1068 1047
3 885 883 904
3 904 883 903
3 903 883 882
3 983 954 982
3 982 954 953
3 985 1016 1018
3 1016 984 1014
3 1014 984 983
3 911 885 904
3 1014 983 1011
3 910 911 904
3 910 904 903
3 1010 982 981
3 1013 1014 1011
3 1017 1016 1015
3 1015 1016 1014
3 1010 981 1008
3 1038 1017 1015
3 86 88 58
3 58 88 61
3 60 65 34
3 34 65 64
3 34 64 33
3 34 33 30
3 30 33 29
3 30 29 26
3 26 29 25
3 26 25 21
3 21 25 20
3 21 20 16
3 16 20 15
3 16 15 11
3 11 15 10
3 11 10 7
3 7 10 6
3 7 6 3
3 3 6 2
3 3 2 41
3 41 2 40
3 41 40 37
3 37 40 36
3 37 36 73
3 73 36 70
3 70 36 69
3 70 69 103
3 103 69 102
3 103 102 99
3 99 102 98
3 99 98 135
3 135 98 134
3 135 134 131
3 131 134 130
3 131 130 183
3 183 130 182
3 183 182 211
3 211 182 210
3 211 210 237
3 237 210 236
3 237 236 280
3 280 236 279
3 280 279 322
3 322 279 321
3 322 321 363
3 363 321 362
3 363 362 405
3 405 362 404
3 405 404 446
3 446 404 445
3 446 445 485
3 485 445 484
3 485 484 531
3 531 484 530
3 531 530 535
3 535 530 534
3 535 534 569
3 569 534 568
3 569 568 573
3 573 568 572
3 573 572 600
3 600 572 599
3 600 599 604
3 604 599 603
3 604 603 636
3 636 603 635
3 636 635 640
3 640 635 639
3 531 535 485
3 37 73 41
3 636 640 604
3 405 446 407
3 237 239 211
3 131 183 135
3 3 41 43
3 3 43 7
3 34 30 60
3 485 535 487
3 405 407 365
3 405 365 363
3 363 365 322
3 322 365 324
3 322 324 280
3 280 324 282
3 280 282 237
3 237 282 239
3 183 185 135
3 70 103 73
3 7 43 46
3 7 46 11
3 30 26 57
3 30 57 60
3 640 641 607
3 640 607 604
3 604 607 605
3 604 605 600
3 600 605 576
3 600 576 573
3 573 576 574
3 573 574 569
3 569 574 538
3 569 538 535
3 535 538 536
3 535 536 487
3 487 536 488
3 487 488 485
3 485 488 446
3 446 488 447
3 446 447 407
3 407 447 408
3 407 408 365
3 365 408 366
3 365 366 324
3 324 366 325
3 324 325 282
3 282 325 283
3 282 283 239
3 239 283 240
3 239 240 211
3 211 240 212
3 211 212 183
3 183 212 186
3 183 186 185
3 185 186 135
3 135 186 136
3 135 136 99
3 99 136 138
3 99 138 103
3 103 138 104
3 103 104 73
3 73 104 106
3 73 106 74
3 73 74 41
3 41 74 76
3 41 76 44
3 41 44 43
3 43 44 46
3 46 44 47
3 46 47 11
3 11 47 49
3 11 49 12
3 11 12 16
3 16 12 17
3 16 17 21
3 21 17 22
3 21 22 26
3 26 22 55
3 26 55 57
3 57 55 58
3 57 58 60
3 60 58 61
3 641 609 607
3 488 449 447
3 447 449 408
3 212 240 214
3 212 214 186
3 44 76 78
3 12 49 17
3 17 49 51
3 17 51 22
3 22 51 53
3 22 53 55
3 605 607 578
3 605 578 576
3 574 576 538
3 536 538 490
3 536 490 488
3 449 410 408
3 283 242 240
3 240 242 214
3 186 138 136
3 138 106 104
3 106 76 74
3 78 47 44
3 874 878 875
3 875 878 876
3 875 876 869
3 875 869 868
3 868 869 826
3 826 869 828
3 826 828 827
3 827 828 771
3 827 771 770
3 770 771 772
3 770 772 773
3 773 772 830
3 830 772 829
3 830 829 871
3 871 829 870
3 871 870 878
3 878 870 877
3 878 877 876
3 869 876 877
3 869 877 870
3 828 869 870
3 828 870 829
3 771 828 829
3 771 829 772
3 640 639 685
3 685 639 684
3 685 684 759
3 759 684 761
3 759 761 762
3 762 761 817
3 762 817 821
3 762 821 764
3 764 821 767
3 764 767 768
3 768 767 821
3 867 825 820
3 867 820 874
3 761 820 817
3 817 820 825
3 817 825 821
3 768 765 764
3 764 765 688
3 764 688 687
3 687 688 642
3 687 642 685
3 685 642 641
3 685 641 640
3 765 768 690
3 768 644 690
3 609 642 644
3 644 642 688
3 644 688 690
3 690 688 765
3 609 641 642
3 759 762 687
3 687 762 764
3 685 759 687
3 462 463 459
3 462 459 460
3 460 459 467
3 467 459 466
3 467 466 506
3 506 466 505
3 506 505 514
3 514 505 513
3 514 513 519
3 519 520 514
3 514 520 515
3 514 515 506
3 506 515 507
3 506 507 467
3 467 507 468
3 467 468 460
3 460 468 462
3 520 516 515
3 515 516 507
3 516 508 507
3 507 508 468
3 508 469 468
3 468 469 462
3 469 463 462
3 840 837 839
3 840 839 787
3 787 839 786
3 787 786 720
3 787 720 721
3 721 720 715
3 721 715 716
3 716 715 714
3 716 714 713
3 713 714 718
3 718 714 719
3 718 719 784
3 784 719 785
3 784 785 838
3 784 838 837
3 837 838 839
3 786 839 838
3 785 786 838
3 720 786 785
3 715 720 719
3 719 720 785
3 714 715 719
3 992 957 955
3 992 955 990
3 990 987 1024
3 1024 987 1021
3 1024 1021 1043
3 1024 1043 1046
3 1046 1067 1070
3 1046 1070 1049
3 1049 1070 1051
3 1049 1051 1026
3 1026 993 992
3 992 993 957
3 1052 1051 1050
3 1050 1051 1070
3 1050 1070 1072
3 1072 1070 1068
3 1068 1070 1067
3 1068 1067 1046
3 1068 1046 1047
3 1047 1046 1044
3 1044 1046 1043
3 1044 1043 1022
3 1022 1043 1021
3 1022 1021 988
3 988 1021 987
3 988 987 990
3 988 990 956
3 956 990 955
3 956 955 957
3 956 957 958
3 958 957 993
3 958 993 994
3 994 993 1026
3 994 1026 1027
3 1027 1026 1051
3 1027 1051 1052
3 968 930 965
3 968 965 998
3 998 965 995
3 998 1028 1000
3 1000 1028 1030
3 1000 1030 1033
3 1000 1033 1002
3 1002 1005 972
3 1002 972 970
3 970 972 935
3 1031 1030 1029
3 1029 1030 1028
3 1029 1028 998
3 1029 998 996
3 996 998 995
3 996 995 965
3 996 965 966
3 966 965 930
3 966 930 931
3 931 930 933
3 931 933 934
3 934 933 935
3 934 935 936
3 936 935 974
3 974 935 972
3 974 972 1007
3 1007 972 1005
3 1007 1005 1006
3 1006 1005 1003
3 1003 1005 1002
3 1003 1002 1034
3 1034 1002 1033
3 1034 1033 1035
3 1035 1033 1030
3 1035 1030 1031
3 737 667 665
3 737 665 734
3 734 731 796
3 796 731 793
3 796 793 844
3 796 844 847
3 847 850 798
3 798 850 799
3 798 799 741
3 798 741 739
3 739 669 737
3 737 669 667
3 848 847 845
3 845 847 844
3 845 844 794
3 794 844 793
3 794 793 732
3 732 793 731
3 732 731 735
3 735 731 734
3 735 734 666
3 666 734 665
3 666 665 668
3 668 665 667
3 668 667 670
3 670 667 669
3 670 669 740
3 740 669 739
3 740 739 742
3 742 739 741
3 742 741 800
3 800 741 799
3 800 799 851
3 851 799 850
3 851 850 848
3 848 850 847
3 589 587 623
3 623 587 620
3 623 620 672
3 672 743 746
3 746 743 807
3 746 807 748
3 748 807 809
3 748 750 675
3 675 750 676
3 675 676 627
3 675 627 625
3 625 589 623
3 810 809 808
3 808 809 807
3 808 807 744
3 744 807 743
3 744 743 673
3 673 743 672
3 673 672 621
3 621 672 620
3 621 620 588
3 588 620 587
3 588 587 590
3 590 587 589
3 590 589 626
3 626 589 625
3 626 625 628
3 628 625 627
3 628 627 677
3 677 627 676
3 677 676 751
3 751 676 750
3 751 750 749
3 749 750 748
3 749 748 810
3 810 748 809
3 263 271 270
3 270 262 263
3 262 260 263
3 262 259 260
3 305 264 304
3 304 260 257
3 264 263 260
3 264 260 304
3 342 305 341
3 341 305 304
3 341 304 257
3 341 257 303
3 769 826 770
3 770 826 827
3 768 821 822
3 768 822 769
3 769 822 826
3 822 821 825
3 822 825 826
3 867 875 868
3 825 867 868
3 868 826 825
3 874 875 867
3 424 379 378
3 378 379 341
3 378 423 424
3 301 341 303
3 341 301 338
3 338 337 373
3 338 373 374
3 378 377 423
3 377 378 341
3 340 377 341
3 374 377 340
3 338 374 340
3 338 340 341
3 341 340 338
3 341 338 340
3 379 342 341
3 334 337 338
3 300 338 301
3 301 256 254
3 254 298 301
3 254 297 298
3 298 297 301
3 301 297 300
3 300 297 338
3 293 292 297
3 297 292 296
3 297 296 334
3 297 334 338
3 691 768 692
3 692 768 769
3 692 769 693
3 693 769 770
3 693 770 694
3 170 292 226
3 226 292 293
3 226 293 297
3 226 297 198
3 198 297 254
3 254 124 198
3 198 124 172
3 198 172 226
3 226 172 171
3 226 171 170
3 613 646 649
3 649 652 651
3 703 657 653
3 657 656 652
3 648 612 613
3 648 613 649
3 693 694 650
3 650 694 652
3 652 694 653
3 649 650 652
3 692 693 647
3 647 693 650
3 647 650 649
3 649 646 647
3 657 652 653
3 166 170 167
3 167 170 171
3 167 171 172
3 167 172 122
3 122 172 124
3 119 122 84
3 119 84 116
3 116 84 82
3 116 82 80
3 116 80 113
3 146 108 142
3 142 140 192
3 192 140 188
3 219 216 244
3 219 244 249
3 249 244 248
3 248 244 289
3 332 372 331
3 331 372 371
3 371 372 416
3 371 416 415
3 415 416 419
3 419 416 420
3 419 420 457
3 457 420 458
3 458 453 495
3 495 453 454
3 495 454 496
3 496 454 492
3 244 285 289
3 289 285 332
3 332 285 327
3 332 327 372
3 285 328 327
3 327 328 372
3 328 368 372
3 372 368 416
3 420 416 458
3 368 412 416
3 416 453 458
3 412 417 416
3 416 417 453
3 417 412 454
3 417 454 453
3 412 451 454
3 496 492 540
3 545 540 580
3 545 580 582
3 582 550 545
3 550 549 545
3 545 549 544
3 545 544 540
3 540 544 495
3 540 495 496
3 495 544 500
3 544 549 500
3 549 548 543
3 549 543 500
3 500 543 499
3 500 499 495
3 495 499 457
3 495 457 458
3 332 331 288
3 332 288 289
3 289 288 247
3 289 247 248
3 248 247 251
3 248 251 252
3 252 251 223
3 192 191 146
3 192 146 142
3 251 222 223
3 191 196 145
3 191 145 146
3 223 222 191
3 146 145 151
3 146 151 108
3 108 151 110
3 222 195 191
3 191 195 196
3 145 150 151
3 151 150 110
3 110 150 113
3 195 149 196
3 196 149 145
3 150 112 113
3 145 149 150
3 150 149 154
3 150 154 155
3 155 154 158
3 155 158 159
3 159 158 163
3 118 163 167
3 118 167 121
3 121 167 122
3 158 162 163
3 162 166 163
3 163 166 167
3 121 122 118
3 163 118 159
3 118 122 119
3 118 119 115
3 115 119 116
3 115 116 112
3 112 116 113
3 118 115 159
3 155 112 150
3 159 115 155
3 155 115 112
3 191 192 223
3 223 248 252
3 192 188 223
3 223 188 218
3 223 218 248
3 188 219 218
3 218 219 248
3 219 249 248
3 580 692 582
3 582 692 647
3 582 647 550
3 550 647 549
3 549 647 646
3 549 646 613
3 549 613 548
3 548 613 612
3 886 887 912
3 901 900 906
3 906 900 905
3 906 905 913
3 913 905 912
3 912 905 886
3 886 781 835
3 886 835 887
3 887 835 836
3 887 836 912
3 912 836 913
3 913 836 837
3 712 713 783
3 712 783 781
3 713 718 783
3 718 784 783
3 783 836 781
3 781 836 835
3 783 784 836
3 784 837 836
3 708 713 712
3 708 712 707
3 707 712 781
3 707 781 779
3 775 698 777
3 777 698 701
3 777 701 779
3 779 701 707
3 701 702 707
3 707 702 708
3 547 702 611
3 611 702 610
3 610 702 701
3 610 701 698
3 610 698 645
3 645 698 775
3 775 579 645
3 645 579 581
3 645 581 610
3 610 581 546
3 610 546 611
3 611 546 547
3 547 546 541
3 541 546 581
3 541 581 579
3 541 579 539
3 493 539 491
3 452 450 411
3 243 215 217
3 217 187 220
3 220 187 189
3 194 193 144
3 194 144 148
3 114 81 83
3 193 143 144
3 144 143 148
3 189 143 193
3 143 147 148
3 187 139 189
3 189 139 141
3 189 141 143
3 148 147 153
3 147 152 153
3 153 152 157
3 141 107 143
3 143 107 147
3 147 107 109
3 147 109 111
3 147 111 152
3 152 111 156
3 152 156 157
3 111 114 156
3 111 79 114
3 79 81 114
3 114 83 117
3 117 83 120
3 123 168 120
3 120 168 164
3 120 164 117
3 117 164 160
3 117 160 114
3 114 160 156
3 168 169 164
3 164 169 165
3 164 165 160
3 160 165 161
3 160 161 156
3 156 161 157
3 190 194 221
3 250 246 245
3 245 246 286
3 286 329 284
3 284 329 326
3 246 287 286
3 286 287 329
3 326 329 369
3 326 369 367
3 287 330 329
3 367 369 411
3 329 330 369
3 369 413 411
3 411 413 452
3 330 370 369
3 456 494 493
3 493 494 497
3 456 498 494
3 494 498 497
3 497 498 541
3 498 542 547
3 498 547 541
3 493 491 452
3 541 493 497
3 493 455 456
3 493 541 539
3 456 455 418
3 455 493 452
3 455 413 418
3 418 413 414
3 413 455 452
3 370 414 413
3 370 413 369
3 286 284 245
3 250 245 221
3 284 243 245
3 245 220 221
3 245 217 220
3 221 220 190
3 245 243 217
3 220 189 190
3 190 189 194
3 194 189 193
3 291 169 225
3 225 169 224
3 224 169 168
3 224 168 197
3 197 168 123
3 123 253 197
3 197 253 224
3 224 253 294
3 224 294 290
3 224 290 225
3 225 290 291
3 430 472 428
3 428 472 465
3 428 465 421
3 421 465 459
3 421 459 422
3 335 294 299
3 335 336 294
3 336 333 295
3 336 295 294
3 294 295 290
3 295 291 290
3 253 255 299
3 299 255 302
3 339 345 383
3 428 383 430
3 421 422 375
3 375 422 376
3 375 376 335
3 335 376 336
3 428 421 375
3 339 375 335
3 383 428 375
3 339 383 375
3 302 339 335
3 302 335 299
3 253 299 294
3 459 465 466
3 466 465 505
3 505 465 504
3 505 504 512
3 505 512 513
3 513 512 519
3 504 465 512
3 512 465 472
3 472 347 386
3 472 386 512
3 512 386 519
3 519 386 387
3 387 386 349
3 349 386 348
3 349 348 310
3 310 348 309
3 386 347 348
3 309 348 347
3 309 347 308
3 509 551 502
3 508 509 502
3 508 502 501
3 508 501 463
3 508 463 469
3 509 508 553
3 553 508 556
3 553 551 509
3 508 516 556
3 556 516 517
3 517 516 521
3 521 516 520
3 556 517 558
3 558 517 521
3 433 558 432
3 432 558 521
3 432 521 391
3 391 521 390
3 390 521 520
3 433 432 393
3 393 432 391
3 317 355 316
3 317 316 313
3 354 352 316
3 354 316 355
3 352 313 316
3 355 356 394
3 355 394 393
3 393 391 390
3 392 390 352
3 392 352 354
3 390 392 393
3 393 392 355
3 355 392 354
3 946 943 917
3 946 917 919
3 917 943 909
3 909 943 941
3 916 917 909
3 889 919 841
3 841 919 917
3 841 917 840
3 840 917 916
3 842 889 841
3 790 787 788
3 790 788 724
3 722 787 721
3 724 788 722
3 788 787 722
3 721 716 722
3 841 840 842
3 842 840 790
3 790 840 787
3 700 699 696
3 700 696 697
3 699 655 696
3 655 699 705
3 699 700 705
3 696 773 697
3 697 773 774
3 697 774 700
3 700 774 832
3 700 832 776
3 773 832 774
3 871 878 830
3 878 879 832
3 878 832 830
3 830 832 773
3 307 275 306
3 275 274 267
3 275 267 306
3 274 275 307
3 267 344 346
3 267 346 384
3 267 384 306
3 306 384 385
3 306 385 307
3 385 384 381
3 381 384 346
3 381 346 344
3 427 429 381
3 381 429 382
3 381 382 385
3 382 429 385
