ply
format ascii 1.0
element vertex 1165
property float x
property float y
property float z
element face 2372
property list uchar int vertex_indices
end_header
-0.033801 -0.008559 0.006646
-0.034040 -0.008692 0.007613
-0.034032 -0.008783 0.022525
-0.033931 -0.008953 0.037050
-0.034085 -0.007561 0.006365
-0.034589 -0.007462 0.007492
-0.034573 -0.007726 0.022525
-0.034622 -0.007574 0.037050
-0.034337 -0.006076 0.006138
-0.035014 -0.005998 0.007594
-0.035032 -0.006155 0.022525
-0.035045 -0.006130 0.037050
-0.034389 -0.004881 0.006025
-0.035123 -0.004755 0.007532
-0.035200 -0.003970 0.020911
-0.035200 -0.004519 0.022327
-0.035200 -0.004632 0.023650
-0.035200 -0.004125 0.025541
-0.035195 -0.004719 0.037050
-0.035200 -0.003020 0.019726
-0.035200 -0.003020 0.027074
-0.035200 -0.001411 0.018720
-0.035200 -0.002103 0.019043
-0.035200 -0.001757 0.027918
-0.035200 -0.000265 0.018453
-0.035200 -0.000265 0.028347
-0.035200 0.001219 0.018491
-0.035200 0.001219 0.028309
-0.035200 0.002975 0.019190
-0.035200 0.003303 0.027417
-0.035200 0.002318 0.027996
-0.034362 0.004903 0.006001
-0.035115 0.004802 0.007494
-0.035200 0.004150 0.020151
-0.035196 0.004762 0.021074
-0.035178 0.005159 0.022031
-0.035190 0.004896 0.025408
-0.035200 0.004150 0.026649
-0.035200 0.004601 0.037050
-0.034307 0.006044 0.006093
-0.034997 0.006092 0.007602
-0.035077 0.005874 0.022578
-0.035164 0.005328 0.023714
-0.035064 0.005965 0.037050
-0.034067 0.007469 0.006304
-0.034614 0.007467 0.007603
-0.034580 0.007708 0.022525
-0.034575 0.007697 0.037050
-0.034052 0.008635 0.007524
-0.034047 0.008758 0.022525
-0.033932 0.008953 0.037050
-0.032574 -0.010102 0.006646
-0.032770 -0.010289 0.007643
-0.032776 -0.010350 0.022525
-0.033000 -0.010127 0.036813
-0.032950 -0.008858 0.005982
-0.033557 -0.009352 0.007423
-0.033464 -0.009612 0.022525
-0.032537 -0.007287 0.005166
-0.033263 -0.007512 0.005566
-0.032749 -0.005953 0.005105
-0.033556 -0.006083 0.005431
-0.032967 -0.004817 0.005120
-0.033631 -0.005042 0.005374
-0.032507 0.000000 0.036715
-0.033197 0.000000 0.036855
-0.032941 0.004842 0.005112
-0.033627 0.005106 0.005374
-0.032717 0.005969 0.005098
-0.033449 0.006144 0.005374
-0.032520 0.007306 0.005166
-0.033218 0.007530 0.005544
-0.032952 0.008923 0.006022
-0.033521 0.009438 0.007537
-0.033484 0.009587 0.022525
-0.032600 0.010077 0.006646
-0.032780 0.010280 0.007643
-0.032794 0.010333 0.022525
-0.033000 0.010127 0.036813
-0.031531 -0.011353 0.007815
-0.031308 -0.011511 0.036657
-0.031461 -0.010342 0.005959
-0.031800 -0.011010 0.007155
-0.031988 -0.011043 0.022525
-0.032180 -0.010892 0.036678
-0.031249 -0.008750 0.005124
-0.031840 -0.009351 0.005488
-0.031736 -0.007558 0.005046
-0.032023 -0.006270 0.005006
-0.032180 -0.004883 0.005000
-0.031471 0.000000 0.036666
-0.032179 0.004908 0.005000
-0.032009 0.006318 0.005006
-0.031556 0.007668 0.005030
-0.031285 0.008789 0.005136
-0.031863 0.009330 0.005488
-0.031484 0.010325 0.005959
-0.031812 0.010994 0.007132
-0.031997 0.011038 0.022525
-0.032180 0.010893 0.036678
-0.031533 0.011358 0.007837
-0.031330 0.011500 0.036656
-0.030393 -0.011969 0.036725
-0.029567 -0.012257 0.036851
-0.030491 -0.009843 0.005228
-0.030256 -0.008981 0.005030
-0.029995 0.000000 0.036778
-0.030220 0.008962 0.005026
-0.030490 0.009846 0.005228
-0.030414 0.011960 0.036722
-0.029583 0.012252 0.036848
-0.028042 -0.013778 0.036493
-0.028250 -0.012537 0.037121
-0.029075 0.000000 0.036942
-0.028224 0.012541 0.037127
-0.028061 0.013767 0.036492
-0.026410 -0.014902 0.036411
-0.026827 -0.012646 0.037438
-0.027216 -0.004733 0.037647
-0.027199 0.004733 0.037651
-0.026706 0.012650 0.037464
-0.026427 0.014893 0.036410
-0.024804 -0.016008 0.036326
-0.025260 -0.012716 0.037713
-0.025100 -0.004030 0.021018
-0.025100 -0.004544 0.022451
-0.025100 -0.004602 0.023972
-0.025100 -0.004199 0.025439
-0.025917 -0.004733 0.037615
-0.025100 -0.003107 0.019808
-0.025100 -0.003090 0.026974
-0.025100 -0.000789 0.018532
-0.025100 -0.001862 0.018932
-0.025100 -0.001514 0.028024
-0.025100 0.000350 0.018415
-0.025100 -0.000032 0.028371
-0.025499 -0.000000 0.039251
-0.024882 0.000000 0.039806
-0.025100 0.001489 0.018532
-0.025100 0.002219 0.018762
-0.025100 0.001486 0.028254
-0.025100 0.003218 0.019322
-0.025100 0.003227 0.027490
-0.025100 0.002569 0.027881
-0.025100 0.004083 0.020073
-0.025100 0.004744 0.021044
-0.025100 0.005171 0.022075
-0.025100 0.004899 0.025439
-0.025100 0.004072 0.026717
-0.025879 0.004733 0.037621
-0.025100 0.005317 0.022827
-0.025100 0.005302 0.023972
-0.025227 0.012718 0.037717
-0.024817 0.016001 0.036325
-0.023313 -0.016861 0.007133
-0.023868 -0.012844 0.037866
-0.024580 -0.004733 0.037800
-0.024538 0.004733 0.037805
-0.023898 0.012840 0.037863
-0.023315 0.016862 0.007133
-0.022881 -0.016232 0.005906
-0.023223 -0.017097 0.036240
-0.022184 -0.015221 0.005143
-0.022319 -0.013258 0.037942
-0.022612 -0.006000 0.041850
-0.022525 -0.004733 0.037931
-0.023202 -0.000000 0.038132
-0.022974 0.000000 0.038832
-0.022513 0.004733 0.037932
-0.022612 0.006000 0.041850
-0.022356 0.013241 0.037941
-0.022201 0.015244 0.005151
-0.022871 0.016217 0.005884
-0.023233 0.017092 0.036239
-0.021667 -0.018168 0.036152
-0.020441 -0.000000 0.037625
-0.021675 0.018165 0.036150
-0.020139 -0.019220 0.036062
-0.020223 0.000000 0.038297
-0.019151 0.016604 0.004687
-0.018948 0.017771 0.004783
-0.019457 0.018216 0.005616
-0.018817 0.018787 0.005212
-0.019138 0.018992 0.005869
-0.020144 0.019219 0.036060
-0.018001 -0.020638 0.035977
-0.017895 0.000000 0.036457
-0.017656 -0.000000 0.037194
-0.017845 0.016682 0.003370
-0.018506 0.016660 0.004039
-0.017633 0.017965 0.003383
-0.018309 0.018050 0.004192
-0.018405 0.018803 0.004681
-0.017999 0.020641 0.035975
-0.016305 -0.021195 0.036311
-0.016008 -0.020736 0.036770
-0.016676 -0.004503 0.005000
-0.016676 0.004503 0.005000
-0.016214 0.016005 0.001700
-0.016913 0.016615 0.002417
-0.016147 0.018028 0.001700
-0.016882 0.018139 0.002569
-0.016302 0.021201 0.036306
-0.016010 0.020737 0.036769
-0.014854 -0.022019 0.006106
-0.014773 -0.022763 0.007422
-0.014928 -0.022786 0.027341
-0.014682 -0.021825 0.036014
-0.014491 -0.021491 0.005506
-0.015117 -0.021520 0.036353
-0.014932 -0.020742 0.037061
-0.015000 -0.016000 0.011000
-0.015000 -0.016488 0.016400
-0.015000 -0.016356 0.030400
-0.015000 -0.016000 0.035750
-0.015000 -0.004199 0.021361
-0.015000 -0.004606 0.022863
-0.015000 -0.004544 0.024349
-0.015000 -0.004030 0.025782
-0.015000 -0.002822 0.019554
-0.015000 -0.003626 0.020369
-0.015000 -0.003107 0.026992
-0.015000 -0.001159 0.018633
-0.015000 -0.001869 0.018919
-0.015000 -0.002205 0.027698
-0.015000 -0.001154 0.028153
-0.015000 0.000003 0.018427
-0.015000 0.000315 0.028385
-0.015000 0.001486 0.018546
-0.015000 0.001854 0.028153
-0.015000 0.002898 0.019115
-0.015000 0.003218 0.027478
-0.015000 0.003817 0.019797
-0.015000 0.004708 0.021030
-0.015000 0.005171 0.024725
-0.015000 0.004730 0.025782
-0.015000 0.004083 0.026727
-0.015000 0.005306 0.022863
-0.015000 0.005317 0.023973
-0.015000 0.016000 0.011000
-0.015000 0.016000 0.035750
-0.014458 0.018200 0.012449
-0.014512 0.018200 0.013584
-0.014514 0.018200 0.033218
-0.014471 0.018200 0.034318
-0.014585 0.021621 0.004985
-0.015092 0.021573 0.036296
-0.014933 0.020729 0.037068
-0.014910 0.022393 0.006597
-0.014767 0.022814 0.007580
-0.014390 0.023104 0.012294
-0.014544 0.023023 0.013395
-0.014256 0.023173 0.014270
-0.014891 0.022811 0.027352
-0.014470 0.022423 0.033093
-0.014464 0.022200 0.034344
-0.014681 0.021826 0.036013
-0.013508 -0.023393 0.007422
-0.013840 -0.023362 0.027615
-0.013086 -0.023639 0.027790
-0.013611 -0.022460 0.005906
-0.013497 -0.021925 0.035912
-0.013469 -0.021067 0.005137
-0.013441 -0.021589 0.036539
-0.013440 -0.020967 0.037173
-0.013546 -0.020118 0.005000
-0.013445 -0.019975 0.037697
-0.012880 -0.003076 0.011000
-0.013112 -0.001857 0.011000
-0.013228 0.000056 0.011000
-0.013112 0.001857 0.011000
-0.012880 0.003076 0.011000
-0.013186 0.016000 0.012392
-0.013343 0.016000 0.013618
-0.013303 0.016000 0.033077
-0.013262 0.016000 0.034308
-0.012925 0.018200 0.011177
-0.013432 0.018200 0.012035
-0.013342 0.018200 0.013604
-0.013559 0.018200 0.014825
-0.013313 0.018200 0.031820
-0.013422 0.018200 0.032975
-0.013398 0.018200 0.034416
-0.013336 0.018200 0.035472
-0.013440 0.019942 0.037708
-0.013417 0.020545 0.001700
-0.013793 0.020973 0.002953
-0.013709 0.021690 0.004177
-0.013663 0.021555 0.036562
-0.013429 0.020986 0.037146
-0.013016 0.022004 0.004177
-0.013599 0.022820 0.006156
-0.013503 0.022849 0.031919
-0.014016 0.022127 0.035045
-0.013564 0.021948 0.035835
-0.012986 0.023306 0.006597
-0.013524 0.023425 0.007564
-0.012982 0.023670 0.011192
-0.013767 0.023389 0.011556
-0.013446 0.023505 0.014896
-0.013844 0.023362 0.027615
-0.013089 0.023639 0.027790
-0.012056 -0.023359 0.006333
-0.012129 -0.023762 0.007422
-0.011883 -0.023903 0.028046
-0.011814 -0.022037 0.005228
-0.011948 -0.022769 0.005692
-0.012228 -0.021907 0.036033
-0.011981 -0.021215 0.005038
-0.012134 -0.021662 0.036540
-0.012246 -0.020916 0.037314
-0.012081 -0.019743 0.037888
-0.011800 -0.005978 0.011000
-0.012536 -0.004269 0.011000
-0.012536 0.004269 0.011000
-0.011800 0.005978 0.011000
-0.012264 0.016000 0.012249
-0.012251 0.016000 0.014042
-0.012283 0.016000 0.032742
-0.012231 0.016000 0.034534
-0.012245 0.018200 0.011196
-0.012115 0.018200 0.012099
-0.012275 0.018200 0.014057
-0.012033 0.018200 0.015029
-0.011985 0.018200 0.031788
-0.012245 0.018200 0.032759
-0.012275 0.018200 0.034557
-0.012010 0.018200 0.035520
-0.011973 0.019709 0.037902
-0.012081 0.021101 0.001700
-0.012139 0.021408 0.002421
-0.011951 0.021652 0.036565
-0.012042 0.020984 0.037270
-0.012073 0.022266 0.004177
-0.012033 0.023160 0.005910
-0.011865 0.023041 0.031845
-0.012171 0.021988 0.035779
-0.011791 0.023562 0.006597
-0.012140 0.023797 0.007566
-0.012369 0.023825 0.011169
-0.011672 0.023939 0.011395
-0.011950 0.023894 0.014996
-0.011970 0.023891 0.028029
-0.010710 -0.023494 0.006333
-0.010710 -0.023941 0.007641
-0.010350 -0.024000 0.011990
-0.010721 -0.024000 0.013458
-0.010082 -0.024000 0.014668
-0.010484 -0.024000 0.028295
-0.010710 -0.022148 0.005228
-0.010710 -0.022894 0.005692
-0.009982 -0.023001 0.032037
-0.010612 -0.022751 0.032973
-0.010525 -0.022319 0.034586
-0.010822 -0.021985 0.035780
-0.010710 -0.021130 0.005013
-0.011102 -0.021092 0.037197
-0.011102 -0.019863 0.037889
-0.010428 -0.018200 0.012105
-0.010286 -0.018200 0.013372
-0.010169 -0.018200 0.014589
-0.009982 -0.018200 0.032037
-0.010364 -0.018200 0.033163
-0.010355 -0.018200 0.034380
-0.009982 -0.018200 0.035263
-0.009777 -0.016000 0.013166
-0.009782 -0.016000 0.033509
-0.009766 -0.016000 0.033908
-0.010100 -0.008565 0.011000
-0.010858 -0.007582 0.011000
-0.009830 -0.005456 0.009000
-0.011123 -0.004503 0.000000
-0.011123 -0.004503 0.005000
-0.010332 -0.004434 0.009000
-0.010870 -0.002814 0.009000
-0.011185 -0.001137 0.009000
-0.011243 0.000000 0.009000
-0.011185 0.001137 0.009000
-0.010870 0.002814 0.009000
-0.011123 0.004503 0.000000
-0.011123 0.004503 0.005000
-0.010332 0.004434 0.009000
-0.009830 0.005456 0.009000
-0.010858 0.007582 0.011000
-0.010100 0.008565 0.011000
-0.010714 0.016000 0.001700
-0.010714 0.016000 0.005000
-0.010468 0.016000 0.013780
-0.010439 0.016000 0.032994
-0.011201 0.018200 0.011721
-0.010683 0.018075 0.013587
-0.011201 0.018200 0.014579
-0.011201 0.018200 0.032221
-0.010745 0.018091 0.033268
-0.011201 0.018200 0.035079
-0.011102 0.019897 0.037879
-0.010891 0.021292 0.001700
-0.010714 0.021270 0.005024
-0.011102 0.021115 0.037179
-0.010714 0.021851 0.002941
-0.010714 0.022244 0.004683
-0.010714 0.022888 0.005514
-0.011201 0.022952 0.032221
-0.011201 0.022186 0.035079
-0.011102 0.021921 0.035987
-0.010714 0.023515 0.006387
-0.010714 0.023929 0.007497
-0.010957 0.023993 0.011960
-0.010714 0.024000 0.014102
-0.011201 0.023985 0.014579
-0.010503 0.024000 0.028294
-0.008840 -0.024000 0.011163
-0.009506 -0.024000 0.011279
-0.009062 -0.024000 0.015100
-0.009152 -0.023087 0.031717
-0.009065 -0.022048 0.035594
-0.008891 -0.018200 0.011166
-0.009091 -0.018200 0.012188
-0.009025 -0.018200 0.013992
-0.009119 -0.018200 0.015087
-0.009095 -0.018200 0.031710
-0.009025 -0.018200 0.032808
-0.009025 -0.018200 0.034492
-0.009146 -0.018200 0.035584
-0.009011 -0.016000 0.012304
-0.008981 -0.016000 0.014000
-0.009004 -0.016000 0.032806
-0.009031 -0.016000 0.034492
-0.008326 -0.010298 0.011000
-0.009254 -0.009473 0.011000
-0.008530 -0.007323 0.009000
-0.009228 -0.006423 0.009000
-0.009228 0.006423 0.009000
-0.008530 0.007323 0.009000
-0.009254 0.009473 0.011000
-0.008326 0.010298 0.011000
-0.009741 0.018200 0.013150
-0.009741 0.018200 0.033650
-0.009741 0.022569 0.033650
-0.009741 0.024000 0.013150
-0.007753 -0.024000 0.011485
-0.007745 -0.024000 0.014811
-0.007838 -0.023027 0.031940
-0.007401 -0.022186 0.035079
-0.007985 -0.022084 0.035461
-0.008198 -0.018200 0.011243
-0.007680 -0.018200 0.011784
-0.007707 -0.018200 0.013480
-0.007746 -0.018200 0.014807
-0.007746 -0.018200 0.031993
-0.007636 -0.018200 0.033390
-0.007724 -0.018200 0.034749
-0.007965 -0.018200 0.035452
-0.008100 -0.016000 0.012436
-0.007675 -0.016000 0.013448
-0.007736 -0.016000 0.033293
-0.008100 -0.016000 0.034364
-0.007325 -0.011032 0.011000
-0.006882 -0.008890 0.009000
-0.007078 -0.007064 0.003000
-0.007412 -0.007606 0.009000
-0.007688 -0.006078 0.003000
-0.007702 -0.006047 0.009000
-0.007850 -0.004341 0.003000
-0.007850 -0.004341 0.009000
-0.007263 -0.003063 0.003000
-0.007263 -0.003063 0.009000
-0.007263 0.003063 0.003000
-0.007263 0.003063 0.009000
-0.007850 0.004341 0.003000
-0.007850 0.004341 0.009000
-0.007688 0.006078 0.003000
-0.007702 0.006047 0.009000
-0.007078 0.007064 0.003000
-0.007412 0.007606 0.009000
-0.006882 0.008890 0.009000
-0.007325 0.011032 0.011000
-0.005941 -0.024000 0.013150
-0.005941 -0.022569 0.033650
-0.005941 -0.018200 0.013150
-0.005941 -0.018200 0.033650
-0.005897 -0.016000 0.036106
-0.005736 -0.016000 0.037950
-0.006260 -0.011670 0.011000
-0.005947 -0.009541 0.009000
-0.006097 -0.007678 0.003000
-0.006097 -0.007678 0.009000
-0.006012 -0.006005 0.000000
-0.005989 -0.006018 0.003000
-0.006329 -0.005821 0.041850
-0.006354 -0.004340 0.000000
-0.006374 -0.004389 0.003000
-0.006204 -0.004444 0.037950
-0.005750 -0.005062 0.041850
-0.005550 -0.003481 0.000000
-0.005890 -0.003159 0.003000
-0.006627 -0.002463 0.009000
-0.005736 -0.003681 0.037950
-0.005807 -0.002090 0.003000
-0.005833 -0.002098 0.009000
-0.005807 0.002090 0.003000
-0.005833 0.002098 0.009000
-0.005550 0.003481 0.000000
-0.005890 0.003159 0.003000
-0.006627 0.002463 0.009000
-0.005736 0.003681 0.037950
-0.006330 0.004295 0.000000
-0.006374 0.004389 0.003000
-0.006236 0.004462 0.037950
-0.005750 0.005062 0.041850
-0.006012 0.006005 0.000000
-0.005989 0.006018 0.003000
-0.006329 0.005821 0.041850
-0.006097 0.007678 0.003000
-0.006097 0.007678 0.009000
-0.005947 0.009541 0.009000
-0.006260 0.011670 0.011000
-0.005730 0.016000 0.036273
-0.005719 0.019816 0.037902
-0.005455 0.021114 0.037178
-0.004438 -0.021804 0.036304
-0.004438 -0.021115 0.037179
-0.004438 -0.020188 0.037796
-0.004557 -0.012419 0.011000
-0.004269 -0.011215 0.000000
-0.004269 -0.011215 0.005000
-0.004428 -0.010318 0.009000
-0.004269 -0.009043 0.000000
-0.004394 -0.007862 0.003000
-0.004395 -0.007859 0.009000
-0.004341 -0.006357 0.000000
-0.004428 -0.006394 0.003000
-0.003830 -0.003807 0.000000
-0.003830 -0.003807 0.003000
-0.004557 -0.003436 0.000000
-0.004577 -0.003430 0.003000
-0.004394 -0.002038 0.003000
-0.004425 -0.002036 0.009000
-0.004394 0.002038 0.003000
-0.004425 0.002036 0.009000
-0.004557 0.003436 0.000000
-0.004577 0.003430 0.003000
-0.003830 0.003807 0.000000
-0.003830 0.003807 0.003000
-0.004341 0.006357 0.000000
-0.004428 0.006394 0.003000
-0.004394 0.007862 0.003000
-0.004395 0.007859 0.009000
-0.004269 0.009043 0.000000
-0.004269 0.011215 0.000000
-0.004269 0.011215 0.005000
-0.004428 0.010318 0.009000
-0.004557 0.012419 0.011000
-0.004463 0.016000 0.032926
-0.004370 0.017900 0.033019
-0.004166 0.021000 0.005000
-0.005032 0.021910 0.036016
-0.002774 -0.012949 0.011000
-0.003077 -0.011599 -0.001000
-0.003678 -0.011422 -0.000496
-0.003137 -0.011583 0.005000
-0.002818 -0.010884 0.009000
-0.003077 -0.009515 -0.001000
-0.003454 -0.009382 -0.000224
-0.003061 -0.007262 0.003000
-0.003046 -0.007250 0.009000
-0.002663 -0.004950 -0.000000
-0.002663 -0.004950 0.003000
-0.003061 -0.002637 0.003000
-0.003061 -0.002637 0.009000
-0.002466 -0.001066 0.000000
-0.002466 -0.001066 0.009000
-0.002686 -0.000021 0.000000
-0.002686 -0.000021 0.009000
-0.002466 0.001066 0.000000
-0.002466 0.001066 0.009000
-0.003061 0.002637 0.003000
-0.003061 0.002637 0.009000
-0.002663 0.004950 -0.000000
-0.002663 0.004950 0.003000
-0.003061 0.007262 0.003000
-0.003046 0.007250 0.009000
-0.003077 0.009515 -0.001000
-0.003454 0.009382 -0.000224
-0.002818 0.010884 0.009000
-0.003077 0.011599 -0.001000
-0.003678 0.011422 -0.000496
-0.003137 0.011583 0.005000
-0.002774 0.012949 0.011000
-0.003581 0.021585 0.005058
-0.003172 0.021994 0.005173
-0.002522 0.022644 0.005502
-0.001549 -0.013152 0.011000
-0.001917 -0.011846 -0.001000
-0.001384 -0.011905 0.005000
-0.001524 -0.009869 -0.001000
-0.001156 -0.009933 0.000000
-0.001702 -0.011113 0.009000
-0.002224 -0.009750 0.000000
-0.001172 -0.002432 0.000000
-0.001172 -0.002432 0.009000
-0.001840 -0.001956 0.000000
-0.001859 -0.001939 0.009000
-0.001840 0.001956 0.000000
-0.001859 0.001939 0.009000
-0.001172 0.002432 0.000000
-0.001172 0.002432 0.009000
-0.002224 0.009750 0.000000
-0.001524 0.009869 -0.001000
-0.001156 0.009933 0.000000
-0.001702 0.011113 0.009000
-0.001917 0.011846 -0.001000
-0.001384 0.011905 0.005000
-0.001549 0.013152 0.011000
-0.002045 0.023121 0.005879
-0.001166 0.024000 0.005000
-0.001679 0.023487 0.006338
-0.001252 0.023914 0.007432
-0.001166 0.024000 0.011000
-0.002228 0.024000 0.028310
-0.000473 -0.023494 0.006333
-0.000473 -0.023857 0.007133
-0.000473 -0.022148 0.005228
-0.000473 -0.022894 0.005692
-0.000473 -0.021585 0.005058
-0.000310 -0.013239 0.011000
-0.000144 -0.011984 -0.001000
0.000397 -0.011993 0.005000
0.000064 -0.010000 -0.001000
-0.000075 -0.010000 0.000000
-0.000000 -0.011228 0.009000
-0.000662 -0.004950 0.003000
-0.000662 -0.004950 0.009000
-0.000077 -0.002663 0.000000
-0.000075 -0.002661 0.009000
-0.000077 0.002663 0.000000
-0.000075 0.002661 0.009000
-0.000662 0.004950 0.003000
-0.000662 0.004950 0.009000
0.000064 0.010000 -0.001000
-0.000075 0.010000 0.000000
0.000000 0.011228 0.009000
-0.000144 0.011984 -0.001000
0.000397 0.011993 0.005000
-0.000310 0.013239 0.011000
0.002182 -0.021964 0.035879
0.001899 -0.021683 0.036529
0.001569 -0.020979 0.037292
0.001313 -0.019882 0.037889
0.001978 -0.016000 0.036344
0.001287 -0.016000 0.037950
0.001547 -0.013137 0.011000
0.001631 -0.011889 -0.001000
0.001583 -0.011895 0.005000
0.001650 -0.009849 -0.001000
0.001542 -0.009865 0.000000
0.001702 -0.011113 0.009000
0.002091 -0.005813 0.003000
0.002099 -0.005838 0.009000
0.002050 -0.004341 0.003000
0.002047 -0.004342 0.009000
0.001214 -0.002396 0.000000
0.001214 -0.002396 0.009000
0.001889 -0.001929 0.000000
0.001889 -0.001929 0.009000
0.001889 0.001929 0.000000
0.001889 0.001929 0.009000
0.001214 0.002396 0.000000
0.001214 0.002396 0.009000
0.002050 0.004341 0.003000
0.002047 0.004342 0.009000
0.002091 0.005813 0.003000
0.002099 0.005838 0.009000
0.001650 0.009849 -0.001000
0.001542 0.009865 0.000000
0.001702 0.011113 0.009000
0.001631 0.011889 -0.001000
0.001583 0.011895 0.005000
0.001547 0.013137 0.011000
0.003697 -0.016514 0.030400
0.003505 -0.016000 0.032931
0.002712 -0.016000 0.034679
0.003377 -0.012805 0.011000
0.002798 -0.011669 -0.001000
0.002754 -0.011680 0.005000
0.002818 -0.010884 0.009000
0.003199 -0.009475 -0.001000
0.003123 -0.009500 0.000000
0.003047 -0.007250 0.003000
0.003047 -0.007250 0.009000
0.003467 -0.005516 0.000000
0.003139 -0.005906 0.003000
0.002451 -0.006610 0.009000
0.003439 -0.004547 0.000000
0.003434 -0.004568 0.003000
0.002848 -0.002863 0.003000
0.002823 -0.002889 0.009000
0.002848 0.002863 0.003000
0.002823 0.002889 0.009000
0.003439 0.004547 0.000000
0.003434 0.004568 0.003000
0.003467 0.005516 0.000000
0.003139 0.005906 0.003000
0.002451 0.006610 0.009000
0.003047 0.007250 0.003000
0.003047 0.007250 0.009000
0.003199 0.009475 -0.001000
0.003123 0.009500 0.000000
0.002818 0.010884 0.009000
0.002798 0.011669 -0.001000
0.002754 0.011680 0.005000
0.003377 0.012805 0.011000
0.002706 0.016000 0.013991
0.002744 0.017900 0.013965
0.003630 0.024491 0.005000
0.003618 0.024491 0.007999
0.003605 0.024491 0.011000
0.003601 0.024982 0.005000
0.003591 0.024994 0.007998
0.003580 0.025008 0.011000
0.002834 0.028000 0.005000
0.002834 0.028000 0.011000
0.003930 -0.023007 0.032016
0.004957 -0.017200 0.029866
0.004179 -0.016375 0.031489
0.003936 -0.011336 -0.001000
0.003897 -0.011350 0.005000
0.004562 -0.012432 0.011000
0.005037 -0.010892 -0.001000
0.005002 -0.010908 0.005000
0.004388 -0.010336 0.009000
0.004657 -0.008833 -0.001000
0.004613 -0.008856 0.000000
0.004354 -0.007853 0.003000
0.004354 -0.007851 0.009000
0.004356 -0.006363 0.000000
0.004385 -0.006375 0.003000
0.003814 -0.003822 0.000000
0.003814 -0.003822 0.003000
0.004512 -0.003449 0.000000
0.004556 -0.003435 0.003000
0.004354 -0.002046 0.003000
0.004319 -0.002057 0.009000
0.003859 0.000000 -0.000000
0.003859 -0.000000 0.009000
0.004354 0.002046 0.003000
0.004319 0.002057 0.009000
0.004512 0.003449 0.000000
0.004556 0.003435 0.003000
0.003814 0.003822 0.000000
0.003814 0.003822 0.003000
0.004356 0.006363 0.000000
0.004385 0.006375 0.003000
0.004354 0.007853 0.003000
0.004354 0.007851 0.009000
0.004657 0.008833 -0.001000
0.004613 0.008856 0.000000
0.005037 0.010892 -0.001000
0.005002 0.010908 0.005000
0.004388 0.010336 0.009000
0.003936 0.011336 -0.001000
0.003897 0.011350 0.005000
0.004562 0.012432 0.011000
0.004073 0.016000 0.011000
0.004129 0.024071 0.005000
0.003959 0.024122 0.008000
0.004057 0.024067 0.011000
0.003788 0.025358 0.005000
0.003762 0.025358 0.011000
0.005061 0.026667 0.005000
0.005014 0.026646 0.011000
0.005061 0.028000 0.005000
0.005016 0.028000 0.011000
0.006410 -0.024000 0.026959
0.005723 -0.024000 0.028310
0.006434 -0.017200 0.026923
0.005586 -0.017200 0.028596
0.005706 -0.011950 0.011000
0.006088 -0.010341 -0.001000
0.006057 -0.010359 0.005000
0.005947 -0.009541 0.009000
0.006010 -0.007992 -0.001000
0.005994 -0.008004 0.000000
0.006058 -0.007694 0.003000
0.006091 -0.007684 0.009000
0.005741 -0.006300 0.000000
0.005679 -0.006334 0.003000
0.006069 -0.003807 0.000000
0.006069 -0.003807 0.003000
0.005576 -0.003492 0.000000
0.005865 -0.003147 0.003000
0.006592 -0.002439 0.009000
0.005767 -0.002078 0.003000
0.005771 -0.002079 0.009000
0.005767 0.002078 0.003000
0.005793 0.002086 0.009000
0.005576 0.003492 0.000000
0.005865 0.003147 0.003000
0.006592 0.002439 0.009000
0.006069 0.003807 0.000000
0.006069 0.003807 0.003000
0.005741 0.006300 0.000000
0.005679 0.006334 0.003000
0.006010 0.007992 -0.001000
0.005994 0.008004 0.000000
0.006058 0.007694 0.003000
0.006091 0.007684 0.009000
0.005947 0.009541 0.009000
0.006088 0.010341 -0.001000
0.006057 0.010359 0.005000
0.005706 0.011950 0.011000
0.007847 -0.024000 0.024191
0.007096 -0.024000 0.025624
0.007859 -0.017200 0.024186
0.007209 -0.017200 0.025426
0.006800 -0.011364 0.011000
0.007834 -0.010677 0.011000
0.007541 -0.009316 -0.001000
0.007517 -0.009335 0.005000
0.006882 -0.008890 0.009000
0.006825 -0.007309 -0.001000
0.007179 -0.007309 -0.000149
0.007049 -0.007093 0.003000
0.007370 -0.007580 0.009000
0.007852 -0.006511 0.000000
0.007237 -0.004950 -0.000000
0.007237 -0.004950 0.003000
0.007049 -0.002806 0.003000
0.007049 -0.002806 0.009000
0.007049 0.002806 0.003000
0.007049 0.002806 0.009000
0.007237 0.004950 -0.000000
0.007237 0.004950 0.003000
0.007852 0.006511 0.000000
0.006825 0.007309 -0.001000
0.007179 0.007309 -0.000149
0.007049 0.007093 0.003000
0.007370 0.007580 0.009000
0.007541 0.009316 -0.001000
0.007517 0.009335 0.005000
0.006882 0.008890 0.009000
0.007834 0.010677 0.011000
0.006800 0.011364 0.011000
0.007964 0.024013 0.005001
0.008150 0.024066 0.008000
0.008011 0.024040 0.011000
0.007161 0.026667 0.005001
0.007135 0.026667 0.011000
0.007161 0.028000 0.005001
0.007135 0.028000 0.011000
0.009474 -0.024000 0.021145
0.008749 -0.024000 0.022496
0.009288 -0.017200 0.021498
0.008786 -0.017200 0.022438
0.008310 -0.017200 0.023333
0.008799 -0.009896 0.011000
0.009687 -0.009029 0.011000
0.008959 -0.007493 -0.001000
0.009175 -0.007712 0.005000
0.008530 -0.007323 0.009000
0.009184 -0.006411 -0.001000
0.008499 -0.005639 0.000000
0.009228 -0.006423 0.009000
0.009051 -0.004704 0.000000
0.009238 -0.004950 0.003000
0.009238 -0.004950 0.009000
0.009499 -0.003715 0.000000
0.009499 0.003715 0.000000
0.009051 0.004704 0.000000
0.009238 0.004950 0.003000
0.009238 0.004950 0.009000
0.009184 0.006411 -0.001000
0.008499 0.005639 0.000000
0.009228 0.006423 0.009000
0.008959 0.007493 -0.001000
0.009146 0.007746 0.005000
0.008530 0.007323 0.009000
0.009687 0.009029 0.011000
0.008799 0.009896 0.011000
0.008466 0.024330 0.005001
0.008523 0.024405 0.008002
0.008516 0.024416 0.011000
0.008569 0.025096 0.005001
0.008605 0.024994 0.008002
0.008542 0.025088 0.011000
0.009763 -0.023494 0.006333
0.009763 -0.023849 0.007108
0.010965 -0.024000 0.018381
0.010268 -0.024000 0.019672
0.009763 -0.022148 0.005228
0.009763 -0.022894 0.005692
0.009763 -0.021585 0.005058
0.011158 -0.016500 0.016400
0.010964 -0.017200 0.018380
0.010375 -0.017200 0.019472
0.009817 -0.017200 0.020510
0.010846 -0.007573 0.011000
0.010027 -0.005829 -0.001000
0.010258 -0.006227 0.005000
0.009830 -0.005456 0.009000
0.010559 -0.004797 -0.001000
0.010824 -0.005181 0.005000
0.010332 -0.004434 0.009000
0.010827 -0.002810 -0.001000
0.009841 -0.002684 0.000000
0.010870 -0.002814 0.009000
0.011142 -0.001136 -0.001000
0.010070 -0.001623 0.000000
0.011185 -0.001137 0.009000
0.011200 0.000000 -0.001000
0.010186 0.000000 0.000000
0.011243 0.000000 0.009000
0.011142 0.001136 -0.001000
0.010070 0.001623 0.000000
0.011185 0.001137 0.009000
0.010827 0.002810 -0.001000
0.009841 0.002684 0.000000
0.010870 0.002814 0.009000
0.010559 0.004797 -0.001000
0.010824 0.005181 0.005000
0.010332 0.004434 0.009000
0.010027 0.005829 -0.001000
0.010258 0.006227 0.005000
0.009830 0.005456 0.009000
0.010813 0.007619 0.011000
0.012674 -0.024000 0.015218
0.011977 -0.024000 0.016509
0.011345 -0.024000 0.017678
0.012573 -0.016000 0.015406
0.012114 -0.016923 0.016254
0.011813 -0.005984 0.011000
0.011288 -0.004072 -0.001000
0.011284 -0.004083 0.005000
0.012322 -0.004852 0.011000
0.011635 -0.002938 -0.001000
0.011633 -0.002946 0.005000
0.012722 -0.003677 0.011000
0.011868 -0.001774 -0.001000
0.011867 -0.001779 0.005000
0.011985 -0.000054 -0.001000
0.011985 0.000099 0.005000
0.011868 0.001774 -0.001000
0.011867 0.001779 0.005000
0.011635 0.002938 -0.001000
0.011633 0.002946 0.005000
0.012722 0.003677 0.011000
0.011288 0.004072 -0.001000
0.011284 0.004083 0.005000
0.012322 0.004852 0.011000
0.011813 0.005984 0.011000
0.012122 0.021099 0.005008
0.012241 0.021146 0.010986
0.012264 0.022691 0.005567
0.012243 0.022645 0.010462
0.011966 0.024000 0.005000
0.012261 0.023513 0.006361
0.012256 0.023914 0.007468
0.012249 0.023736 0.009133
0.012235 0.027336 0.005001
0.012186 0.027504 0.008002
0.012218 0.027298 0.011000
0.011730 0.027917 0.005001
0.011844 0.027877 0.008001
0.011698 0.027917 0.011000
0.013736 -0.024000 0.013254
0.013187 -0.024000 0.014271
0.014147 -0.016000 0.012495
0.013567 -0.016000 0.013566
0.013061 -0.016000 0.014503
0.013010 -0.002469 0.011000
0.013184 -0.001240 0.011000
0.013243 0.000000 0.011000
0.013184 0.001240 0.011000
0.013010 0.002469 0.011000
0.015730 -0.023807 0.009568
0.014955 -0.024000 0.011000
0.014325 -0.024000 0.012165
0.015240 -0.022612 0.010474
0.014965 -0.021208 0.010983
0.014955 -0.016000 0.011000
0.014542 -0.016000 0.011763
0.016578 -0.024000 0.008000
0.016132 -0.023871 0.008824
0.020000 -0.023494 0.006333
0.020000 -0.023899 0.007388
0.020000 -0.023736 0.009133
0.020000 -0.022148 0.005228
0.020000 -0.022894 0.005692
0.020000 -0.022622 0.010480
0.020000 -0.021110 0.005011
0.020000 -0.021315 0.010969
0.020000 0.021108 0.005011
0.020000 0.021234 0.010977
0.020000 0.022148 0.005228
0.020000 0.022894 0.005692
0.020000 0.022645 0.010462
0.020000 0.023494 0.006333
0.020000 0.023905 0.007422
0.020000 0.023736 0.009133
0.020992 -0.023442 0.006333
0.021036 -0.023855 0.007453
0.021018 -0.023683 0.009133
0.021273 -0.022037 0.005228
0.020930 -0.022845 0.005692
0.021101 -0.022441 0.010540
0.021237 -0.021217 0.005033
0.021239 -0.021189 0.010970
0.021237 0.021217 0.005033
0.021219 0.021205 0.010969
0.021273 0.022037 0.005228
0.020930 0.022845 0.005692
0.021101 0.022441 0.010540
0.020992 0.023442 0.006333
0.021035 0.023850 0.007422
0.021018 0.023683 0.009133
0.021974 -0.023287 0.006333
0.022560 -0.023554 0.007422
0.022433 -0.023464 0.009027
0.022426 -0.022669 0.005820
0.022934 -0.023030 0.009667
0.022299 -0.022579 0.010308
0.022613 -0.021134 0.005090
0.022613 -0.021134 0.010910
0.022613 0.021134 0.005090
0.022613 0.021134 0.010910
0.022426 0.022669 0.005820
0.022934 0.023030 0.009667
0.022299 0.022579 0.010308
0.021974 0.023287 0.006333
0.022560 0.023554 0.007422
0.022433 0.023464 0.009027
0.024081 -0.022209 0.005986
0.024029 -0.023048 0.007422
0.024157 -0.022726 0.009267
0.023932 -0.022050 0.010246
0.023727 -0.021023 0.005171
0.024333 -0.021506 0.005506
0.023879 -0.021144 0.010745
0.024100 -0.019848 0.005016
0.024125 -0.019821 0.010984
0.024125 0.019821 0.005016
0.024100 0.019848 0.010984
0.023727 0.021023 0.005171
0.024333 0.021506 0.005506
0.023879 0.021144 0.010745
0.024081 0.022209 0.005986
0.024029 0.023048 0.007422
0.024157 0.022726 0.009267
0.023932 0.022050 0.010246
0.025387 -0.022295 0.007422
0.025361 -0.022255 0.008867
0.024789 -0.020592 0.005228
0.025588 -0.021058 0.005820
0.025581 -0.021681 0.009667
0.025429 -0.020840 0.010401
0.025551 -0.019576 0.005147
0.025576 -0.019551 0.010853
0.025821 -0.018125 0.005016
0.025848 -0.018100 0.010984
0.025848 0.018100 0.005016
0.025821 0.018125 0.010984
0.025576 0.019551 0.005147
0.025551 0.019576 0.010853
0.024789 0.020592 0.005228
0.025588 0.021058 0.005820
0.025581 0.021681 0.009667
0.025429 0.020840 0.010401
0.025387 0.022295 0.007422
0.025361 0.022255 0.008867
0.026704 -0.020704 0.006333
0.026994 -0.020994 0.007422
0.026875 -0.020875 0.009133
0.026592 -0.018789 0.005228
0.027058 -0.019588 0.005820
0.027681 -0.019581 0.009667
0.026840 -0.019429 0.010401
0.027023 -0.017727 0.005171
0.027506 -0.018333 0.005506
0.027144 -0.017879 0.010745
0.027134 -0.016613 0.005090
0.027134 -0.016613 0.010910
0.027205 -0.015219 0.005031
0.027205 -0.015219 0.010969
0.027123 -0.014000 0.005012
0.027195 -0.014000 0.010981
0.027585 -0.004667 0.005058
0.027585 -0.004667 0.010942
0.027585 0.004667 0.005058
0.027585 0.004667 0.010942
0.027167 0.014000 0.005016
0.027105 0.014000 0.010990
0.027205 0.015219 0.005031
0.027201 0.015259 0.010968
0.027134 0.016613 0.005090
0.027134 0.016613 0.010910
0.027023 0.017727 0.005171
0.027506 0.018333 0.005506
0.027144 0.017879 0.010745
0.026592 0.018789 0.005228
0.027058 0.019588 0.005820
0.027681 0.019581 0.009667
0.026840 0.019429 0.010401
0.026704 0.020704 0.006333
0.026994 0.020994 0.007422
0.026875 0.020875 0.009133
0.028295 -0.019387 0.007422
0.028255 -0.019361 0.008867
0.028209 -0.018081 0.005986
0.029048 -0.018029 0.007422
0.028726 -0.018157 0.009267
0.028050 -0.017932 0.010246
0.028669 -0.016426 0.005820
0.029030 -0.016934 0.009667
0.028579 -0.016299 0.010308
0.028037 -0.015273 0.005228
0.028845 -0.014930 0.005692
0.028441 -0.015101 0.010540
0.028148 -0.014000 0.005228
0.028894 -0.014000 0.005692
0.028645 -0.014000 0.010462
0.028148 -0.004667 0.005228
0.028894 -0.004667 0.005692
0.028645 -0.004667 0.010462
0.028148 0.004667 0.005228
0.028894 0.004667 0.005692
0.028645 0.004667 0.010462
0.028148 0.014000 0.005228
0.028894 0.014000 0.005692
0.028645 0.014000 0.010462
0.028037 0.015273 0.005228
0.028845 0.014930 0.005692
0.028441 0.015101 0.010540
0.028669 0.016426 0.005820
0.029030 0.016934 0.009667
0.028579 0.016299 0.010308
0.028209 0.018081 0.005986
0.029048 0.018029 0.007422
0.028726 0.018157 0.009267
0.028050 0.017932 0.010246
0.028295 0.019387 0.007422
0.028255 0.019361 0.008867
0.029287 -0.015974 0.006333
0.029554 -0.016560 0.007422
0.029464 -0.016433 0.009027
0.029442 -0.014992 0.006333
0.029850 -0.015035 0.007422
0.029683 -0.015018 0.009133
0.029494 -0.014000 0.006333
0.029914 -0.014000 0.007480
0.029724 -0.014000 0.009166
0.029494 -0.004667 0.006333
0.029849 -0.004667 0.007108
0.029736 -0.004667 0.009133
0.029494 0.004667 0.006333
0.029857 0.004667 0.007133
0.029724 0.004667 0.009166
0.029494 0.014000 0.006333
0.029908 0.014000 0.007455
0.029736 0.014000 0.009133
0.029442 0.014992 0.006333
0.029855 0.015036 0.007453
0.029683 0.015018 0.009133
0.029287 0.015974 0.006333
0.029554 0.016560 0.007422
0.029464 0.016433 0.009027
3 991 950 993
3 993 950 952
3 993 952 994
3 994 952 996
3 996 952 955
3 996 955 997
3 997 955 956
3 954 843 879
3 954 879 882
3 954 882 961
3 954 961 958
3 961 882 848
3 848 882 846
3 958 950 954
3 766 763 845
3 845 763 951
3 845 951 881
3 881 951 960
3 881 960 884
3 884 960 963
3 884 963 849
3 884 849 847
3 618 766 716
3 618 716 719
3 618 719 721
3 721 719 768
3 768 770 721
3 721 770 772
3 239 588 763
3 763 588 613
3 763 613 644
3 211 269 239
3 239 269 270
3 239 270 271
3 979 625 211
3 211 625 592
3 211 592 557
3 978 990 979
3 979 990 1006
3 1006 1022 979
3 979 1022 1039
3 979 1039 1058
3 979 1058 1080
3 979 1080 1082
3 979 1082 1084
3 979 1084 933
3 933 1084 936
3 936 1084 969
3 969 1084 970
3 970 1084 971
3 971 1084 1090
3 971 1090 972
3 972 1090 973
3 973 1090 945
3 945 1090 948
3 948 1090 949
3 949 1090 992
3 949 992 924
3 924 992 951
3 924 951 877
3 877 951 878
3 878 951 841
3 841 951 842
3 842 951 763
3 842 763 810
3 810 763 762
3 762 763 711
3 711 763 678
3 678 763 644
3 1090 1092 1094
3 1090 1094 1060
3 1090 1060 1041
3 1090 1041 1024
3 1024 1008 1090
3 1090 1008 992
3 933 930 979
3 979 930 896
3 896 856 979
3 979 856 855
3 979 855 816
3 816 815 979
3 979 815 777
3 979 777 727
3 727 682 979
3 979 682 651
3 651 625 979
3 557 523 211
3 211 523 483
3 483 457 211
3 211 457 428
3 211 428 429
3 429 368 211
3 211 368 369
3 211 369 312
3 211 312 313
3 211 313 267
3 267 268 211
3 211 268 269
3 271 314 239
3 239 314 315
3 315 383 239
3 239 383 384
3 239 384 434
3 434 435 239
3 239 435 476
3 239 476 516
3 516 552 239
3 239 552 588
3 847 846 884
3 884 846 882
3 849 848 847
3 847 848 846
3 960 951 953
3 960 953 957
3 960 957 956
3 960 956 958
3 956 955 958
3 958 955 952
3 958 952 950
3 963 961 849
3 849 961 848
3 961 963 962
3 962 963 960
3 962 960 959
3 959 960 958
3 959 958 961
3 959 961 962
3 843 845 844
3 844 845 881
3 844 881 880
3 880 881 884
3 880 884 883
3 882 883 884
3 883 882 879
3 883 879 880
3 880 879 844
3 844 879 843
3 717 767 718
3 718 767 768
3 718 768 719
3 718 719 716
3 718 716 715
3 715 716 766
3 715 766 765
3 765 766 764
3 765 764 714
3 765 714 715
3 715 714 717
3 715 717 718
3 772 771 721
3 721 771 720
3 769 770 767
3 767 770 768
3 771 772 769
3 769 772 770
3 843 954 764
3 843 764 845
3 845 764 766
3 497 493 492
3 492 493 489
3 505 508 509
3 509 508 512
3 186 175 187
3 187 175 178
3 187 178 175
3 187 175 186
3 167 137 136
3 167 136 166
3 166 136 167
3 167 136 137
3 178 167 175
3 175 167 166
3 175 166 167
3 175 167 178
3 409 408 391
3 391 408 436
3 436 408 439
3 407 389 436
3 407 436 439
3 407 340 389
3 389 340 321
3 321 340 320
3 320 340 339
3 320 339 297
3 320 297 276
3 276 297 277
3 277 297 298
3 277 298 250
3 277 250 241
3 241 250 251
3 241 251 242
3 242 251 252
3 242 252 279
3 279 252 299
3 279 299 323
3 323 299 341
3 323 341 391
3 391 341 409
3 391 436 390
3 390 436 389
3 390 389 321
3 321 320 276
3 321 276 277
3 277 241 278
3 278 241 242
3 278 242 279
3 278 279 322
3 322 279 323
3 322 323 391
3 322 391 390
3 394 403 437
3 437 403 438
3 402 392 438
3 438 392 437
3 402 335 392
3 392 335 324
3 324 335 280
3 280 335 292
3 280 292 281
3 281 292 254
3 281 254 243
3 243 254 244
3 244 254 255
3 244 255 293
3 244 293 282
3 282 293 283
3 283 293 294
3 283 294 336
3 283 336 327
3 327 336 394
3 394 336 403
3 394 437 393
3 393 437 392
3 393 392 325
3 325 392 324
3 325 324 280
3 325 280 281
3 281 243 282
3 282 243 244
3 282 283 326
3 326 283 327
3 326 327 394
3 326 394 393
3 294 293 256
3 256 293 255
3 256 255 246
3 246 255 254
3 246 254 202
3 202 254 342
3 202 342 301
3 342 254 292
3 342 292 335
3 342 335 410
3 202 301 300
3 202 300 193
3 193 300 253
3 101 100 98
3 98 100 76
3 98 76 77
3 77 76 74
3 74 76 73
3 74 73 49
3 49 73 48
3 49 48 45
3 49 45 46
3 46 45 41
3 41 45 40
3 41 40 35
3 35 40 34
3 34 40 32
3 41 42 43
3 43 42 36
3 36 38 43
3 41 43 47
3 41 47 46
3 46 47 49
3 49 47 50
3 49 50 74
3 50 78 74
3 74 78 77
3 77 78 99
3 77 99 98
3 98 99 101
3 205 206 79
3 79 206 161
3 79 161 122
3 185 177 206
3 206 177 174
3 206 174 161
3 122 116 79
3 79 116 111
3 79 111 80
3 15 13 16
3 16 13 9
3 16 9 10
3 10 9 5
3 10 5 6
3 6 5 2
3 2 5 1
3 2 1 56
3 2 56 57
3 57 56 52
3 57 52 53
3 53 52 83
3 83 52 79
3 83 79 80
3 80 84 83
3 83 84 53
3 84 54 53
3 53 54 57
3 57 54 3
3 57 3 2
3 3 7 2
3 2 7 6
3 6 7 10
3 7 11 10
3 10 11 18
3 10 18 16
3 118 136 119
3 164 136 118
3 169 137 164
3 119 136 169
3 164 137 136
3 136 137 169
3 119 169 168
3 168 169 512
3 168 512 508
3 509 164 493
3 493 164 489
3 509 512 169
3 509 169 164
3 492 489 165
3 165 489 164
3 165 164 118
3 497 505 493
3 493 505 509
3 118 128 156
3 156 165 118
3 149 119 157
3 157 119 168
3 168 508 170
3 170 508 328
3 328 508 395
3 395 508 518
3 508 505 518
3 163 165 155
3 155 165 156
3 155 156 123
3 123 156 128
3 123 128 117
3 117 128 118
3 101 90 109
3 109 90 106
3 109 106 110
3 110 106 113
3 110 113 114
3 114 113 119
3 114 119 120
3 101 99 90
3 84 90 64
3 84 64 54
3 54 64 65
3 54 65 3
3 3 65 50
3 50 65 78
3 78 65 64
3 78 64 99
3 99 64 90
3 84 80 90
3 90 80 102
3 90 102 106
3 106 102 103
3 106 103 113
3 113 103 112
3 113 112 118
3 118 112 117
3 118 119 113
3 3 50 47
3 3 47 7
3 7 47 43
3 7 43 11
3 11 43 18
3 18 43 38
3 331 336 288
3 331 288 332
3 332 288 289
3 332 289 328
3 328 289 284
3 247 289 246
3 256 246 288
3 256 288 294
3 336 294 288
3 246 202 247
3 203 247 202
3 247 284 289
3 328 395 332
3 332 395 398
3 332 398 331
3 398 404 331
3 331 404 336
3 288 246 289
3 395 518 398
3 398 518 519
3 398 519 404
3 404 519 556
3 311 266 310
3 310 266 264
3 310 264 309
3 309 264 263
3 309 263 307
3 195 194 210
3 266 210 264
3 209 207 261
3 307 354 309
3 354 356 309
3 309 356 310
3 310 356 357
3 310 357 311
3 194 209 210
3 210 209 264
3 307 263 261
3 264 209 263
3 263 209 261
3 648 357 522
3 648 522 647
3 647 522 521
3 647 521 646
3 646 521 520
3 646 520 645
3 645 520 354
3 354 520 356
3 356 520 521
3 356 521 357
3 357 521 522
3 284 158 328
3 328 158 170
3 158 284 152
3 152 284 120
3 120 284 247
3 120 247 114
3 114 247 110
3 110 247 203
3 110 203 109
3 109 203 101
3 101 203 202
3 101 202 115
3 115 202 121
3 121 202 153
3 153 202 173
3 173 202 176
3 176 202 184
3 184 202 193
3 195 80 111
3 195 111 194
3 194 111 116
3 194 116 122
3 122 161 194
3 194 161 174
3 194 174 177
3 194 177 185
3 210 103 195
3 195 103 102
3 112 210 117
3 117 210 266
3 117 266 123
3 123 266 155
3 155 266 311
3 155 311 163
3 112 103 210
3 102 80 195
3 478 442 722
3 414 348 442
3 442 348 774
3 442 774 722
3 348 414 351
3 351 352 348
3 348 352 261
3 352 353 261
3 353 354 307
3 353 307 261
3 354 415 645
3 645 415 444
3 444 443 645
3 645 443 478
3 645 478 722
3 908 970 911
3 911 970 971
3 911 971 972
3 970 908 969
3 969 908 905
3 969 905 936
3 936 905 933
3 933 905 902
3 933 902 930
3 930 902 899
3 930 899 896
3 896 899 862
3 896 862 859
3 896 859 856
3 856 859 823
3 856 823 855
3 855 823 819
3 855 819 816
3 816 819 780
3 816 780 815
3 815 780 730
3 815 730 777
3 777 730 727
3 727 730 682
3 682 730 685
3 682 685 651
3 651 685 656
3 651 656 630
3 651 630 625
3 625 630 592
3 592 630 597
3 592 597 557
3 557 597 561
3 557 561 523
3 523 561 526
3 523 526 483
3 483 526 484
3 483 484 457
3 457 484 458
3 457 458 428
3 428 458 460
3 428 460 429
3 429 460 430
3 429 430 368
3 368 430 431
3 368 431 369
3 369 431 312
3 312 431 370
3 312 370 373
3 312 373 313
3 313 373 374
3 313 374 267
3 267 374 268
3 268 374 375
3 268 375 269
3 269 375 376
3 269 376 377
3 269 377 270
3 270 377 378
3 270 378 271
3 271 378 314
3 314 378 381
3 314 381 315
3 315 381 382
3 315 382 432
3 315 432 383
3 383 432 384
3 384 432 433
3 384 433 434
3 434 433 474
3 434 474 435
3 435 474 475
3 435 475 476
3 476 475 515
3 476 515 516
3 516 515 551
3 516 551 552
3 552 551 584
3 552 584 588
3 588 584 610
3 588 610 613
3 613 610 641
3 613 641 644
3 644 641 678
3 678 641 675
3 678 675 708
3 678 708 711
3 711 708 759
3 711 759 762
3 762 759 810
3 810 759 842
3 842 759 807
3 842 807 841
3 841 807 840
3 841 840 878
3 878 840 837
3 878 837 877
3 877 837 876
3 877 876 924
3 924 876 873
3 924 873 923
3 924 923 949
3 949 923 920
3 949 920 948
3 948 920 917
3 948 917 945
3 945 917 973
3 973 917 914
3 973 914 972
3 972 914 911
3 823 859 862
3 823 784 819
3 819 784 780
3 780 784 734
3 780 734 730
3 730 734 685
3 685 734 689
3 685 689 656
3 656 689 630
3 630 689 692
3 630 692 565
3 630 565 597
3 597 565 561
3 561 565 529
3 561 529 526
3 526 529 484
3 484 529 486
3 484 486 458
3 692 658 565
3 565 658 632
3 632 658 660
3 632 660 634
3 634 660 662
3 662 660 696
3 662 696 664
3 696 742 664
3 664 742 744
3 742 793 744
3 744 793 795
3 744 795 746
3 795 793 798
3 798 793 791
3 798 791 911
3 911 791 908
3 908 791 828
3 908 828 905
3 905 828 902
3 902 828 865
3 902 865 899
3 899 865 862
3 862 865 823
3 577 604 606
3 604 577 575
3 575 577 539
3 575 539 573
3 573 539 537
3 539 501 537
3 537 501 499
3 499 501 504
3 499 504 496
3 496 504 376
3 496 376 375
3 376 504 377
3 377 504 468
3 377 468 378
3 378 468 470
3 378 470 381
3 381 470 382
3 382 470 472
3 382 472 432
3 432 472 433
3 433 472 474
3 474 514 475
3 475 514 515
3 515 514 547
3 515 547 551
3 551 547 584
3 584 547 581
3 584 581 610
3 610 581 641
3 641 581 703
3 641 703 705
3 641 705 675
3 675 705 708
3 708 705 754
3 708 754 759
3 759 754 807
3 807 754 806
3 703 581 672
3 672 581 638
3 672 638 670
3 670 638 636
3 670 636 668
3 577 606 638
3 638 606 636
3 458 486 460
3 430 460 462
3 430 462 431
3 431 462 370
3 370 462 464
3 370 464 373
3 373 464 374
3 374 464 466
3 374 466 375
3 375 466 496
3 573 537 571
3 571 537 569
3 571 569 602
3 602 569 600
3 600 569 632
3 600 632 634
3 798 914 830
3 830 914 917
3 744 746 666
3 666 746 698
3 666 698 668
3 668 698 670
3 807 806 840
3 840 806 837
3 876 837 873
3 873 837 870
3 873 870 923
3 923 870 920
3 920 870 830
3 920 830 917
3 911 914 798
3 585 582 586
3 586 582 583
3 586 583 549
3 549 583 548
3 558 559 562
3 562 559 563
3 563 559 524
3 563 524 527
3 820 821 857
3 820 781 821
3 821 781 782
3 782 781 731
3 782 731 732
3 732 731 686
3 732 686 687
3 687 686 654
3 687 654 655
3 655 654 628
3 655 628 629
3 629 628 595
3 629 595 596
3 596 595 598
3 598 595 562
3 598 562 563
3 834 835 803
3 803 835 804
3 803 804 755
3 755 804 756
3 755 756 706
3 706 756 707
3 706 707 673
3 673 707 674
3 673 674 639
3 639 674 640
3 639 640 608
3 608 640 609
3 608 609 607
3 608 607 582
3 582 607 583
3 874 835 834
3 860 857 824
3 824 857 821
3 824 861 860
3 860 861 897
3 897 861 863
3 897 863 900
3 900 863 866
3 900 866 903
3 903 866 904
3 903 904 907
3 903 907 906
3 906 907 910
3 906 910 909
3 909 910 912
3 912 910 913
3 912 913 915
3 915 913 916
3 915 916 867
3 915 867 918
3 918 867 868
3 918 868 921
3 921 868 872
3 921 872 871
3 871 872 833
3 871 833 874
3 874 833 835
3 582 585 608
3 608 585 611
3 608 611 642
3 608 642 639
3 639 642 673
3 673 642 676
3 673 676 709
3 673 709 706
3 706 709 760
3 706 760 755
3 755 760 757
3 755 757 808
3 755 808 803
3 803 808 838
3 803 838 834
3 834 838 874
3 871 874 921
3 918 946 915
3 915 946 943
3 915 943 941
3 915 941 912
3 912 941 939
3 912 939 909
3 909 939 906
3 906 939 937
3 906 937 903
3 903 937 934
3 903 934 931
3 903 931 900
3 860 897 857
3 857 817 820
3 820 817 781
3 781 817 778
3 781 778 731
3 731 778 728
3 731 728 725
3 731 725 686
3 686 725 683
3 686 683 654
3 654 683 652
3 654 652 626
3 654 626 628
3 628 626 595
3 595 626 593
3 595 593 558
3 595 558 562
3 442 478 449
3 449 478 480
3 478 443 480
3 480 443 451
3 443 444 451
3 451 444 452
3 452 444 415
3 452 415 423
3 423 415 364
3 364 415 354
3 364 354 363
3 363 354 353
3 363 353 362
3 362 353 352
3 362 352 361
3 361 352 351
3 361 351 420
3 420 351 414
3 420 414 442
3 420 442 449
3 449 450 421
3 449 421 420
3 420 421 361
3 361 421 362
3 363 422 364
3 364 422 423
3 423 422 452
3 452 422 451
3 449 480 450
3 450 480 451
3 479 446 477
3 477 446 440
3 448 479 441
3 441 479 477
3 17 126 16
3 16 126 125
3 16 125 15
3 15 125 124
3 15 124 14
3 14 124 129
3 14 129 19
3 19 129 132
3 19 132 22
3 22 132 21
3 21 132 131
3 21 131 24
3 24 131 134
3 24 134 26
3 26 134 138
3 26 138 139
3 26 139 28
3 28 139 141
3 28 141 144
3 28 144 33
3 33 144 145
3 33 145 34
3 34 145 35
3 35 145 146
3 35 146 41
3 41 146 150
3 41 150 42
3 42 150 151
3 42 151 36
3 36 151 147
3 36 147 148
3 36 148 37
3 37 148 29
3 29 148 142
3 29 142 143
3 29 143 30
3 30 143 140
3 30 140 27
3 27 140 135
3 27 135 25
3 25 135 133
3 25 133 23
3 23 133 130
3 23 130 20
3 20 130 17
3 17 130 127
3 17 127 126
3 228 134 226
3 226 134 131
3 226 131 222
3 222 131 132
3 222 132 223
3 223 132 219
3 219 132 129
3 219 129 220
3 220 129 124
3 220 124 215
3 215 124 125
3 215 125 216
3 216 125 126
3 216 126 217
3 217 126 127
3 217 127 218
3 218 127 130
3 218 130 221
3 221 130 224
3 224 130 133
3 224 133 225
3 225 133 135
3 225 135 227
3 227 135 140
3 227 140 229
3 229 140 143
3 229 143 231
3 231 143 142
3 231 142 148
3 231 148 236
3 236 148 235
3 235 148 147
3 235 147 234
3 234 147 151
3 234 151 238
3 238 151 237
3 237 151 150
3 237 150 146
3 237 146 233
3 233 146 145
3 233 145 144
3 233 144 232
3 232 144 141
3 232 141 230
3 230 141 139
3 230 139 228
3 228 139 138
3 228 138 134
3 390 393 387
3 387 393 388
3 372 196 371
3 197 380 379
3 371 196 379
3 379 196 197
3 372 371 525
3 525 371 524
3 550 549 380
3 380 549 379
3 802 801 832
3 832 801 831
3 832 831 800
3 800 831 799
3 788 787 826
3 826 787 825
3 826 825 786
3 786 825 785
3 533 532 567
3 567 532 566
3 567 566 531
3 531 566 530
3 545 544 579
3 579 544 578
3 579 578 543
3 543 578 542
3 580 545 579
3 545 580 546
3 545 546 513
3 545 513 511
3 511 513 473
3 511 473 471
3 511 471 507
3 507 471 469
3 507 469 467
3 507 467 503
3 503 500 541
3 541 500 538
3 541 538 576
3 541 576 543
3 543 576 579
3 579 576 637
3 579 637 580
3 568 535 533
3 568 533 567
3 535 568 536
3 535 536 498
3 535 498 495
3 495 465 491
3 491 465 463
3 491 463 461
3 491 461 488
3 488 461 459
3 488 459 485
3 488 485 531
3 531 485 528
3 531 528 564
3 531 564 567
3 567 564 631
3 567 631 568
3 827 790 788
3 827 788 826
3 790 792 740
3 740 792 741
3 740 741 695
3 740 695 738
3 738 695 694
3 694 695 659
3 694 659 657
3 694 657 691
3 736 691 688
3 736 688 733
3 736 733 783
3 736 783 786
3 786 783 822
3 786 822 826
3 826 822 864
3 826 864 827
3 805 802 836
3 836 802 832
3 802 805 752
3 752 805 753
3 752 753 704
3 752 704 702
3 702 671 700
3 700 671 669
3 700 669 697
3 700 697 750
3 750 697 748
3 748 697 745
3 748 745 794
3 748 794 797
3 797 829 800
3 800 829 832
3 832 829 869
3 832 869 836
3 544 545 510
3 510 545 511
3 510 511 506
3 506 511 507
3 506 507 502
3 502 507 503
3 502 503 540
3 540 503 541
3 540 541 542
3 542 541 543
3 532 533 534
3 534 533 535
3 534 535 494
3 494 535 495
3 494 495 490
3 490 495 491
3 490 491 487
3 487 491 488
3 487 488 530
3 530 488 531
3 787 788 789
3 789 788 790
3 789 790 739
3 739 790 740
3 739 740 737
3 737 740 738
3 737 738 693
3 693 738 694
3 693 694 690
3 690 694 691
3 690 691 735
3 735 691 736
3 735 736 785
3 785 736 786
3 801 802 751
3 751 802 752
3 751 752 701
3 701 752 702
3 701 702 699
3 699 702 700
3 699 700 749
3 749 700 750
3 749 750 747
3 747 750 748
3 747 748 796
3 796 748 797
3 796 797 799
3 799 797 800
3 524 559 525
3 525 559 560
3 560 559 558
3 560 558 594
3 594 558 593
3 594 593 626
3 594 626 627
3 627 626 653
3 653 626 652
3 653 652 684
3 684 652 683
3 684 683 726
3 726 683 725
3 726 725 729
3 729 725 728
3 729 728 779
3 779 728 778
3 779 778 818
3 818 778 817
3 818 817 858
3 858 817 857
3 858 857 898
3 898 857 897
3 898 897 901
3 901 897 900
3 901 900 932
3 932 900 931
3 932 931 935
3 935 931 934
3 935 934 938
3 938 934 937
3 938 937 940
3 940 937 939
3 940 939 941
3 940 941 942
3 942 941 943
3 942 943 944
3 944 943 946
3 944 946 947
3 947 946 918
3 947 918 919
3 919 918 921
3 919 921 922
3 922 921 874
3 922 874 875
3 875 874 838
3 875 838 839
3 839 838 808
3 839 808 809
3 809 808 757
3 809 757 758
3 758 757 760
3 758 760 761
3 761 760 709
3 761 709 710
3 710 709 676
3 710 676 677
3 677 676 642
3 677 642 643
3 643 642 612
3 612 642 611
3 612 611 585
3 612 585 587
3 587 585 586
3 587 586 550
3 550 586 549
3 713 390 712
3 712 390 387
3 214 227 240
3 240 227 229
3 213 224 214
3 214 224 225
3 213 212 216
3 216 212 215
3 215 212 220
3 220 212 219
3 219 212 223
3 223 212 211
3 223 211 222
3 222 211 226
3 226 211 239
3 226 239 228
3 228 239 230
3 230 239 232
3 232 239 233
3 233 239 237
3 237 239 240
3 237 240 238
3 238 240 234
3 234 240 235
3 235 240 236
3 236 240 231
3 231 240 229
3 216 217 213
3 213 217 218
3 213 218 221
3 221 224 213
3 225 227 214
3 446 447 453
3 453 447 454
3 454 447 425
3 425 447 418
3 425 418 365
3 365 418 359
3 365 359 424
3 424 359 417
3 424 417 453
3 453 417 446
3 450 451 455
3 455 451 456
3 456 451 427
3 427 451 422
3 427 422 367
3 367 422 363
3 367 363 366
3 366 363 362
3 366 362 426
3 426 362 421
3 426 421 455
3 455 421 450
3 13 24 32
3 32 24 26
3 13 15 14
3 14 19 13
3 13 19 22
3 22 21 13
3 13 21 24
3 26 28 32
3 28 33 32
3 32 33 34
3 782 785 821
3 821 785 824
3 824 785 825
3 824 825 861
3 861 825 863
3 863 825 866
3 866 825 787
3 866 787 904
3 904 787 907
3 907 787 789
3 907 789 910
3 910 789 743
3 910 743 796
3 910 796 913
3 913 796 799
3 913 799 916
3 916 799 867
3 867 799 831
3 867 831 868
3 868 831 872
3 872 831 833
3 833 831 801
3 833 801 835
3 835 801 804
3 804 801 751
3 732 735 782
3 782 735 785
3 735 732 687
3 735 687 655
3 735 655 690
3 690 655 629
3 690 629 566
3 566 629 596
3 566 596 598
3 566 598 530
3 530 598 563
3 530 563 527
3 530 527 487
3 487 527 371
3 487 371 490
3 490 371 506
3 490 506 494
3 494 506 502
3 494 502 572
3 572 502 540
3 572 540 574
3 574 540 603
3 603 540 542
3 603 542 578
3 603 578 605
3 605 578 635
3 635 578 701
3 635 701 699
3 635 699 667
3 667 699 665
3 665 699 749
3 665 749 747
3 527 524 371
3 371 379 506
3 506 379 510
3 510 379 548
3 510 548 544
3 544 548 583
3 544 583 607
3 544 607 578
3 578 607 609
3 578 609 640
3 379 549 548
3 578 640 701
3 701 640 674
3 701 674 751
3 751 674 707
3 751 707 756
3 751 756 804
3 665 747 743
3 747 796 743
3 743 789 739
3 743 739 663
3 663 739 737
3 663 737 693
3 663 693 661
3 661 693 633
3 633 693 690
3 633 690 566
3 633 566 599
3 599 566 601
3 601 566 532
3 601 532 534
3 601 534 570
3 570 534 572
3 572 534 494
3 743 744 665
3 665 744 666
3 663 664 743
3 743 664 744
3 665 666 667
3 667 666 668
3 667 668 635
3 635 668 636
3 635 636 605
3 605 636 606
3 605 606 603
3 603 606 604
3 603 604 574
3 574 604 575
3 574 575 572
3 572 575 573
3 572 573 570
3 570 573 571
3 570 571 601
3 601 571 602
3 601 602 599
3 599 602 600
3 599 600 633
3 633 600 634
3 633 634 661
3 661 634 662
3 661 662 663
3 663 662 664
3 870 869 830
3 830 869 829
3 837 836 870
3 870 836 869
3 865 864 823
3 823 864 822
3 828 827 865
3 865 827 864
3 632 631 565
3 565 631 564
3 569 568 632
3 632 568 631
3 638 637 577
3 577 637 576
3 581 580 638
3 638 580 637
3 836 837 805
3 805 837 806
3 805 806 753
3 753 806 754
3 753 754 704
3 704 754 705
3 704 705 702
3 702 705 703
3 702 703 671
3 671 703 672
3 671 672 669
3 669 672 670
3 669 670 697
3 697 670 698
3 697 698 745
3 745 698 746
3 745 746 794
3 794 746 795
3 794 795 797
3 797 795 798
3 797 798 829
3 829 798 830
3 580 581 546
3 546 581 547
3 546 547 513
3 513 547 514
3 513 514 473
3 473 514 474
3 473 474 471
3 471 474 472
3 471 472 469
3 469 472 470
3 469 470 467
3 467 470 468
3 467 468 503
3 503 468 504
3 503 504 500
3 500 504 501
3 500 501 538
3 538 501 539
3 538 539 576
3 576 539 577
3 568 569 536
3 536 569 537
3 536 537 498
3 498 537 499
3 498 499 495
3 495 499 496
3 495 496 465
3 465 496 466
3 465 466 463
3 463 466 464
3 463 464 461
3 461 464 462
3 461 462 459
3 459 462 460
3 459 460 485
3 485 460 486
3 485 486 528
3 528 486 529
3 528 529 564
3 564 529 565
3 827 828 790
3 790 828 791
3 790 791 792
3 792 791 793
3 792 793 741
3 741 793 742
3 741 742 695
3 695 742 696
3 695 696 659
3 659 696 660
3 659 660 657
3 657 660 658
3 657 658 691
3 691 658 692
3 691 692 688
3 688 692 689
3 688 689 733
3 733 689 734
3 733 734 783
3 783 734 784
3 783 784 822
3 822 784 823
3 120 119 149
3 120 149 152
3 152 149 157
3 152 157 158
3 158 157 168
3 158 168 170
3 38 25 18
3 18 25 23
3 36 37 38
3 38 37 29
3 29 30 38
3 38 30 27
3 27 25 38
3 18 23 20
3 20 17 18
3 17 16 18
3 390 321 387
3 387 321 316
3 322 390 317
3 317 390 387
3 316 321 272
3 272 321 277
3 272 277 273
3 273 277 278
3 273 278 317
3 317 278 322
3 393 325 388
3 388 325 318
3 326 393 319
3 319 393 388
3 318 325 274
3 274 325 281
3 274 281 275
3 275 281 282
3 275 282 319
3 319 282 326
3 393 390 554
3 554 390 713
3 553 388 554
3 554 388 393
3 650 482 648
3 648 482 357
3 357 482 311
3 497 492 482
3 165 163 492
3 492 163 482
3 163 311 482
3 249 100 253
3 253 100 173
3 253 173 176
3 100 101 115
3 100 115 121
3 121 153 100
3 100 153 173
3 176 184 253
3 253 184 193
3 407 406 338
3 407 338 340
3 340 338 339
3 339 338 297
3 297 338 296
3 297 296 298
3 298 296 249
3 298 249 250
3 250 249 251
3 251 249 253
3 251 253 252
3 252 253 300
3 252 300 299
3 299 300 301
3 299 301 342
3 299 342 341
3 341 342 409
3 409 342 410
3 409 410 408
3 713 619 554
3 554 619 556
3 554 556 517
3 517 556 519
3 712 763 713
3 713 763 766
3 713 766 619
3 517 519 518
3 517 518 505
3 517 505 481
3 481 505 497
3 481 497 482
3 517 553 554
3 617 439 618
3 618 439 619
3 618 619 766
3 617 406 439
3 439 406 407
3 619 439 410
3 410 439 408
3 555 589 615
3 615 589 590
3 590 591 615
3 591 614 615
3 615 614 616
3 615 616 617
3 615 617 720
3 720 617 721
3 721 617 618
3 454 967 966
3 967 454 968
3 968 454 425
3 968 425 928
3 928 425 892
3 928 892 929
3 892 425 212
3 212 425 365
3 212 365 211
3 365 424 211
3 211 424 979
3 979 424 980
3 980 424 453
3 980 453 966
3 966 453 454
3 979 980 978
3 978 980 966
3 978 966 967
3 978 967 968
3 978 968 929
3 929 968 928
3 893 965 929
3 929 965 964
3 929 964 978
3 978 964 976
3 978 976 975
3 978 975 977
3 977 975 974
3 982 974 981
3 894 887 893
3 893 887 927
3 893 927 926
3 895 888 894
3 852 850 895
3 895 850 888
3 853 851 852
3 852 851 850
3 854 851 853
3 851 854 811
3 811 854 813
3 811 813 814
3 811 814 812
3 812 814 773
3 773 814 775
3 773 775 776
3 773 776 774
3 774 776 723
3 774 723 722
3 722 723 724
3 724 680 722
3 722 680 681
3 722 681 645
3 645 681 649
3 645 649 646
3 646 649 647
3 647 649 650
3 647 650 648
3 888 887 894
3 893 926 925
3 893 925 965
3 1007 991 993
3 1007 993 1009
3 1009 993 994
3 1009 994 1010
3 1010 994 996
3 1010 996 1012
3 1012 996 997
3 1012 997 1013
3 1013 997 998
3 1013 998 1014
3 1014 998 995
3 1014 995 1011
3 1011 995 992
3 1011 992 1008
3 1024 1041 1044
3 1062 1041 1060
3 1062 1060 1101
3 1101 1060 1097
3 1138 1134 1133
3 1133 1134 1164
3 1138 1097 1134
3 1164 1134 1161
3 1097 1060 1094
3 1097 1094 1134
3 1134 1131 1161
3 1161 1131 1128
3 1161 1128 1158
3 1094 1131 1134
3 1094 1092 1131
3 1131 1092 1090
3 1131 1090 1128
3 1161 1158 1160
3 1160 1158 1157
3 1160 1157 1156
3 1160 1156 1159
3 1159 1156 1127
3 1159 1127 1130
3 1130 1127 1126
3 1130 1126 1129
3 1129 1126 1089
3 1129 1089 1091
3 1093 1059 1095
3 1061 1059 1040
3 1061 1040 1063
3 1063 1040 1042
3 1063 1042 1043
3 1043 1042 1045
3 1025 1028 1029
3 1029 1028 1013
3 1045 1042 1025
3 1028 1025 1012
3 1028 1012 1013
3 1042 1040 1023
3 1042 1023 1025
3 1025 1010 1012
3 1023 1009 1025
3 1025 1009 1010
3 1023 1007 1009
3 1011 1008 1024
3 1066 1044 1041
3 1066 1041 1062
3 1027 1011 1024
3 1027 1024 1048
3 1048 1024 1044
3 1066 1062 1101
3 1048 1044 1066
3 1138 1101 1097
3 1014 1011 1030
3 1030 1011 1027
3 1030 1027 1026
3 1026 1027 1047
3 1047 1027 1048
3 1047 1048 1065
3 1065 1048 1066
3 1065 1066 1104
3 1104 1066 1101
3 1104 1101 1100
3 1100 1101 1137
3 1137 1101 1138
3 1137 1138 1133
3 1030 1026 1047
3 1068 1047 1065
3 1068 1065 1104
3 1140 1104 1100
3 1140 1100 1137
3 1164 1137 1133
3 1013 1014 1029
3 1029 1014 1030
3 1029 1030 1046
3 1046 1030 1047
3 1046 1047 1067
3 1067 1047 1068
3 1067 1068 1103
3 1103 1068 1104
3 1103 1104 1139
3 1139 1104 1140
3 1139 1140 1136
3 1136 1140 1137
3 1136 1137 1163
3 1163 1137 1164
3 1163 1164 1160
3 1160 1164 1161
3 1025 1029 1045
3 1043 1045 1064
3 1043 1064 1063
3 1063 1064 1061
3 1029 1046 1045
3 1045 1046 1067
3 1045 1067 1064
3 1064 1067 1102
3 1102 1067 1103
3 1102 1103 1099
3 1099 1103 1139
3 1099 1139 1135
3 1135 1139 1136
3 1135 1136 1132
3 1132 1136 1163
3 1132 1163 1162
3 1162 1163 1159
3 1159 1163 1160
3 1064 1099 1061
3 1061 1099 1098
3 1061 1098 1059
3 1059 1098 1095
3 1064 1102 1099
3 1132 1162 1130
3 1130 1162 1159
3 1098 1099 1095
3 1096 1099 1135
3 1099 1096 1095
3 1095 1096 1135
3 1095 1135 1093
3 1093 1135 1132
3 1093 1132 1129
3 1129 1132 1130
3 1091 1093 1129
3 1089 1087 1085
3 1089 1085 1083
3 1083 1085 1117
3 1117 1085 1120
3 1117 1120 1118
3 1118 1120 1121
3 1118 1121 1147
3 1147 1121 1150
3 1147 1150 1148
3 1148 1150 1151
3 1148 1151 1154
3 1148 1154 1157
3 1157 1154 1156
3 1156 1154 1153
3 1156 1153 1127
3 1127 1153 1124
3 1127 1124 1126
3 1126 1124 1123
3 1126 1123 1089
3 1089 1123 1087
3 1120 1085 1087
3 1120 1087 1123
3 1121 1120 1123
3 1121 1123 1124
3 1150 1121 1124
3 1150 1124 1153
3 1151 1150 1153
3 1151 1153 1154
3 1081 1083 1117
3 1081 1117 1114
3 1114 1117 1118
3 1114 1118 1115
3 1115 1118 1147
3 1115 1147 1144
3 1144 1147 1148
3 1144 1148 1145
3 1145 1148 1149
3 1145 1149 1146
3 1146 1149 1119
3 1146 1119 1116
3 1116 1119 1084
3 1116 1084 1082
3 1080 1058 1078
3 1056 1058 1039
3 1056 1039 1054
3 1054 1039 1037
3 1034 1020 1019
3 1019 1020 1017
3 1034 1037 1020
3 1017 1020 1001
3 1037 1039 1022
3 1037 1022 1020
3 1020 1004 1001
3 1001 1004 988
3 1001 988 985
3 1022 1004 1020
3 1022 1006 1004
3 1004 1006 990
3 1004 990 988
3 1001 985 1000
3 1000 985 984
3 1000 984 983
3 1000 983 999
3 999 983 987
3 999 987 1003
3 1003 987 986
3 1003 986 1002
3 1002 986 989
3 1002 989 1005
3 1021 1038 1035
3 1055 1038 1057
3 1055 1057 1072
3 1072 1057 1076
3 1072 1076 1077
3 1077 1076 1107
3 1111 1141 1142
3 1142 1141 1145
3 1107 1076 1111
3 1141 1111 1144
3 1141 1144 1145
3 1076 1057 1079
3 1076 1079 1111
3 1111 1115 1144
3 1079 1114 1111
3 1111 1114 1115
3 1079 1081 1114
3 1116 1082 1080
3 1075 1078 1058
3 1075 1058 1056
3 1113 1116 1080
3 1113 1080 1110
3 1110 1080 1078
3 1075 1056 1054
3 1110 1078 1075
3 1034 1054 1037
3 1146 1116 1143
3 1143 1116 1113
3 1143 1113 1112
3 1112 1113 1109
3 1109 1113 1110
3 1109 1110 1074
3 1074 1110 1075
3 1074 1075 1071
3 1071 1075 1054
3 1071 1054 1053
3 1053 1054 1033
3 1033 1054 1034
3 1033 1034 1019
3 1143 1112 1109
3 1106 1109 1074
3 1106 1074 1071
3 1050 1071 1053
3 1050 1053 1033
3 1017 1033 1019
3 1145 1146 1142
3 1142 1146 1143
3 1142 1143 1108
3 1108 1143 1109
3 1108 1109 1105
3 1105 1109 1106
3 1105 1106 1070
3 1070 1106 1071
3 1070 1071 1049
3 1049 1071 1050
3 1049 1050 1032
3 1032 1050 1033
3 1032 1033 1016
3 1016 1033 1017
3 1016 1017 1000
3 1000 1017 1001
3 1111 1142 1107
3 1077 1107 1073
3 1077 1073 1072
3 1072 1073 1055
3 1142 1108 1107
3 1107 1108 1105
3 1107 1105 1073
3 1073 1105 1069
3 1069 1105 1070
3 1069 1070 1052
3 1052 1070 1049
3 1052 1049 1031
3 1031 1049 1032
3 1031 1032 1018
3 1018 1032 1016
3 1018 1016 1015
3 1015 1016 999
3 999 1016 1000
3 1073 1052 1055
3 1055 1052 1051
3 1055 1051 1038
3 1038 1051 1035
3 1073 1069 1052
3 1018 1015 1003
3 1003 1015 999
3 1051 1052 1035
3 1036 1052 1031
3 1052 1036 1035
3 1035 1036 1031
3 1035 1031 1021
3 1021 1031 1018
3 1021 1018 1002
3 1002 1018 1003
3 1005 1021 1002
3 989 891 624
3 989 624 355
3 355 624 349
3 349 624 622
3 349 622 350
3 350 622 623
3 350 623 343
3 343 623 620
3 343 620 344
3 344 620 621
3 344 621 981
3 981 621 886
3 981 886 984
3 984 886 983
3 983 886 885
3 983 885 987
3 987 885 890
3 987 890 986
3 986 890 889
3 986 889 989
3 989 889 891
3 622 624 891
3 622 891 889
3 623 622 889
3 623 889 890
3 620 623 890
3 620 890 885
3 621 620 885
3 621 885 886
3 105 265 162
3 162 265 262
3 162 262 160
3 160 262 208
3 160 208 204
3 160 204 154
3 154 204 205
3 205 79 154
3 154 79 82
3 154 82 160
3 160 82 81
3 160 81 162
3 162 81 104
3 162 104 105
3 93 70 94
3 107 94 108
3 108 94 96
3 76 75 73
3 31 39 69
3 66 67 68
3 68 67 69
3 66 31 67
3 67 31 69
3 75 76 96
3 76 97 96
3 97 76 100
3 94 107 93
3 92 91 68
3 68 91 66
3 31 32 39
3 39 32 40
3 39 40 44
3 44 40 45
3 44 45 48
3 44 48 72
3 72 48 73
3 72 73 75
3 72 75 96
3 71 44 72
3 68 69 70
3 71 39 44
3 95 72 96
3 39 71 69
3 69 71 70
3 92 68 70
3 93 92 70
3 94 70 71
3 94 71 72
3 94 72 95
3 94 95 96
3 405 337 406
3 406 337 338
3 248 249 291
3 291 249 296
3 291 296 295
3 295 296 338
3 295 338 337
3 555 397 589
3 589 397 590
3 590 397 400
3 590 400 591
3 591 400 401
3 591 401 614
3 614 401 405
3 614 405 616
3 616 405 617
3 617 405 406
3 91 89 66
3 66 89 62
3 12 31 62
3 62 31 66
3 31 12 13
3 31 13 32
3 8 61 4
3 4 61 59
3 55 86 81
3 104 81 85
3 104 85 105
3 105 85 87
3 85 86 55
3 12 63 8
3 8 63 61
3 12 62 63
3 63 62 61
3 61 62 60
3 61 60 59
3 59 60 58
3 59 58 55
3 55 58 87
3 55 87 85
3 88 60 89
3 89 60 62
3 88 87 58
3 82 79 52
3 4 59 55
3 0 4 55
3 51 55 81
3 13 12 9
3 9 12 8
3 9 8 5
3 5 8 4
3 5 4 1
3 1 4 0
3 1 0 56
3 56 0 55
3 56 55 52
3 52 55 51
3 52 51 82
3 82 51 81
3 60 88 58
3 86 85 81
3 974 440 981
3 981 440 344
3 344 440 411
3 974 975 440
3 440 975 477
3 477 975 976
3 477 976 964
3 964 965 477
3 477 965 925
3 477 925 926
3 477 926 927
3 477 927 887
3 887 888 477
3 888 850 477
3 477 850 441
3 850 851 441
3 441 851 811
3 441 811 812
3 441 812 348
3 348 812 773
3 773 774 348
3 348 413 441
3 348 346 347
3 347 413 348
3 344 411 412
3 344 412 345
3 997 956 998
3 998 956 957
3 998 957 995
3 995 957 953
3 995 953 992
3 992 953 951
3 1158 1155 1157
3 1157 1155 1152
3 1157 1152 1148
3 1148 1152 1149
3 1149 1152 1119
3 1119 1152 1122
3 1119 1122 1084
3 1084 1122 1086
3 1084 1086 1088
3 1084 1088 1090
3 1090 1088 1128
3 1128 1088 1125
3 1128 1125 1158
3 1158 1125 1155
3 1122 1152 1155
3 1122 1155 1125
3 1086 1122 1125
3 1086 1125 1088
3 981 984 982
3 982 984 985
3 982 985 974
3 974 985 977
3 977 985 988
3 977 988 990
3 977 990 978
3 190 201 191
3 190 191 192
3 192 182 183
3 183 182 191
3 183 191 181
3 192 191 182
3 929 892 893
3 893 892 212
3 893 212 894
3 894 212 895
3 895 212 852
3 852 212 853
3 853 212 854
3 854 212 813
3 813 212 814
3 814 212 213
3 814 213 775
3 775 213 776
3 776 213 679
3 776 679 723
3 723 679 724
3 456 481 455
3 455 481 681
3 455 681 680
3 456 427 481
3 481 427 214
3 214 427 367
3 214 367 366
3 214 366 213
3 213 366 426
3 213 426 679
3 679 426 724
3 724 426 455
3 724 455 680
3 681 481 649
3 649 481 650
3 650 481 482
3 481 214 517
3 517 214 240
3 240 319 517
3 239 273 240
3 240 273 274
3 763 316 239
3 239 316 272
3 763 712 387
3 317 387 388
3 317 388 318
3 388 517 319
3 388 553 517
3 317 318 273
3 273 318 274
3 240 274 275
3 275 319 240
3 387 316 763
3 272 273 239
3 348 261 304
3 304 261 207
3 304 207 209
3 304 209 194
3 304 194 259
3 259 194 258
3 258 194 185
3 258 185 206
3 345 346 344
3 344 346 304
3 304 346 348
3 344 304 303
3 303 304 259
3 303 259 257
3 257 259 258
3 257 258 205
3 205 258 206
3 440 446 445
3 440 445 411
3 411 445 416
3 411 416 412
3 412 416 417
3 412 417 345
3 345 417 358
3 345 358 346
3 346 358 359
3 346 359 360
3 346 360 347
3 347 360 419
3 347 419 413
3 413 419 448
3 413 448 441
3 446 417 445
3 445 417 416
3 358 417 359
3 359 418 360
3 360 418 419
3 419 418 448
3 448 418 447
3 446 479 447
3 447 479 448
3 344 303 302
3 344 302 343
3 343 302 306
3 343 306 350
3 350 306 305
3 350 305 349
3 349 305 308
3 349 308 355
3 262 260 208
3 208 260 204
3 204 260 205
3 302 303 260
3 260 303 257
3 260 257 205
3 306 302 260
3 305 306 262
3 262 306 260
3 308 305 262
3 954 950 764
3 764 950 710
3 764 710 677
3 991 875 950
3 950 875 839
3 991 1007 1023
3 991 1023 1040
3 991 1040 1059
3 991 1059 1093
3 1093 1091 991
3 991 1091 1089
3 1083 940 1089
3 1089 940 942
3 1089 942 944
3 1081 989 1083
3 1083 989 858
3 989 1081 1079
3 989 1079 1057
3 989 1057 1038
3 989 1038 1021
3 1021 1005 989
3 355 653 989
3 989 653 684
3 989 684 726
3 355 308 262
3 355 262 265
3 105 196 265
3 265 196 372
3 265 372 525
3 196 105 87
3 196 87 88
3 88 89 196
3 196 89 197
3 197 89 91
3 197 91 107
3 107 91 92
3 107 92 93
3 107 179 197
3 179 386 197
3 197 386 380
3 380 386 550
3 550 386 587
3 587 386 555
3 587 555 612
3 612 555 643
3 643 555 677
3 677 555 764
3 386 397 555
3 555 615 764
3 764 615 714
3 714 615 717
3 717 615 720
3 717 720 767
3 767 720 769
3 769 720 771
3 265 525 355
3 355 525 560
3 355 560 594
3 355 594 627
3 355 627 653
3 726 729 989
3 989 729 779
3 989 779 818
3 989 818 858
3 858 898 1083
3 1083 898 901
3 1083 901 932
3 932 935 1083
3 1083 935 938
3 1083 938 940
3 944 947 1089
3 1089 947 919
3 1089 919 922
3 922 875 1089
3 1089 875 991
3 839 809 950
3 950 809 758
3 950 758 761
3 761 710 950
3 403 404 438
3 438 404 556
3 438 556 619
3 403 336 404
3 438 619 402
3 402 619 410
3 402 410 335
3 396 330 333
3 396 333 399
3 399 333 400
3 400 333 334
3 400 334 401
3 401 334 337
3 401 337 405
3 396 329 330
3 248 291 287
3 248 287 245
3 245 287 286
3 290 330 287
3 290 287 291
3 330 329 285
3 330 285 286
3 291 295 334
3 334 295 337
3 291 334 333
3 291 333 290
3 290 333 330
3 286 287 330
3 183 172 159
3 183 159 248
3 248 159 249
3 249 159 100
3 100 159 97
3 97 159 96
3 96 159 172
3 96 172 108
3 108 172 171
3 108 171 107
3 107 171 179
3 172 183 181
3 172 181 171
3 171 181 180
3 171 180 179
3 396 399 385
3 385 399 397
3 385 397 386
3 399 400 397
3 200 201 285
3 285 201 286
3 286 201 190
3 190 192 286
3 286 192 245
3 245 192 183
3 245 183 248
3 385 386 198
3 198 386 179
3 199 198 188
3 188 198 179
3 188 179 189
3 201 190 191
3 189 179 191
3 198 199 200
3 200 199 201
3 201 199 188
3 201 188 190
3 190 188 189
3 190 189 191
3 180 181 191
3 179 180 191
3 396 385 329
3 329 385 285
3 285 385 200
3 385 198 200
