ply
format ascii 1.0
element vertex 122
property float x
property float y
property float z
element face 288
property list uchar int vertex_indices
end_header
-0.035120 -0.012876 0.008603
-0.035158 -0.010328 0.041607
-0.035200 -0.000461 0.021136
-0.035200 0.000396 0.027786
-0.035200 -0.000034 0.039095
-0.035120 0.012838 0.008588
-0.035200 0.005103 0.024133
-0.035200 0.005056 0.025218
-0.035148 0.011126 0.041464
-0.032386 -0.015506 0.007985
-0.031440 -0.015727 0.037455
-0.033449 -0.013772 0.006845
-0.033718 -0.012693 0.042602
-0.030306 -0.010249 0.049899
-0.028074 -0.008079 0.059819
-0.025878 -0.006879 0.068189
-0.033492 0.000013 0.048799
-0.030070 0.000002 0.058202
-0.026649 -0.000004 0.067600
-0.033443 0.013795 0.006851
-0.033695 0.012672 0.042671
-0.030328 0.010300 0.049871
-0.027906 0.008285 0.059823
-0.025975 0.007075 0.067740
-0.032977 0.015492 0.007995
-0.033138 0.015674 0.038000
-0.017400 -0.020974 0.007876
-0.015247 -0.022807 0.034526
-0.017357 -0.018380 0.037157
-0.024570 -0.013931 0.006189
-0.015383 -0.013091 0.042418
-0.015343 -0.011471 0.046066
-0.024219 -0.009154 0.060173
-0.021591 -0.008181 0.070059
-0.018661 -0.007273 0.079250
-0.016604 -0.006262 0.089992
-0.016676 0.000425 0.005950
-0.022869 -0.000019 0.077982
-0.018951 0.000036 0.088626
-0.016095 -0.000024 0.096329
-0.023958 0.013988 0.006219
-0.015420 0.013099 0.042460
-0.015323 0.011440 0.046066
-0.024244 0.009155 0.060164
-0.021583 0.008125 0.070196
-0.018699 0.007303 0.079119
-0.016564 0.006129 0.090609
-0.017185 0.017729 0.003845
-0.019841 0.017725 0.006532
-0.015251 0.022371 0.034526
-0.018043 0.017777 0.037049
-0.011167 -0.020982 0.009995
-0.008379 -0.020631 0.018757
-0.009324 -0.020201 0.032023
-0.009544 -0.019141 0.036209
-0.006352 -0.006388 0.003037
-0.007693 -0.007819 0.010414
-0.015000 -0.013854 0.039652
-0.013795 -0.010713 0.048916
-0.013704 -0.008876 0.059111
-0.012770 -0.008170 0.066300
-0.011898 -0.007463 0.075550
-0.012222 -0.006585 0.088777
-0.010057 -0.005465 0.096282
-0.006906 -0.000092 0.002815
-0.008947 -0.000044 0.010115
-0.015000 -0.000453 0.021119
-0.015000 -0.000045 0.027885
-0.015000 0.000006 0.040791
-0.013300 -0.000024 0.052120
-0.013300 0.000031 0.062723
-0.011600 -0.000024 0.072780
-0.011600 0.000025 0.083373
-0.011952 -0.000000 0.091554
-0.010340 0.000035 0.103137
-0.009902 0.000017 0.105191
-0.006259 0.006147 0.003060
-0.007670 0.007529 0.010439
-0.015000 0.005105 0.024143
-0.015000 0.005056 0.025218
-0.015000 0.013305 0.040684
-0.013748 0.010671 0.049058
-0.013668 0.008772 0.059707
-0.012803 0.008186 0.066361
-0.011869 0.007392 0.075834
-0.012271 0.006585 0.088741
-0.010220 0.005442 0.096378
-0.011695 0.019434 0.002650
-0.012955 0.019641 0.011856
-0.012578 0.019793 0.015573
-0.012587 0.019727 0.032979
-0.011265 0.019099 0.036420
0.000612 -0.022230 0.023407
0.001468 -0.022254 0.028298
0.000867 -0.021061 0.037232
0.000609 -0.007750 0.002205
0.000209 -0.009632 0.009550
0.000469 0.000033 0.002449
0.000006 -0.000050 0.009950
0.000511 0.007559 0.002130
0.000310 0.009488 0.009610
0.002018 0.022893 0.009682
0.002408 0.016922 0.015150
-0.003496 0.021855 0.030303
0.003332 0.026763 0.008145
0.014188 -0.022174 0.010897
0.009011 -0.022140 0.020110
0.005585 -0.020878 0.028747
0.006806 -0.007187 0.001791
0.008002 -0.008235 0.009267
0.007775 -0.000066 0.001962
0.009626 -0.000124 0.009545
0.006664 0.006925 0.001750
0.008182 0.007863 0.009459
0.009992 0.023352 0.008172
0.010866 0.026986 0.008258
0.022198 -0.022525 0.008935
0.022437 0.022015 0.008941
0.027543 -0.018550 0.008948
0.028516 -0.014435 0.008959
0.028762 0.014181 0.008956
0.027431 0.018323 0.008950
3 121 117 113
3 120 111 119
3 51 105 96
3 109 96 105
3 96 56 51
3 77 100 88
3 118 119 105
3 111 120 113
3 120 121 113
3 119 111 109
3 119 109 105
3 56 65 51
3 88 65 77
3 51 65 88
3 88 100 101
3 116 118 105
3 100 113 101
3 114 101 117
3 101 113 117
3 89 90 88
3 90 101 88
3 84 83 85
3 86 74 85
3 74 63 62
3 60 61 62
3 42 81 80
3 42 80 41
3 12 13 1
3 33 15 34
3 38 34 35
3 38 35 39
3 35 62 63
3 15 33 34
3 15 14 33
3 74 35 63
3 35 74 39
3 38 37 34
3 22 44 23
3 23 44 45
3 44 22 23
3 39 74 46
3 74 86 46
3 46 86 85
3 37 38 45
3 46 45 38
3 39 46 38
3 44 23 45
3 8 21 20
3 58 13 31
3 58 32 13
3 13 32 14
3 14 32 33
3 33 32 59
3 59 32 58
3 60 33 59
3 34 33 60
3 62 35 34
3 62 34 60
3 83 45 85
3 46 85 45
3 44 43 22
3 82 43 83
3 83 43 44
3 83 44 45
3 21 22 81
3 81 22 82
3 22 43 82
3 21 81 42
3 81 69 58
3 60 70 83
3 83 70 82
3 82 69 81
3 69 70 58
3 58 70 59
3 70 69 82
3 59 70 60
3 83 71 60
3 62 72 85
3 61 72 62
3 72 71 84
3 60 71 61
3 71 72 61
3 84 71 83
3 85 72 84
3 85 73 62
3 62 73 74
3 74 73 85
3 21 16 13
3 1 16 8
3 13 16 1
3 16 21 8
3 13 17 21
3 22 17 14
3 21 17 22
3 14 18 22
3 44 18 33
3 22 18 44
3 33 18 15
3 15 18 14
3 33 37 44
3 34 37 33
3 44 37 45
3 17 13 14
3 57 68 58
3 80 68 57
3 58 68 81
3 81 68 80
3 50 25 20
3 42 41 21
3 21 41 20
3 41 50 20
3 30 31 13
3 13 12 30
3 12 10 30
3 10 28 30
3 30 57 58
3 58 31 30
3 50 49 48
3 89 88 90
3 48 49 88
3 49 90 88
3 87 47 88
3 47 48 88
3 48 24 50
3 24 25 50
3 105 51 116
3 27 26 51
3 27 51 53
3 28 10 27
3 10 9 27
3 27 9 26
3 11 12 0
3 12 1 0
3 9 10 11
3 10 12 11
3 8 4 1
3 5 4 8
3 2 6 5
3 3 1 4
3 3 2 1
3 1 2 0
3 0 2 5
3 5 6 7
3 7 3 5
3 5 3 4
3 25 24 20
3 24 19 20
3 5 8 19
3 8 20 19
3 26 9 29
3 9 11 29
3 29 51 26
3 26 51 9
3 51 26 9
3 0 5 11
3 5 19 11
3 19 48 40
3 24 48 19
3 94 54 53
3 27 53 28
3 94 53 93
3 54 28 53
3 107 105 106
3 50 41 91
3 54 30 28
3 41 80 91
3 91 80 54
3 80 57 54
3 54 57 30
3 107 93 106
3 93 92 106
3 107 106 105
3 54 94 28
3 54 28 94
3 91 90 50
3 50 90 49
3 106 92 105
3 92 52 51
3 105 92 51
3 51 52 53
3 88 100 48
3 11 19 40
3 100 65 48
3 48 65 36
3 29 36 51
3 36 65 51
3 51 65 96
3 48 36 40
3 40 36 11
3 36 29 11
3 109 111 119
3 118 116 109
3 117 113 114
3 113 100 114
3 114 100 88
3 51 96 116
3 109 119 118
3 119 111 120
3 96 109 116
3 111 113 120
3 113 121 120
3 117 121 113
3 88 101 114
3 106 92 107
3 107 92 93
3 91 103 90
3 103 101 90
3 64 99 76
3 55 95 64
3 112 110 113
3 110 111 113
3 112 113 99
3 113 100 99
3 99 100 97
3 100 98 97
3 97 98 110
3 98 111 110
3 97 95 98
3 95 96 98
3 97 98 64
3 98 65 64
3 64 65 55
3 65 56 55
3 55 56 95
3 56 96 95
3 99 97 100
3 97 98 100
3 99 100 76
3 100 77 76
3 76 77 64
3 77 65 64
3 64 65 97
3 65 98 97
3 110 108 111
3 108 109 111
3 110 111 97
3 111 98 97
3 97 98 95
3 98 96 95
3 95 96 108
3 96 109 108
3 36 64 65
3 65 64 36
3 64 65 99
3 65 100 99
3 95 108 96
3 96 108 109
3 108 110 109
3 109 110 111
3 110 112 111
3 111 112 113
3 112 99 113
3 113 99 100
3 95 96 64
3 96 65 64
3 88 48 87
3 48 47 87
3 106 52 92
3 2 66 6
3 66 78 6
3 6 78 7
3 78 79 7
3 7 79 3
3 79 67 3
3 3 67 2
3 67 66 2
3 91 54 53
3 67 53 52
3 66 88 78
3 91 78 88
3 67 79 91
3 91 79 78
3 66 67 52
3 88 66 51
3 53 67 91
3 51 66 52
3 51 106 105
3 106 51 52
3 90 89 103
3 89 102 103
3 103 102 101
3 101 102 88
3 102 89 88
3 90 103 91
3 90 88 89
3 88 90 91
3 93 54 94
3 54 93 53
