ply
format ascii 1.0
element vertex 102
property float x
property float y
property float z
element face 214
property list uchar int vertex_indices
end_header
-0.087206 -0.007067 0.063951
-0.088861 -0.010305 0.070433
-0.089349 -0.009211 0.078949
-0.086252 -0.007054 0.086537
-0.087584 -0.000900 0.063551
-0.092748 0.000643 0.069697
-0.091486 -0.000675 0.079923
-0.086763 -0.000450 0.086794
-0.087211 0.007067 0.063954
-0.088919 0.010334 0.070338
-0.089236 0.009401 0.078945
-0.086250 0.007079 0.086529
-0.079413 -0.008696 0.061753
-0.081066 -0.012235 0.067468
-0.082588 -0.012207 0.081876
-0.079816 -0.009739 0.089944
-0.077008 -0.006934 0.095765
-0.080165 0.000000 0.060216
-0.081690 -0.000643 0.092095
-0.076991 -0.000643 0.096442
-0.079278 0.008977 0.061963
-0.081387 0.012125 0.067209
-0.082834 0.012090 0.082175
-0.079796 0.009886 0.089898
-0.077008 0.006934 0.095765
-0.069757 -0.009768 0.060250
-0.073019 -0.012456 0.065554
-0.070294 -0.011478 0.091167
-0.070375 -0.006823 0.095730
-0.069570 0.000818 0.057078
-0.070234 -0.000000 0.096174
-0.069852 0.009871 0.060247
-0.072653 0.012468 0.065606
-0.070226 0.011459 0.091200
-0.070345 0.006836 0.095724
-0.057142 -0.006595 0.054362
-0.060481 -0.010442 0.058623
-0.055080 -0.012500 0.084500
-0.060037 -0.009991 0.090989
-0.064021 -0.005621 0.095197
-0.058386 0.001500 0.054315
-0.061841 -0.004500 0.055173
-0.059334 -0.000000 0.094227
-0.064216 0.000000 0.095323
-0.057137 0.006586 0.054359
-0.060429 0.010478 0.058491
-0.055080 0.012500 0.084500
-0.060037 0.009991 0.090989
-0.064021 0.005621 0.095197
-0.049254 -0.008061 0.052852
-0.050521 -0.011896 0.057809
-0.048339 -0.012241 0.082901
-0.050396 -0.008995 0.088854
-0.049682 -0.000711 0.051758
-0.050142 -0.000000 0.090973
-0.049189 0.008141 0.052897
-0.050522 0.011777 0.057395
-0.048339 0.012241 0.082901
-0.050396 0.008995 0.088854
-0.035630 -0.006350 0.042176
-0.039656 -0.009416 0.049906
-0.041916 -0.012394 0.056234
-0.037394 -0.012448 0.074389
-0.039385 -0.010233 0.080672
-0.043178 -0.007626 0.086406
-0.035724 0.000348 0.041524
-0.039588 -0.000044 0.046789
-0.037122 -0.000180 0.083268
-0.042431 -0.000000 0.086917
-0.035624 0.006325 0.042106
-0.039715 0.009620 0.050083
-0.041916 0.012385 0.056236
-0.037394 0.012448 0.074389
-0.039385 0.010233 0.080672
-0.043178 0.007626 0.086406
-0.031868 -0.010425 0.040416
-0.032434 -0.012066 0.048096
-0.028772 -0.011785 0.070473
-0.031816 -0.007709 0.078136
-0.026913 -0.000050 0.039469
-0.029233 0.000180 0.077442
-0.031953 0.010465 0.040439
-0.032669 0.011938 0.047768
-0.028698 0.011796 0.070371
-0.031835 0.007709 0.078150
-0.023037 -0.009282 0.039786
-0.018971 -0.012222 0.062903
-0.020400 -0.008820 0.069119
-0.023657 0.000384 0.039147
-0.020782 -0.000000 0.071558
-0.023046 0.009529 0.039682
-0.018879 0.012217 0.062880
-0.020400 0.008820 0.069119
-0.007043 -0.007011 0.040536
-0.010455 -0.009927 0.061982
-0.012527 -0.006869 0.065966
-0.006290 -0.000143 0.040877
-0.005754 0.000000 0.063000
-0.012391 -0.000000 0.066499
-0.006872 0.006839 0.040537
-0.010444 0.009900 0.062006
-0.012527 0.006869 0.065966
3 41 29 40
3 96 93 88
3 93 85 88
3 75 79 85
3 85 79 88
3 84 73 67
3 84 67 80
3 74 58 68
3 74 68 73
3 73 68 67
3 58 54 68
3 33 23 24
3 33 24 34
3 34 24 19
3 34 19 30
3 30 43 34
3 34 43 48
3 34 48 47
3 34 47 33
3 48 43 47
3 47 43 42
3 47 42 54
3 47 54 58
3 84 80 92
3 92 80 89
3 97 100 98
3 98 100 101
3 89 98 92
3 92 98 101
3 91 83 92
3 92 83 84
3 83 72 73
3 83 73 84
3 57 46 47
3 57 47 58
3 73 57 58
3 73 58 74
3 100 91 92
3 100 92 101
3 30 19 28
3 28 19 16
3 28 16 27
3 27 16 15
3 54 52 68
3 68 52 64
3 87 78 77
3 86 87 77
3 63 77 78
3 38 37 51
3 38 51 52
3 95 94 98
3 98 94 97
3 95 98 87
3 98 89 87
3 87 89 80
3 87 80 78
3 78 80 67
3 78 67 63
3 67 68 63
3 63 68 64
3 52 54 38
3 38 54 42
3 38 42 43
3 38 43 39
3 39 43 28
3 39 28 38
3 38 28 27
3 43 30 28
3 95 87 94
3 94 87 86
3 63 64 52
3 63 52 51
3 63 62 77
3 75 76 60
3 75 60 59
3 50 36 35
3 50 35 49
3 26 13 25
3 13 1 12
3 12 1 0
3 2 15 3
3 16 19 18
3 16 18 15
3 15 18 3
3 18 7 3
3 3 7 2
3 2 7 6
3 2 6 1
3 1 6 5
3 5 4 1
3 1 4 0
3 0 4 12
3 12 4 17
3 29 25 17
3 17 25 12
3 41 25 29
3 40 36 41
3 53 35 40
3 40 35 36
3 53 49 35
3 53 66 49
3 49 66 60
3 65 59 66
3 66 59 60
3 2 14 15
3 49 60 50
3 50 60 61
3 13 12 25
3 41 36 25
3 94 93 96
3 94 96 97
3 93 75 85
3 75 93 94
3 75 94 76
3 76 94 86
3 76 86 60
3 60 86 61
3 61 86 77
3 61 77 50
3 50 77 62
3 50 62 63
3 50 63 36
3 36 63 51
3 36 51 25
3 25 51 37
3 37 38 25
3 25 38 26
3 26 38 14
3 14 38 27
3 14 27 15
3 26 14 13
3 13 14 2
3 13 2 1
3 66 69 65
3 69 66 70
3 70 82 81
3 53 70 66
3 53 55 70
3 40 55 53
3 40 44 55
3 29 44 40
3 55 56 70
3 70 56 71
3 17 31 29
3 20 17 8
3 24 23 18
3 24 18 19
3 17 4 8
3 20 8 9
3 20 9 21
3 8 4 5
3 8 5 9
3 9 5 10
3 10 5 6
3 10 6 7
3 10 7 11
3 10 11 23
3 10 23 22
3 18 11 7
3 32 31 20
3 11 18 23
3 31 17 20
3 31 45 29
3 29 45 44
3 45 56 44
3 44 56 55
3 81 69 70
3 20 21 32
3 97 96 100
3 100 96 99
3 23 33 22
3 22 33 47
3 22 47 32
3 32 47 31
3 31 47 46
3 31 46 57
3 31 57 45
3 45 57 73
3 45 73 56
3 56 73 72
3 56 72 83
3 56 83 71
3 71 83 91
3 71 91 70
3 70 91 82
3 82 91 100
3 82 100 81
3 81 100 99
3 81 99 90
3 32 21 22
3 22 21 10
3 10 21 9
3 99 88 90
3 88 99 96
3 79 75 81
3 59 65 75
3 75 65 81
3 81 65 69
3 90 88 79
3 90 79 81
3 85 93 88
3 93 96 88
3 88 79 85
3 96 85 90
3 96 90 99
3 85 96 93
3 96 99 88
3 88 99 90
3 88 90 79
3 85 88 90
3 85 79 88
3 88 79 90
3 65 79 66
3 66 79 65
