ply
format ascii 1.0
element vertex 101
property float x
property float y
property float z
element face 250
property list uchar int vertex_indices
end_header
-0.035089 -0.005542 0.007632
-0.035133 -0.005602 0.022525
-0.035133 -0.005561 0.037050
-0.035183 -0.000337 0.007829
-0.035200 -0.000886 0.020555
-0.035199 0.000485 0.027241
-0.035200 -0.000793 0.037050
-0.035087 0.005592 0.007652
-0.035163 0.005328 0.023200
-0.035121 0.005658 0.037050
-0.031244 -0.007199 0.005000
-0.032968 -0.008050 0.006143
-0.033707 -0.008976 0.022525
-0.030968 -0.010846 0.036958
-0.032200 -0.000353 0.005000
-0.033809 -0.000526 0.005697
-0.025100 -0.000589 0.020297
-0.025100 0.000056 0.027231
-0.027170 0.000020 0.038221
-0.031114 0.007348 0.005000
-0.032901 0.008112 0.006146
-0.031396 0.007963 0.022710
-0.025100 0.005056 0.025090
-0.031041 0.010818 0.036953
-0.018360 -0.017417 0.008284
-0.015000 -0.016488 0.016400
-0.015056 -0.017780 0.029682
-0.016646 -0.020351 0.036301
-0.022025 -0.014990 0.005058
-0.023081 -0.010851 0.039113
-0.016676 -0.001228 0.005000
-0.015000 -0.000904 0.020367
-0.015000 0.000314 0.027262
-0.021047 -0.000009 0.037967
-0.022027 0.014991 0.005058
-0.015000 0.005234 0.023213
-0.023151 0.010953 0.039043
-0.018076 0.017544 0.003800
-0.018654 0.018317 0.006744
-0.015251 0.022589 0.027257
-0.016560 0.020098 0.036254
-0.011977 -0.020681 0.005000
-0.010316 -0.020499 0.010514
-0.008747 -0.021535 0.015096
-0.009510 -0.019242 0.032581
-0.012116 -0.020665 0.036786
-0.006393 -0.006378 0.002204
-0.008016 -0.007942 0.009710
-0.006244 -0.005730 0.041850
-0.007063 0.000028 0.002004
-0.009364 0.000016 0.009427
-0.006081 0.000187 0.038557
-0.006393 0.006378 0.002204
-0.008016 0.007942 0.009710
-0.006244 0.005730 0.041850
-0.012216 0.020654 0.003018
-0.012656 0.020461 0.011192
-0.012512 0.021367 0.015108
-0.012776 0.019228 0.032551
-0.012184 0.020693 0.036719
-0.000473 -0.022961 0.006039
0.003867 -0.017689 0.031643
-0.000248 -0.020239 0.036988
0.000227 -0.008610 0.001317
0.000246 -0.009707 0.009442
0.000287 -0.000000 0.001536
-0.000021 -0.000001 0.009000
0.000240 0.008627 0.001323
0.000233 0.009705 0.009442
0.001426 0.023791 0.005000
0.001564 0.022396 0.009168
-0.003794 0.019081 0.031668
-0.004945 0.021999 0.035776
0.003283 0.026641 0.005000
0.003647 0.026530 0.010400
0.013214 -0.020110 0.010254
0.010171 -0.020385 0.019738
0.006493 -0.020392 0.026811
0.007294 -0.007543 0.001082
0.007991 -0.008303 0.009808
0.008888 0.000002 0.001199
0.009765 -0.000026 0.009551
0.007300 0.007546 0.001100
0.008041 0.008308 0.009843
0.011966 0.022059 0.005000
0.010084 0.023536 0.007265
0.005061 0.027273 0.005000
0.010512 0.027206 0.007378
0.021519 -0.020591 0.005000
0.021785 -0.022440 0.008324
0.021695 0.020533 0.005000
0.022388 0.022357 0.008199
0.026075 -0.017261 0.005000
0.027508 -0.018523 0.008100
0.026987 -0.014211 0.005000
0.028673 -0.014350 0.008339
0.028966 0.000000 0.008000
0.026987 0.014211 0.005000
0.028571 0.014323 0.008433
0.026108 0.017206 0.005000
0.027508 0.018519 0.008104
3 85 90 84
3 90 85 91
3 38 68 70
3 24 50 38
3 75 64 24
3 75 89 93
3 93 95 75
3 75 95 81
3 81 95 98
3 81 98 83
3 83 98 91
3 83 91 85
3 83 85 70
3 83 70 68
3 98 100 91
3 81 79 75
3 75 79 64
3 24 64 47
3 24 47 50
3 38 50 53
3 38 53 68
3 70 69 74
3 69 73 74
3 87 86 74
3 74 86 73
3 86 87 73
3 73 87 74
3 85 84 69
3 85 69 70
3 59 58 40
3 40 58 39
3 23 20 21
3 21 20 7
3 21 7 8
3 8 7 4
3 4 7 3
3 9 8 5
3 5 6 9
3 8 9 21
3 21 9 23
3 24 26 11
3 11 26 27
3 27 13 11
3 4 3 0
3 4 0 1
3 1 0 12
3 12 0 11
3 12 11 13
3 12 13 2
3 12 2 1
3 1 2 4
3 4 2 6
3 36 33 29
3 36 18 33
3 29 33 18
3 18 36 33
3 33 36 54
3 33 54 51
3 51 29 48
3 51 54 36
3 51 36 29
3 51 48 33
3 33 48 29
3 33 29 18
3 33 51 36
3 36 51 59
3 29 33 13
3 13 33 18
3 13 18 23
3 13 23 6
3 13 6 2
3 23 9 6
3 36 59 23
3 23 59 40
3 45 13 27
3 13 45 29
3 44 77 61
3 62 45 44
3 62 44 61
3 4 16 8
3 8 16 21
3 8 21 22
3 8 22 5
3 5 22 17
3 5 17 4
3 4 17 16
3 31 16 17
3 31 17 32
3 32 17 22
3 32 22 35
3 35 22 21
3 35 21 16
3 35 16 31
3 27 32 40
3 26 32 27
3 26 25 31
3 31 25 24
3 31 24 38
3 31 38 35
3 35 38 40
3 35 40 32
3 26 31 32
3 46 63 49
3 52 49 67
3 83 82 81
3 81 82 80
3 81 80 79
3 79 80 78
3 66 65 64
3 64 65 63
3 68 67 66
3 66 67 65
3 82 83 67
3 67 83 68
3 67 68 65
3 65 68 66
3 65 66 80
3 80 66 81
3 67 68 52
3 52 68 53
3 52 53 49
3 49 53 50
3 49 50 65
3 65 50 66
3 65 66 49
3 49 66 50
3 49 50 46
3 46 50 47
3 46 47 63
3 63 47 64
3 80 81 65
3 65 81 66
3 65 66 63
3 63 66 64
3 63 64 78
3 78 64 79
3 23 18 36
3 36 18 33
3 6 5 4
3 58 56 71
3 71 56 70
3 33 29 51
3 51 29 45
3 38 20 39
3 39 20 40
3 23 40 20
3 56 38 39
3 39 58 56
3 56 58 57
3 57 58 56
3 71 72 59
3 59 51 45
3 70 56 71
3 71 56 58
3 69 70 73
3 73 70 74
3 75 42 76
3 76 42 25
3 25 42 24
3 24 42 75
3 98 97 100
3 100 97 99
3 100 99 90
3 100 90 91
3 98 96 97
3 97 96 94
3 94 96 95
3 95 96 98
3 89 88 93
3 93 88 92
3 92 94 93
3 93 94 95
3 89 75 88
3 88 75 60
3 88 60 41
3 41 60 42
3 42 60 89
3 89 60 75
3 10 41 28
3 28 41 42
3 28 42 24
3 24 11 28
3 28 11 10
3 19 14 20
3 20 14 15
3 3 7 15
3 15 7 20
3 55 56 69
3 69 56 70
3 0 3 15
3 0 15 11
3 15 14 10
3 10 11 15
3 89 75 42
3 42 75 76
3 42 76 43
3 43 76 77
3 43 77 44
3 42 43 44
3 98 96 95
3 95 96 98
3 76 25 77
3 77 25 26
3 77 26 61
3 44 45 61
3 45 44 27
3 27 44 26
3 26 44 61
3 61 45 62
3 45 27 59
3 59 27 40
3 40 58 59
3 38 56 40
3 40 56 58
3 70 56 38
3 58 71 59
3 44 45 27
3 27 26 44
3 42 44 24
3 24 44 26
3 69 84 67
3 90 82 84
3 90 99 97
3 94 80 97
3 94 88 78
3 94 92 88
3 41 63 88
3 10 30 41
3 41 30 49
3 41 49 63
3 30 10 14
3 30 14 19
3 19 37 30
3 37 55 30
3 30 55 49
3 49 55 67
3 67 55 69
3 63 78 88
3 94 78 80
3 97 80 82
3 97 82 90
3 84 82 67
3 58 59 72
3 58 72 71
3 38 56 55
3 20 38 34
3 20 34 19
3 19 34 38
3 19 38 37
3 37 38 55
