ply
format ascii 1.0
element vertex 84
property float x
property float y
property float z
element face 232
property list uchar int vertex_indices
end_header
-0.026673 -0.046529 -0.025658
-0.027596 -0.046941 -0.020000
-0.026673 -0.046529 -0.014342
-0.028325 -0.039613 -0.025726
-0.028777 -0.039008 -0.020000
-0.028325 -0.039613 -0.014274
-0.028525 -0.032601 -0.025699
-0.028855 -0.032116 -0.020147
-0.028495 -0.032594 -0.014301
-0.025498 -0.022153 -0.025394
-0.025898 -0.021691 -0.020679
-0.025210 -0.021247 -0.014746
-0.019529 -0.047652 -0.025731
-0.019797 -0.049192 -0.020000
-0.019529 -0.047652 -0.014269
-0.023485 -0.043910 -0.025582
-0.021001 -0.043747 -0.020000
-0.023485 -0.043910 -0.014418
-0.023229 -0.027246 -0.025641
-0.022469 -0.027615 -0.020000
-0.023229 -0.027246 -0.014359
-0.019086 -0.018991 -0.025707
-0.018509 -0.019375 -0.019789
-0.018431 -0.018064 -0.013677
-0.016486 -0.017782 0.002830
-0.016192 -0.016874 0.005670
-0.018508 -0.010214 -0.025652
-0.019811 -0.010695 -0.019527
-0.020605 -0.013342 -0.013165
-0.018392 -0.009093 0.000373
-0.019242 -0.010960 0.005637
-0.016090 -0.002344 0.003019
-0.015726 -0.003108 0.005449
-0.011786 -0.047248 -0.025735
-0.010420 -0.048273 -0.020000
-0.011786 -0.047248 -0.014265
-0.009830 -0.042664 -0.025705
-0.011154 -0.042876 -0.020009
-0.009785 -0.042868 -0.014297
-0.007435 -0.034929 -0.025405
-0.006400 -0.031568 -0.017484
-0.005573 -0.030842 -0.013552
-0.005236 -0.029855 0.002738
-0.013380 -0.015940 -0.025671
-0.012786 -0.016638 -0.022924
-0.012864 -0.016719 -0.009481
-0.010541 -0.017452 0.001173
-0.009587 -0.017255 0.005684
-0.012871 -0.014737 -0.025485
-0.012236 -0.014605 -0.023039
-0.012079 -0.014752 -0.009333
-0.009589 -0.011774 0.000335
-0.005871 -0.006881 0.006000
-0.009041 0.002489 0.002715
-0.010827 0.001606 0.005753
-0.007972 0.007444 0.003276
-0.007725 0.007149 0.005630
-0.003638 -0.037713 -0.025524
-0.002996 -0.038104 -0.018915
-0.003545 -0.037548 -0.014494
-0.001496 -0.028079 -0.025685
-0.000482 -0.029793 -0.019978
-0.001880 -0.032704 -0.013219
-0.000634 -0.028451 0.001497
-0.002532 -0.029640 0.005655
-0.002467 -0.024617 -0.025393
-0.002792 -0.024254 -0.022655
-0.003028 -0.024229 -0.009333
-0.001911 -0.023407 0.000162
0.000200 -0.021040 0.005728
-0.002253 -0.006832 0.002269
-0.000222 -0.007984 0.005998
-0.000029 0.000042 0.001780
0.000018 -0.000042 0.006000
0.000975 0.008288 0.002864
-0.000823 0.008322 0.005692
0.005616 -0.016943 0.003607
0.005438 -0.016017 0.005298
0.007011 -0.008378 0.002805
0.006574 -0.009640 0.005677
0.008035 -0.000936 0.002786
0.008073 0.000495 0.005753
0.006351 0.006622 0.002919
0.006384 0.006444 0.005547
3 52 54 30
3 52 30 47
3 47 30 25
3 52 47 71
3 71 47 69
3 70 51 29
3 70 29 51
3 51 29 31
3 51 31 53
3 55 74 53
3 53 74 72
3 82 80 72
3 70 78 76
3 70 76 68
3 70 68 46
3 70 46 51
3 78 70 72
3 53 72 70
3 53 70 51
3 40 41 42
3 46 24 45
3 45 24 23
3 45 23 22
3 22 44 45
3 45 44 46
3 63 61 62
3 62 61 42
3 42 61 40
3 42 63 62
3 74 82 72
3 55 53 72
3 80 78 72
3 51 70 72
3 51 49 29
3 29 49 27
3 63 61 68
3 68 61 66
3 15 12 0
3 15 0 3
3 21 26 43
3 23 24 29
3 23 29 28
3 41 38 62
3 14 17 2
3 2 17 5
3 42 41 63
3 63 41 62
3 24 46 47
3 24 47 25
3 63 64 68
3 64 69 68
3 68 69 46
3 69 47 46
3 63 42 64
3 28 29 27
3 27 29 28
3 7 10 6
3 6 10 9
3 6 9 21
3 22 27 21
3 21 27 26
3 9 10 22
3 9 22 21
3 62 63 61
3 61 63 62
3 7 6 4
3 4 6 3
3 4 3 1
3 1 3 0
3 1 0 13
3 13 0 12
3 13 12 34
3 34 12 33
3 34 33 37
3 37 33 36
3 57 36 60
3 58 37 57
3 57 37 36
3 57 60 58
3 58 60 61
3 53 31 54
3 54 31 32
3 54 32 30
3 55 53 56
3 56 53 54
3 30 32 29
3 29 32 31
3 74 55 75
3 75 55 56
3 27 28 29
3 74 75 83
3 74 83 82
3 81 80 83
3 83 80 82
3 23 28 27
3 23 27 22
3 22 27 10
3 10 27 22
3 11 23 10
3 10 23 22
3 8 23 11
3 7 8 11
3 7 11 10
3 76 78 77
3 63 68 64
3 64 68 69
3 68 76 69
3 69 76 77
3 78 80 79
3 80 81 79
3 69 79 71
3 79 69 77
3 78 79 77
3 37 38 34
3 34 38 35
3 34 35 13
3 13 35 14
3 13 14 1
3 1 14 2
3 1 2 4
3 4 2 5
3 4 5 7
3 7 5 8
3 61 63 62
3 62 59 61
3 61 59 58
3 62 38 59
3 59 38 37
3 59 37 58
3 45 46 44
3 49 51 50
3 49 50 44
3 44 50 45
3 50 51 45
3 51 46 45
3 68 66 67
3 68 67 62
3 68 62 63
3 63 62 61
3 62 67 66
3 61 62 66
3 72 70 80
3 80 70 78
3 81 80 78
3 81 78 79
3 79 78 70
3 79 70 71
3 71 70 73
3 73 70 72
3 73 72 81
3 81 72 80
3 72 80 74
3 74 80 82
3 83 82 80
3 83 80 81
3 81 80 73
3 73 80 72
3 73 72 75
3 75 72 74
3 75 74 83
3 83 74 82
3 72 53 51
3 71 70 52
3 52 70 51
3 52 51 54
3 54 51 53
3 54 53 73
3 73 53 72
3 73 72 71
3 71 72 70
3 72 74 55
3 73 72 54
3 54 72 53
3 54 53 56
3 56 53 55
3 56 55 75
3 75 55 74
3 75 74 73
3 73 74 72
3 7 22 19
3 19 22 20
3 20 22 23
3 23 8 20
3 20 8 19
3 19 8 7
3 13 14 16
3 16 14 37
3 14 38 37
3 14 35 38
3 17 16 5
3 16 4 5
3 5 4 8
3 4 7 8
3 17 14 16
3 16 14 13
3 38 41 37
3 37 41 40
3 60 65 61
3 61 65 66
3 60 61 65
3 61 66 65
3 40 61 39
3 39 61 60
3 39 60 36
3 39 36 40
3 40 36 37
3 15 3 16
3 16 3 4
3 6 7 3
3 3 7 4
3 16 13 12
3 36 33 12
3 37 36 16
3 16 36 12
3 16 12 13
3 12 15 16
3 22 7 19
3 19 7 18
3 18 7 6
3 6 21 18
3 18 21 19
3 19 21 22
3 43 44 21
3 21 44 22
3 44 43 49
3 49 43 48
3 43 26 48
3 48 26 49
3 49 26 27
3 64 42 63
3 29 24 30
3 30 24 25
