ply
format ascii 1.0
element vertex 75
property float x
property float y
property float z
element face 138
property list uchar int vertex_indices
end_header
-0.006633 -0.075305 -0.005074
-0.009894 -0.080350 -0.000012
-0.007502 -0.075230 0.005102
-0.009945 -0.071312 -0.005629
-0.008598 -0.069143 0.000054
-0.009919 -0.071177 0.005677
-0.008644 -0.061564 -0.006705
-0.008300 -0.059017 -0.000038
-0.008701 -0.061492 0.006710
-0.007946 -0.050332 -0.007305
-0.008300 -0.053090 0.000043
-0.008002 -0.049700 0.006755
-0.007929 -0.041251 -0.008131
-0.008300 -0.042988 0.000007
-0.007800 -0.041265 0.008306
-0.007871 -0.028935 -0.009783
-0.008300 -0.032955 0.000011
-0.007845 -0.028875 0.009825
-0.009615 -0.020879 -0.019069
-0.007857 -0.023134 -0.011918
-0.008300 -0.022919 0.000029
-0.007977 -0.022695 0.011894
-0.009598 -0.021100 0.019206
-0.008136 -0.009783 -0.019807
-0.009123 -0.014866 -0.014066
-0.008891 -0.014377 0.013742
-0.008026 -0.009204 0.019401
-0.008281 0.000854 -0.022608
-0.008137 0.000816 0.022130
-0.006069 0.006816 -0.020689
-0.006069 0.006816 0.019211
-0.004537 -0.075824 -0.000048
-0.002930 -0.069830 -0.005651
-0.002329 -0.071571 0.000038
-0.002826 -0.069431 0.005735
0.000773 -0.059490 -0.006908
0.002686 -0.061186 -0.000075
0.000854 -0.059365 0.006904
0.000274 -0.049227 -0.008025
0.004326 -0.054074 0.000232
0.000248 -0.049382 0.008015
0.001649 -0.039335 -0.008704
0.001754 -0.039428 0.008694
0.002970 -0.028866 -0.010070
0.002976 -0.029110 0.010032
0.003149 -0.018869 -0.020223
0.004816 -0.023791 -0.011653
0.004825 -0.023678 0.011749
0.003146 -0.018867 0.020223
-0.000618 -0.007152 -0.021206
-0.000530 -0.007146 0.020108
-0.000258 -0.000054 -0.021407
-0.000536 -0.000050 0.020000
-0.000877 0.007009 -0.021741
-0.000908 0.007011 0.020536
0.005275 -0.045121 0.000012
0.005456 -0.041793 -0.006352
0.005642 -0.041654 0.000020
0.005467 -0.041522 0.006439
0.006165 -0.029003 -0.008858
0.006699 -0.031685 0.000011
0.006110 -0.028778 0.009014
0.007075 -0.019082 -0.018293
0.006756 -0.020618 -0.012576
0.007483 -0.024278 -0.000051
0.006908 -0.020022 0.012429
0.006913 -0.019739 0.018554
0.007216 -0.012116 -0.018301
0.005558 -0.014872 -0.014324
0.005975 -0.014514 0.013915
0.007417 -0.011736 0.017518
0.007263 -0.000738 -0.021386
0.007287 -0.000835 0.020185
0.006324 0.006331 -0.020650
0.006324 0.006331 0.019250
3 47 44 61
3 47 61 65
3 62 63 19
3 21 22 19
3 22 18 19
3 62 19 18
3 65 66 21
3 66 22 21
3 1 3 0
3 38 35 9
3 9 35 6
3 3 6 32
3 32 6 35
3 12 41 38
3 12 38 9
3 43 41 15
3 15 41 12
3 34 37 5
3 11 37 40
3 11 8 37
3 37 8 5
3 14 11 40
3 40 42 14
3 14 42 17
3 17 42 44
3 26 50 70
3 67 49 23
3 21 25 18
3 25 24 18
3 24 23 18
3 47 65 21
3 44 47 21
3 21 17 44
3 43 15 19
3 19 46 43
3 63 46 19
3 26 70 69
3 25 26 69
3 24 68 23
3 68 67 23
3 22 26 21
3 26 25 21
3 60 64 20
3 64 60 20
3 57 60 16
3 60 57 16
3 55 57 13
3 55 13 57
3 36 39 10
3 36 10 39
3 36 35 56
3 41 56 35
3 41 35 38
3 43 59 41
3 41 59 56
3 66 65 70
3 70 65 69
3 68 69 63
3 69 65 63
3 68 63 67
3 67 63 62
3 9 12 6
3 6 12 9
3 14 8 11
3 8 14 11
3 67 23 49
3 4 3 1
3 2 5 1
3 5 4 1
3 1 0 3
3 3 32 1
3 32 33 1
3 1 33 31
3 33 35 36
3 32 35 33
3 36 37 33
3 33 37 34
3 1 5 2
3 31 33 1
3 33 34 1
3 1 34 5
3 37 58 42
3 37 36 58
3 58 36 39
3 40 37 42
3 58 61 42
3 61 44 42
3 6 4 8
3 8 4 5
3 3 4 6
3 14 17 21
3 9 10 11
3 8 7 6
3 11 10 8
3 6 10 9
3 7 10 6
3 10 7 8
3 14 21 11
3 21 13 11
3 21 20 16
3 11 13 9
3 19 15 16
3 19 20 21
3 21 16 13
3 12 16 15
3 16 20 19
3 9 13 12
3 12 13 16
3 33 31 36
3 31 1 36
3 31 33 1
3 1 33 36
3 61 39 65
3 58 39 61
3 56 39 36
3 65 64 63
3 64 62 63
3 60 63 64
3 57 55 39
3 57 63 60
3 60 64 65
3 64 63 62
3 63 57 59
3 57 39 59
3 59 39 56
3 39 55 57
3 39 57 65
3 65 57 60
3 68 24 69
3 24 25 69
3 59 43 63
3 63 43 46
3 23 67 18
3 67 62 18
3 22 21 18
3 70 50 26
3 22 66 26
3 66 70 26
